<?xml version="1.0" encoding="utf-8"?>
<!-- Generator: Adobe Illustrator 17.1.0, SVG Export Plug-In . SVG Version: 6.00 Build 0)  -->
<!DOCTYPE svg PUBLIC "-//W3C//DTD SVG 1.1//EN" "http://www.w3.org/Graphics/SVG/1.1/DTD/svg11.dtd">
<svg version="1.1" xmlns="http://www.w3.org/2000/svg" xmlns:xlink="http://www.w3.org/1999/xlink" x="0px" y="0px"
	 viewBox="0 0 121.5 123.25" enable-background="new 0 0 121.5 123.25" xml:space="preserve">
<g id="countries" display="none">
	<g display="inline">
		<path fill="#274452" stroke="#FAFEFF" stroke-width="0.1" stroke-miterlimit="10" d="M80.54,43.423
			c0.027-0.193,0.059-0.385,0.079-0.579c0.06-0.574-0.048-1.134-0.315-1.628c-0.141-0.261-0.287-0.433-0.347-0.786
			c-0.168-0.992-0.566-1.95-1.587-2.439c-0.038-0.04-0.096-0.073-0.111-0.12c-0.447-1.39-0.584-2.801-0.282-4.241
			c0.042-0.199,0.125-0.397,0.02-0.664c-0.553,0.514-0.971,0.36-1.314-0.194c-0.209-0.337-0.669-0.181-0.918-0.462
			c-0.077-0.088-0.114,0.035-0.15,0.097c-0.342,0.583-0.503,1.228-0.628,1.882c-0.035,0.182,0.056,0.473,0.229,0.356
			c0.467-0.315,1.087-0.187,1.506-0.582l0-0.001c0.261-0.163,0.55,0.011,0.488,0.363c-0.083,0.473-0.083,0.967-0.318,1.418
			c-0.156,0.299-0.243,0.29-0.516,0.118c-0.264-0.166-0.407-0.572-0.73-0.535c-0.424,0.049-0.069,0.582-0.359,0.766
			c-0.378,0.257-0.465,0.212-0.687-0.356c-0.006-0.43-0.198-0.829-0.149-1.279c0.035-0.324-0.151-0.614-0.549-0.363
			c-0.26,0.164-0.347-0.032-0.487-0.15c-0.432,0.111-0.65,0.789-0.388,1.194c0.035,0.055,0.199,0.026,0.124,0.092
			c-0.312,0.273-0.123,0.696-0.329,0.992c-0.082,0.237-0.243,0.396-0.476,0.484c-0.166,0.141-0.331,0.097-0.495-0.004l-0.213,0.031
			c-0.75,0.565-0.899,1.42-0.374,2.17c0.057,0.081,0.144,0.127,0.248,0.13c0.301,0.296,0.055,0.642,0.087,0.963
			c-0.073,0.242-0.092,0.5-0.216,0.727c-0.104,0.235-0.234,0.452-0.43,0.626c-0.255,0.227-0.486,0.005-0.731-0.096
			c0.038,0.689,0.191,0.934,0.509,0.87c0.791-0.157,0.906-0.051,1.058,0.751c0.138,0.727-0.054,1.408-0.189,2.101
			c-0.088,0.154-0.075,0.357-0.236,0.475c-0.205,0.115-0.19,0.333-0.219,0.516c-0.101,0.641-0.281,1.261-0.483,1.873
			c-0.127,0.384-0.253,0.786-0.676,0.971c-0.177,0.345-0.458,0.638-0.525,1.039c-0.088,0.152-0.128,0.325-0.215,0.477
			c-0.047,0.117-0.094,0.234-0.141,0.351c-0.274,0.439-0.041,0.958-0.226,1.411c-0.347,0.624-0.842,1.03-1.531,1.289
			c-0.68,0.255-1.291,0.684-1.499,1.467c-0.379,1.425-1.514,2.205-2.594,3.025c-0.13,0.099-0.341,0.155-0.532,0.068
			c-0.188,0.078-0.3,0.275-0.507,0.324c-0.778,0.376-1.598,0.633-2.44,0.811c-0.279,0.059-0.416,0.222-0.442,0.471
			c-0.052,0.509-0.353,0.607-0.81,0.626c-0.45,0.019-0.737-0.202-1.032-0.465c-0.116-0.178,0.04-0.28,0.106-0.416
			c0.219-0.448,0.09-0.847-0.322-1.041c-0.04-0.011-0.068-0.032-0.087-0.061c0.035-0.011,0.07-0.015,0.103-0.012
			c0.267,0.027,0.355-0.183,0.467-0.363c0.111-0.127,0.221-0.254,0.332-0.381c0.024-0.313,0.204-0.446,0.505-0.441
			c0.238-0.046,0.204-0.208,0.136-0.359c-0.088-0.196,0.016-0.321,0.162-0.379c0.236-0.093,0.401-0.206,0.25-0.47
			c-0.133-0.233-0.332-0.074-0.519-0.064c-0.611,0.032-0.994,0.596-1.6,0.64c-0.732,0.053-1.175,0.834-0.989,1.568
			c0.167,0.658,0.537,1.337,0.021,2.011c-0.17,0.397-0.357,0.783-0.685,1.08c-0.333,0.191-0.528,0.496-0.685,0.833
			c-0.36,0.438-0.735,0.86-1.326,0.979c-0.171,0.034-0.238,0.122-0.245,0.276c-0.011,0.254-0.222,0.414-0.301,0.617
			c-0.222,0.571-1.14,1.002-0.416,1.791c-0.022,0.142-0.073,0.273-0.144,0.396c-0.13,0.401-0.13,0.401-0.686,0.789
			c0.045,0.234,0.024,0.406-0.288,0.323c-0.114-0.031-0.221-0.058-0.292,0.091c-0.075,0.16-0.817,0.233-0.877,0.081
			c-0.196-0.497-0.475-0.422-0.803-0.152c-0.23,0.264-0.39,0.072-0.474-0.115c-0.088-0.197-0.008-0.408,0.142-0.576
			c0.287-0.173,0.143-0.372,0.009-0.536c-0.253-0.31-0.558-0.18-0.854-0.062c-0.096-0.001-0.17,0.035-0.21,0.127
			c-0.316,0.295-0.661,0.48-1.108,0.309c-0.303-0.116-0.622-0.024-0.931-0.063c-0.225-0.12-0.45-0.248-0.675,0
			c-1.278,0.722-2.644,0.856-4.065,0.604c-0.391-0.069-0.777-0.178-1.083,0.194c-0.297,0.147-0.603,0.009-0.905,0.032
			c-0.069-0.027-0.197-0.045-0.164-0.12c0.031-0.071,0.171,0.049,0.252-0.029c0.25-0.534-0.19-0.497-0.483-0.582
			c-0.12-0.153-0.295-0.154-0.42-0.065c-0.63,0.447-1.453,0.34-2.076,0.785c0.176,0.376,0.081,0.755-0.339,0.881
			c-0.798,0.24-1.223,1.046-2.02,1.267c-0.453,0.446-0.994,0.796-1.392,1.3c-0.341,0.205-0.662,0.521-1.029,0.589
			c-0.532,0.099-0.866,0.408-1.225,0.741c-0.381,0.354-0.619,1.151-1.366,0.486c-0.439,0.232-0.98-0.014-1.405,0.3
			c-0.203,0.15-0.36,0.302-0.217,0.575c0.144,0.273,0.164,0.521-0.122,0.725c-0.113,0.08-0.125,0.195-0.055,0.312
			c0.187,0.312,0.079,0.643,0.107,0.99c-0.417-0.038-0.761-0.291-1.165-0.153c-0.565,0.193-1.227,0.25-1.275,1.067
			c-0.004,0.064-0.147,0.119-0.225,0.179c-0.067,0.046-0.079,0.124-0.109,0.191c-0.106,0.246-0.274,0.239-0.48,0.125
			c-0.151-0.084-0.301-0.2-0.494-0.115c-0.085,0.075-0.17,0.149-0.255,0.224c-0.075,0.212-0.013,0.501-0.329,0.575
			c-0.147,0.09-0.223,0.38-0.476,0.167c-0.048-0.19-0.096-0.38-0.144-0.57c-0.487-0.05-0.717,0.389-1.082,0.571
			c0.052,0.137,0.2,0.227,0.197,0.397c-0.348-0.021-0.695-0.232-1.038,0.004c-0.05,0.117-0.022,0.223,0.044,0.323
			c-0.042,0.069-0.084,0.138-0.126,0.207c-0.161,0.376,0.279,0.386,0.371,0.609l-0.01,0.011c0.123,0.11,0.24,0.339,0.134,0.393
			c-0.441,0.228-0.289,0.696-0.477,1.017c0.235,0.318,0.471,0.636,0.706,0.954c0.047,0.307-0.197,0.597-0.052,0.909
			c0.083,0.094,0.171,0.141,0.276,0.031c0.317-0.16,0.507-0.448,0.718-0.715c0.286,0.078,0.517,0.303,0.834,0.31
			c-0.073,0.248-0.365,0.455-0.147,0.763c0.581,0.252,0.911-0.205,1.31-0.464c0.339-0.817,0.09-1.297-0.651-1.249
			c-0.156-0.001-0.14,0.343-0.376,0.186c0.041-0.166,0.189-0.24,0.308-0.34c0.289-0.244,0.185-0.53,0.091-0.817
			c-0.065-0.197-0.017-0.361,0.186-0.434c0.205-0.073,0.336,0.061,0.441,0.212c0.082,0.118,0.07,0.265,0.105,0.398
			c0.084,0.323,0.137,0.655,0.346,0.937c0.523,0.707,0.512,0.812-0.096,1.444c-0.033,0.168,0.066,0.252,0.201,0.312
			c0.226,0.371,0.077,0.696-0.135,1.004c-0.264,0.384-0.541,0.758-0.775,1.161c-0.063,0.205-0.119,0.436-0.375,0.461
			c-0.33,0.031-0.413,0.307-0.572,0.511c-0.11,0.306,0.178,0.636-0.091,0.945c-0.313,0.36-0.164,0.645,0.217,0.849
			c0.116,0.139,0.122,0.336,0.246,0.471c0.037,0.348,0.062,0.693-0.223,0.967c-0.045,0.018-0.06,0.049-0.045,0.095
			c-0.115,0.244-0.275,0.295-0.519,0.158c-0.181-0.101-0.334-0.071-0.216,0.182c0.222,0.475,0.346,1.068,1.093,0.974
			c0.125-0.016,0.262,0.064,0.393,0.1c0.201,0.223,0.293,0.596,0.712,0.52c0.508-0.261,0.575-0.407,0.278-0.832
			c-0.331-0.475-0.431-0.948-0.156-1.475c0.046-0.216,0.178-0.384,0.309-0.553c0.139-0.21,0.329-0.262,0.534-0.126
			c0.231,0.153,0.069,0.33-0.004,0.496c-0.063,0.156-0.228,0.21-0.328,0.329c-0.207,0.273-0.102,0.515,0.072,0.753
			c0.22,0.302,0.243,0.615,0.039,0.936c-0.107,0.169-0.164,0.357-0.202,0.552c-0.023,0.181-0.214,0.255-0.263,0.419
			c-0.006,0.146-0.046,0.315,0.196,0.301c0.191-0.085,0.377-0.226,0.575-0.243c0.506-0.046,0.833-0.316,1.08-0.725
			c0.458-0.149,0.455-0.463,0.296-0.833c0.256-0.492,0.275-0.492,0.919-0.03c0.448,0.146,0.655-0.041,0.722-0.486
			c0.022-0.148-0.052-0.369,0.182-0.442c0.352-0.521,0.551-1.073,0.408-1.717c-0.027-0.121,0.039-0.272,0.087-0.4
			c0.382-1.017,0.665-2.094,1.309-2.971c0.206-0.28-0.082-0.714,0.38-0.835c0.432-0.113,0.743-0.354,0.769-0.858
			c0.011-0.215,0.233-0.164,0.372-0.21c0.425-0.632,0.427-0.793,0.016-1.05c-0.17-0.276-0.112-0.445,0.226-0.482
			c0.064-0.24-0.284-0.146-0.275-0.34c-0.049-0.222-0.3-0.146-0.442-0.304c0.157-0.158,0.331-0.321,0.294-0.598
			c-0.515,0.08-0.96-0.373-1.511-0.179c-0.125,0.044-0.272-0.127-0.271-0.317c0.001-0.244,0.153-0.172,0.313-0.192
			c0.592-0.075,0.996-0.503,0.995-1.056c-0.001-0.226-0.108-0.451-0.167-0.677c-0.028-0.127-0.104-0.205-0.234-0.228
			c-0.312-0.062-0.599-0.072-0.865,0.173c-0.597,0.551-1.867,0.14-2.166-0.642c-0.186-0.485,0.031-0.906,0.044-1.357
			c0.005-0.191-0.02-0.369,0.162-0.449c0.251-0.109,0.342,0.126,0.437,0.282c0.293,0.48,0.634,0.602,1.076,0.187
			c0.102-0.106,0.181-0.293,0.367-0.105l0.703-0.019c0.61-0.332,0.835-0.314,1.287,0.133c0.112,0.111,0.286,0.126,0.366,0.271
			c0.168,0.356,0.584,0.346,0.842,0.57c0.19,0.049,0.207-0.121,0.277-0.223c0.231-0.191,0.327-0.46,0.418-0.731
			c0.186-0.523,0.033-1.173,0.581-1.562c0.176-0.066,0.362-0.039,0.543-0.058c0.193-0.017,0.285,0.089,0.333,0.262
			c0.064,0.232,0.161,0.446,0.365,0.593c0.108,0.084,0.209,0.178,0.346,0.213c0.299-0.014,0.375-0.373,0.65-0.424
			c0.289-0.081,0.589-0.121,0.872-0.225c0.178-0.068,0.371-0.094,0.53-0.209c0.172-0.171,0.367-0.188,0.579-0.087
			c0.386-0.141,0.386-0.141,0.601,0.143c0.165,0.055,0.3-0.005,0.439-0.094c0.579-0.371,1.166-0.534,1.871-0.29
			c0.475,0.164,1.009,0.136,1.459-0.196c0.157-0.223,0.148-0.558,0.456-0.678c0.463-0.738,1.23-0.769,1.973-0.824
			c0.38-0.028,0.802-0.122,1.109,0.208c0.586,0.631,1.322,0.769,2.132,0.703c0.243,0.117,0.396-0.338,0.657-0.105
			c0.233,0.227,0.173,0.471,0.037,0.719c-0.025,0.047-0.043,0.096-0.055,0.148c-0.074,0.458-0.494,0.784-0.785,0.852
			c-0.924,0.218-0.673,0.637-0.333,1.147c-0.089,0.102-0.321,0.028-0.313,0.252c0.084,0.33,0.248,0.659-0.15,0.933
			c-0.056,0.039-0.042,0.297,0.135,0.514c0.348,0.429,0.948,0.532,1.19,1.043c-0.251,0.271,0.081,0.466,0.091,0.703
			c0.409,0.472,1.011,0.52,1.549,0.707c0.251,0.228,0.452,0.209,0.588-0.121c0.338-0.124,0.518-0.345,0.698-0.685
			c0.329-0.623,0.539-1.363,1.254-1.731c0.151-0.078,0.348-0.248,0.323-0.462c-0.092-0.764,0.33-1.075,0.994-1.224
			c0.3-0.068,0.588-0.193,0.881-0.292c0.422-0.4,0.721,0.118,1.086,0.146c0.15-0.384,0.33-0.761,0.301-1.19
			c-0.026-0.073-0.08-0.122-0.14-0.166c-0.151-0.131-0.328-0.215-0.508-0.295c-0.159-0.076-0.298-0.182-0.444-0.279
			c-0.165-0.143-0.435-0.17-0.492-0.436c-0.235-0.655,0.361-1.031,0.521-1.554c0.09-0.294,0.28-0.461,0.579-0.515
			c0.048-0.021,0.104-0.082,0.134-0.065c0.07,0.037-0.001,0.11,0.013,0.167c-0.01,0.133-0.016,0.268,0.001,0.401
			c0.044,0.349,0.075,0.72,0.602,0.503c0.038-0.016,0.091,0.058,0.123,0.106c0.212,0.483,0.63,0.349,0.951,0.239
			c0.225-0.078,0.4-0.081,0.604-0.02c0.232,0.603-0.378,0.494-0.602,0.712c-0.156-0.006-0.277,0.132-0.455,0.078
			c-0.192-0.058-0.315,0.115-0.319,0.255c-0.008,0.275,0.229,0.145,0.354,0.138c0.193-0.011,0.403-0.036,0.57-0.123
			c1.187-0.619,2.434-0.036,3.642-0.191c0.104-0.013,0.219,0.084,0.334,0.109c0.278,0.061,0.515,0.263,0.854,0.255
			c-0.167-0.316-0.08-0.58,0.141-0.765c0.271-0.227,0.338-0.575,0.523-0.812c0.361-0.461,0.923-0.76,1.152-1.352
			c0.017-0.044,0.143-0.047,0.219-0.067c0.458-0.116,0.858-0.032,1.173,0.342c0.057,0.062,0.092,0.194,0.037,0.2
			c-0.774,0.08-0.449,0.712-0.562,1.115c-0.046,0.165,0.043,0.368-0.028,0.524c-0.139,0.307,0.053,0.499,0.219,0.669
			c0.212,0.216,0.382-0.079,0.579-0.113c0.366-0.263,0.531-0.674,0.752-1.04c0.124-0.206,0.449-0.41,0.291-0.648
			c-0.312-0.469-0.21-0.837-0.011-1.324c0.33-0.806,1.321-1.133,2.06-0.575c0.159,0.238,0.177,0.681,0.657,0.452
			c0.107-0.064,0.236-0.196,0.191-0.27c-0.294-0.484,0.086-0.778,0.28-1.129c0.066-0.119,0.086-0.26,0.112-0.395
			c0.137-0.706,0.351-0.826,1.066-0.596c0.127,0.073,0.141,0.151,0.016,0.237c-0.374,0.343-0.798,0.635-1.092,1.065
			c-0.163,0.239-0.25,0.457,0.069,0.637c0.236,0.316-0.283,0.526-0.117,0.833c-0.106,0.116-0.109,0.235-0.012,0.357
			c0.033,0.149-0.074,0.254-0.116,0.379c-0.055,0.165-0.112,0.367,0.029,0.495c0.172,0.156,0.398,0.093,0.609,0.044
			c0.316-0.072,0.17-0.467,0.417-0.583l-0.005,0.011c0.3-0.294,0.534-0.633,1.053-0.64c0.631-0.009,1.02-0.516,0.892-1.163
			c-0.135-0.683,0.096-1.179,0.563-1.623l0.002-0.003c0.167-0.304,0.436-0.495,0.756-0.582c0.272-0.074,0.731,0.015,0.812-0.132
			c0.158-0.287-0.297-0.478-0.373-0.772c-0.005-0.018-0.004-0.039-0.005-0.058c-0.013-0.29-0.194-0.491-0.369-0.696
			c-0.427-0.601-0.762-1.229-0.566-2.006c0.267-0.271-0.021-0.735,0.339-0.973c0.022-0.033,0.058-0.063,0.064-0.098
			c0.177-0.994,0.184-2.064,1.224-2.665c0.15-0.087,0.161-0.253,0.182-0.414c0.091-0.682,0.243-1.36,0.279-2.045
			c0.047-0.903,0.054-1.836-0.31-2.674c-0.429-0.986-0.366-1.851,0.307-2.68c0.196-0.051,0.046-0.497,0.409-0.357
			c0.282-0.297,0.553-0.621,1.038-0.454c0.485,0.071,0.699-0.185,0.582-0.701c-0.038-0.166-0.257-0.335,0.023-0.484
			c0.133-0.037,0.071-0.155,0.098-0.236c0.034-0.177,0.312-0.227,0.241-0.459c-0.181-0.173-0.318-0.287-0.028-0.55
			c0.183-0.166,0.541-0.397,0.333-0.797c-0.036-0.07-0.008-0.143,0.139-0.172c0.451-0.09,0.789-0.436,0.897-0.824
			c0.161-0.579,0.381-1.163,0.351-1.785C80.993,43.933,80.993,43.912,80.54,43.423z M21.935,81.234
			c-0.103-0.148-0.294-0.032-0.42,0.012c-0.113,0.04-0.161-0.139-0.049-0.178c0.018-0.006,0.036-0.012,0.054-0.018
			c-0.017-0.015-0.033-0.032-0.047-0.052c-0.05-0.07-0.083-0.143-0.108-0.216c-0.032-0.051-0.065-0.102-0.094-0.154
			c-0.023-0.017-0.04-0.039-0.054-0.062c-0.05-0.006-0.104-0.006-0.164,0.002c-0.101,0.014-0.164-0.108-0.071-0.169
			c0.011-0.021,0.018-0.044,0.019-0.068c0.01-0.058,0.089-0.086,0.136-0.055c0.002,0.001,0.004,0.001,0.005,0.002
			c-0.006-0.016-0.012-0.033-0.018-0.052c-0.013-0.044,0.005-0.078,0.035-0.097c0.019-0.051,0.054-0.095,0.096-0.126
			c-0.055-0.063-0.125-0.113-0.195-0.169c-0.099-0.078-0.126-0.186-0.035-0.284c0.08-0.086,0.207,0.039,0.133,0.127
			c0.007,0.006,0.015,0.013,0.021,0.018c0.041,0.032,0.085,0.061,0.125,0.093c0.05,0.04,0.093,0.086,0.129,0.136
			c0.117-0.041,0.255-0.003,0.284,0.153c0.007,0.037,0.011,0.074,0.015,0.111c0.034-0.023,0.076-0.037,0.128-0.037
			c0.253,0,0.294,0.327,0.124,0.435c-0.007,0.009-0.011,0.019-0.02,0.028c-0.037,0.037-0.075,0.065-0.115,0.087
			c0.009,0.02,0.019,0.039,0.028,0.059c0,0,0,0.001,0,0.001l0,0.001c0.008,0.019,0.017,0.037,0.024,0.056
			c0.002,0.006,0.003,0.012,0.004,0.018c0.018-0.003,0.036-0.008,0.053-0.014c0.049-0.018,0.099,0.02,0.114,0.065
			c0.037,0.116,0.052,0.207,0.031,0.327C22.089,81.298,21.976,81.293,21.935,81.234z M54.906,68.458
			c-0.261,0.356-0.373,0.934-0.928,0.854c0,0-0.399-0.031-0.47,0.12c-0.071,0.151-0.102-0.099-0.321-0.036
			c-0.219,0.062-0.312,0.688-0.312,0.688s-0.031,0.781-0.156,0.906s-0.247-0.227-0.247-0.227l-0.097-0.43
			c0,0-0.094-0.406,0.031-0.469c0.224-0.112,0.326-0.274,0.257-0.512c-0.069-0.238,0.618-0.769,0.618-0.769
			c-0.189-0.121-0.448-0.192-0.375-0.5c0,0,0.312-0.312,0.438-0.281s0.203-0.287,0.398-0.3c0.196-0.013,0.186,0.293,0.41,0.281
			c0.223-0.012,0.13,0.207,0.223,0.425S54.906,68.458,54.906,68.458z"/>
		<path fill="#274452" stroke="#FAFEFF" stroke-width="0.1" stroke-miterlimit="10" d="M78.755,9.139
			c0.367,0.005,0.651-0.093,0.751-0.506c0.053-0.219,0.189-0.293,0.374-0.083c0.833,0.946,1.809,1.802,2.462,2.859
			c0.535,0.866,1.089,1.675,1.83,2.35c0.734,0.669,1.53,1.266,2.363,1.812c0.431,0.19,0.971,0.194,1.18,0.756
			c0.053,0.142,0.31,0.205,0.414,0.097c0.312-0.323,0.621-0.149,0.912-0.028c0.275,0.115,0.59-0.067,0.837,0.148
			c-0.031,0.453,0.18,0.73,0.605,0.874c0.746,0.253,1.64,0.377,2.224-0.448c0.419-0.592,1.049-1.001,1.404-1.651
			c0.072-0.131,0.184-0.379,0.381-0.266c0.183,0.105,0.179,0.378,0.068,0.536c-0.377,0.536-0.442,1.202-0.798,1.753
			c-0.476,0.739-0.4,1.221,0.151,1.79c0.34,0.171,0.326,0.537,0.455,0.824c0.048,0.248,0.077,0.504,0.25,0.708
			c0.033,0.39,0.181,0.63,0.634,0.537c0.128-0.026,0.272-0.066,0.407,0.004c0.219,0.211-1.361,1.217-1.388,1.224
			c-0.318,0.101-0.724,0.572-0.724,0.572c-0.087,0.043-0.188,0.138-0.26,0.12c-0.462-0.116-0.964-0.401-1.13,0.373
			c-0.468-0.229-1.006,0.241-1.458-0.149c-0.325-0.281-0.641-0.229-0.949,0.032l0.01-0.004c-0.548,0.262-1.078,0.547-1.44,1.062
			l0.005-0.006c-0.715,0.604-1.282,1.331-1.72,2.153c-0.267,0.501-0.518,1-0.324,1.625c0.161,0.518-0.192,0.961-0.379,1.431
			c-0.335-0.183-0.495-0.576-0.874-0.686l0.005,0.004c-0.757-0.525-1.666-0.702-2.488-1.076l0.004,0.003
			c-0.542-0.419-1.019-0.93-1.679-1.181c-0.034,0.05-0.061,0.046-0.079-0.012c-0.211-0.111-0.422-0.223-0.634-0.334
			c-0.131-0.028-0.211-0.108-0.239-0.239c-0.711-0.508-1.285-0.511-2.038-0.011c-0.101,0.188-0.271,0.272-0.469,0.316
			c-0.467,0.31-0.976,0.575-1.244,1.107c-0.065,0.129-0.155,0.164-0.284,0.135c-0.112-0.096-0.105-0.275-0.245-0.351
			c-0.146-0.413-0.52-0.665-0.728-1.038c-0.19-0.342-0.527-0.135-0.8-0.168c-0.201-0.126-0.398-0.161-0.588,0.021
			c-0.367,0.532-0.731,1.065-0.707,1.755c0.089,0.216,0.307,0.254,0.483,0.348c0.067,0.015,0.134,0.029,0.201,0.044l-0.01-0.007
			c0.199,0.394,0.499,0.592,0.949,0.464c0.289-0.082,0.463,0.039,0.646,0.259c0.398,0.478,0.701,1.037,1.385,1.244
			c0.516,0.156,0.284,0.487,0.005,0.739c0,0-0.56,0.363-0.923,0.064c-0.133-0.11-0.392-0.274-0.629-0.084
			c-0.017,0.021-0.034,0.041-0.051,0.062c-0.191,0.071-0.342-0.311-0.55-0.049c-0.133,0.112-0.252,0.291-0.401,0.321
			c-0.374,0.074-0.413,0.31-0.38,0.607c0.036,0.326-0.084,0.527-0.419,0.588c-0.2,0.037-0.389,0.127-0.478,0.312
			c-0.122,0.255-0.28,0.232-0.52,0.184c-0.29-0.058-0.457-0.172-0.524-0.462c-0.154-0.666,0-1.279,0.284-1.876
			c0,0,0.303-1.451-0.376-1.823c-0.346-0.19-0.514-0.533-0.824-0.752c-0.207-0.147-0.204-0.504-0.012-0.756
			c0.262-0.345,0.279-0.724,0.176-1.119c-0.12-0.463,0.064-0.741,0.519-0.788c0.413-0.042,0.666-0.263,0.868-0.588
			c0.067-0.513,0.354-0.124,0.542-0.135c0.162-0.071,0.111-0.239,0.163-0.36c0.045-0.13,0.099-0.251,0.245-0.296
			c0.803-0.563,0.803-0.813-0.004-1.376l0.01,0.007c-0.28-0.548-0.41-0.908,0.337-1.218c0.223-0.093,0.321-0.004,0.459,0.095
			c0.326,0.234,0.652,0.466,0.976,0.703c0.127,0.093,0.343-0.019,0.343-0.019c0.332-0.032,0.663-0.189,0.918,0.241
			c0.123,0.208,0.43,0.219,0.686,0.036c0.715-0.511,1.195-1.288,0.511-2.071c0.077-0.24,0.154-0.461,0.027-0.728
			c-0.254-0.532-0.106-0.94,0.464-1.161c0.239-0.192,0.578-0.273,0.685-0.613l0.022,0.012c0.195-0.711,0.172-1.424,0.018-2.138
			c0.868-1.677,0.545-3.297-0.241-4.89c-0.146-0.297-0.203-0.591-0.102-0.91c0.172-0.189,0.224-0.426,0.262-0.667
			C78.576,9.205,78.593,9.101,78.755,9.139z"/>
		<path fill="#274452" stroke="#FAFEFF" stroke-width="0.1" stroke-miterlimit="10" d="M34.051,80.815
			c0.172,0.002,0.363,0.027,0.315-0.249c-0.113-0.267-0.025-0.425,0.247-0.523c0.241-0.087,0.163-0.208-0.002-0.311l0.007-0.007
			c-0.04-0.068,0.042-0.022-0.02-0.05c-0.578-0.263-0.388-0.795-0.446-1.241c0.131-0.496,0.57-0.686,0.937-0.948
			c0.443-0.221,0.832-0.478,0.719-1.071c-0.126-0.454,0.409-0.625,0.433-1.015c0.199-0.222,0.479-0.343,0.686-0.56
			c0.249-0.26,0.45-0.18,0.578,0.138c0.042,0.09,0.13,0.153,0.168,0.24c0.214,0.493,0.509,0.713,1.043,0.396
			c0.184-0.109,0.422-0.066,0.638-0.034c0.737,0.107,0.959-0.058,1.046-0.782c0.012-0.098,0.016-0.196,0.048-0.29
			c0.075-0.212,0.294-0.233,0.448-0.341c0.111-0.077,0.224-0.151,0.34-0.219c0.265-0.134,0.481-0.35,0.762-0.457
			c0.384,0.149,0.778,0.039,1.168,0.041c0.112,0.022-0.028,0.408,0.258,0.178c0.399,0.128,0.514,0.596,0.914,0.747
			c0.156,0.059,0.28,0.18,0.471,0.154c0.243-0.033,0.564-0.152,0.685,0.125c0.122,0.279,0.075,0.611-0.204,0.841
			c-0.177,0.277,0.016,0.425,0.193,0.594c0.163,0.155,0.316,0.257,0.117,0.575c-0.434,0.692-0.41,0.74-1.283,1.308l0.009-0.004
			c-0.597,0.373-0.953,0.93-1.187,1.575c-0.08,0.218-0.131,0.447-0.217,0.746c-0.691-0.631-0.948-1.67-2.013-1.729
			c-0.203-0.118-0.405-0.12-0.607,0.002c-0.607,0.164-1.082,0.624-1.704,0.755c-0.175,0.037-0.214,0.187-0.191,0.318
			c0.084,0.499-0.206,0.778-0.534,1.083c-0.275,0.255-0.574,0.54-0.529,0.988c0.023,0.231-0.186,0.273-0.317,0.379
			c-0.258,0.209-0.326,0.431-0.051,0.68c0.162-0.007,0.272,0.069,0.341,0.212c-0.221,0.311-0.322,0.324-0.528-0.01
			c-0.173-0.28-0.321-0.44-0.69-0.292c-0.306,0.123-0.595-0.231-0.949-0.128c-0.084,0.025,0.02-0.187,0.02-0.29
			c0.046-0.334,0.033-0.357-0.266-0.473c-0.253-0.322-0.619-0.267-0.962-0.288c-0.051-0.03-0.08-0.074-0.093-0.131
			C33.893,81.227,33.895,80.997,34.051,80.815z"/>
		<path fill="#274452" stroke="#FAFEFF" stroke-width="0.1" stroke-miterlimit="10" d="M9.351,115.789
			c0.034-0.017,0.067-0.041,0.104-0.05c0.19-0.047,0.627,0.136,0.494,0.39c-0.259,0.499-0.757,0.718-1.204,0.966
			c-0.369,0.204-0.599,0.384-0.368,0.818c-0.015,0.054-0.049,0.088-0.103,0.103c-0.3,0.139-0.555,0.381-0.909,0.394
			c-0.376,0.026-0.19-0.369-0.368-0.491c-0.148-0.57,0.527-0.377,0.663-0.705c0.038-0.091,0.247-0.101,0.361-0.173
			c0.141-0.089,0.281-0.205,0.006-0.314c-0.193-0.076-0.358-0.149-0.241-0.421c0.126-0.292,0.419-0.267,0.537-0.156
			C8.935,116.72,9.351,115.789,9.351,115.789z"/>
		<path fill="#274452" stroke="#FAFEFF" stroke-width="0.1" stroke-miterlimit="10" d="M22.044,83.167
			c0.066-0.435,0.417-0.219,0.643-0.267c0.176-0.038,0.263,0.069,0.272,0.269c0.017,0.365,0.238,0.176,0.403,0.123
			c0.24-0.171,0.505-0.051,0.759-0.065c0.299,0.366-0.054,0.548-0.221,0.782c-0.7-0.087-1.081,0.418-1.516,0.823
			c-0.041,0.038-0.085,0.07-0.133,0.099c-0.271,0.141-0.486,0.132-0.567-0.219C21.638,84.158,21.862,83.668,22.044,83.167z"/>
		<path fill="#274452" stroke="#FAFEFF" stroke-width="0.1" stroke-miterlimit="10" d="M15.175,108.411
			c0.01-0.156-0.269-0.298-0.023-0.467c0.158-0.082,0.222,0.101,0.343,0.123c-0.101-0.093-0.224-0.152-0.337-0.224
			c-0.095-0.069-0.327-0.152-0.105-0.265c0.498-0.254,0.983-0.549,1.537-0.681c0.112-0.102,0.266-0.125,0.389-0.207
			c0.259-0.099,0.533-0.255,0.659,0.168c0,0.1-0.037,0.184-0.107,0.254c-0.636,0.384-1.142,0.9-1.543,1.522
			c-0.086,0.133-0.215,0.152-0.355,0.148c-0.062,0.076-0.143,0.081-0.23,0.059C15.203,108.762,15.249,108.555,15.175,108.411z"/>
		<path fill="#274452" stroke="#FAFEFF" stroke-width="0.1" stroke-miterlimit="10" d="M71.638,36.833
			c-0.043,0.084-0.068,0.187-0.131,0.251c-0.68,0.687-0.229,1.367,0.006,2.049c0.008,0.258-0.081,0.414-0.376,0.382
			c-0.281-0.03-0.419-0.236-0.33-0.445c0.212-0.498-0.103-0.815-0.328-1.156c-0.227-0.345-0.19-0.609,0.117-0.871
			c0.191-0.163,0.365-0.349,0.536-0.535c0.165-0.179,0.39-0.272,0.58-0.162C72,36.513,71.588,36.654,71.638,36.833z"/>
		<path fill="#274452" stroke="#FAFEFF" stroke-width="0.1" stroke-miterlimit="10" d="M33.911,69.193
			c-0.338,0.568-0.825,0.977-1.392,1.3c-0.473-0.06-0.896,0.443-1.444,0.119c0.502-0.492,1.157-0.673,1.688-1.049
			c0.189-0.133,0.362-0.203,0.479-0.435c0.12-0.236,0.357-0.413,0.547-0.611c0.128-0.134,0.311-0.267,0.459-0.126
			c0.137,0.131-0.044,0.279-0.141,0.391C34.003,68.904,33.893,69.015,33.911,69.193z"/>
		<path fill="#274452" stroke="#FAFEFF" stroke-width="0.1" stroke-miterlimit="10" d="M45.743,74.747
			c-0.148-0.268-0.28-0.512,0.145-0.684c0.172-0.07,0.262-0.28,0.262-0.492c0.319-0.286,0.642-0.569,0.955-0.862
			c0.096-0.09,0.188-0.164,0.303-0.07c0.123,0.1,0.049,0.21-0.025,0.307c-0.108,0.14-0.209,0.286-0.325,0.419
			c-0.223,0.257-0.366,0.522-0.139,0.848c0.2,0.288,0.016,0.417-0.213,0.53l0.004-0.002C46.388,74.776,46.069,75.279,45.743,74.747z
			"/>
		<path fill="#274452" stroke="#FAFEFF" stroke-width="0.1" stroke-miterlimit="10" d="M38.529,62.89
			c0.109-0.246,0.227-0.458,0.145-0.774c-0.114-0.441,0.179-0.7,0.605-0.765c0.231-0.035,0.472-0.014,0.707-0.005
			c0.147,0.006,0.381-0.024,0.344,0.196c-0.028,0.17-0.211,0.226-0.424,0.173c-0.53-0.132-0.959,0.258-0.901,0.788
			c0.049,0.446,0.4,0.668,0.829,0.512c0.145-0.053,0.273-0.152,0.419-0.203c0.13-0.046,0.218,0.056,0.294,0.148
			c0.086,0.104,0.033,0.225-0.06,0.231c-0.319,0.022-0.511,0.283-0.778,0.376c-0.247,0.085-0.534,0.063-0.581-0.298
			c-0.032-0.247-0.201-0.316-0.398-0.368C38.66,62.951,38.593,62.944,38.529,62.89z"/>
		<path fill="#274452" stroke="#FAFEFF" stroke-width="0.1" stroke-miterlimit="10" d="M26.092,93.393
			c0.26-0.012,0.353,0.138,0.338,0.369c-0.03,0.457-0.206,0.887-0.456,1.24c-0.181,0.256-0.315,0.478-0.29,0.785
			c0.03,0.36-0.257,0.37-0.472,0.382c-0.277,0.015-0.183-0.238-0.199-0.393c-0.01-0.095-0.023-0.238,0.031-0.285
			c0.638-0.561,0.499-1.507,1.054-2.103L26.092,93.393z"/>
		<path fill="#274452" stroke="#FAFEFF" stroke-width="0.1" stroke-miterlimit="10" d="M23.297,96.733
			c-0.531,0-0.67-0.33-0.701-0.736c-0.034-0.437,0.373-0.51,0.633-0.663c0.168-0.099,0.874,0.497,0.847,0.689
			C24.011,96.485,23.686,96.672,23.297,96.733z"/>
		<path fill="#274452" stroke="#FAFEFF" stroke-width="0.1" stroke-miterlimit="10" d="M52.403,65.614
			c0.123,0.113,0.28,0.223,0.032,0.368c-0.119,0.04-0.2,0.112-0.205,0.247c-0.008,0.211,0.017,0.49-0.273,0.482
			c-0.242-0.007-0.561-0.021-0.616-0.385c-0.163-0.016-0.296-0.215-0.204-0.246c0.543-0.185,0.139-0.83,0.54-1.039
			c0.14-0.073,0.224,0.096,0.317,0.197C52.118,65.373,52.161,65.604,52.403,65.614z"/>
		<path fill="#274452" stroke="#FAFEFF" stroke-width="0.1" stroke-miterlimit="10" d="M34.962,81.762
			c0.12,0.129,0.295,0.036,0.476,0.12c-0.092,0.157-0.18,0.306-0.268,0.456c-0.325,0.285-0.645,0.25-0.994,0.023
			c-0.225-0.146-0.409-0.346-0.684-0.435c-0.22-0.072-0.236-0.313-0.121-0.496c0.173-0.274,0.274-0.028,0.388,0.081
			c0.046-0.073,0.086-0.07,0.121,0.009l0.026-0.016C34.233,81.693,34.626,81.611,34.962,81.762z"/>
		<path fill="#274452" stroke="#FAFEFF" stroke-width="0.1" stroke-miterlimit="10" d="M78.738,50.788
			c0.264-0.199,0.567-0.209,0.67,0.109c0.126,0.392,0.402,0.879-0.181,1.182c-0.177,0.092-0.316,0.342-0.567,0.191
			c-0.264-0.16-0.094-0.378-0.055-0.576c-0.018-0.177,0.184-0.288,0.141-0.473C78.732,51.077,78.642,50.934,78.738,50.788z"/>
		<path fill="#274452" stroke="#FAFEFF" stroke-width="0.1" stroke-miterlimit="10" d="M19.416,71.648
			c0.109-0.42,0.475-0.759,0.376-1.251c-0.029-0.144,0.102-0.264,0.263-0.245c0.179,0.021,0.255,0.171,0.286,0.331
			c0.093,0.493,0.028,0.965-0.206,1.412C19.72,71.951,19.616,71.915,19.416,71.648z"/>
		<path fill="#274452" stroke="#FAFEFF" stroke-width="0.1" stroke-miterlimit="10" d="M15.63,108.903
			c0.242,0.037,0.408-0.088,0.562-0.252c0.075-0.08,0.159-0.208,0.29-0.112c0.125,0.092,0.144,0.262,0.073,0.374
			c-0.112,0.179-0.247,0.416-0.421,0.468c-0.411,0.125-0.849,0.168-1.279,0.218c-0.147,0.017-0.246-0.107-0.272-0.26
			c-0.02-0.12-0.011-0.24,0.087-0.325c0.166-0.144,0.218,0.04,0.324,0.108c0.292,0.188,0.591,0.328,0.638-0.221L15.63,108.903z"/>
		<path fill="#274452" stroke="#FAFEFF" stroke-width="0.1" stroke-miterlimit="10" d="M35.562,74.162
			c-0.316,0.219-0.092,0.527-0.131,0.791c-0.804-0.133-0.829-0.164-0.923-1.135c0.083-0.144,0.232-0.199,0.368-0.271
			c0.034-0.016,0.071-0.028,0.108-0.038c0.028-0.007,0.011-0.009-0.049-0.012c-0.104-0.005-0.177-0.063-0.233-0.146
			c-0.02-0.049-0.014-0.095,0.016-0.138c0.288-0.049,0.482,0.008,0.517,0.358C35.258,73.8,35.38,74.006,35.562,74.162z"/>
		<path fill="#274452" stroke="#FAFEFF" stroke-width="0.1" stroke-miterlimit="10" d="M55.375,61.118
			c-0.153,0.339-0.408,0.595-0.685,0.833c-0.387-0.207-0.529-0.455-0.138-0.799c0.071-0.063,0.143-0.139,0.182-0.223
			c0.085-0.187,0.11-0.491,0.367-0.441C55.405,60.547,55.374,60.865,55.375,61.118z"/>
		<path fill="#274452" stroke="#FAFEFF" stroke-width="0.1" stroke-miterlimit="10" d="M22.413,85.644
			c-0.061,0.184,0.092,0.499-0.23,0.518c-0.236,0.014-0.388-0.174-0.379-0.436c0.012-0.337-0.248-0.279-0.449-0.326
			c-0.245-0.058-0.307-0.255-0.233-0.46c0.078-0.216,0.236-0.323,0.446-0.111c0.327,0.188,0.815,0.194,0.835,0.733
			C22.407,85.59,22.41,85.617,22.413,85.644z"/>
		<path fill="#274452" stroke="#FAFEFF" stroke-width="0.1" stroke-miterlimit="10" d="M70.329,82.073
			c-0.032,0.342-0.254,0.418-0.543,0.371c-0.285-0.047-0.406-0.294-0.386-0.518c0.021-0.247,0.03-0.582,0.39-0.645
			c0.29-0.05,0.509,0.036,0.54,0.376c0.02,0.041,0.02,0.082,0.002,0.123c-0.026,0.058-0.023,0.117,0.005,0.175
			C70.354,81.996,70.35,82.035,70.329,82.073z"/>
		<path fill="#274452" stroke="#FAFEFF" stroke-width="0.1" stroke-miterlimit="10" d="M39.59,62.914
			c-0.274-0.045-0.422-0.274-0.406-0.571c0.015-0.277,0.196-0.513,0.49-0.495c0.304,0.019,0.505,0.263,0.511,0.561
			C40.193,62.729,39.978,62.903,39.59,62.914z"/>
		<path fill="#274452" stroke="#FAFEFF" stroke-width="0.1" stroke-miterlimit="10" d="M19.79,72.376
			c-0.139,0.278-0.265,0.564-0.422,0.832c-0.16,0.273-0.366,0.203-0.493-0.018c-0.182-0.317,0.286-1.117,0.671-1.187
			C19.724,72.064,19.849,72.16,19.79,72.376z"/>
		<path fill="#274452" stroke="#FAFEFF" stroke-width="0.1" stroke-miterlimit="10" d="M34.26,78.42
			c-0.003,0.173-0.008,0.347-0.008,0.52c0.001,0.206-0.111,0.451,0.288,0.444c0.275-0.005,0.108,0.211,0.078,0.341
			c-0.419-0.197-0.718-0.442-0.534-0.987c0.093-0.277-0.154-0.227-0.285-0.175c-0.269,0.107-0.553,0.19-0.778,0.393
			c-0.127,0.116-0.273,0.073-0.359-0.052c-0.134-0.195,0.064-0.201,0.172-0.273c0.331-0.219,0.714-0.303,1.079-0.432
			C34.039,78.256,34.192,78.271,34.26,78.42z"/>
		<path fill="#274452" stroke="#FAFEFF" stroke-width="0.1" stroke-miterlimit="10" d="M52.961,58.861
			c-0.236,0.415-0.516,0.597-0.898,0.385c-0.307-0.171-0.306-0.47-0.177-0.769c0.046-0.106,0.081-0.246,0.211-0.257
			c0.137-0.011,0.204,0.126,0.219,0.234C52.366,58.813,52.56,58.962,52.961,58.861z"/>
		<path fill="#274452" stroke="#FAFEFF" stroke-width="0.1" stroke-miterlimit="10" d="M27.706,71.24
			c0.122-0.016,0.207,0.049,0.239,0.14c0.082,0.231,0.565,0.113,0.439,0.511c-0.127,0.401-0.414,0.131-0.633,0.146
			c-0.227,0.015-0.433,0.503-0.622,0.159c-0.191-0.347,0.278-0.358,0.481-0.487C27.812,71.581,27.57,71.37,27.706,71.24z"/>
		<path fill="#274452" stroke="#FAFEFF" stroke-width="0.1" stroke-miterlimit="10" d="M29.449,72.198
			c-0.134-0.022-0.269-0.042-0.403-0.069c-0.056-0.011-0.121-0.023-0.16-0.058c-0.103-0.093-0.109-0.28-0.026-0.308
			c0.335-0.114,0.684-0.195,1.034-0.251c0.093-0.015,0.243,0.116,0.138,0.248C29.878,71.955,29.834,72.316,29.449,72.198z"/>
		<path fill="#274452" stroke="#FAFEFF" stroke-width="0.1" stroke-miterlimit="10" d="M66.165,70.476
			c0.248,0.041,0.262,0.266,0.08,0.28c-0.542,0.043-0.419,0.414-0.483,0.735c-0.043,0.215-0.058,0.425-0.067,0.64
			c-0.034,0.765,0.039,0.841,0.715,0.74c-0.168,0.143-0.305,0.465-0.564,0.275c-0.219-0.161-0.448-0.416-0.334-0.754
			c0.079-0.234,0.06-0.468,0.062-0.702C65.58,71.19,65.542,70.675,66.165,70.476z"/>
		<path fill="#274452" stroke="#FAFEFF" stroke-width="0.1" stroke-miterlimit="10" d="M45.888,66.226c-0.225,0-0.45,0-0.675,0
			c-0.191-0.024-0.416-0.016-0.385-0.307c0.026-0.244,0.205-0.289,0.417-0.308C45.884,65.554,45.989,65.649,45.888,66.226z"/>
		<path fill="#274452" stroke="#FAFEFF" stroke-width="0.1" stroke-miterlimit="10" d="M23.688,85.036
			c-0.027,0.362-0.148,0.638-0.577,0.625c-0.254-0.007-0.272,0.316-0.497,0.346c-0.017-0.149,0.025-0.329-0.2-0.363l0.008,0.001
			c-0.238-0.242-0.272-0.518-0.137-0.822l-0.011,0.01c0.539-0.353,0.546,0.258,0.792,0.434C23.351,85.4,23.434,84.987,23.688,85.036
			z"/>
		<path fill="#274452" stroke="#FAFEFF" stroke-width="0.1" stroke-miterlimit="10" d="M35.635,76.806
			c-0.12,0.224-0.294,0.387-0.565,0.455c-0.234,0.058-0.443,0.305-0.703,0.072c-0.065-0.058-0.093-0.183-0.023-0.198
			c0.398-0.081,0.627-0.523,1.073-0.489C35.518,76.654,35.615,76.662,35.635,76.806z"/>
		<path fill="#274452" stroke="#FAFEFF" stroke-width="0.1" stroke-miterlimit="10" d="M96.874,20.563
			c-0.084,0.145-0.191,0.268-0.344,0.344c-0.576-0.012-0.655,0.527-0.936,0.843c-0.075-0.167,0.215-0.358-0.035-0.513
			c-0.043-0.081-0.053-0.157,0.036-0.216c0.12-0.143,0.24-0.286,0.361-0.429C96.259,20.495,96.563,20.424,96.874,20.563z"/>
		<path fill="#274452" stroke="#FAFEFF" stroke-width="0.1" stroke-miterlimit="10" d="M77.903,50.789
			c0.543,0.015,0.497-0.359,0.461-0.713c-0.018-0.183-0.246-0.417,0.143-0.473c-0.053,0.147-0.111,0.296,0.116,0.35
			c0.095,0.12,0.083,0.24-0.004,0.358c0.033,0.164-0.168,0.317-0.023,0.487c0.141,0.113,0.136,0.269,0.124,0.426
			c-0.024,0.093-0.076,0.164-0.168,0.2c-0.231,0.03-0.25-0.216-0.391-0.303C78.075,51.011,77.989,50.9,77.903,50.789z"/>
		<path fill="#274452" stroke="#FAFEFF" stroke-width="0.1" stroke-miterlimit="10" d="M22.624,82.574
			c-0.116-0.069-0.231-0.072-0.346,0.004c-0.274-0.231-0.241-0.544-0.226-0.852c0.301,0.14,0.638,0.017,0.942,0.132
			C23.051,82.19,22.432,82.173,22.624,82.574z"/>
		<path fill="#274452" stroke="#FAFEFF" stroke-width="0.1" stroke-miterlimit="10" d="M69.419,28.21
			c-0.043,0.278-0.084,0.501-0.11,0.726c-0.02,0.174-0.51,0.2-0.591,0.074C68.718,29.009,68.945,28.318,69.419,28.21z"/>
		<path fill="#274452" stroke="#FAFEFF" stroke-width="0.1" stroke-miterlimit="10" d="M56.438,72.26
			c-0.28-0.253,0-0.575-0.104-0.85c-0.115-0.269-0.103-0.538-0.006-0.808l0.001-0.001c0.05-0.068,0.09-0.062,0.119,0.017
			c0,0.213-0.022,0.43,0.012,0.638c0.013,0.079-0.044,0.447,0.294,0.131c0.251-0.235,0.257,0.111,0.271,0.293
			c-0.381,0.007-0.388,0.201-0.238,0.474c-0.001,0.231-0.148,0.142-0.264,0.12C56.493,72.275,56.465,72.271,56.438,72.26z"/>
		<path fill="#274452" stroke="#FAFEFF" stroke-width="0.1" stroke-miterlimit="10" d="M34.119,73.955
			c0.119,0.004,0.219,0.074,0.183,0.172c-0.086,0.235,0.061,0.354,0.181,0.505c0.065,0.082,0.16,0.201,0.03,0.302
			c-0.099,0.077-0.232,0.064-0.327-0.009c-0.234-0.182-0.31-0.436-0.272-0.724C33.931,74.078,33.991,73.982,34.119,73.955z"/>
		<path fill="#274452" stroke="#FAFEFF" stroke-width="0.1" stroke-miterlimit="10" d="M21.696,75.474
			c0.003,0.291-0.268,0.279-0.417,0.319c-0.172,0.047-0.349-0.111-0.333-0.308c0.019-0.229,0.096-0.485,0.385-0.506
			C21.686,74.953,21.526,75.342,21.696,75.474z"/>
		<path fill="#274452" stroke="#FAFEFF" stroke-width="0.1" stroke-miterlimit="10" d="M73.416,34.044
			c-0.394,0.197-0.442,0.541-0.365,0.918c0.086,0.421,0.011,0.949-0.228,1.361c-0.004-0.121-0.007-0.242-0.011-0.363
			c-0.033-0.026-0.041-0.048-0.025-0.064c0.013-0.014,0.028-0.021,0.042-0.021c0.096-0.115,0.09-0.252,0.086-0.389
			c-0.148-0.179-0.155-0.381-0.101-0.594c-0.09-0.393,0.215-0.652,0.351-0.963C73.214,33.817,73.364,33.925,73.416,34.044z"/>
		<path fill="#274452" stroke="#FAFEFF" stroke-width="0.1" stroke-miterlimit="10" d="M93.156,23.434
			c-0.511-0.223,0.017-0.539-0.05-0.814c-0.017-0.071,0.272-0.009,0.401,0.063c0.131,0.074,0.155,0.218,0.158,0.357
			c0.005,0.197-0.135,0.211-0.279,0.203c-0.147-0.008-0.209,0.075-0.24,0.2L93.156,23.434z"/>
		<path fill="#274452" stroke="#FAFEFF" stroke-width="0.1" stroke-miterlimit="10" d="M43.507,73.427
			c-0.349,0.009-0.518-0.258-0.722-0.472c0.127-0.224,0.11-0.569,0.488-0.585c0.012,0.164-0.505,0.346,0.017,0.492
			c0.01,0.042,0.041,0.076,0.077,0.062c0.037-0.014,0.037-0.06,0.016-0.098c0.121-0.161,0.287-0.161,0.37-0.008
			C43.9,73.09,43.708,73.271,43.507,73.427z"/>
		<path fill="#274452" stroke="#FAFEFF" stroke-width="0.1" stroke-miterlimit="10" d="M22.762,89.24
			c0.016,0.046,0.001,0.078-0.045,0.095c-0.213,0.065-0.435,0.092-0.605-0.074c-0.102-0.1,0.018-0.222,0.071-0.317
			c0.099-0.175,0.246-0.369,0.457-0.302C22.978,88.748,22.637,89.053,22.762,89.24z"/>
		<path fill="#274452" stroke="#FAFEFF" stroke-width="0.1" stroke-miterlimit="10" d="M69.504,76.288
			c0.213,0.006,0.462-0.039,0.453,0.3c-0.004,0.151,0.043,0.346-0.167,0.39c-0.282,0.059-0.431-0.13-0.545-0.352
			c-0.031-0.122,0.056-0.189,0.124-0.265C69.409,76.326,69.454,76.301,69.504,76.288z"/>
		<path fill="#274452" stroke="#FAFEFF" stroke-width="0.1" stroke-miterlimit="10" d="M67.71,76.165
			c-0.119-0.012-0.37-0.071-0.285-0.213c0.122-0.203,0.375-0.352,0.603-0.456c0.107-0.049,0.147,0.139,0.15,0.258
			C68.186,76.048,68.033,76.177,67.71,76.165z"/>
		<path fill="#274452" stroke="#FAFEFF" stroke-width="0.1" stroke-miterlimit="10" d="M55.246,74.856
			c0.018-0.127,0.006-0.366,0.141-0.323c0.272,0.089,0.62-0.016,0.817,0.283c0.041,0.063,0.085,0.124,0.128,0.186
			C55.92,75.328,55.638,74.688,55.246,74.856z"/>
		<path fill="#274452" stroke="#FAFEFF" stroke-width="0.1" stroke-miterlimit="10" d="M22.037,87.459
			c0.134,0.165,0.393,0.271,0.443,0.529c0.027,0.139-0.141,0.156-0.26,0.158c-0.258,0.006-0.411-0.107-0.412-0.378
			C21.808,87.634,21.791,87.482,22.037,87.459z"/>
		<path fill="#274452" stroke="#FAFEFF" stroke-width="0.1" stroke-miterlimit="10" d="M30.455,74.963
			c0.598-0.548,1.099-0.425,1.653,0.404c-0.079,0.027-0.157,0.054-0.236,0.081c-0.369,0.025-0.365-0.226-0.355-0.48
			C31.164,74.609,30.809,74.965,30.455,74.963z"/>
		<path fill="#274452" stroke="#FAFEFF" stroke-width="0.1" stroke-miterlimit="10" d="M39.161,66.904
			c0.285-0.478-0.267-0.384-0.396-0.579c0.378-0.044,0.779-0.121,0.695,0.49l0-0.002c0.154,0.207,0.361,0.262,0.605,0.21
			c-0.296,0.18-0.601,0.298-0.946,0.136C39.114,67.071,39.02,66.968,39.161,66.904z"/>
		<path fill="#274452" stroke="#FAFEFF" stroke-width="0.1" stroke-miterlimit="10" d="M51.34,66.326
			c0.541,0.443,0.631,0.427,0.829-0.171c0.046-0.138,0.134-0.18,0.265-0.173c-0.05,0.079-0.153,0.167-0.141,0.236
			c0.109,0.639-0.321,0.588-0.721,0.582c-0.201-0.051-0.402-0.103-0.635-0.162C51.082,66.525,51.211,66.425,51.34,66.326z"/>
		<path fill="#274452" stroke="#FAFEFF" stroke-width="0.1" stroke-miterlimit="10" d="M97.242,19.944
			c0.149-0.304,0.282-0.685,0.608-0.124c0,0-0.006,0.513-0.382,0.478C97.381,20.188,97.248,20.106,97.242,19.944z"/>
		<path fill="#274452" stroke="#FAFEFF" stroke-width="0.1" stroke-miterlimit="10" d="M34.008,75.711
			c0.059-0.003,0.12-0.018,0.175-0.007c0.205,0.043,0.396-0.254,0.583-0.049c0.061,0.067-0.042,0.224-0.174,0.258
			c-0.259,0.066-0.498,0.561-0.787,0.041C33.683,75.714,33.944,75.795,34.008,75.711z"/>
		<path fill="#274452" stroke="#FAFEFF" stroke-width="0.1" stroke-miterlimit="10" d="M12.508,112.305
			c-0.258,0.357-0.475,0.561-0.817,0.512c-0.147-0.021-0.239-0.209-0.159-0.319C11.767,112.174,12.111,112.421,12.508,112.305z"/>
		<path fill="#274452" stroke="#FAFEFF" stroke-width="0.1" stroke-miterlimit="10" d="M21.923,83.168
			c-0.077,0.136-0.139,0.285-0.237,0.406c-0.09,0.111-0.127,0.321-0.337,0.272c-0.147-0.035-0.133-0.175-0.133-0.291
			c0-0.201,0.081-0.348,0.295-0.374C21.646,83.163,21.785,83.171,21.923,83.168L21.923,83.168z"/>
		<path fill="#274452" stroke="#FAFEFF" stroke-width="0.1" stroke-miterlimit="10" d="M72.814,34.891
			c0.213,0.168,0.122,0.387,0.101,0.594c-0.11-0.038-0.224-0.069-0.33-0.116c-0.242-0.107-0.325-0.314-0.205-0.531
			C72.529,34.568,72.653,34.973,72.814,34.891z"/>
		<path fill="#274452" stroke="#FAFEFF" stroke-width="0.1" stroke-miterlimit="10" d="M49.313,67.142
			c-0.047,0.085,0.341,0.305-0.074,0.269c-0.262-0.023-0.52-0.173-0.586-0.413c-0.059-0.214,0.081-0.446,0.329-0.547
			C49.024,66.714,48.655,67.174,49.313,67.142z"/>
		<path fill="#274452" stroke="#FAFEFF" stroke-width="0.1" stroke-miterlimit="10" d="M71.276,82.01
			c0.178-0.011,0.214,0.094,0.221,0.223c0.012,0.215-0.03,0.402-0.28,0.445c-0.116,0.02-0.287,0.012-0.256-0.143
			C71.003,82.333,71.076,82.117,71.276,82.01z"/>
		<path fill="#274452" stroke="#FAFEFF" stroke-width="0.1" stroke-miterlimit="10" d="M23.822,76.401
			c0.03,0.016,0.06,0.033,0.09,0.049c0.008-0.058,0.016-0.115,0.024-0.173c0.037-0.007,0.074-0.006,0.11,0.001
			c0.1,0.235,0.333,0.156,0.508,0.214c-0.132,0.413-0.362,0.517-0.673,0.285c-0.136-0.101-0.217-0.281-0.423-0.273
			C23.541,76.335,23.687,76.39,23.822,76.401z"/>
		<path fill="#274452" stroke="#FAFEFF" stroke-width="0.1" stroke-miterlimit="10" d="M19.346,107.376
			c-0.156-0.082-0.395,0.247-0.489-0.089c-0.047-0.168,0.035-0.325,0.213-0.368c0.282-0.069,0.463,0.034,0.475,0.35
			C19.503,107.351,19.438,107.388,19.346,107.376z"/>
		<path fill="#274452" stroke="#FAFEFF" stroke-width="0.1" stroke-miterlimit="10" d="M17.53,107.112
			c0.006-0.081,0.012-0.161,0.018-0.242c0.097-0.099-0.013-0.253,0.095-0.349c0.065-0.154,0.182-0.304,0.33-0.154
			c0.118,0.12,0.248,0.347,0.047,0.509C17.883,106.987,17.768,107.196,17.53,107.112z"/>
		<path fill="#274452" stroke="#FAFEFF" stroke-width="0.1" stroke-miterlimit="10" d="M70.326,85.681
			c-0.002-0.323,0.201-0.393,0.469-0.374c0.274,0.02,0.37,0.18,0.329,0.491c-0.201-0.004-0.371-0.196-0.578-0.137
			C70.479,85.728,70.405,85.731,70.326,85.681z"/>
		<path fill="#274452" stroke="#FAFEFF" stroke-width="0.1" stroke-miterlimit="10" d="M68.947,72.414
			c-0.009,0.192-0.03,0.331-0.222,0.31c-0.254-0.027-0.289-0.224-0.297-0.424c-0.006-0.147,0.034-0.277,0.223-0.261
			C68.915,72.062,68.918,72.272,68.947,72.414z"/>
		<path fill="#274452" stroke="#FAFEFF" stroke-width="0.1" stroke-miterlimit="10" d="M38.806,63.105
			c0.288,0.248-0.072,0.398-0.138,0.408c-0.202,0.029-0.439,0.007-0.619-0.082c-0.096-0.047-0.039-0.247,0.12-0.311
			C38.38,63.056,38.588,62.88,38.806,63.105z"/>
		<path fill="#274452" stroke="#FAFEFF" stroke-width="0.1" stroke-miterlimit="10" d="M70.329,82.073
			c0.006-0.033,0.003-0.064-0.01-0.095c-0.073-0.078-0.072-0.156-0.004-0.236c0.01-0.027,0.015-0.056,0.014-0.085
			c0.09,0.025,0.206,0.022,0.266,0.079c0.152,0.144,0.48,0.281,0.269,0.532C70.624,82.554,70.498,82.177,70.329,82.073z"/>
		<path fill="#274452" stroke="#FAFEFF" stroke-width="0.1" stroke-miterlimit="10" d="M50.48,67.235
			c-0.269-0.315-0.561-0.392-0.547-0.71c0.001-0.028,0.182-0.089,0.259-0.065C50.498,66.553,50.507,66.798,50.48,67.235z"/>
		<path fill="#274452" stroke="#FAFEFF" stroke-width="0.1" stroke-miterlimit="10" d="M3.977,118.155
			c0.104,0.196,0.435,0.116,0.479,0.373c0.028,0.165-0.108,0.251-0.259,0.243c-0.242-0.013-0.298-0.225-0.365-0.404
			C3.793,118.262,3.855,118.183,3.977,118.155z"/>
		<path fill="#274452" stroke="#FAFEFF" stroke-width="0.1" stroke-miterlimit="10" d="M69.989,48.909
			c-0.152-0.126-0.391,0.377-0.487-0.06c-0.041-0.184-0.059-0.481,0.178-0.481c0.292-0.001,0.257,0.327,0.303,0.546L69.989,48.909z"
			/>
		<path fill="#274452" stroke="#FAFEFF" stroke-width="0.1" stroke-miterlimit="10" d="M33.076,75.583
			c0.306-0.09,0.339-0.438,0.569-0.6c0.007,0.206-0.01,0.418,0.13,0.595c-0.119,0.144-0.075,0.358-0.211,0.495
			c-0.117,0.046-0.203-0.012-0.283-0.087C33.175,75.871,33.214,75.682,33.076,75.583z"/>
		<path fill="#274452" stroke="#FAFEFF" stroke-width="0.1" stroke-miterlimit="10" d="M69.621,69.764
			c0.03-0.107,0.002-0.192-0.097-0.249c-0.007-0.077-0.014-0.153-0.022-0.23c0.29-0.016,0.195,0.587,0.606,0.376
			c-0.022,0.147-0.044,0.294-0.066,0.441C69.761,70.164,69.644,70.023,69.621,69.764z"/>
		<path fill="#274452" stroke="#FAFEFF" stroke-width="0.1" stroke-miterlimit="10" d="M33.31,75.931
			c0.081,0.033,0.161,0.065,0.242,0.098c0.078-0.051,0.154-0.049,0.227,0.012c-0.008,0.018-0.017,0.036-0.025,0.054
			c-0.249,0.626-0.249,0.626-0.701,0.112C33.084,76.064,33.178,75.98,33.31,75.931z"/>
		<path fill="#274452" stroke="#FAFEFF" stroke-width="0.1" stroke-miterlimit="10" d="M9.353,115.788
			c-0.15-0.146-0.474,0.374-0.52-0.13c-0.017-0.183,0.137-0.404,0.269-0.385c0.249,0.036,0.242,0.303,0.25,0.516L9.353,115.788z"/>
		<path fill="#274452" stroke="#FAFEFF" stroke-width="0.1" stroke-miterlimit="10" d="M34.26,78.42
			c-0.116-0.073-0.231-0.147-0.347-0.22c0.493-0.072,0.656-0.688,1.176-0.714C34.889,77.865,34.346,77.939,34.26,78.42z"/>
		<path fill="#274452" stroke="#FAFEFF" stroke-width="0.1" stroke-miterlimit="10" d="M31.754,82.317
			c0.021-0.35,0.471-0.693,0.016-1.05c0.115,0.003,0.23,0.007,0.345,0.01c0.482,0.131,0.205,0.304,0.026,0.472
			C32.023,81.946,32.175,82.327,31.754,82.317z"/>
		<path fill="#274452" stroke="#FAFEFF" stroke-width="0.1" stroke-miterlimit="10" d="M48.137,65.853
			c-0.07,0.042-0.14,0.085-0.21,0.127c-0.213-0.015-0.317-0.153-0.333-0.342c-0.01-0.121,0.113-0.132,0.213-0.141
			C48.073,65.472,48.15,65.619,48.137,65.853z"/>
		<path fill="#274452" stroke="#FAFEFF" stroke-width="0.1" stroke-miterlimit="10" d="M34.611,79.732
			c0.321,0.064,0.349,0.232,0.078,0.372c-0.213,0.11-0.329,0.228-0.323,0.462c-0.204-0.11-0.061-0.42-0.283-0.507
			C34.104,79.701,34.69,80.274,34.611,79.732z"/>
		<path fill="#274452" stroke="#FAFEFF" stroke-width="0.1" stroke-miterlimit="10" d="M26.432,90.28
			c0.296,0.028,0.368,0.259,0.444,0.487c-0.092,0.277-0.277,0.397-0.568,0.333C26.637,90.714,26.637,90.714,26.432,90.28z"/>
		<path fill="#274452" stroke="#FAFEFF" stroke-width="0.1" stroke-miterlimit="10" d="M22.284,84.823
			c-0.116,0.301,0.022,0.559,0.137,0.822c-0.27-0.287-0.511-0.604-0.853-0.815c0.039-0.039,0.077-0.079,0.116-0.118
			C21.831,85.037,22.069,84.869,22.284,84.823z"/>
		<path fill="#274452" stroke="#FAFEFF" stroke-width="0.1" stroke-miterlimit="10" d="M35.919,75.804
			c0.273,0.05,0.182-0.296,0.369-0.34c0.145,0.471-0.46,0.563-0.481,0.95C35.586,76.164,35.565,75.95,35.919,75.804z"/>
		<path fill="#274452" stroke="#FAFEFF" stroke-width="0.1" stroke-miterlimit="10" d="M19.942,98.712
			c-0.013,0.139-0.123,0.146-0.21,0.124c-0.152-0.038-0.303-0.109-0.27-0.309c0.017-0.106,0.108-0.176,0.211-0.156
			C19.849,98.405,19.894,98.563,19.942,98.712z"/>
		<path fill="#274452" stroke="#FAFEFF" stroke-width="0.1" stroke-miterlimit="10" d="M21.668,95.392
			c-0.03-0.122-0.227-0.215-0.102-0.354c0.089-0.099,0.217-0.021,0.32,0.041c0.105,0.062,0.214,0.134,0.152,0.273
			c-0.085,0.189-0.235,0.053-0.358,0.048L21.668,95.392z"/>
		<path fill="#274452" stroke="#FAFEFF" stroke-width="0.1" stroke-miterlimit="10" d="M74.37,63.148
			c-0.031-0.222,0.137-0.419,0.029-0.67c-0.09-0.208,0.124-0.282,0.31-0.303C74.502,62.467,74.729,62.909,74.37,63.148z"/>
		<path fill="#274452" stroke="#FAFEFF" stroke-width="0.1" stroke-miterlimit="10" d="M58.579,71.897
			c0.321,0.186,0.232,0.348-0.032,0.496c-0.179,0.1-0.326,0.288-0.57,0.216c0.013-0.033,0.021-0.066,0.026-0.101l-0.005,0.004
			C58.274,72.385,58.608,72.313,58.579,71.897z"/>
		<path fill="#274452" stroke="#FAFEFF" stroke-width="0.1" stroke-miterlimit="10" d="M75.288,36.193
			c-0.005,0.255-0.189,0.288-0.363,0.236c-0.283-0.084-0.362-0.315-0.325-0.593C74.797,36.02,74.859,36.461,75.288,36.193z"/>
		<path fill="#274452" stroke="#FAFEFF" stroke-width="0.1" stroke-miterlimit="10" d="M15.157,107.843
			c0.379-0.056,0.467,0.184,0.575,0.529c-0.326-0.066-0.425-0.283-0.58-0.428C15.14,107.91,15.142,107.876,15.157,107.843z"/>
		<path fill="#274452" stroke="#FAFEFF" stroke-width="0.1" stroke-miterlimit="10" d="M19.066,107.594
			c0.085-0.036,0.169-0.072,0.254-0.107c0.155-0.081,0.266-0.083,0.255,0.139c-0.123,0.156-0.24,0.321-0.473,0.309
			C18.972,107.834,18.988,107.717,19.066,107.594z"/>
		<path fill="#274452" stroke="#FAFEFF" stroke-width="0.1" stroke-miterlimit="10" d="M23.203,76.729
			c0.133,0.336,0.071,0.571-0.328,0.63c-0.052,0.054-0.099,0.05-0.141-0.012C23.031,77.248,22.915,76.835,23.203,76.729z"/>
		<path fill="#274452" stroke="#FAFEFF" stroke-width="0.1" stroke-miterlimit="10" d="M33.31,75.931
			c0.005,0.176-0.101,0.249-0.257,0.276c-0.031-0.011-0.063-0.02-0.095-0.026c-0.055-0.049-0.061-0.103-0.02-0.164
			c-0.015-0.03-0.011-0.057,0.012-0.081c0.146-0.081,0.109-0.227,0.127-0.354C33.377,75.55,33.292,75.775,33.31,75.931z"/>
		<path fill="#274452" stroke="#FAFEFF" stroke-width="0.1" stroke-miterlimit="10" d="M50.633,79.592
			c-0.031-0.038-0.061-0.076-0.092-0.114c-0.014-0.035-0.025-0.07-0.032-0.107c0.218,0.068,0.413,0.019,0.588-0.121
			C51.332,79.894,50.854,79.57,50.633,79.592z"/>
		<path fill="#274452" stroke="#FAFEFF" stroke-width="0.1" stroke-miterlimit="10" d="M24.171,91.223
			c0.003,0.047,0.006,0.093,0.009,0.14c-0.485,0.083-0.602-0.262-0.712-0.614C23.741,90.849,23.817,91.243,24.171,91.223z"/>
		<path fill="#274452" stroke="#FAFEFF" stroke-width="0.1" stroke-miterlimit="10" d="M24.301,91.945
			c0.011-0.16,0.062-0.292,0.237-0.338c0.032,0.025,0.042,0.049,0.032,0.074c-0.011,0.025-0.021,0.037-0.032,0.037
			c-0.036,0.141-0.004,0.26,0.115,0.35c-0.043,0.091-0.105,0.198-0.207,0.174C24.306,92.209,24.33,92.055,24.301,91.945z"/>
		<path fill="#274452" stroke="#FAFEFF" stroke-width="0.1" stroke-miterlimit="10" d="M22.994,81.858
			c-0.319-0.005-0.65,0.073-0.942-0.132c-0.045-0.038-0.09-0.075-0.135-0.113C22.276,81.695,22.635,81.776,22.994,81.858z"/>
		<path fill="#274452" stroke="#FAFEFF" stroke-width="0.1" stroke-miterlimit="10" d="M78.48,51.392
			c0.052-0.052,0.104-0.104,0.157-0.156c0.077-0.053,0.152-0.044,0.225,0.008c0.373,0.41-0.319,0.216-0.256,0.451l-0.042,0.001
			l-0.042-0.003C78.287,51.622,78.339,51.513,78.48,51.392z"/>
		<path fill="#274452" stroke="#FAFEFF" stroke-width="0.1" stroke-miterlimit="10" d="M76.456,51.599
			c0.011-0.134,0.021-0.269,0.034-0.403c0.011-0.11,0.068-0.177,0.184-0.18c0.157-0.004,0.193,0.095,0.191,0.226
			C76.684,51.311,76.7,51.604,76.456,51.599z"/>
		<path fill="#274452" stroke="#FAFEFF" stroke-width="0.1" stroke-miterlimit="10" d="M5.701,119.251
			c-0.003,0.129-0.057,0.181-0.143,0.177c-0.126-0.005-0.228-0.065-0.25-0.197c-0.018-0.111,0.054-0.211,0.158-0.178
			C5.564,119.084,5.636,119.193,5.701,119.251z"/>
		<path fill="#274452" stroke="#FAFEFF" stroke-width="0.1" stroke-miterlimit="10" d="M31.516,74.968
			c0.064,0.2,0.132,0.398,0.355,0.48c-0.172,0.232-0.262,0.057-0.399-0.057C31.255,75.208,31.397,75.097,31.516,74.968z"/>
		<path fill="#274452" stroke="#FAFEFF" stroke-width="0.1" stroke-miterlimit="10" d="M20.996,86.983
			c-0.162-0.074-0.271-0.184-0.26-0.377c0.175-0.03,0.316,0.069,0.469,0.122c0.075,0.076,0.076,0.153,0.005,0.232
			C21.139,86.968,21.067,86.976,20.996,86.983z"/>
		<path fill="#274452" stroke="#FAFEFF" stroke-width="0.1" stroke-miterlimit="10" d="M33.778,76.041
			c-0.076-0.004-0.151-0.008-0.227-0.012c0.013-0.181-0.075-0.412,0.224-0.451c0.078,0.044,0.155,0.088,0.233,0.133
			c-0.068,0.081-0.135,0.162-0.203,0.243C33.794,75.982,33.785,76.011,33.778,76.041z"/>
		<path fill="#274452" stroke="#FAFEFF" stroke-width="0.1" stroke-miterlimit="10" d="M18.75,99.988
			c-0.117-0.007-0.198-0.062-0.192-0.176c0.007-0.14,0.12-0.207,0.24-0.21c0.05-0.001,0.138,0.089,0.147,0.147
			C18.966,99.884,18.878,99.962,18.75,99.988z"/>
		<path fill="#274452" stroke="#FAFEFF" stroke-width="0.1" stroke-miterlimit="10" d="M20.649,82.35
			c0.108-0.044,0.217-0.088,0.325-0.131c0.075,0.036,0.15,0.073,0.225,0.109C21.027,82.601,20.851,82.788,20.649,82.35z"/>
		<path fill="#274452" stroke="#FAFEFF" stroke-width="0.1" stroke-miterlimit="10" d="M31.996,80.784
			c0.082-0.254-0.621,0.127-0.275-0.34c0.127,0.038,0.254,0.077,0.382,0.114c0.087,0.025,0.129,0.08,0.091,0.165
			C32.154,80.81,32.073,80.8,31.996,80.784z"/>
		<path fill="#274452" stroke="#FAFEFF" stroke-width="0.1" stroke-miterlimit="10" d="M15.431,108.785
			c0.067-0.001,0.133-0.002,0.2-0.003c0,0.04-0.001,0.081-0.001,0.121l0.003-0.002c-0.244,0.256-0.453,0.305-0.582-0.101
			C15.173,108.691,15.301,108.705,15.431,108.785z"/>
		<path fill="#274452" stroke="#FAFEFF" stroke-width="0.1" stroke-miterlimit="10" d="M43.753,72.827
			c0.185,0.003,0.315,0.073,0.258,0.281c-0.04,0.145-0.171,0.141-0.288,0.097c-0.204-0.076-0.219-0.195-0.063-0.342
			C43.695,72.863,43.726,72.851,43.753,72.827z"/>
		<path fill="#274452" stroke="#FAFEFF" stroke-width="0.1" stroke-miterlimit="10" d="M48.006,75.22
			c-0.008,0.203-0.209,0.166-0.313,0.251c-0.141-0.074-0.189-0.198-0.1-0.322C47.762,74.916,47.851,75.29,48.006,75.22z"/>
		<path fill="#274452" stroke="#FAFEFF" stroke-width="0.1" stroke-miterlimit="10" d="M32.26,79.423
			c0.01-0.117,0.096-0.169,0.19-0.198c0.105-0.032,0.138,0.042,0.13,0.128c-0.011,0.107-0.078,0.188-0.179,0.21
			C32.309,79.584,32.267,79.511,32.26,79.423z"/>
		<path fill="#274452" stroke="#FAFEFF" stroke-width="0.1" stroke-miterlimit="10" d="M32.14,81.749
			c0.021-0.159,0.346-0.335-0.026-0.472c0.082-0.04,0.163-0.08,0.245-0.12c0.141,0.196,0.137,0.393,0.002,0.59
			C32.287,81.747,32.214,81.748,32.14,81.749z"/>
		<path fill="#274452" stroke="#FAFEFF" stroke-width="0.1" stroke-miterlimit="10" d="M32.937,76.017
			c0.007,0.055,0.013,0.109,0.02,0.164c-0.004,0.172-0.067,0.297-0.258,0.31c-0.028,0.002-0.081-0.036-0.083-0.059
			C32.597,76.199,32.765,76.105,32.937,76.017z"/>
		<path fill="#274452" stroke="#FAFEFF" stroke-width="0.1" stroke-miterlimit="10" d="M7.539,115.985
			c-0.004,0.093-0.062,0.144-0.144,0.154c-0.108,0.012-0.199-0.035-0.216-0.148c-0.013-0.086,0.049-0.151,0.136-0.154
			C7.418,115.832,7.504,115.876,7.539,115.985z"/>
		<path fill="#274452" stroke="#FAFEFF" stroke-width="0.1" stroke-miterlimit="10" d="M17.642,106.521
			c0.015,0.129,0.027,0.258-0.095,0.349c-0.143-0.419-0.381-0.159-0.593-0.083c-0.035-0.027-0.048-0.056-0.04-0.087
			c0.008-0.032,0.017-0.048,0.027-0.048C17.149,106.473,17.401,106.524,17.642,106.521z"/>
		<path fill="#274452" stroke="#FAFEFF" stroke-width="0.1" stroke-miterlimit="10" d="M68.058,50.665
			c-0.247-0.315-0.077-0.424,0.229-0.466C68.363,50.429,68.193,50.538,68.058,50.665z"/>
		<path fill="#274452" stroke="#FAFEFF" stroke-width="0.1" stroke-miterlimit="10" d="M48.845,78.668
			c-0.002-0.042-0.005-0.084-0.007-0.127c-0.024-0.195-0.495-0.413,0.03-0.58c-0.168,0.26,0.237,0.446,0.091,0.703l-0.057,0.008
			L48.845,78.668z"/>
		<path fill="#274452" stroke="#FAFEFF" stroke-width="0.1" stroke-miterlimit="10" d="M71.599,40.095
			c0.066,0.283,0.012,0.531-0.216,0.727C71.364,40.553,71.434,40.31,71.599,40.095z"/>
		<path fill="#274452" stroke="#FAFEFF" stroke-width="0.1" stroke-miterlimit="10" d="M78.48,51.392
			c-0.048,0.109-0.057,0.212,0.041,0.3c-0.439,0.012-0.176-0.42-0.36-0.57C78.344,51.121,78.358,51.32,78.48,51.392z"/>
		<path fill="#274452" stroke="#FAFEFF" stroke-width="0.1" stroke-miterlimit="10" d="M73.525,26.127
			c0.184-0.346,0.382-0.318,0.588-0.021C73.917,26.114,73.721,26.12,73.525,26.127z"/>
		<path fill="#274452" stroke="#FAFEFF" stroke-width="0.1" stroke-miterlimit="10" d="M39.461,66.815
			c0.12-0.121,0.216-0.275,0.403-0.299c0.015-0.002,0.072,0.103,0.058,0.137c-0.089,0.225-0.304,0.112-0.461,0.159L39.461,66.815z"
			/>
		<path fill="#274452" stroke="#FAFEFF" stroke-width="0.1" stroke-miterlimit="10" d="M34.73,73.325
			c0.066,0.101,0.342-0.018,0.254,0.243c-0.161,0.047-0.286,0.256-0.489,0.108c0-0.037,0-0.073,0-0.11
			C34.589,73.502,34.488,73.246,34.73,73.325z"/>
		<path fill="#274452" stroke="#FAFEFF" stroke-width="0.1" stroke-miterlimit="10" d="M40.301,78.642
			c0.202-0.265,0.404-0.303,0.607-0.002C40.706,78.641,40.503,78.642,40.301,78.642z"/>
		<path fill="#274452" stroke="#FAFEFF" stroke-width="0.1" stroke-miterlimit="10" d="M33.88,81.521
			c-0.04-0.003-0.08-0.006-0.12-0.009c0.035-0.258-0.003-0.547,0.292-0.696C33.994,81.05,33.937,81.285,33.88,81.521z"/>
		<path fill="#274452" stroke="#FAFEFF" stroke-width="0.1" stroke-miterlimit="10" d="M67.82,74.621
			c0.158-0.002,0.248,0.063,0.234,0.233c-0.104,0.021-0.211,0.171-0.304,0.033C67.717,74.837,67.794,74.712,67.82,74.621z"/>
		<path fill="#274452" stroke="#FAFEFF" stroke-width="0.1" stroke-miterlimit="10" d="M29.385,75.087
			c0-0.136-0.009-0.29,0.165-0.319c0.142-0.024,0.198,0.082,0.202,0.214C29.63,75.017,29.507,75.052,29.385,75.087z"/>
		<path fill="#274452" stroke="#FAFEFF" stroke-width="0.1" stroke-miterlimit="10" d="M78.861,51.244
			c-0.075-0.003-0.15-0.006-0.225-0.008c-0.013-0.146-0.027-0.291-0.04-0.437c0.047-0.004,0.094-0.007,0.141-0.011
			C78.816,50.93,78.876,51.077,78.861,51.244z"/>
		<path fill="#274452" stroke="#FAFEFF" stroke-width="0.1" stroke-miterlimit="10" d="M72.346,36.806
			c-0.169,0.397-0.332,0.192-0.496-0.004C72.016,36.804,72.181,36.805,72.346,36.806z"/>
		<path fill="#274452" stroke="#FAFEFF" stroke-width="0.1" stroke-miterlimit="10" d="M22.734,77.347
			c0.047,0.004,0.094,0.008,0.141,0.012c-0.152,0.069-0.192,0.611-0.477,0.113C22.51,77.43,22.622,77.389,22.734,77.347z"/>
		<path fill="#274452" stroke="#FAFEFF" stroke-width="0.1" stroke-miterlimit="10" d="M20.475,77.022
			c-0.056,0.124-0.135,0.168-0.232,0.17c-0.097,0.002-0.124-0.066-0.11-0.147c0.016-0.086,0.088-0.126,0.164-0.114
			C20.361,76.942,20.417,76.991,20.475,77.022z"/>
		<path fill="#274452" stroke="#FAFEFF" stroke-width="0.1" stroke-miterlimit="10" d="M35.674,75.688
			c-0.056,0.174-0.129,0.272-0.307,0.1c-0.166-0.16-0.089-0.252,0.069-0.337C35.558,75.487,35.585,75.619,35.674,75.688z"/>
		<path fill="#274452" stroke="#FAFEFF" stroke-width="0.1" stroke-miterlimit="10" d="M75.641,27.312
			c0.262-0.009,0.24,0.181,0.245,0.351C75.634,27.665,75.674,27.464,75.641,27.312z"/>
		<path fill="#274452" stroke="#FAFEFF" stroke-width="0.1" stroke-miterlimit="10" d="M58.003,72.508
			c-0.109-0.043-0.28,0.046-0.316-0.146c-0.004-0.021,0.037-0.068,0.064-0.074c0.186-0.043,0.215,0.093,0.247,0.225L58.003,72.508z"
			/>
		<path fill="#274452" stroke="#FAFEFF" stroke-width="0.1" stroke-miterlimit="10" d="M73.302,28.231
			c-0.25,0.007-0.464-0.035-0.483-0.348C72.979,27.998,73.141,28.114,73.302,28.231z"/>
		<path fill="#274452" stroke="#FAFEFF" stroke-width="0.1" stroke-miterlimit="10" d="M10.773,114.484l-0.052-0.015l-0.054,0.006
			c-0.051-0.107-0.076-0.217,0.03-0.3c0.026-0.02,0.117,0.002,0.143,0.034C10.933,114.322,10.877,114.412,10.773,114.484z"/>
		<path fill="#274452" stroke="#FAFEFF" stroke-width="0.1" stroke-miterlimit="10" d="M5.521,117.538l-0.052-0.015l-0.054,0.006
			c-0.051-0.107-0.076-0.217,0.03-0.3c0.026-0.02,0.117,0.002,0.143,0.034C5.68,117.375,5.625,117.466,5.521,117.538z"/>
		<path fill="#274452" stroke="#FAFEFF" stroke-width="0.1" stroke-miterlimit="10" d="M34.73,73.325
			c-0.078,0.08-0.157,0.161-0.235,0.242c-0.089-0.048-0.179-0.097-0.268-0.145c0.164-0.069,0.328-0.139,0.491-0.208
			C34.728,73.25,34.732,73.287,34.73,73.325z"/>
		<path fill="#274452" stroke="#FAFEFF" stroke-width="0.1" stroke-miterlimit="10" d="M13.985,110.689
			c-0.01-0.154-0.021-0.309-0.031-0.463C14.295,110.358,14.247,110.516,13.985,110.689z"/>
		<path fill="#274452" stroke="#FAFEFF" stroke-width="0.1" stroke-miterlimit="10" d="M69.813,77.523
			c-0.025,0.092-0.094,0.108-0.173,0.096c-0.083-0.013-0.139-0.06-0.123-0.152c0.016-0.089,0.079-0.122,0.165-0.102
			C69.765,77.382,69.808,77.439,69.813,77.523z"/>
		<path fill="#274452" stroke="#FAFEFF" stroke-width="0.1" stroke-miterlimit="10" d="M20.132,98.127
			c0.007-0.066-0.05-0.016-0.136-0.054c-0.043-0.019-0.085-0.092-0.086-0.141c-0.001-0.078,0.041-0.161,0.141-0.145
			C20.146,97.802,20.153,97.885,20.132,98.127z"/>
		<path fill="#274452" stroke="#FAFEFF" stroke-width="0.1" stroke-miterlimit="10" d="M70.326,85.681
			c0.073-0.007,0.147-0.013,0.22-0.02c-0.003,0.119,0.091,0.309-0.12,0.305C70.287,85.964,70.333,85.789,70.326,85.681z"/>
		<path fill="#274452" stroke="#FAFEFF" stroke-width="0.1" stroke-miterlimit="10" d="M24.554,76.493
			c-0.213,0.033-0.449,0.119-0.508-0.214c0.161,0.09,0.323,0.141,0.494,0.025C24.545,76.367,24.55,76.43,24.554,76.493z"/>
		<path fill="#274452" stroke="#FAFEFF" stroke-width="0.1" stroke-miterlimit="10" d="M21.21,86.961
			c-0.002-0.077-0.003-0.155-0.005-0.232c0.099,0.008,0.216,0.016,0.199,0.15C21.392,86.969,21.339,87.084,21.21,86.961z"/>
		<path fill="#274452" stroke="#FAFEFF" stroke-width="0.1" stroke-miterlimit="10" d="M78.619,50.312
			c0.001-0.119,0.003-0.239,0.004-0.358c0.093,0.002,0.192,0.009,0.193,0.13C78.818,50.209,78.718,50.264,78.619,50.312z"/>
		<path fill="#274452" stroke="#FAFEFF" stroke-width="0.1" stroke-miterlimit="10" d="M56.523,72.274
			c0.088-0.04,0.176-0.08,0.264-0.12c0.102,0.022,0.196,0.116,0.125,0.18C56.791,72.443,56.638,72.393,56.523,72.274z"/>
		<path fill="#274452" stroke="#FAFEFF" stroke-width="0.1" stroke-miterlimit="10" d="M30.506,71.053
			c-0.023-0.001-0.092-0.012-0.066-0.087c0.014-0.041,0.082-0.071,0.131-0.088c0.017-0.006,0.073,0.037,0.077,0.063
			C30.657,71.011,30.612,71.047,30.506,71.053z"/>
		<path fill="#274452" stroke="#FAFEFF" stroke-width="0.1" stroke-miterlimit="10" d="M69.462,49.951
			c0.019,0.2-0.08,0.347-0.215,0.478c0-0.119,0-0.238,0-0.357C69.319,50.031,69.391,49.991,69.462,49.951z"/>
		<path fill="#274452" stroke="#FAFEFF" stroke-width="0.1" stroke-miterlimit="10" d="M71.491,39.76
			c-0.067,0.046-0.107,0.092-0.149,0.094c-0.034,0.002-0.07-0.049-0.106-0.077c0.038-0.035,0.072-0.088,0.116-0.099
			C71.383,39.67,71.428,39.72,71.491,39.76z"/>
		<path fill="#274452" stroke="#FAFEFF" stroke-width="0.1" stroke-miterlimit="10" d="M16.941,106.652
			c0.004,0.045,0.009,0.09,0.013,0.135c-0.095,0.126-0.239,0.089-0.365,0.11C16.637,106.716,16.776,106.666,16.941,106.652z"/>
		<path fill="#274452" stroke="#FAFEFF" stroke-width="0.1" stroke-miterlimit="10" d="M34.495,73.676
			c0.163-0.036,0.326-0.072,0.489-0.108c-0.093,0.206-0.283,0.23-0.475,0.251C34.504,73.771,34.499,73.723,34.495,73.676z"/>
		<path fill="#274452" stroke="#FAFEFF" stroke-width="0.1" stroke-miterlimit="10" d="M19.574,107.626
			c-0.039-0.13-0.148-0.133-0.255-0.139c0.004-0.038,0.012-0.075,0.027-0.111c0.066-0.036,0.133-0.072,0.199-0.107
			C19.603,107.384,19.774,107.49,19.574,107.626z"/>
		<path fill="#274452" stroke="#FAFEFF" stroke-width="0.1" stroke-miterlimit="10" d="M19.066,107.594
			c0.012,0.114,0.024,0.228,0.036,0.341c-0.124-0.008-0.213-0.067-0.221-0.194C18.872,107.619,18.971,107.602,19.066,107.594z"/>
		<path fill="#274452" stroke="#FAFEFF" stroke-width="0.1" stroke-miterlimit="10" d="M67.586,75.467
			c-0.025,0.081-0.062,0.154-0.153,0.148c-0.103-0.007-0.111-0.094-0.089-0.168c0.013-0.045,0.06-0.104,0.1-0.112
			C67.537,75.316,67.575,75.386,67.586,75.467z"/>
		<path fill="#274452" stroke="#FAFEFF" stroke-width="0.1" stroke-miterlimit="10" d="M15.431,108.785
			c-0.127,0.005-0.254,0.01-0.381,0.015c0.041-0.13,0.083-0.26,0.124-0.389C15.26,108.535,15.346,108.66,15.431,108.785z"/>
		<path fill="#274452" stroke="#FAFEFF" stroke-width="0.1" stroke-miterlimit="10" d="M22.74,87.802
			c0.166,0.113,0.277,0.255,0.246,0.471C22.832,88.154,22.718,88.013,22.74,87.802z"/>
		<path fill="#274452" stroke="#FAFEFF" stroke-width="0.1" stroke-miterlimit="10" d="M72.829,35.874
			c0.008,0.031,0.003,0.06-0.018,0.085c-0.089-0.016-0.177-0.032-0.266-0.048c0.021-0.045,0.029-0.108,0.064-0.13
			C72.716,35.715,72.777,35.792,72.829,35.874z"/>
		<path fill="#274452" stroke="#FAFEFF" stroke-width="0.1" stroke-miterlimit="10" d="M101.986,12.474
			c0.045-0.109,0.131-0.218,0.129-0.326c-0.006-0.461,0.146-0.764,0.555-1.073c0.375-0.284,0.801-0.538,0.739-1.117
			c-0.006-0.052,0.034-0.11,0.052-0.165c0.818,0.313,0.567-0.84,1.187-0.867c0.233-0.01,0.121-0.327,0.079-0.51
			c-0.056-0.246-0.087-0.532,0.164-0.627c0.281-0.107,0.316,0.232,0.382,0.396c0.12,0.3,0.285,0.445,0.617,0.424
			c0.546-0.034,1.058-0.21,1.27-0.714c0.196-0.466,0.557-0.753,0.865-1.099c0.207-0.232,0.531-0.179,0.781-0.092
			c0.293,0.102,0.174,0.336,0.059,0.532c-0.063,0.107,0.031,0.178,0.063,0.267c0.134,0.371-0.077,0.457-0.394,0.546
			c-1.142,0.322-2.126,0.911-2.88,1.844c-0.207,0.256-0.338,0.583-0.701,0.682c-0.214,0.059-0.398,0.117-0.585-0.101
			c-0.247-0.29-0.457-0.035-0.427,0.162c0.094,0.614-0.283,0.892-0.703,1.159c-0.207,0.132-0.371,0.295-0.47,0.515
			c-0.187,0.415-0.338,0.836-0.909,0.889c-0.209,0.02-0.29,0.314-0.382,0.5c-0.094,0.192-0.146,0.394-0.406,0.262
			c-0.275-0.139-0.199-0.344-0.053-0.54c0.035-0.046,0.074-0.089,0.111-0.133C101.303,12.902,101.68,12.725,101.986,12.474z"/>
		<path fill="#274452" stroke="#FAFEFF" stroke-width="0.1" stroke-miterlimit="10" d="M95.551,18.405
			c-0.347-0.779,0.344-1.078,0.725-1.495c0.236-0.258,0.438-0.493,0.602-0.823c0.372-0.745,0.922-1.393,1.242-2.181
			c0.199-0.489,1.529,0.241,1.93,0.016c0.053,0.227,0.02,0.509-0.066,0.502c-0.635-0.049-0.832,0.702-1.494,0.758
			c-0.34,0.029-0.813,0.574-1.026,1.064c-0.228,0.525-0.463,1.041-1.07,1.235c-0.17,0.13-0.228,0.307-0.207,0.512
			C96.245,18.554,95.945,18.552,95.551,18.405z"/>
		<path fill="#274452" stroke="#FAFEFF" stroke-width="0.1" stroke-miterlimit="10" d="M116.54,2.978
			c-0.003,0.401-0.088,0.688-0.492,0.537c-0.148-0.055-0.298-0.031-0.445,0.11c-0.322,0.546-0.777,0.682-1.238,0.809
			c-0.43,0.119-0.976,0.477-1.096,0.796c-0.114,0.305-0.322,0.475-0.522,0.641c-0.045-0.111-0.069-0.242-0.074-0.385
			c0.083,0.011,0.142-0.152,0.06-0.174c-0.021-0.005-0.039-0.012-0.056-0.019c0.018-0.255,0.414-0.667,0.514-0.919
			c0.523-0.2,0.702-0.35,1.222-0.527c0.295-0.1,0.53-0.253,0.793-0.434C115.63,3.121,116.054,2.514,116.54,2.978z"/>
		<path fill="#274452" stroke="#FAFEFF" stroke-width="0.1" stroke-miterlimit="10" d="M63.022,52.51
			c-0.056-0.895,0.686-1.336,1.119-1.952c0.029-0.041,0.159-0.057,0.205-0.028c0.048,0.031,0.08,0.138,0.068,0.201
			c-0.045,0.229-0.06,0.489-0.182,0.673c-0.276,0.414-0.24,0.605,0.295,0.595c0.042-0.001,0.085,0.111,0.128,0.171
			c-0.086,0.197-0.119,0.415-0.238,0.6c-0.192,0.248-0.43,0.443-0.7,0.599c-0.185,0.078-0.367,0.131-0.522-0.059
			c-0.043-0.209,0.054-0.374,0.17-0.532l0,0C63.465,52.417,63.055,52.703,63.022,52.51z"/>
		<path fill="#274452" stroke="#FAFEFF" stroke-width="0.1" stroke-miterlimit="10" d="M89.878,16.544
			c-0.406-0.075-0.828-0.03-1.224-0.177c-0.165-0.061-0.237-0.075-0.285,0.179c-0.039,0.207-0.891,0.089-0.897-0.147
			c-0.013-0.569-0.437-0.538-0.771-0.669c-0.066-0.026-0.112-0.105-0.167-0.159c0.846,0.111,1.607,0.515,2.432,0.713
			C89.267,16.355,89.637,16.252,89.878,16.544z"/>
		<path fill="#274452" stroke="#FAFEFF" stroke-width="0.1" stroke-miterlimit="10" d="M101.399,17.502
			c-0.028,0.255-0.999,0.962-1.147,0.877c-0.262-0.151-0.361-0.478-0.142-0.627c0.263-0.178,0.533-0.385,0.834-0.499
			C101.178,17.165,101.312,17.364,101.399,17.502z"/>
		<path fill="#274452" stroke="#FAFEFF" stroke-width="0.1" stroke-miterlimit="10" d="M76.668,10.021
			c0.3,0.13,0.554,0.275,0.537,0.636c-0.011,0.249-0.195,0.355-0.399,0.332c-0.297-0.033-0.424-0.279-0.431-0.545
			C76.371,10.262,76.436,10.058,76.668,10.021z"/>
		<path fill="#274452" stroke="#FAFEFF" stroke-width="0.1" stroke-miterlimit="10" d="M78.639,15.793
			c0.019,0.005,0.046,0.005,0.055,0.017c0.276,0.381,0.228,1.755-0.073,2.121C78.627,17.219,78.633,16.506,78.639,15.793z"/>
		<path fill="#274452" stroke="#FAFEFF" stroke-width="0.1" stroke-miterlimit="10" d="M57.495,59.806
			c-0.144-0.061-0.16-0.184-0.083-0.284c0.382-0.492,0.294-0.862-0.265-1.128c-0.068-0.086-0.068-0.17,0.003-0.254
			c0.247,0.041,0.447-0.044,0.611-0.227C57.758,58.555,57.83,59.209,57.495,59.806z"/>
		<path fill="#274452" stroke="#FAFEFF" stroke-width="0.1" stroke-miterlimit="10" d="M94.369,19.957
			c-0.302-0.191-0.293-0.555-0.455-0.824c0.038-0.001,0.079-0.013,0.114-0.003C94.83,19.364,94.829,19.365,94.369,19.957z"/>
		<path fill="#274452" stroke="#FAFEFF" stroke-width="0.1" stroke-miterlimit="10" d="M75.772,9.628
			c-0.016-0.136-0.037-0.272-0.045-0.408c-0.007-0.126-0.181-0.327,0.107-0.341c0.197-0.01,0.334,0.095,0.313,0.327
			c-0.016,0.175-0.023,0.351-0.035,0.527C75.938,9.895,75.862,9.738,75.772,9.628z"/>
		<path fill="#274452" stroke="#FAFEFF" stroke-width="0.1" stroke-miterlimit="10" d="M101.986,12.474
			c-0.216,0.345-0.554,0.564-0.858,0.816c-0.276-0.579,0.332-0.49,0.54-0.699C101.739,12.518,101.877,12.511,101.986,12.474z"/>
		<path fill="#274452" stroke="#FAFEFF" stroke-width="0.1" stroke-miterlimit="10" d="M95.596,21.022
			c-0.012,0.072-0.024,0.144-0.036,0.216c-0.306,0.026-0.569,0.163-0.912-0.089c-0.322-0.236-0.118-0.321-0.029-0.484
			C94.824,21.113,95.135,21.272,95.596,21.022z"/>
		<path fill="#274452" stroke="#FAFEFF" stroke-width="0.1" stroke-miterlimit="10" d="M78.755,9.139
			c-0.263,0.226-0.063,0.701-0.46,0.854c0.024-0.279,0.15-0.528,0.149-0.828C78.442,8.714,78.637,9.046,78.755,9.139z"/>
		<path fill="#274452" stroke="#FAFEFF" stroke-width="0.1" stroke-miterlimit="10" d="M69.107,50.779
			c-0.105,0.466,0.037,0.971-0.226,1.411C68.973,51.722,68.687,51.194,69.107,50.779z"/>
		<path fill="#274452" stroke="#FAFEFF" stroke-width="0.1" stroke-miterlimit="10" d="M78.599,17.919
			c-0.046,0.408-0.358,0.519-0.685,0.613C78.143,18.328,78.371,18.124,78.599,17.919z"/>
		<path fill="#274452" stroke="#FAFEFF" stroke-width="0.1" stroke-miterlimit="10" d="M75.772,9.628
			c0.104,0.066,0.207,0.132,0.34,0.105c0.018,0.126-0.017,0.239-0.158,0.23C75.741,9.95,75.777,9.772,75.772,9.628z"/>
		<path fill="#274452" stroke="#FAFEFF" stroke-width="0.1" stroke-miterlimit="10" d="M77.302,15.077
			c-0.097-0.008-0.185-0.009-0.172-0.113c0.005-0.037,0.066-0.088,0.109-0.096c0.075-0.014,0.158,0.012,0.149,0.11
			C77.385,15.017,77.326,15.051,77.302,15.077z"/>
		<path fill="#274452" stroke="#FAFEFF" stroke-width="0.1" stroke-miterlimit="10" d="M62.726,58.038
			c-0.122,0.181-0.245,0.36-0.507,0.324C62.369,58.225,62.465,58.002,62.726,58.038z"/>
		<path fill="#274452" stroke="#FAFEFF" stroke-width="0.1" stroke-miterlimit="10" d="M23.105,80.79
			c0.075,0.117,0.193,0.126,0.311,0.114c0.331-0.033,0.535,0.134,0.6,0.434c0.068,0.313,0.191,0.666-0.214,0.874
			c0.189-0.322,0.25-0.654,0.017-0.975c-0.156-0.216-0.362-0.289-0.596-0.094c-0.157,0.111-0.312,0.154-0.459-0.017
			C22.759,80.892,22.875,80.783,23.105,80.79z"/>
		<path fill="#274452" stroke="#FAFEFF" stroke-width="0.1" stroke-miterlimit="10" d="M36.372,73.904
			c0.282-0.227,0.64-0.164,0.958-0.252c0.119-0.038,0.229-0.051,0.277,0.104c-0.03,0.09-0.104,0.128-0.185,0.157
			c-0.102,0.032-0.206,0.056-0.306,0.094c-0.263,0.063-0.371,0.36-0.635,0.423C35.983,74.349,36.14,74.135,36.372,73.904z"/>
		<path fill="#274452" stroke="#FAFEFF" stroke-width="0.1" stroke-miterlimit="10" d="M39.005,73.557
			c-0.175-0.066-0.433-0.095-0.348,0.157c0.202,0.6-0.206,0.426-0.483,0.443c-0.03-0.044-0.038-0.091-0.02-0.142
			c0.112-0.109,0.166-0.24,0.153-0.398c0.011-0.081,0.039-0.152,0.108-0.201C38.623,73.418,38.961,72.876,39.005,73.557z"/>
		<path fill="#274452" stroke="#FAFEFF" stroke-width="0.1" stroke-miterlimit="10" d="M38.416,73.416
			c-0.008,0.094-0.016,0.188-0.023,0.281c-0.082,0.115-0.193,0.156-0.33,0.134c-0.142-0.086-0.186-0.228-0.213-0.379
			C38.027,73.268,38.201,73.026,38.416,73.416z"/>
		<path fill="#274452" stroke="#FAFEFF" stroke-width="0.1" stroke-miterlimit="10" d="M36.372,73.904
			c-0.033,0.189-0.258,0.432,0.141,0.499c0.029,0.045,0.027,0.089-0.004,0.132c-0.241-0.007-0.493,0.039-0.69-0.159
			C36.043,74.265,36.071,73.925,36.372,73.904z"/>
		<path fill="#274452" stroke="#FAFEFF" stroke-width="0.1" stroke-miterlimit="10" d="M39.161,66.904
			c-0.007,0.086,0.069,0.186-0.042,0.255c-0.159-0.027-0.388,0.054-0.387-0.231c0-0.11-0.035-0.271,0.105-0.303
			C39.036,66.581,39.087,66.769,39.161,66.904z"/>
		<path fill="#274452" stroke="#FAFEFF" stroke-width="0.1" stroke-miterlimit="10" d="M37.85,73.453
			c0.137,0.073,0.204,0.187,0.204,0.342c0.056,0.073,0.031,0.142-0.012,0.209c-0.033,0.038-0.073,0.069-0.119,0.091
			c-0.072,0.021-0.143,0.018-0.212-0.015c-0.035-0.03-0.058-0.068-0.071-0.112c-0.015-0.063-0.053-0.117-0.079-0.176
			c-0.021-0.139-0.13-0.133-0.231-0.14C37.454,73.457,37.721,73.636,37.85,73.453z"/>
		<path fill="#274452" stroke="#FAFEFF" stroke-width="0.1" stroke-miterlimit="10" d="M49.199,73.199
			c0.041-0.318,0.073-0.637,0.016-0.957C49.552,72.566,49.574,72.886,49.199,73.199z"/>
		<path fill="#274452" stroke="#FAFEFF" stroke-width="0.1" stroke-miterlimit="10" d="M55.947,73.461
			c0.077-0.014,0.153-0.038,0.23-0.04c0.164-0.005,0.288-0.316,0.452-0.108c0.138,0.174-0.116,0.301-0.169,0.46
			C56.289,73.669,56.118,73.565,55.947,73.461z"/>
		<path fill="#274452" stroke="#FAFEFF" stroke-width="0.1" stroke-miterlimit="10" d="M22.766,81.126
			c0.153,0.006,0.306,0.011,0.459,0.017c-0.105,0.187-0.223,0.411-0.471,0.324C22.564,81.401,22.743,81.242,22.766,81.126z"/>
		<path fill="#274452" stroke="#FAFEFF" stroke-width="0.1" stroke-miterlimit="10" d="M54.904,72.727
			c0.196,0.157,0.574,0.074,0.598,0.455C55.324,73.002,54.989,73.029,54.904,72.727z"/>
		<path fill="#274452" stroke="#FAFEFF" stroke-width="0.1" stroke-miterlimit="10" d="M59.668,72.095
			c0.008-0.047,0.076-0.097,0.186-0.09c0.088,0.006,0.145,0.055,0.131,0.144c-0.02,0.123-0.09,0.214-0.229,0.188
			C59.668,72.32,59.653,72.24,59.668,72.095z"/>
		<path fill="#274452" stroke="#FAFEFF" stroke-width="0.1" stroke-miterlimit="10" d="M56.448,70.618
			c-0.04-0.006-0.08-0.011-0.119-0.017c-0.044-0.044-0.087-0.088-0.131-0.132c0.081-0.108,0.082-0.297,0.328-0.283
			C56.499,70.336,56.473,70.477,56.448,70.618z"/>
		<path fill="#274452" stroke="#FAFEFF" stroke-width="0.1" stroke-miterlimit="10" d="M24.505,82.797
			c-0.045,0.176-0.221,0.084-0.317,0.155c-0.116-0.053-0.128-0.163-0.148-0.269c0.05-0.121,0.147-0.127,0.256-0.107
			C24.366,82.65,24.435,82.723,24.505,82.797z"/>
		<path fill="#274452" stroke="#FAFEFF" stroke-width="0.1" stroke-miterlimit="10" d="M57.269,57.775
			c-0.048-0.067-0.1-0.108-0.104-0.152c-0.007-0.084,0.037-0.161,0.135-0.134c0.036,0.01,0.072,0.092,0.07,0.139
			C57.369,57.671,57.316,57.711,57.269,57.775z"/>
		<path fill="#274452" stroke="#FAFEFF" stroke-width="0.1" stroke-miterlimit="10" d="M57.151,58.139
			c-0.001,0.085-0.002,0.169-0.003,0.254c-0.107-0.014-0.279,0.028-0.29-0.101C56.842,58.102,57.023,58.138,57.151,58.139z"/>
		<path fill="#274452" stroke="#FAFEFF" stroke-width="0.1" stroke-miterlimit="10" d="M24.538,91.718
			c0.001-0.037,0.001-0.074,0-0.111c0.068-0.134,0.198-0.147,0.324-0.167C24.835,91.627,24.7,91.688,24.538,91.718z"/>
		<path fill="#274452" stroke="#FAFEFF" stroke-width="0.1" stroke-miterlimit="10" d="M71.722,41.788
			c-0.029,0.116-0.108,0.119-0.176,0.104c-0.039-0.008-0.1-0.064-0.097-0.091c0.011-0.087,0.088-0.116,0.165-0.097
			C71.658,41.715,71.691,41.763,71.722,41.788z"/>
		<path fill="#274452" stroke="#FAFEFF" stroke-width="0.1" stroke-miterlimit="10" d="M71.971,67.627
			c-0.003-0.116-0.005-0.232-0.008-0.348c0.107,0.037,0.208,0.09,0.206,0.218C72.168,67.62,72.061,67.618,71.971,67.627z"/>
		<path fill="#274452" stroke="#FAFEFF" stroke-width="0.1" stroke-miterlimit="10" d="M52.685,66
			c0.142,0.207,0.161,0.362,0.033,0.53C52.577,66.381,52.605,66.226,52.685,66z"/>
		<path fill="#274452" stroke="#FAFEFF" stroke-width="0.1" stroke-miterlimit="10" d="M89.565,16.85
			c-0.018,0.107-0.042,0.221-0.161,0.217c-0.129-0.004-0.218-0.097-0.199-0.235c0.017-0.125,0.091-0.224,0.235-0.203
			C89.569,16.648,89.561,16.76,89.565,16.85z"/>
		<path fill="#274452" stroke="#FAFEFF" stroke-width="0.1" stroke-miterlimit="10" d="M72.781,24.907
			c0.074-0.196,0.038-0.444,0.268-0.566C73.022,24.559,73.125,24.84,72.781,24.907z"/>
		<path fill="#274452" stroke="#FAFEFF" stroke-width="0.1" stroke-miterlimit="10" d="M34.962,81.762
			c-0.39,0.069-0.761,0.061-1.056-0.258c0.058,0.001,0.129,0.025,0.174,0C34.461,81.3,34.756,81.373,34.962,81.762z"/>
		<path fill="#274452" stroke="#FAFEFF" stroke-width="0.1" stroke-miterlimit="10" d="M40.52,74.528
			c-0.192-0.018-0.245-0.152-0.273-0.343c0.266-0.06,0.504,0.179,0.762,0.075C40.944,74.528,40.617,74.317,40.52,74.528z"/>
		<path fill="#274452" stroke="#FAFEFF" stroke-width="0.1" stroke-miterlimit="10" d="M41.253,74.027
			c0.179-0.26,0.358-0.519,0.738-0.449C41.79,73.802,41.535,73.937,41.253,74.027z"/>
		<path fill="#274452" stroke="#FAFEFF" stroke-width="0.1" stroke-miterlimit="10" d="M37.699,74.031c0.08,0,0.159,0,0.239,0
			c0.132,0.138,0.223,0.285,0.119,0.481c-0.133,0.254-0.322,0.446-0.602,0.537c0.036-0.143,0.073-0.285,0.109-0.428
			c0.089-0.091,0.072-0.212,0.089-0.322C37.656,74.208,37.637,74.113,37.699,74.031z"/>
		<path fill="#274452" stroke="#FAFEFF" stroke-width="0.1" stroke-miterlimit="10" d="M38.057,74.513
			c-0.04-0.16-0.079-0.321-0.119-0.481l-0.005,0.005c0.084-0.068,0.166-0.076,0.243,0.011c-0.002,0.037-0.002,0.074-0.002,0.111
			C38.149,74.281,38.272,74.453,38.057,74.513z"/>
		<path fill="#274452" stroke="#FAFEFF" stroke-width="0.1" stroke-miterlimit="10" d="M56.327,70.602
			c0.002,0.269,0.004,0.539,0.006,0.808C56.07,71.142,56.08,70.873,56.327,70.602z"/>
		<path fill="#274452" stroke="#FAFEFF" stroke-width="0.1" stroke-miterlimit="10" d="M24.04,82.683
			c0.111,0.055,0.131,0.161,0.148,0.269c-0.012,0.113-0.025,0.225-0.037,0.338c-0.263,0.001-0.526,0.002-0.789,0.003
			c0.058-0.05,0.125-0.151,0.172-0.142C23.921,83.221,23.984,82.96,24.04,82.683z"/>
		<path fill="#274452" stroke="#FAFEFF" stroke-width="0.1" stroke-miterlimit="10" d="M37.816,74.278
			c0.008,0.182-0.104,0.276-0.252,0.344c-0.264-0.169-0.519-0.403-0.813-0.03c-0.061,0.078-0.175,0.025-0.243-0.057
			c0.001-0.044,0.003-0.088,0.004-0.132c0.165-0.204,0.235-0.523,0.594-0.495c0.113,0.09,0.213,0.054,0.266-0.096
			c0.063-0.007,0.125-0.013,0.188-0.02c0.054,0.035,0.206-0.057,0.153,0.117C37.53,74.092,37.681,74.183,37.816,74.278z"/>
		<path fill="#274452" stroke="#FAFEFF" stroke-width="0.1" stroke-miterlimit="10" d="M35.009,74.728
			c-0.092-0.036-0.046-0.085-0.003-0.116c0.052-0.037,0.067-0.146,0.162-0.099c0.018,0.009,0.021,0.071,0.014,0.105
			C35.163,74.71,35.094,74.734,35.009,74.728z"/>
		<path fill="#274452" stroke="#FAFEFF" stroke-width="0.1" stroke-miterlimit="10" d="M70.315,81.742
			c0.001,0.079,0.002,0.157,0.004,0.236c-0.09-0.031-0.254,0.082-0.261-0.086C70.052,81.76,70.207,81.759,70.315,81.742z"/>
		<path fill="#274452" stroke="#FAFEFF" stroke-width="0.1" stroke-miterlimit="10" d="M23.353,84.469
			c0.041-0.199,0.037-0.467,0.359-0.234C23.645,84.395,23.539,84.494,23.353,84.469z"/>
		<path fill="#274452" stroke="#FAFEFF" stroke-width="0.1" stroke-miterlimit="10" d="M37.373,73.812
			c-0.024,0.119-0.047,0.237-0.074,0.37c-0.072-0.103-0.132-0.188-0.192-0.274C37.171,73.806,37.268,73.797,37.373,73.812z"/>
		<path fill="#274452" stroke="#FAFEFF" stroke-width="0.1" stroke-miterlimit="10" d="M38.176,74.047
			c-0.081-0.004-0.162-0.007-0.243-0.011c0.04-0.08,0.08-0.161,0.12-0.241c0.113-0.033,0.226-0.065,0.339-0.097
			C38.598,73.986,38.412,74.032,38.176,74.047z"/>
		<path fill="#274452" stroke="#FAFEFF" stroke-width="0.1" stroke-miterlimit="10" d="M37.816,74.278
			c-0.111-0.002-0.257,0.041-0.306-0.086c-0.063-0.164,0.07-0.235,0.204-0.282c-0.005,0.041-0.01,0.081-0.015,0.122
			C37.738,74.113,37.777,74.196,37.816,74.278z"/>
	</g>
</g>
<g id="Layer_2">
	<g>
		<path fill="#274452" stroke="#FAFEFF" stroke-width="0.1" stroke-miterlimit="10" d="M70.721,42.222
			c0.791-0.157,0.906-0.051,1.058,0.751c0.138,0.727-0.054,1.408-0.189,2.101c-0.088,0.154-0.075,0.357-0.236,0.475
			c-0.205,0.115-0.19,0.333-0.219,0.516c-0.101,0.641-0.281,1.261-0.483,1.873c-0.044,0.133-0.093,0.265-0.149,0.393h8.333
			c0.189-0.164,0.503-0.39,0.304-0.772c-0.036-0.07-0.008-0.143,0.139-0.172c0.451-0.09,0.789-0.436,0.897-0.824
			c0.161-0.579,0.381-1.163,0.351-1.785c0.455-0.848,0.455-0.868,0.003-1.357c0.027-0.193,0.059-0.385,0.079-0.579
			c0.06-0.574-0.048-1.134-0.315-1.628c-0.141-0.261-0.287-0.433-0.347-0.786c-0.168-0.992-0.566-1.95-1.587-2.439
			c-0.038-0.04-0.096-0.073-0.111-0.12c-0.447-1.39-0.584-2.801-0.282-4.241c0.042-0.199,0.125-0.397,0.02-0.664
			c-0.553,0.514-0.971,0.36-1.314-0.194c-0.209-0.337-0.669-0.181-0.918-0.462c-0.077-0.088-0.114,0.035-0.15,0.097
			c-0.342,0.583-0.503,1.228-0.628,1.882c-0.035,0.182,0.056,0.473,0.229,0.356c0.467-0.315,1.087-0.187,1.506-0.582l0-0.001
			c0.261-0.163,0.55,0.011,0.488,0.363c-0.083,0.473-0.083,0.967-0.318,1.418c-0.156,0.299-0.243,0.29-0.516,0.118
			c-0.264-0.166-0.407-0.572-0.73-0.535c-0.424,0.049-0.069,0.582-0.359,0.766c-0.378,0.257-0.465,0.212-0.687-0.356
			c-0.006-0.43-0.198-0.829-0.149-1.279c0.035-0.324-0.151-0.614-0.549-0.363c-0.26,0.164-0.347-0.032-0.487-0.15
			c-0.432,0.111-0.65,0.789-0.388,1.194c0.035,0.055,0.199,0.026,0.124,0.092c-0.312,0.273-0.123,0.696-0.329,0.992
			c-0.082,0.237-0.243,0.396-0.476,0.484c-0.166,0.141-0.331,0.097-0.495-0.004l-0.213,0.031c-0.75,0.565-0.899,1.42-0.374,2.17
			c0.057,0.081,0.144,0.127,0.248,0.13c0.301,0.296,0.055,0.642,0.087,0.963c-0.073,0.242-0.092,0.5-0.216,0.727
			c-0.104,0.235-0.234,0.452-0.43,0.626c-0.255,0.227-0.486,0.005-0.731-0.096C70.25,42.041,70.403,42.286,70.721,42.222z"/>
		<path fill="#274452" stroke="#FAFEFF" stroke-width="0.1" stroke-miterlimit="10" d="M78.745,9.138
			c0.367,0.005,0.651-0.093,0.751-0.506c0.053-0.219,0.189-0.293,0.374-0.083c0.833,0.946,1.809,1.802,2.462,2.859
			c0.535,0.866,1.089,1.675,1.83,2.35c0.734,0.669,1.53,1.266,2.363,1.812c0.431,0.19,0.971,0.194,1.18,0.756
			c0.053,0.142,0.31,0.205,0.414,0.097c0.312-0.323,0.621-0.149,0.912-0.028c0.275,0.115,0.59-0.067,0.837,0.148
			c-0.031,0.453,0.18,0.73,0.605,0.874c0.746,0.253,1.64,0.377,2.224-0.448c0.419-0.592,1.049-1.001,1.404-1.651
			c0.072-0.131,0.184-0.379,0.381-0.266c0.183,0.105,0.179,0.378,0.068,0.536c-0.377,0.536-0.442,1.202-0.798,1.753
			c-0.476,0.739-0.4,1.221,0.151,1.79c0.34,0.171,0.326,0.537,0.455,0.824c0.048,0.248,0.077,0.504,0.25,0.708
			c0.033,0.39,0.181,0.63,0.634,0.537c0.128-0.026,0.272-0.066,0.407,0.004c0.219,0.211-1.361,1.217-1.388,1.224
			c-0.318,0.101-0.724,0.572-0.724,0.572c-0.087,0.043-0.188,0.138-0.26,0.12c-0.462-0.116-0.964-0.401-1.13,0.373
			c-0.468-0.229-1.006,0.241-1.458-0.149c-0.325-0.281-0.641-0.229-0.949,0.032l0.01-0.004c-0.548,0.262-1.078,0.547-1.44,1.062
			l0.005-0.006c-0.715,0.604-1.282,1.331-1.72,2.153c-0.267,0.501-0.518,1-0.324,1.625c0.161,0.518-0.192,0.961-0.379,1.431
			c-0.335-0.183-0.495-0.576-0.874-0.686l0.005,0.004c-0.757-0.525-1.666-0.702-2.488-1.076l0.004,0.003
			c-0.542-0.419-1.019-0.93-1.679-1.181c-0.034,0.05-0.061,0.046-0.079-0.012c-0.211-0.111-0.422-0.223-0.634-0.334
			c-0.131-0.028-0.211-0.108-0.239-0.239c-0.711-0.508-1.285-0.511-2.038-0.011c-0.101,0.188-0.271,0.272-0.469,0.316
			c-0.467,0.31-0.976,0.575-1.244,1.107c-0.065,0.129-0.155,0.164-0.284,0.135c-0.112-0.096-0.105-0.275-0.245-0.351
			c-0.146-0.413-0.52-0.665-0.728-1.038c-0.19-0.342-0.527-0.135-0.8-0.168c-0.201-0.126-0.398-0.161-0.588,0.021
			c-0.367,0.532-0.731,1.065-0.707,1.755c0.089,0.216,0.307,0.254,0.483,0.348c0.067,0.015,0.134,0.029,0.201,0.044l-0.01-0.007
			c0.199,0.394,0.499,0.592,0.949,0.464c0.289-0.082,0.463,0.039,0.646,0.259c0.398,0.478,0.701,1.037,1.385,1.244
			c0.516,0.156,0.284,0.487,0.005,0.739c0,0-0.56,0.363-0.923,0.064c-0.133-0.11-0.392-0.274-0.629-0.084
			c-0.017,0.021-0.034,0.041-0.051,0.062c-0.191,0.071-0.342-0.311-0.55-0.049c-0.133,0.112-0.252,0.291-0.401,0.321
			c-0.374,0.074-0.413,0.31-0.38,0.607c0.036,0.326-0.084,0.527-0.419,0.588c-0.2,0.037-0.389,0.127-0.478,0.312
			c-0.122,0.255-0.28,0.232-0.52,0.184c-0.29-0.058-0.457-0.172-0.524-0.462c-0.154-0.666,0-1.279,0.284-1.876
			c0,0,0.303-1.451-0.376-1.823c-0.346-0.19-0.514-0.533-0.824-0.752c-0.207-0.147-0.204-0.504-0.012-0.756
			c0.262-0.345,0.279-0.724,0.176-1.119c-0.12-0.463,0.064-0.741,0.519-0.788c0.413-0.042,0.666-0.263,0.868-0.588
			c0.067-0.513,0.354-0.124,0.542-0.135c0.162-0.071,0.111-0.239,0.163-0.36c0.045-0.13,0.099-0.251,0.245-0.296
			c0.803-0.563,0.803-0.813-0.004-1.376l0.01,0.007c-0.28-0.548-0.41-0.908,0.337-1.218c0.223-0.093,0.321-0.004,0.459,0.095
			c0.326,0.234,0.652,0.466,0.976,0.703c0.127,0.093,0.343-0.019,0.343-0.019c0.332-0.032,0.663-0.189,0.918,0.241
			c0.123,0.208,0.43,0.219,0.686,0.036c0.715-0.511,1.195-1.288,0.511-2.071c0.077-0.24,0.154-0.461,0.027-0.728
			c-0.254-0.532-0.106-0.94,0.464-1.161c0.239-0.192,0.578-0.273,0.685-0.613l0.022,0.012c0.195-0.711,0.172-1.424,0.018-2.138
			c0.868-1.677,0.545-3.297-0.241-4.89c-0.146-0.297-0.203-0.591-0.102-0.91c0.172-0.189,0.224-0.426,0.262-0.667
			C78.566,9.204,78.583,9.1,78.745,9.138z"/>
		<path fill="#274452" stroke="#FAFEFF" stroke-width="0.1" stroke-miterlimit="10" d="M71.628,36.832
			c-0.043,0.084-0.068,0.187-0.131,0.251c-0.68,0.687-0.229,1.367,0.006,2.049c0.008,0.258-0.081,0.414-0.376,0.382
			c-0.281-0.03-0.419-0.236-0.33-0.445c0.212-0.498-0.103-0.815-0.328-1.156c-0.227-0.345-0.19-0.609,0.117-0.871
			c0.191-0.163,0.365-0.349,0.536-0.535c0.165-0.179,0.39-0.272,0.58-0.162C71.99,36.512,71.578,36.654,71.628,36.832z"/>
		<path fill="#274452" stroke="#FAFEFF" stroke-width="0.1" stroke-miterlimit="10" d="M96.863,20.563
			c-0.084,0.145-0.191,0.268-0.344,0.344c-0.576-0.012-0.655,0.527-0.936,0.843c-0.075-0.167,0.215-0.358-0.035-0.513
			c-0.043-0.081-0.053-0.157,0.036-0.216c0.12-0.143,0.24-0.286,0.361-0.429C96.249,20.494,96.553,20.423,96.863,20.563z"/>
		<path fill="#274452" stroke="#FAFEFF" stroke-width="0.1" stroke-miterlimit="10" d="M69.408,28.209
			c-0.043,0.278-0.084,0.501-0.11,0.726c-0.02,0.174-0.51,0.2-0.591,0.074C68.708,29.008,68.934,28.317,69.408,28.209z"/>
		<path fill="#274452" stroke="#FAFEFF" stroke-width="0.1" stroke-miterlimit="10" d="M73.405,34.044
			c-0.394,0.197-0.442,0.541-0.365,0.918c0.086,0.421,0.011,0.949-0.228,1.361c-0.004-0.121-0.007-0.242-0.011-0.363
			c-0.033-0.026-0.041-0.048-0.025-0.064c0.013-0.014,0.028-0.021,0.042-0.021c0.096-0.115,0.09-0.252,0.086-0.389
			c-0.148-0.179-0.155-0.381-0.101-0.594c-0.09-0.393,0.215-0.652,0.351-0.963C73.203,33.816,73.353,33.924,73.405,34.044z"/>
		<path fill="#274452" stroke="#FAFEFF" stroke-width="0.1" stroke-miterlimit="10" d="M93.145,23.433
			c-0.511-0.223,0.017-0.539-0.05-0.814c-0.017-0.071,0.272-0.009,0.401,0.063c0.131,0.074,0.155,0.218,0.158,0.357
			c0.005,0.197-0.135,0.211-0.279,0.203c-0.147-0.008-0.209,0.075-0.24,0.2L93.145,23.433z"/>
		<path fill="#274452" stroke="#FAFEFF" stroke-width="0.1" stroke-miterlimit="10" d="M97.231,19.943
			c0.149-0.304,0.282-0.685,0.608-0.124c0,0-0.006,0.513-0.382,0.478C97.37,20.187,97.238,20.105,97.231,19.943z"/>
		<path fill="#274452" stroke="#FAFEFF" stroke-width="0.1" stroke-miterlimit="10" d="M72.803,34.89
			c0.213,0.168,0.122,0.387,0.101,0.594c-0.11-0.038-0.224-0.069-0.33-0.116c-0.242-0.107-0.325-0.314-0.205-0.531
			C72.518,34.567,72.643,34.972,72.803,34.89z"/>
		<path fill="#274452" stroke="#FAFEFF" stroke-width="0.1" stroke-miterlimit="10" d="M75.278,36.192
			c-0.005,0.255-0.189,0.288-0.363,0.236c-0.283-0.084-0.362-0.315-0.325-0.593C74.786,36.019,74.848,36.46,75.278,36.192z"/>
		<path fill="#274452" stroke="#FAFEFF" stroke-width="0.1" stroke-miterlimit="10" d="M71.589,40.094
			c0.066,0.283,0.012,0.531-0.216,0.727C71.354,40.552,71.423,40.309,71.589,40.094z"/>
		<path fill="#274452" stroke="#FAFEFF" stroke-width="0.1" stroke-miterlimit="10" d="M73.515,26.126
			c0.184-0.346,0.382-0.318,0.588-0.021C73.907,26.113,73.711,26.119,73.515,26.126z"/>
		<path fill="#274452" stroke="#FAFEFF" stroke-width="0.1" stroke-miterlimit="10" d="M72.336,36.806
			c-0.169,0.397-0.332,0.192-0.496-0.004C72.006,36.803,72.171,36.804,72.336,36.806z"/>
		<path fill="#274452" stroke="#FAFEFF" stroke-width="0.1" stroke-miterlimit="10" d="M75.631,27.311
			c0.262-0.009,0.24,0.181,0.245,0.351C75.624,27.664,75.663,27.463,75.631,27.311z"/>
		<path fill="#274452" stroke="#FAFEFF" stroke-width="0.1" stroke-miterlimit="10" d="M73.291,28.23
			c-0.25,0.007-0.464-0.035-0.483-0.348C72.969,27.997,73.13,28.113,73.291,28.23z"/>
		<path fill="#274452" stroke="#FAFEFF" stroke-width="0.1" stroke-miterlimit="10" d="M71.481,39.759
			c-0.067,0.046-0.107,0.092-0.149,0.094c-0.034,0.002-0.07-0.049-0.106-0.077c0.038-0.035,0.072-0.088,0.116-0.099
			C71.372,39.67,71.417,39.719,71.481,39.759z"/>
		<path fill="#274452" stroke="#FAFEFF" stroke-width="0.1" stroke-miterlimit="10" d="M72.819,35.874
			c0.008,0.031,0.003,0.06-0.018,0.085c-0.089-0.016-0.177-0.032-0.266-0.048c0.021-0.045,0.029-0.108,0.064-0.13
			C72.705,35.714,72.766,35.791,72.819,35.874z"/>
		<path fill="#274452" stroke="#FAFEFF" stroke-width="0.1" stroke-miterlimit="10" d="M101.975,12.473
			c0.045-0.109,0.131-0.218,0.129-0.326c-0.006-0.461,0.146-0.764,0.555-1.073c0.375-0.284,0.801-0.538,0.739-1.117
			c-0.006-0.052,0.034-0.11,0.052-0.165c0.818,0.313,0.567-0.84,1.187-0.867c0.233-0.01,0.121-0.327,0.079-0.51
			c-0.056-0.246-0.087-0.532,0.164-0.627c0.281-0.107,0.316,0.232,0.382,0.396c0.12,0.3,0.285,0.445,0.617,0.424
			c0.546-0.034,1.058-0.21,1.27-0.714c0.196-0.466,0.557-0.753,0.865-1.099c0.207-0.232,0.531-0.179,0.781-0.092
			c0.293,0.102,0.174,0.336,0.059,0.532c-0.063,0.107,0.031,0.178,0.063,0.267c0.134,0.371-0.077,0.457-0.394,0.546
			c-1.142,0.322-2.126,0.911-2.88,1.844c-0.207,0.256-0.338,0.583-0.701,0.682c-0.214,0.059-0.398,0.117-0.585-0.101
			c-0.247-0.29-0.457-0.035-0.427,0.162c0.094,0.614-0.283,0.892-0.703,1.159c-0.207,0.132-0.371,0.295-0.47,0.515
			c-0.187,0.415-0.338,0.836-0.909,0.889c-0.209,0.02-0.29,0.314-0.382,0.5c-0.094,0.192-0.146,0.394-0.406,0.262
			c-0.275-0.139-0.199-0.344-0.053-0.54c0.035-0.046,0.074-0.089,0.111-0.133C101.293,12.901,101.669,12.724,101.975,12.473z"/>
		<path fill="#274452" stroke="#FAFEFF" stroke-width="0.1" stroke-miterlimit="10" d="M95.54,18.404
			c-0.347-0.779,0.344-1.078,0.725-1.495c0.236-0.258,0.438-0.493,0.602-0.823c0.372-0.745,0.922-1.393,1.242-2.181
			c0.199-0.489,1.529,0.241,1.93,0.016c0.053,0.227,0.02,0.509-0.066,0.502c-0.635-0.049-0.832,0.702-1.494,0.758
			c-0.34,0.029-0.813,0.574-1.026,1.064c-0.228,0.525-0.463,1.041-1.07,1.235c-0.17,0.13-0.228,0.307-0.207,0.512
			C96.235,18.553,95.935,18.551,95.54,18.404z"/>
		<path fill="#274452" stroke="#FAFEFF" stroke-width="0.1" stroke-miterlimit="10" d="M116.53,2.977
			c-0.003,0.401-0.088,0.688-0.492,0.537c-0.148-0.055-0.298-0.031-0.445,0.11c-0.322,0.546-0.778,0.682-1.238,0.809
			c-0.43,0.119-0.976,0.477-1.096,0.796c-0.114,0.305-0.322,0.475-0.522,0.641c-0.045-0.111-0.069-0.242-0.074-0.385
			c0.083,0.011,0.142-0.152,0.06-0.174c-0.021-0.005-0.039-0.012-0.056-0.019c0.018-0.255,0.414-0.667,0.514-0.919
			c0.523-0.2,0.702-0.35,1.222-0.527c0.295-0.1,0.53-0.253,0.793-0.434C115.619,3.12,116.043,2.513,116.53,2.977z"/>
		<path fill="#274452" stroke="#FAFEFF" stroke-width="0.1" stroke-miterlimit="10" d="M89.868,16.543
			c-0.406-0.075-0.828-0.03-1.224-0.177c-0.165-0.061-0.237-0.075-0.285,0.179c-0.039,0.207-0.891,0.089-0.897-0.147
			c-0.013-0.569-0.437-0.538-0.771-0.669c-0.066-0.026-0.112-0.105-0.167-0.159c0.846,0.111,1.607,0.515,2.432,0.713
			C89.257,16.354,89.627,16.252,89.868,16.543z"/>
		<path fill="#274452" stroke="#FAFEFF" stroke-width="0.1" stroke-miterlimit="10" d="M101.389,17.501
			c-0.028,0.255-0.999,0.962-1.147,0.877c-0.262-0.151-0.361-0.478-0.142-0.627c0.263-0.178,0.533-0.385,0.834-0.499
			C101.167,17.164,101.302,17.363,101.389,17.501z"/>
		<path fill="#274452" stroke="#FAFEFF" stroke-width="0.1" stroke-miterlimit="10" d="M76.658,10.02
			c0.3,0.13,0.554,0.275,0.537,0.636c-0.011,0.249-0.195,0.355-0.399,0.332c-0.297-0.033-0.424-0.279-0.431-0.545
			C76.361,10.261,76.425,10.057,76.658,10.02z"/>
		<path fill="#274452" stroke="#FAFEFF" stroke-width="0.1" stroke-miterlimit="10" d="M78.628,15.792
			c0.019,0.005,0.046,0.005,0.055,0.017c0.276,0.381,0.228,1.755-0.073,2.121C78.617,17.218,78.623,16.505,78.628,15.792z"/>
		<path fill="#274452" stroke="#FAFEFF" stroke-width="0.1" stroke-miterlimit="10" d="M94.358,19.956
			c-0.302-0.191-0.293-0.555-0.455-0.824c0.038-0.001,0.079-0.013,0.114-0.003C94.819,19.363,94.819,19.364,94.358,19.956z"/>
		<path fill="#274452" stroke="#FAFEFF" stroke-width="0.1" stroke-miterlimit="10" d="M75.762,9.627
			c-0.016-0.136-0.037-0.272-0.045-0.408c-0.007-0.126-0.181-0.327,0.107-0.341c0.197-0.01,0.334,0.095,0.313,0.327
			c-0.016,0.175-0.023,0.351-0.035,0.527C75.928,9.894,75.852,9.737,75.762,9.627z"/>
		<path fill="#274452" stroke="#FAFEFF" stroke-width="0.1" stroke-miterlimit="10" d="M101.975,12.473
			c-0.216,0.345-0.554,0.564-0.858,0.816c-0.276-0.579,0.332-0.49,0.54-0.699C101.729,12.517,101.867,12.51,101.975,12.473z"/>
		<path fill="#274452" stroke="#FAFEFF" stroke-width="0.1" stroke-miterlimit="10" d="M95.585,21.021
			c-0.012,0.072-0.024,0.144-0.036,0.216c-0.306,0.026-0.569,0.163-0.912-0.089c-0.322-0.236-0.118-0.321-0.029-0.484
			C94.814,21.112,95.125,21.271,95.585,21.021z"/>
		<path fill="#274452" stroke="#FAFEFF" stroke-width="0.1" stroke-miterlimit="10" d="M78.745,9.138
			c-0.263,0.226-0.063,0.701-0.46,0.854c0.024-0.279,0.15-0.528,0.149-0.828C78.432,8.713,78.626,9.046,78.745,9.138z"/>
		<path fill="#274452" stroke="#FAFEFF" stroke-width="0.1" stroke-miterlimit="10" d="M78.589,17.918
			c-0.046,0.408-0.358,0.519-0.685,0.613C78.132,18.327,78.361,18.123,78.589,17.918z"/>
		<path fill="#274452" stroke="#FAFEFF" stroke-width="0.1" stroke-miterlimit="10" d="M75.762,9.627
			c0.104,0.066,0.207,0.132,0.34,0.105c0.018,0.126-0.017,0.239-0.158,0.23C75.731,9.949,75.767,9.771,75.762,9.627z"/>
		<path fill="#274452" stroke="#FAFEFF" stroke-width="0.1" stroke-miterlimit="10" d="M77.292,15.076
			c-0.097-0.008-0.185-0.009-0.172-0.113c0.005-0.037,0.066-0.088,0.109-0.096c0.075-0.014,0.158,0.012,0.149,0.11
			C77.375,15.016,77.316,15.05,77.292,15.076z"/>
		<path fill="#274452" stroke="#FAFEFF" stroke-width="0.1" stroke-miterlimit="10" d="M71.712,41.787
			c-0.029,0.116-0.108,0.119-0.176,0.104c-0.039-0.008-0.1-0.064-0.097-0.091c0.011-0.087,0.088-0.116,0.165-0.097
			C71.647,41.714,71.681,41.762,71.712,41.787z"/>
		<path fill="#274452" stroke="#FAFEFF" stroke-width="0.1" stroke-miterlimit="10" d="M89.555,16.849
			c-0.018,0.107-0.042,0.221-0.161,0.217c-0.129-0.004-0.218-0.097-0.199-0.235c0.017-0.125,0.091-0.224,0.235-0.203
			C89.559,16.647,89.551,16.759,89.555,16.849z"/>
		<path fill="#274452" stroke="#FAFEFF" stroke-width="0.1" stroke-miterlimit="10" d="M72.77,24.906
			c0.074-0.196,0.038-0.444,0.268-0.566C73.011,24.559,73.115,24.839,72.77,24.906z"/>
	</g>
</g>
</svg>
