<?xml version="1.0" encoding="utf-8"?>
<!-- Generator: Adobe Illustrator 16.0.0, SVG Export Plug-In . SVG Version: 6.00 Build 0)  -->
<!DOCTYPE svg PUBLIC "-//W3C//DTD SVG 1.1//EN" "http://www.w3.org/Graphics/SVG/1.1/DTD/svg11.dtd">
<svg version="1.1" id="图层_1" xmlns="http://www.w3.org/2000/svg" xmlns:xlink="http://www.w3.org/1999/xlink" x="0px" y="0px"
	 width="1024px" height="660px" viewBox="0 0 1024 660" enable-background="new 0 0 1024 660" xml:space="preserve">
<g>
	<g id="Selected_Items_1_">
		<path fill-rule="evenodd" clip-rule="evenodd" fill="#FFFFFF" d="M708.55,140.169c0,2.067,0.017,3.567,0.05,4.5
			c-0.2,0.1-0.384,0.184-0.55,0.25c-0.134,0.267-0.217,0.567-0.25,0.9c-0.033,0.733,0.25,1.933,0.85,3.6
			c-0.467-0.267-0.783-0.417-0.95-0.45c-0.267-0.067-0.433,0.066-0.5,0.4c-0.133,0.467-0.116,1.317,0.051,2.55
			c0.267,1.5,0.433,2.45,0.5,2.85c-0.167,0-0.334,0.017-0.5,0.05c-0.167,0.066-0.301,0.167-0.4,0.3c-0.233,0.3-0.366,0.8-0.4,1.5
			c0.034,0.6,0.084,1.333,0.15,2.2c0.1,1.066,0.316,2.15,0.65,3.25c0.1,0.4,0.199,0.783,0.3,1.15c0.7,1.8,1.5,3.467,2.399,5
			c-0.199-0.1-0.55-0.25-1.05-0.45c-0.366-0.1-0.633-0.066-0.8,0.1c0,0.267,0.033,0.5,0.1,0.7c0,0.167,0.034,0.35,0.101,0.55
			c0.5,1.233,1.55,3.417,3.149,6.55l-0.899-0.65c-0.134-0.033-0.217-0.05-0.25-0.05c-0.233-0.133-0.283,0.117-0.15,0.75
			c0.367,0.9,1.2,2.767,2.5,5.6c1.334,2.6,2.25,4.25,2.75,4.95c-0.1-0.033-0.666-0.633-1.7-1.8c-0.533-0.667-0.983-0.95-1.35-0.85
			c-0.1,0,0,0.45,0.3,1.35c0.267,0.7,0.5,1.25,0.7,1.65c0.366,0.7,1.083,1.8,2.15,3.3l1.699,2.2c0.134,1.1,0.351,2.233,0.65,3.4
			c0.667,2.5,1.483,4.2,2.45,5.1c0.133,0.1,0.316,0.25,0.55,0.45c0.233,0.167,0.384,0.283,0.45,0.35c-0.134,0.034-0.3,0.067-0.5,0.1
			c-0.267,0.033-0.467,0.167-0.601,0.4l2.301,3.35c0.566,0.833,1.183,1.633,1.85,2.4c0.167,0.1,0.35,0.233,0.55,0.4
			c0.601,0.5,1.167,0.867,1.7,1.1l2.5,4.05c0.134,0.233,0.4,0.517,0.8,0.85c0.4,0.4,0.634,0.566,0.7,0.5
			c0.134-0.267,0.05-0.667-0.25-1.2c-0.434-1.033-0.684-1.617-0.75-1.75c0.366,0.533,1.167,1.533,2.4,3
			c1.333,1.6,2.233,2.617,2.699,3.05c0.267,0.267,0.417,0.267,0.45,0c0-0.066-0.017-0.15-0.05-0.25l-0.25-0.7
			c1.566,1.867,2.65,3.083,3.25,3.65c0.066,0.067,0.134,0.117,0.2,0.15c0.133,0.033,0.267,0.083,0.399,0.15
			c0.167-0.066,0.267-0.25,0.301-0.55c-0.067-0.4-0.117-0.683-0.15-0.85c0.7,0.9,1.483,1.8,2.35,2.7
			c0.233,0.133,0.434,0.316,0.601,0.55c0.566,0.4,1.166,0.733,1.8,1c0.467,0.167,0.866,0.333,1.2,0.5
			c0.366,0.1,0.666,0.083,0.899-0.05c0.067-0.067,0.134-0.167,0.2-0.3c0.033-0.167,0.084-0.267,0.15-0.3
			c0.2,0.067,0.717,0.333,1.55,0.8c0.667,0.4,1.134,0.583,1.4,0.55c0.166,0.033,0.267-0.083,0.3-0.35c0-0.1-0.05-0.333-0.15-0.7
			c0.9,0.7,1.566,1.083,2,1.15c0.167,0.066,0.334,0.05,0.5-0.05c0.101-0.066,0.184-0.183,0.25-0.35c0.533,0.267,1.4,0.567,2.601,0.9
			c1.033,0.333,1.883,0.633,2.55,0.9c-1.2-0.133-2.934-0.283-5.2-0.45c-1.8-0.167-3.384-0.4-4.75-0.7
			c-1.134,0.133-2.316,0.05-3.55-0.25c-1.4-0.333-2.8-0.85-4.2-1.55c0.134,0,0.4,0.067,0.8,0.2c0.367,0.033,0.584-0.033,0.65-0.2
			c-1-0.566-2.033-1.367-3.101-2.4c-0.433-0.2-0.783-0.433-1.05-0.7c0.634,1,0.934,1.517,0.9,1.55c-0.334-0.3-0.95-0.934-1.851-1.9
			c-0.866-0.867-1.517-1.45-1.949-1.75l-0.2,0.35c-0.267-0.233-0.767-0.7-1.5-1.4c-0.5-0.6-0.967-1.05-1.4-1.35
			c0,0.034,0.134,0.284,0.4,0.75c0.1,0.233,0.217,0.467,0.35,0.7l-6.2-6.45l0.7,0.25c0.434,0.1,0.45-0.05,0.05-0.45
			c-0.267-0.267-0.733-0.617-1.399-1.05l-0.8-0.4l-1.95-2.9c-0.134-0.133-0.267-0.267-0.4-0.4l-1.649-2.35
			c-0.267-0.567-0.534-1.233-0.801-2l-2.6-4.35l-0.25-1.6c-0.2-1.233-0.4-2.15-0.6-2.75c-0.367-0.733-0.567-0.75-0.601-0.05
			l-0.05,1.25l-5.25-12.55c0.233,0.233,0.45,0.483,0.65,0.75c0.466,0.566,0.733,0.883,0.8,0.95c-0.2-0.8-0.55-1.767-1.05-2.9
			c-0.634-1.467-1.017-2.417-1.15-2.85l0.55-0.2c-0.267-0.833-0.733-2.133-1.399-3.9c-0.767-1.9-1.25-3.2-1.45-3.9
			c0.066,0,0.533,0.717,1.399,2.15c-0.133-0.533-0.267-1.15-0.399-1.85c-0.8-2.2-1.351-4.25-1.65-6.15
			c-0.2,0.167-0.35,0.534-0.45,1.1c-0.033,0.7-0.066,1.2-0.1,1.5c-0.366-2.667-0.483-5.233-0.35-7.7c0.066-2.233,0.399-4.267,1-6.1
			c0.233-2.333,0.566-4.934,1-7.8c0.699-3.933,1.199-6.883,1.5-8.85C708.533,136.736,708.55,138.269,708.55,140.169z M715.3,146.219
			c0.1,2,0.583,3.75,1.45,5.25c0.533,0.9,1.383,2.8,2.55,5.7c1.133,2.467,1.934,4.034,2.399,4.7c-2.199-2.467-3.366-3.667-3.5-3.6
			c-0.1,1.9,0.667,4.6,2.301,8.1c-0.134,0-0.567-0.383-1.301-1.15c-0.699-0.767-1.133-1.133-1.3-1.1c0.4,2.533,1.367,5.1,2.9,7.7
			c1.434,2.367,3.116,4.417,5.05,6.15c-0.333,0.1-0.9,0.233-1.7,0.4c-0.666,0.133-1.166,0.383-1.5,0.75
			c-0.333,0.5,0.101,2.733,1.3,6.7c1.134,3.933,2,6.383,2.601,7.35c0.399,0.633,0.633,0.95,0.7,0.95
			c0.033,0.067,0.5,0.533,1.399,1.4c-0.733,0.3-1.166,0.633-1.3,1c0,0.1,0.05,0.383,0.15,0.85c0.333,0.933,0.649,1.6,0.949,2
			c0.467,0.533,0.784,0.983,0.95,1.35c0.233,0.333,0.517,0.816,0.851,1.45c0.399,0.6,0.633,0.9,0.699,0.9
			c0.467,0.233,0.934,0.35,1.4,0.35c0.3,0.934,0.717,1.784,1.25,2.55c0.467,0.667,1,1.25,1.6,1.75c0.534,0.467,0.967,0.8,1.301,1
			c0.433,0.267,0.833,0.333,1.199,0.2c0.134,0.034,0.317-0.017,0.551-0.15c0.1-0.167,0.199-0.3,0.3-0.4
			c0.233,0.2,0.733,0.717,1.5,1.55c0.6,0.667,1.116,1.067,1.55,1.2c0.267,0.067,0.483-0.1,0.65-0.5
			c0.066-0.033,0.199-0.317,0.399-0.85c0.566,1.133,1.117,1.85,1.65,2.15c0.233,0.133,0.45,0.167,0.649,0.1
			c0.2-0.066,0.417-0.167,0.65-0.3c0.5,0.367,1.434,0.95,2.8,1.75c1.167,0.7,2.117,1.35,2.851,1.95c-1.5-0.533-3.7-1.283-6.601-2.25
			c-2.7-0.933-4.967-1.833-6.8-2.7c-1.366-0.633-2.366-1.133-3-1.5c-1.134-0.733-2.15-1.517-3.05-2.35
			c-0.434-0.433-0.867-0.933-1.3-1.5c-0.067-0.1-0.167-0.233-0.301-0.4c-1.733-1.867-2.866-3.184-3.399-3.95
			c0.033-0.833-0.267-1.667-0.9-2.5c-0.267-0.467-0.75-1.183-1.45-2.15l0.801-0.2c-0.267-0.833-0.784-2.017-1.551-3.55
			c-1.133-1.9-1.783-3.05-1.949-3.45c0.133-0.066,0.416,0.05,0.85,0.35c0.4,0.4,0.634,0.567,0.7,0.5
			c-0.2-0.967-0.733-2.55-1.601-4.75c-1.033-2.433-1.649-3.917-1.85-4.45c0.033-0.133,0.35,0.183,0.95,0.95
			c0.5,0.633,0.767,0.983,0.8,1.05c-0.767-4.2-1.75-7.817-2.95-10.85c-1.133-3-1.967-5.9-2.5-8.7c0.033-0.066-0.217-1.833-0.75-5.3
			c-0.533-3.9-0.816-6.75-0.85-8.55c0-2.833,0.149-5.183,0.45-7.05C715,142.252,715.1,143.619,715.3,146.219z M782.649,257.069
			c0.167-0.034,0.65,0.867,1.45,2.7c0.934,2.033,1.533,3.2,1.8,3.5c0.134,0.333,0.233,0.9,0.3,1.7c0.034,1,0.067,1.6,0.101,1.8
			c0.033,0.233,0.116,0.383,0.25,0.45c0.166,0.133,0.316,0.1,0.45-0.1c0.433-0.267,0.899-0.733,1.399-1.4
			c0.634-0.833,1.066-1.383,1.3-1.65c-0.466,1.1-0.75,2.167-0.85,3.2c-0.1,1.4,0.134,2.767,0.7,4.1c0.066,0.2,0.333,0.65,0.8,1.35
			c0.3,0.5,0.483,1,0.55,1.5c0.066,0.333,0.2,0.634,0.4,0.9s0.45,0.383,0.75,0.35c0.333-0.1,0.684-0.383,1.05-0.85
			c0.366-0.533,0.634-0.934,0.8-1.2c0,2.033,0.184,3.883,0.55,5.55c0.467,1.967,1.15,3.434,2.051,4.4
			c0.1-0.101,0.183-0.417,0.25-0.95c0.066-0.533,0.116-0.816,0.149-0.85c0.033,0.066,0.184,0.966,0.45,2.699
			c0.233,1.301,0.533,2.051,0.9,2.25c0.1-0.033,0.316-0.449,0.649-1.25c0.334,1.4,0.733,3.101,1.2,5.101
			c0.4,1.5,0.917,2.733,1.55,3.7c-0.2-0.134-0.95-1.051-2.25-2.75c-1.233-1.634-1.934-2.617-2.1-2.95c-0.8-1.5-1.95-4-3.45-7.5
			c-0.8-1.9-1.983-3.8-3.55-5.7c-0.066,0.033,0.017,0.583,0.25,1.65c0.267,1.1,0.383,1.666,0.35,1.699
			c-0.166-0.366-0.649-1.467-1.45-3.3c-0.767-1.8-1.283-2.934-1.55-3.399c-0.1,0.1-0.083,0.649,0.05,1.649
			c0.134,1,0.167,1.533,0.101,1.601c-0.101-0.233-0.434-1.301-1-3.2c-0.467-1.667-0.8-2.717-1-3.15l-0.4,0.5
			c-0.166-0.767-0.283-1.317-0.35-1.65c-0.134-0.667-0.384-1.1-0.75-1.3c-0.101-0.4-0.2-1.033-0.3-1.9
			c-0.101-0.833-0.2-1.467-0.301-1.9C783.216,259.169,782.783,257.369,782.649,257.069z M779.949,272.219
			c-0.166,0.533-0.166,1.101,0,1.7c0.167,0.566,0.417,1.05,0.75,1.45c0.434,0.533,0.834,1.283,1.2,2.25
			c0.5,1.333,0.834,2.149,1,2.45c1.101,2.199,2.367,3.75,3.8,4.649c1.067,0.7,2.25,1.05,3.551,1.05c-0.334,0.2-1.067,0.533-2.2,1
			c-0.9,0.4-1.584,0.834-2.05,1.301c-0.233,0.133-0.334,0.399-0.301,0.8c0.034,0.366,0.15,0.666,0.351,0.899
			c0.166,0.167,0.767,0.717,1.8,1.65c0.733,0.667,1.25,1.316,1.55,1.95c0.566,2.267,1.584,4.183,3.05,5.75
			c1.434,1.566,3,2.399,4.7,2.5c0.233,0.033,0.5,0.05,0.8,0.05c0.367-0.033,0.634-0.05,0.801-0.05c-0.2,0.133-0.5,0.383-0.9,0.75
			c-0.333,0.3-0.583,0.616-0.75,0.95c2.134,1.899,3.583,3.183,4.35,3.85c1.267,1.133,2.784,2.25,4.551,3.35
			c-2.567-0.666-6-2.416-10.301-5.25c-1.733-1.5-2.983-2.483-3.75-2.949c-0.133-0.367-0.3-0.75-0.5-1.15
			c-0.8-1.667-1.517-2.917-2.149-3.75c-0.367-0.5-0.95-1.184-1.75-2.05c-0.834-0.867-1.417-1.533-1.75-2
			c-0.033-0.834-0.351-1.65-0.95-2.45c-0.333-0.434-0.833-1.083-1.5-1.95l0.65-0.35c-0.334-0.733-1.233-2.217-2.7-4.45
			c-1.634-2.5-2.55-3.934-2.75-4.3c0.066-0.067,0.583,0.399,1.55,1.399c0.967,1.067,1.5,1.551,1.6,1.45
			c-0.333-0.8-1.216-2.616-2.649-5.45c-1.5-2.967-2.384-4.767-2.65-5.399c0.033-0.033,0.55,0.616,1.55,1.95
			c0.967,1.333,1.467,1.982,1.5,1.949c-1.199-4.466-2.566-8.183-4.1-11.149c-0.267-0.5-1.634-4.083-4.1-10.75
			c0.133-0.067,0.85,1.267,2.149,4c1.267,2.7,1.983,4.033,2.15,4c0.566,1.067,1.233,2.133,2,3.2c1.467,2.033,3.217,3.867,5.25,5.5
			c-0.334,0.1-0.851,0.267-1.55,0.5C780.649,271.336,780.216,271.719,779.949,272.219z M768.125,277.494
			c0.042,0.046,0.101,0.088,0.175,0.125c0.467,0.467,0.816,0.866,1.05,1.2c-0.134,0.033-0.267,0.083-0.4,0.149
			c0.733,1.533,1.517,2.851,2.351,3.95c0.967,1.133,1.95,2,2.95,2.6c-0.134,0.134-0.334,0.301-0.601,0.5
			c-0.166,0.167-0.3,0.417-0.399,0.75c0,0.301,0.35,0.95,1.05,1.95c0.566,0.867,1.083,1.583,1.55,2.15
			c0.333,0.467,1.116,1.149,2.35,2.05c1.2,0.833,2.067,1.4,2.601,1.7c-0.533-0.033-1.066-0.084-1.601-0.15
			c-0.3,0.033-0.533,0.233-0.699,0.601c-0.134,0.1,0.949,0.949,3.25,2.55l2.149-0.15l0.3,2.05c0.367,1.367,0.851,2,1.45,1.9
			c0.101-0.033,0.767,0.5,2,1.6l1.7,1.551c-3.434-1.367-5.384-2.217-5.85-2.551c-0.367-0.433-0.733-0.8-1.101-1.1
			c-0.3-0.467-0.6-0.816-0.899-1.05c-2.801-2.7-4.384-4.233-4.75-4.601c0.066-0.066,0.199-0.033,0.399,0.101
			c0.367,0.1,0.566,0.149,0.601,0.149c-0.301-0.3-0.851-0.883-1.65-1.75c-0.934-0.899-1.517-1.483-1.75-1.75
			c0.033-0.1,0.267-0.017,0.7,0.25c0.434,0.167,0.649,0.217,0.649,0.15c-0.466-0.667-1.216-1.783-2.25-3.35l0.101-0.25
			c-1.467-2.834-3.033-6.084-4.7-9.75C768.607,278.434,768.366,277.908,768.125,277.494z M795.649,322.669
			c-0.733-1.2-1.3-2.167-1.7-2.9c0.9,1.033,2.317,2.567,4.25,4.601c1.4,1.566,2.601,3.033,3.601,4.399
			c1.066,0.801,2.066,1.851,3,3.15c1,1.434,1.866,3.066,2.6,4.9c-0.1-0.101-0.283-0.384-0.55-0.851
			c-0.267-0.366-0.517-0.483-0.75-0.35c0.566,1.366,0.983,2.967,1.25,4.8c0.233,0.5,0.4,1,0.5,1.5c0.066-1.5,0.116-2.233,0.15-2.2
			c0.1,0.534,0.233,1.601,0.399,3.2c0.267,1.533,0.483,2.601,0.65,3.2l0.35-0.1c0.134,0.399,0.267,1.216,0.4,2.449
			c0.1,0.967,0.25,1.767,0.45,2.4c0-0.033,0.033-0.384,0.1-1.05c0.033-0.233,0.066-0.5,0.1-0.8l1.4,10.949l-0.45-0.85
			c-0.3-0.4-0.416-0.233-0.35,0.5c0.066,0.434,0.25,1.1,0.55,2l0.5,1.05v4.351c-0.033,0.233-0.033,0.466,0,0.699v3.551
			c-0.134,0.733-0.3,1.583-0.5,2.55l-0.5,6.2l-0.75,1.699c-0.6,1.334-0.983,2.367-1.15,3.101c-0.166,1-0.017,1.184,0.45,0.55
			l0.75-1.25l-3.2,16.1c-0.033-0.399-0.05-0.816-0.05-1.25c-0.033-0.899-0.083-1.399-0.149-1.5c-0.267,0.9-0.551,2.084-0.851,3.551
			c-0.399,1.833-0.666,3.05-0.8,3.649l-0.6-0.2c-0.301,0.9-0.717,2.5-1.25,4.801c-0.467,2.366-0.817,3.966-1.051,4.8
			c-0.033-0.066,0-1.134,0.101-3.2c-0.233,0.667-0.517,1.366-0.851,2.1c-0.699,2.767-1.483,5.134-2.35,7.101
			c0.267,0.1,0.616-0.084,1.05-0.55c0.434-0.7,0.767-1.15,1-1.351c-1.3,2.733-2.767,5.217-4.399,7.45c-1.467,2-3.017,3.65-4.65,4.95
			c-1.634,2.033-3.533,4.233-5.7,6.6c-3,3.167-5.233,5.566-6.7,7.2c0.634-1.167,1.534-2.634,2.7-4.4c1.3-1.966,2.217-3.399,2.75-4.3
			c0.267,0.101,0.5,0.15,0.7,0.15c0.267-0.101,0.5-0.3,0.7-0.601c0.533-0.666,1.066-2.033,1.6-4.1c0.167,0.634,0.3,1.033,0.4,1.2
			c0.233,0.3,0.467,0.316,0.7,0.05c0.433-0.366,0.949-1.217,1.55-2.55c0.7-1.667,1.149-2.667,1.35-3
			c0.134,0.066,0.283,0.149,0.45,0.25c0.2,0.1,0.384,0.133,0.55,0.1c0.367-0.166,0.783-0.55,1.25-1.149
			c0.367-0.534,0.783-1.25,1.25-2.15c0.566-1.066,1.05-2.267,1.45-3.6c0.134-0.434,0.283-0.884,0.45-1.351
			c0.5-2.267,0.833-4.467,1-6.6c0.1,0.267,0.316,0.684,0.649,1.25c0.233,0.434,0.483,0.616,0.75,0.55
			c0.134-0.233,0.267-0.467,0.4-0.7c0.066-0.166,0.116-0.35,0.15-0.55c0.366-1.566,0.85-4.5,1.449-8.8l0.301,1.35
			c0.066,0.101,0.116,0.184,0.149,0.25c0.2,0.334,0.4,0.134,0.601-0.6c0.3-1.134,0.716-3.584,1.25-7.351
			c0.466-3.466,0.75-5.75,0.85-6.85c0.033,0.167,0.116,1.2,0.25,3.1c0.1,1.067,0.316,1.684,0.65,1.851
			c0.133,0.1,0.316-0.367,0.55-1.4c0.233-0.934,0.383-1.649,0.45-2.149c0.133-0.934,0.183-2.584,0.149-4.95l-0.05-3.4
			c0.566-1.133,1.083-2.366,1.55-3.7c0.967-2.899,1.316-5.149,1.05-6.75c-0.066-0.233-0.149-0.533-0.25-0.899
			c-0.066-0.334-0.116-0.601-0.149-0.8c0.133,0.1,0.316,0.25,0.55,0.449c0.233,0.134,0.467,0.167,0.7,0.101l0.149-5
			c-0.033-1.267-0.116-2.55-0.25-3.851c-0.033-0.233-0.083-0.5-0.149-0.8c-0.233-0.899-0.517-1.7-0.851-2.399l0.351-5.75
			c0-0.367-0.05-0.867-0.15-1.5c-0.1-0.733-0.2-1.067-0.3-1c-0.3,0.133-0.467,0.566-0.5,1.3c-0.267,1.3-0.417,2.05-0.45,2.25
			c0.033-0.8-0.05-2.384-0.25-4.75c-0.133-2.566-0.25-4.25-0.35-5.05c-0.134-0.5-0.267-0.617-0.4-0.351
			c-0.1,0.066-0.149,0.15-0.149,0.25l-0.25,0.8c-0.2-2.933-0.384-4.916-0.551-5.949c-0.033-0.101-0.05-0.2-0.05-0.301
			c-0.1-0.199-0.2-0.366-0.3-0.5c-0.2-0.066-0.4,0.051-0.6,0.351c-0.134,0.434-0.267,0.717-0.4,0.85
			c-0.033-1.399-0.134-2.883-0.3-4.45c-0.101-0.333-0.167-0.649-0.2-0.949c-0.267-0.867-0.566-1.65-0.9-2.351
			c-0.3-0.6-0.55-1.1-0.75-1.5c-0.3-0.4-0.6-0.634-0.899-0.7c-0.066,0-0.167,0.033-0.3,0.101c-0.167,0.066-0.301,0.149-0.4,0.25
			c-0.1-0.268-0.35-0.95-0.75-2.051c-0.333-0.933-0.616-1.483-0.85-1.649c-0.134-0.2-0.301-0.184-0.5,0.05
			c-0.101,0.1-0.217,0.366-0.351,0.8c-0.3-1.366-0.633-2.267-1-2.7c-0.1-0.166-0.267-0.267-0.5-0.3
			c-0.066-0.1-0.184-0.083-0.35,0.05C797,324.853,796.449,323.902,795.649,322.669z M800.3,353.969
			c-0.066-0.233-0.217-0.383-0.45-0.449c-0.167-0.101-0.366-0.15-0.6-0.15c-0.134-0.667-0.467-1.783-1-3.35
			c-0.4-1.4-0.667-2.584-0.801-3.551c0.733,1.434,1.851,3.517,3.351,6.25c1.333,2.534,2.366,4.767,3.1,6.7
			c0.634,1.434,1.05,2.533,1.25,3.3c0.4,1.301,0.667,2.617,0.8,3.95c0.034,0.7,0.034,1.434,0,2.2c0,0.167,0,0.333,0,0.5
			c0.101,2.8,0.117,4.7,0.051,5.7c-0.5,0.733-0.801,1.666-0.9,2.8c-0.1,0.6-0.184,1.55-0.25,2.85l-0.7-0.35
			c-0.3,0.9-0.616,2.316-0.95,4.25c-0.366,2.366-0.6,3.783-0.699,4.25c-0.134-0.033-0.267-0.316-0.4-0.85
			c-0.033-0.601-0.1-0.9-0.2-0.9c-0.366,0.967-0.916,2.7-1.649,5.2c-0.733,2.866-1.184,4.6-1.351,5.2c-0.1,0.1-0.133-0.4-0.1-1.5
			c0.066-0.867,0.083-1.351,0.05-1.45c-1.934,4.2-3.384,8.033-4.35,11.5c-1,3.399-2.134,6.5-3.4,9.3
			c-0.033,0.066-0.9,1.816-2.6,5.25c-1.934,3.767-3.417,6.467-4.45,8.1c-1.7,2.534-3.217,4.517-4.55,5.95
			c0.066-0.1,0.8-1.383,2.199-3.85c1.134-1.834,1.851-3.684,2.15-5.55c0.2-1.167,0.7-3.4,1.5-6.7c0.733-2.867,1.116-4.767,1.15-5.7
			c0.066,3.6,0.166,5.417,0.3,5.45c1.2-1.601,2.283-4.5,3.25-8.7c0.066,0.1,0.133,0.75,0.2,1.95c0.033,1.066,0.116,1.649,0.25,1.75
			c1.233-2.5,2.066-5.4,2.5-8.7c0.399-2.967,0.433-5.884,0.1-8.75c0.333,0.167,0.816,0.45,1.45,0.85
			c0.566,0.301,1.083,0.4,1.55,0.301c0.467-0.267,1.483-2.567,3.05-6.9c1.5-4.167,2.316-6.85,2.45-8.05
			c0.1-0.867,0.15-1.334,0.15-1.4c0-0.033-0.067-0.75-0.2-2.149c0.666,0.267,1.166,0.283,1.5,0.05c0.066-0.101,0.2-0.417,0.399-0.95
			c0.301-0.967,0.467-1.75,0.5-2.35c0-0.767,0.051-1.384,0.15-1.851c0.1-0.434,0.184-1.017,0.25-1.75
			c0.1-0.767,0.116-1.184,0.05-1.25c-0.166-0.5-0.416-0.916-0.75-1.25c0.334-1,0.55-2.017,0.65-3.05
			c0.066-0.866,0.033-1.733-0.101-2.6c-0.1-0.733-0.199-1.301-0.3-1.7c-0.2-0.467-0.434-0.783-0.7-0.95
			c-0.133-0.1-0.3-0.15-0.5-0.15c-0.233,0.034-0.383,0.067-0.449,0.101c-0.067-0.334-0.134-1.117-0.2-2.351
			c0-0.933-0.117-1.6-0.351-2c-0.133-0.233-0.383-0.233-0.75,0c-0.066,0-0.333,0.184-0.8,0.551
			C800.449,355.619,800.5,354.603,800.3,353.969z M558.8,74.769c-5.834-1.4-10.334-2.316-13.5-2.75c-4.066-0.533-8.3-0.867-12.7-1
			c0.566-0.6,0.95-1.083,1.15-1.45c0.5-0.7,0.583-1.3,0.25-1.8c-0.334-0.433-1.267-0.717-2.801-0.85l-2.25-0.05l-6.199,1.85
			c-0.567-1.133-1.25-2.25-2.051-3.35c-1.5-2.167-2.8-3.233-3.899-3.2c-1.867,0.067-3.45,0.45-4.75,1.15
			c0.066-0.333,0.416-0.967,1.05-1.9c0.566-0.7,0.833-1.316,0.8-1.85c-0.033-0.2-0.533-0.25-1.5-0.15c-1.333,0.2-2.1,0.284-2.3,0.25
			c-0.6-0.066-2.017,0.017-4.25,0.25c-2.033,0.233-3.55,0.2-4.55-0.1c-3.733-1.733-6.333-2.917-7.8-3.55
			c-2.5-0.9-4.533-1.017-6.101-0.35c-0.232,0.1-0.482,0.233-0.75,0.4c-0.399,0.167-0.666,0.3-0.8,0.4c0.033-0.2,0.033-0.533,0-1
			c0.033-0.333-0.05-0.684-0.25-1.05c-3.6-0.066-7.033,0.333-10.3,1.2c-2.167,0.633-4.833,1.65-8,3.05
			c1.8-1.466,5.583-2.95,11.35-4.45c6.634-1.733,11.667-2.117,15.101-1.15c2.667,0.7,4.783,1.216,6.35,1.55
			c0.934,0.167,1.783,0.7,2.55,1.6c0.667,0.867,1.467,1.383,2.4,1.55c0.934,0.5,2.684,0.533,5.25,0.1
			c2.899-0.5,4.666-0.683,5.3-0.55c-0.066,0.1-0.066,0.5,0,1.2c0.066,0.7,0.05,1.083-0.05,1.15c2,0.534,4.85,0.617,8.55,0.25
			l-0.25,3.15l5.45-0.2c3.866-0.033,6.5,0.183,7.899,0.65c0,0.067-1.033,0.35-3.1,0.85l4.7,1.05c3.833,1,7.434,2.184,10.8,3.55
			c1.7,0.667,3.934,1.95,6.7,3.85C557.133,73.603,557.966,74.169,558.8,74.769z M399.899,97.369c-2.199,0.167-3.966,0.35-5.3,0.55
			c-2.066,0.333-4.017,0.883-5.85,1.65c-0.033,0.167,0.05,0.316,0.25,0.45c0.167,0.167,0.283,0.283,0.35,0.35c-0.133,0-0.3,0-0.5,0
			c-0.233-0.033-0.416-0.05-0.55-0.05c-1.133,0.133-2.417,0.816-3.85,2.05c-0.667,0.533-1.25,1.1-1.75,1.7l-2.2,0.6
			c-1.4,0.434-2.367,0.784-2.9,1.05c-0.267,0.066-0.666,0.3-1.2,0.7c-0.533,0.333-0.767,0.534-0.699,0.6
			c0.233,0.233,0.683,0.283,1.35,0.15c1.167-0.233,1.816-0.35,1.95-0.35c-0.667,0.233-1.967,0.833-3.9,1.8
			c-2.1,1.1-3.483,1.85-4.149,2.25c-0.367,0.3-0.417,0.483-0.15,0.55c0.066,0,0.15,0.017,0.25,0.05l0.8-0.1
			c-2.399,1.267-4.017,2.15-4.85,2.65c-0.101,0.1-0.2,0.167-0.3,0.2c-0.101,0.167-0.217,0.333-0.351,0.5
			c0.033,0.2,0.217,0.333,0.55,0.4c0.4,0.1,0.7,0.167,0.9,0.2c-1.2,0.533-2.434,1.167-3.7,1.9c-0.233,0.167-0.483,0.35-0.75,0.55
			c-0.6,0.567-1.166,1.133-1.7,1.7c-0.399,0.533-0.732,0.967-1,1.3c-0.232,0.434-0.333,0.817-0.3,1.15c0,0.1,0.05,0.217,0.15,0.35
			c0.133,0.1,0.233,0.184,0.3,0.25c-0.133,0.233-0.6,0.733-1.4,1.5c-0.633,0.633-1,1.15-1.1,1.55c-0.133,0.2-0.083,0.35,0.15,0.45
			c0.166,0,0.467,0.033,0.899,0.1c-1.133,0.767-1.816,1.4-2.05,1.9c-0.1,0.167-0.133,0.367-0.1,0.6
			c-0.033,0.1,0.033,0.233,0.199,0.4c-0.399,0.567-1,1.483-1.8,2.75c-0.8,1.133-1.45,2.033-1.95,2.7
			c0.601-1.333,1.434-3.317,2.5-5.95c0.867-2.033,1.684-3.8,2.45-5.3c0.334-1.4,0.9-2.8,1.7-4.2c0.9-1.566,1.983-3.033,3.25-4.4
			c-0.033,0.133-0.2,0.417-0.5,0.85c-0.167,0.433-0.184,0.733-0.05,0.9c1-1,2.217-2,3.649-3c0.334-0.4,0.684-0.717,1.051-0.95
			c-1.233,0.434-1.867,0.633-1.9,0.6c0.4-0.267,1.267-0.8,2.6-1.6c1.268-0.767,2.101-1.333,2.5-1.7l-0.199-0.4
			c0.3-0.233,0.949-0.65,1.949-1.25c0.801-0.467,1.434-0.883,1.9-1.25c-0.066,0.033-0.383,0.1-0.95,0.2
			c-0.233,0.033-0.483,0.083-0.75,0.15l8.851-5.25l-0.601,0.8c-0.2,0.467-0.033,0.533,0.5,0.2c0.367-0.233,0.884-0.683,1.55-1.35
			l0.75-0.8l7.25-3c0.967-0.233,2.051-0.4,3.25-0.5c0.934-0.066,1.551-0.1,1.851-0.1C397.649,97.169,398.866,97.236,399.899,97.369z
			 M624.85,123.719c0.767-1.333,1.267-2.567,1.5-3.7c0.033,0.233-0.083,1.4-0.35,3.5c-0.301,2.067-0.517,3.267-0.65,3.6
			c-0.467,1.633-1.417,4.217-2.85,7.75c-0.767,1.9-1.267,4.067-1.5,6.5c0.066,0.067,0.399-0.367,1-1.3
			c0.566-0.967,0.883-1.45,0.949-1.45c-0.166,0.367-0.616,1.483-1.35,3.35c-0.7,1.8-1.134,2.967-1.3,3.5
			c0.133,0,0.533-0.417,1.2-1.25c0.6-0.767,0.933-1.15,1-1.15c-0.101,0.233-0.617,1.216-1.551,2.95c-0.833,1.5-1.333,2.483-1.5,2.95
			l0.65-0.05c-0.434,0.633-0.75,1.1-0.95,1.4c-0.366,0.566-0.483,1.033-0.35,1.4c-0.233,0.4-0.617,0.933-1.15,1.6
			c-0.533,0.667-0.916,1.183-1.149,1.55c-1.801,2.833-2.75,4.4-2.851,4.7c-0.166-0.067,0.117-1.034,0.851-2.9
			c0.767-2.1,1.166-3.35,1.199-3.75c0.167-0.333,0.483-0.8,0.95-1.4c0.733-0.767,1.15-1.217,1.25-1.35
			c0.134-0.2,0.167-0.367,0.101-0.5c0-0.2-0.117-0.283-0.351-0.25c-0.5-0.1-1.166-0.1-2,0c-1.033,0.167-1.717,0.25-2.05,0.25
			c1.1-0.466,2.05-1.017,2.85-1.65c1.067-0.933,1.867-2.066,2.4-3.4c0.1-0.2,0.233-0.717,0.4-1.55c0.133-0.567,0.35-1.034,0.649-1.4
			c0.167-0.3,0.283-0.617,0.351-0.95c0.066-0.333-0.017-0.6-0.25-0.8c-0.301-0.167-0.75-0.216-1.351-0.15
			c-0.633,0.133-1.116,0.233-1.45,0.3c1.434-1.434,2.617-2.867,3.551-4.3c1.066-1.7,1.633-3.233,1.699-4.6
			c-0.133,0.034-0.433,0.217-0.899,0.55c-0.4,0.3-0.634,0.467-0.7,0.5c0.033-0.1,0.566-0.85,1.6-2.25
			c0.767-1.1,1.084-1.833,0.95-2.2c-0.066-0.033-0.5,0.1-1.3,0.4C622.833,126.936,623.75,125.453,624.85,123.719z M501.149,48.219
			c2.634,0.3,5.367,0.816,8.2,1.55l3.4,1.05c-1.167-1.034-1.75-1.583-1.75-1.65c1.066,0.233,2.866,1.034,5.399,2.4l3.45,1.9l0.9-1.9
			c2.267,1.466,4.133,2.383,5.6,2.75c0-0.034,0.134-0.284,0.4-0.75c0.267-0.367,0.399-0.6,0.399-0.7c0.434,0.167,1.517,0.9,3.25,2.2
			c1.566,1.133,2.717,1.7,3.45,1.7c0.634,0.233,1.333,0.2,2.1-0.1c0.801-0.267,1.517-0.3,2.15-0.1c1.134,0.367,2.684,0.8,4.65,1.3
			c2.533,0.6,5.683,2.533,9.449,5.8c3.267,2.9,5.25,5.067,5.95,6.5c-1.6-1.9-3-3.4-4.2-4.5c-1.866-1.633-3.983-3.05-6.35-4.25
			c-0.267,0.133-0.45,0.3-0.55,0.5c-0.101,0.333-0.184,0.55-0.25,0.65c-0.066-0.1-0.2-0.267-0.4-0.5
			c-0.133-0.2-0.25-0.383-0.35-0.55c-0.834-0.9-2.2-1.5-4.101-1.8c-1.199-0.167-3.283-0.367-6.25-0.6
			c-0.767-0.167-1.75-0.65-2.949-1.45c-1.434-0.933-2.351-1.483-2.75-1.65c-0.134-0.066-0.584-0.35-1.351-0.85
			c-0.633-0.433-0.983-0.6-1.05-0.5c-0.2,0.3-0.25,0.75-0.15,1.35c0.134,0.8,0.167,1.3,0.101,1.5c-0.601-0.867-1.483-1.633-2.65-2.3
			c-0.733-0.4-1.95-0.2-3.649,0.6c-0.9,0.367-1.7,0.783-2.4,1.25l-3.45-3.2l-1.5-0.75c-1.066-0.433-1.783-0.583-2.149-0.45
			c-0.334,0.167-0.45,0.534-0.351,1.1c0,0.333,0.084,0.783,0.25,1.35c-2.899-1.467-5.75-2.717-8.55-3.75
			c-3.833-1.433-7-2.267-9.5-2.5c0.033,0.1-1.6,0.133-4.899,0.1c2.333-0.367,4.616-0.633,6.85-0.8
			C497.983,48.036,499.85,48.052,501.149,48.219z M389.75,105.069c-1.434,0.8-2.684,1.65-3.75,2.55c-1.134,1-1.967,2.017-2.5,3.05
			c-0.134-0.1-0.316-0.3-0.55-0.6c-0.167-0.167-0.417-0.284-0.75-0.35c-0.267,0-0.9,0.383-1.9,1.15c-0.866,0.567-1.533,1.1-2,1.6
			c-0.467,0.367-1.15,1.2-2.05,2.5c-0.767,1.2-1.267,2.066-1.5,2.6c-0.033-0.467-0.017-1,0.05-1.6
			c-0.033-0.333-0.217-0.567-0.55-0.7c-0.2-0.133-1.05,0.983-2.55,3.35l0.25,2.15l-2,0.5c-1.367,0.367-1.983,0.85-1.851,1.45
			c0.033,0.1-0.433,0.783-1.399,2.05l-1.601,1.85c1.233-3.467,2.017-5.467,2.351-6c0.399-0.367,0.733-0.733,1-1.1
			c0.433-0.367,0.75-0.7,0.949-1c2.601-2.833,4.117-4.483,4.551-4.95c0.033,0.033-0.017,0.183-0.15,0.45
			c-0.066,0.333-0.116,0.517-0.15,0.55c0.367-0.267,0.934-0.867,1.7-1.8c0.867-0.867,1.4-1.417,1.601-1.65
			c0.166,0,0.116,0.217-0.15,0.65c-0.167,0.4-0.233,0.617-0.2,0.65c0.667-0.466,1.783-1.267,3.351-2.4l0.25,0.1
			c2.767-1.633,5.933-3.333,9.5-5.1c0.666-0.333,1.233-0.633,1.699-0.9c-0.066,0.1-0.133,0.2-0.199,0.3c-0.5,0.434-0.9,0.767-1.2,1
			C389.934,105.286,389.85,105.169,389.75,105.069z M319.3,172.119l-7.85,11.25l-2,1.05c-1.467,0.833-2.533,1.55-3.2,2.15
			c-0.733,0.833-0.601,1.133,0.399,0.9l1.75-0.65l-12.85,13.4c0.134-0.467,0.3-0.934,0.5-1.4c0.4-0.867,0.6-1.35,0.6-1.45
			c-0.833,0.633-1.833,1.567-3,2.8c-1.533,1.467-2.55,2.417-3.05,2.85l-0.649-0.6c-0.867,0.667-2.267,1.917-4.2,3.75
			c-1.9,1.967-3.25,3.267-4.05,3.9c0.066-0.1,0.699-1.117,1.899-3.05c-0.666,0.434-1.433,0.883-2.3,1.35
			c-2.4,2.167-4.733,3.883-7,5.15c0.367,0.3,0.934,0.367,1.7,0.2c0.967-0.267,1.684-0.417,2.149-0.45
			c-3.232,1.667-6.533,2.95-9.899,3.85c-3.134,0.8-6.167,1.217-9.101,1.25c-3.267,0.733-7.033,1.4-11.3,2
			c-5.767,0.767-10.117,1.367-13.05,1.8c1.5-0.633,3.533-1.383,6.1-2.25c2.834-0.867,4.884-1.5,6.15-1.9
			c0.233,0.233,0.483,0.434,0.75,0.6c0.434,0.067,0.867,0.05,1.3-0.05c1.067-0.233,2.5-1.167,4.3-2.8c0,0.8,0,1.317,0,1.55
			c0.134,0.5,0.434,0.716,0.9,0.65c0.833-0.033,1.983-0.483,3.45-1.35c1.833-1.067,3-1.683,3.5-1.85c0.133,0.1,0.3,0.3,0.5,0.6
			c0.167,0.267,0.399,0.417,0.7,0.45c0.566,0.167,1.3,0.1,2.199-0.2c0.834-0.233,1.801-0.583,2.9-1.05c1.3-0.667,2.6-1.45,3.9-2.35
			c0.5-0.4,0.967-0.733,1.399-1c1.8-1.9,3.351-3.817,4.65-5.75c0.133,0.367,0.267,0.933,0.399,1.7c0,0.6,0.233,1,0.7,1.2
			c0.334-0.133,0.634-0.283,0.9-0.45c0.133-0.1,0.316-0.233,0.55-0.4c1.333-1.233,3.533-3.717,6.6-7.45l-0.35,1.45
			c0.066,0.2,0.1,0.35,0.1,0.45c0.134,0.467,0.518,0.417,1.15-0.15c1.033-0.867,2.884-2.95,5.55-6.25c2.467-3,4.017-5,4.65-6
			c0,0.167-0.384,1.233-1.15,3.2c-0.467,1.133-0.5,1.9-0.1,2.3c0.133,0.233,0.616-0.1,1.45-1c0.833-0.7,1.416-1.284,1.75-1.75
			c0.699-0.8,1.633-2.35,2.8-4.65l1.8-3.35c1.333-0.7,2.667-1.517,4-2.45c2.867-2.133,4.533-4.1,5-5.9
			c0.066-0.2,0.134-0.517,0.2-0.95c0.066-0.433,0.083-0.75,0.05-0.95c0.1,0.2,0.3,0.483,0.6,0.85c0.233,0.333,0.534,0.534,0.9,0.6
			c2-2.867,3.6-6.017,4.8-9.45c0.8-2.333,1.601-5.383,2.4-9.15c0,1.767-0.15,3.9-0.45,6.4c-0.1,0.7-0.3,1.783-0.6,3.25
			C320.667,168.669,320.033,170.519,319.3,172.119z M208.8,243.469c-0.667,0.566-1.2,1.1-1.6,1.6c-0.367,0.533-0.533,1.017-0.5,1.45
			c-1.133,0.467-2.2,1.067-3.2,1.8c-0.967,0.6-1.783,1.25-2.45,1.95c-0.467,0.5-0.883,0.967-1.25,1.4
			c-0.3,0.534-0.417,0.95-0.35,1.25c0.033,0.2,0.1,0.367,0.2,0.5c0.167,0.133,0.317,0.267,0.45,0.4c-0.233,0.2-0.883,0.75-1.95,1.65
			c-0.867,0.767-1.383,1.333-1.55,1.7c-0.1,0.267,0.017,0.5,0.35,0.7c0.167,0,0.583,0.05,1.25,0.15
			c-1.567,0.833-2.483,1.517-2.75,2.05c-0.233,0.2-0.283,0.417-0.15,0.65c-0.034,0.233,0.05,0.45,0.25,0.65
			c-0.467,0.567-1.284,1.617-2.45,3.15c-0.633,0.8-1.183,1.517-1.65,2.15c-0.267,0.7-0.467,1.367-0.6,2
			c-0.2,0.8-0.283,1.55-0.25,2.25c0.067,0.633,0.2,1.133,0.4,1.5c-0.6,1.066-1.066,2.2-1.4,3.4c-0.4,1.066-0.65,2.066-0.75,3
			c-0.133,0.767-0.183,1.399-0.15,1.899c0.033,0.634,0.2,1.066,0.5,1.3c0.1,0.067,0.233,0.117,0.4,0.15
			c0.233,0.033,0.417,0.066,0.55,0.1c-0.033,0.267-0.2,1.117-0.5,2.551c-0.267,1.166-0.35,1.916-0.25,2.25
			c0.1,0.366,0.333,0.482,0.7,0.35c0.167-0.066,0.533-0.267,1.1-0.6c-0.767,1.6-1.1,2.716-1,3.35c0,0.3,0.1,0.517,0.3,0.65
			c0.133,0.133,0.333,0.199,0.6,0.199c-0.067,0.834-0.083,2.217-0.05,4.15c0,1.6-0.017,2.95-0.05,4.05
			c-0.367-1.733-0.967-4.267-1.8-7.6c-0.567-3.101-0.983-5.834-1.25-8.2c-0.133-1.733-0.217-3.033-0.25-3.9
			c-0.067-1.566,0.05-3.133,0.35-4.699c0.333-1.801,1.017-3.9,2.05-6.3c0.567-1.333,1.233-2.717,2-4.15c0.467-1.1,1-2.367,1.6-3.8
			c1.367-2.8,2.683-5.233,3.95-7.3c0.9-1.467,1.583-2.517,2.05-3.15c0.967-1.333,2-2.467,3.1-3.4c1.4-1.267,3.216-2.55,5.45-3.85
			c1.934-1.067,4.15-2.1,6.65-3.1C212.333,241.069,210.3,242.302,208.8,243.469z M325.6,173.519c0.067-0.2,0.067-0.4,0-0.6
			c-0.033-0.1-0.133-0.216-0.3-0.35c0.333-0.633,0.767-1.65,1.3-3.05c0.533-1.267,0.983-2.3,1.351-3.1
			c-0.334,1.434-0.783,3.567-1.351,6.4c-0.433,2.133-0.883,4.017-1.35,5.65c-0.033,1.433-0.316,2.917-0.851,4.45
			c-0.566,1.7-1.35,3.367-2.35,5c0.033-0.2,0.15-0.533,0.35-1c0.067-0.466,0.018-0.767-0.149-0.9c-0.767,1.2-1.767,2.4-3,3.6
			c-0.267,0.5-0.55,0.9-0.851,1.2c1.134-0.667,1.717-0.983,1.75-0.95c-0.333,0.333-1.066,1.017-2.199,2.05
			c-1.101,1-1.834,1.733-2.2,2.2l0.3,0.3c-0.233,0.3-0.783,0.833-1.65,1.6c-0.699,0.633-1.25,1.184-1.649,1.65
			c0.066-0.066,0.366-0.216,0.899-0.45c0.2-0.067,0.434-0.15,0.7-0.25l-7.6,6.85l0.35-0.9c0.134-0.466-0.033-0.5-0.5-0.1
			c-0.333,0.3-0.767,0.833-1.3,1.6l-0.55,1l-6.55,4.3c-0.2,0.1-0.4,0.183-0.601,0.25c-0.833,0.633-1.366,1-1.6,1.1
			c-1.5,0.8-4,1.95-7.5,3.45c-1.9,0.8-3.8,1.983-5.7,3.55c0.033,0.066,0.583-0.017,1.65-0.25c1.1-0.267,1.666-0.383,1.699-0.35
			c-0.366,0.167-1.466,0.65-3.3,1.45c-1.8,0.767-2.933,1.284-3.399,1.55c0.1,0.1,0.649,0.083,1.649-0.05s1.533-0.167,1.601-0.1
			c-0.233,0.1-1.301,0.433-3.2,1c-1.667,0.466-2.717,0.8-3.15,1l0.5,0.4c-0.767,0.167-1.316,0.283-1.649,0.35
			c-0.667,0.133-1.101,0.383-1.301,0.75c-0.399,0.1-1.033,0.2-1.899,0.3c-0.833,0.1-1.467,0.2-1.9,0.3
			c-1.233,0.8-2.017,1.267-2.35,1.4c-0.533,0.066-1.017,0.183-1.45,0.35c-0.566,0.034-1.017,0.1-1.35,0.2
			c-3.801,0.8-6,1.267-6.601,1.4c0-0.066,0.134-0.15,0.4-0.25c0.233-0.267,0.366-0.4,0.399-0.4c-0.433,0.033-1.216,0.183-2.35,0.45
			c-1.233,0.2-2.017,0.35-2.35,0.45c-0.101-0.1,0.083-0.25,0.55-0.45c0.366-0.233,0.533-0.383,0.5-0.45
			c-0.543,0-1.343,0.008-2.4,0.025c-0.24,0.086-0.474,0.178-0.7,0.275c-1.433,0.767-2.6,1.633-3.5,2.6
			c-0.066-0.167-0.149-0.483-0.25-0.95c-0.1-0.333-0.316-0.617-0.649-0.85c-0.233-0.2-0.983-0.083-2.25,0.35
			c-1,0.367-1.833,0.716-2.5,1.05c-0.6,0.233-1.55,0.95-2.85,2.15c-1.233,1.133-2.05,2-2.45,2.6c0.167-0.633,0.367-1.3,0.6-2
			c0.1-0.433,0.017-0.833-0.25-1.2c-0.1-0.233-1.317,0.767-3.65,3l-0.6,2.95l-2.1-0.55c-1.434-0.2-2.2,0.15-2.3,1.05
			c-0.033,0.133-0.767,0.75-2.2,1.85l-0.525,0.4c-1.311,2.521-3.02,5.621-5.125,9.3l-0.4-1c-0.566,0.467-1.283,2.067-2.15,4.8
			c-0.633,1.867-1.167,3.767-1.6,5.7l0.1-5.55c-1.3-0.633-2.617-0.983-3.95-1.05c-2.667-0.133-4.017,1.233-4.05,4.1
			c-0.3-0.6-0.45-1.25-0.45-1.95l0.05-0.85l-2.15,2.2c-1.533,1.633-2.4,2.833-2.6,3.6c-0.833,2.7-1.233,5.4-1.2,8.1
			c0.1,2.067,0.434,4.15,1,6.25c-0.267-0.433-0.8-1.5-1.6-3.199c-0.667-1.4-1.25-2.4-1.75-3c-0.2-0.267-0.517,0.233-0.95,1.5
			c-0.433,1.167-0.667,2.017-0.7,2.55c-0.1,0.899-0.367,2.083-0.8,3.55c-0.433,1.5-0.65,2.333-0.65,2.5
			c-0.233,1.7-0.517,3.583-0.85,5.65c-0.133,1.633,0.117,3.666,0.75,6.1l1.55,5.35c-0.1-0.1-0.5-0.717-1.2-1.85
			c-0.567-0.867-0.983-1.384-1.25-1.55c-0.167,7.066,0.983,15.316,3.45,24.75c-0.767-2.067-1.583-4.917-2.45-8.55
			c-1.033-4.334-1.8-7.268-2.3-8.801c0,0.967,0.117,2.533,0.35,4.7c0.233,2.066,0.317,3.617,0.25,4.65
			c-1.467-6.067-2.2-9.033-2.2-8.9c-0.233-7.133,0.417-12.917,1.95-17.35c0.2-0.601,0.35-1.4,0.45-2.4
			c0.066-1.267,0.133-2.116,0.2-2.55l1.1-7.55c0.467-0.4,0.817-1.233,1.05-2.5c0.133-0.7,0.3-1.783,0.5-3.25l0.55,0.95
			c0.267-0.8,0.567-1.95,0.9-3.45c0.434-1.867,0.717-3.083,0.85-3.65l0.8,1c0.3-0.7,1.034-2.067,2.2-4.1
			c1.167-1.9,1.9-3.267,2.2-4.1c0.066,0.067-0.017,0.617-0.25,1.65c-0.167,1.067-0.233,1.633-0.2,1.7
			c0.667-1.167,2.733-2.95,6.2-5.35c1.767-1.233,3.45-2.333,5.05-3.3l-1.7,1.95c-1.033,1.233-1.283,1.784-0.75,1.65
			c3.593-1.031,7.26-3.881,11-8.55c2.022-3.119,3.256-4.885,3.7-5.3c0.5-0.233,0.967-0.533,1.4-0.9
			c0.533-0.233,0.967-0.483,1.3-0.75c3.566-2.367,5.617-3.717,6.15-4.05c0.033,0.1-0.067,0.267-0.3,0.5c-0.2,0.4-0.3,0.633-0.3,0.7
			c0.4-0.233,1.15-0.7,2.25-1.4c1.167-0.767,1.917-1.233,2.25-1.4c0.067,0.067-0.083,0.317-0.45,0.75
			c-0.367,0.434-0.517,0.684-0.45,0.75c0.833-0.267,2.183-0.7,4.05-1.3l0.2,0.25c1.274-0.247,2.608-0.48,4-0.7
			c0.399-0.033,2.033-0.433,4.899-1.2c3.033-0.833,4.767-1.383,5.2-1.65c-0.233,0.4-0.55,0.816-0.95,1.25
			c-0.166,0.3-0.166,0.6,0,0.9c0.067,0.2,1.4-0.233,4-1.3l1.101-1.85l1.899,0.8c0.601,0.2,1.101,0.317,1.5,0.35
			c0.267-0.133,0.517-0.267,0.75-0.4c0.033-0.034,0.05-0.067,0.05-0.1c0.034-0.067,0.351-0.184,0.95-0.35
			c0.834-0.433,1.351-0.733,1.55-0.9c0.334-0.133,0.9-0.233,1.7-0.3c1-0.033,1.601-0.066,1.8-0.1c0.233-0.034,0.384-0.117,0.45-0.25
			c0.134-0.167,0.101-0.317-0.1-0.45c-0.267-0.433-0.733-0.9-1.4-1.4c-0.833-0.633-1.383-1.067-1.649-1.3
			c1.1,0.467,2.166,0.75,3.199,0.85c1.4,0.1,2.768-0.133,4.101-0.7c0.2-0.067,0.649-0.333,1.35-0.8c0.5-0.3,1-0.483,1.5-0.55
			c0.334-0.067,0.634-0.2,0.9-0.4c0.267-0.2,0.383-0.45,0.35-0.75c-0.1-0.333-0.383-0.684-0.85-1.05
			c-0.533-0.367-0.934-0.633-1.2-0.8c2.033,0,3.884-0.184,5.55-0.55c1.967-0.466,3.434-1.15,4.4-2.05
			c-0.066-0.067-0.184-0.117-0.351-0.15c-0.3,0.033-0.6,0.066-0.899,0.1c0.2-0.067,0.399-0.117,0.6-0.15
			c-0.1-0.033-0.2-0.05-0.3-0.05c-0.533-0.067-0.816-0.117-0.85-0.15c0.066-0.033,0.967-0.184,2.699-0.45
			c1.301-0.233,2.051-0.533,2.25-0.9c-0.033-0.1-0.449-0.317-1.25-0.65c1.4-0.333,3.101-0.733,5.101-1.2
			c0.8-0.2,1.517-0.433,2.149-0.7c0.034-0.034,0.067-0.067,0.101-0.1c0-0.133-0.101-0.25-0.3-0.35c-0.2-0.1-0.351-0.183-0.45-0.25
			c0.1-0.067,0.267-0.117,0.5-0.15c0.2,0,0.383-0.033,0.55-0.1c1.033-0.3,2.15-1.2,3.35-2.7c0.601-0.633,1.067-1.3,1.4-2l2.05-1
			c1.3-0.7,2.167-1.233,2.601-1.6c0.267-0.167,0.616-0.483,1.05-0.95c0.5-0.433,0.717-0.683,0.649-0.75
			c-0.3-0.167-0.75-0.1-1.35,0.2c-1.1,0.4-1.733,0.633-1.9,0.7c0.634-0.367,1.784-1.217,3.45-2.55c1.867-1.5,3.084-2.5,3.65-3
			c0.3-0.367,0.316-0.55,0.05-0.55c-0.066-0.033-0.15-0.033-0.25,0l-0.75,0.2c2.1-1.667,3.533-2.833,4.3-3.5
			c0.067-0.1,0.134-0.2,0.2-0.3c0.1-0.167,0.184-0.333,0.25-0.5c-0.066-0.2-0.283-0.317-0.65-0.35c-0.399,0.033-0.683,0.033-0.85,0
			c1.033-0.733,2.117-1.583,3.25-2.55c0.2-0.233,0.4-0.466,0.6-0.7c0.5-0.633,0.934-1.3,1.301-2c0.3-0.6,0.566-1.1,0.8-1.5
			c0.1-0.434,0.116-0.8,0.05-1.1c-0.033-0.133-0.116-0.233-0.25-0.3c-0.133-0.1-0.25-0.184-0.35-0.25
			c0.066-0.267,0.433-0.833,1.1-1.7c0.5-0.767,0.767-1.35,0.8-1.75c0.067-0.2-0.017-0.333-0.25-0.4c-0.2,0-0.483,0.017-0.85,0.05
			C324.934,174.802,325.467,174.052,325.6,173.519z M211.8,357.319c0.8,1.666,1.517,2.916,2.15,3.75c0.367,0.5,0.95,1.184,1.75,2.05
			c0.833,0.866,1.417,1.533,1.75,2c0.033,0.833,0.35,1.65,0.95,2.45c0.333,0.434,0.833,1.083,1.5,1.95l-0.65,0.35
			c0.333,0.733,1.233,2.217,2.7,4.45c1.633,2.5,2.55,3.934,2.75,4.3c-0.067,0.066-0.583-0.4-1.55-1.4
			c-0.966-1.066-1.5-1.55-1.6-1.449c0.333,0.8,1.216,2.616,2.65,5.449c1.5,2.967,2.383,4.767,2.65,5.4
			c-0.033,0.033-0.55-0.616-1.55-1.95c-0.967-1.333-1.467-1.983-1.5-1.95c1.2,4.467,2.566,8.184,4.1,11.15
			c0.267,0.5,1.633,4.083,4.1,10.75c-0.133,0.066-0.85-1.267-2.15-4c-1.267-2.7-1.992-4.042-2.175-4.025
			c-0.542-1.064-1.201-2.122-1.975-3.175c-1.467-2.033-3.217-3.866-5.25-5.5c0.333-0.1,0.85-0.267,1.55-0.5
			c0.6-0.267,1.033-0.649,1.3-1.149c0.167-0.534,0.167-1.101,0-1.7c-0.167-0.566-0.417-1.05-0.75-1.45
			c-0.434-0.533-0.833-1.283-1.2-2.25c-0.5-1.333-0.833-2.15-1-2.45c-1.1-2.2-2.367-3.75-3.8-4.649
			c-1.067-0.7-2.25-1.051-3.55-1.051c0.333-0.199,1.067-0.533,2.2-1c0.9-0.399,1.583-0.833,2.05-1.3
			c0.233-0.133,0.333-0.399,0.3-0.8c-0.034-0.366-0.15-0.667-0.35-0.9c-0.167-0.166-0.767-0.716-1.8-1.649
			c-0.733-0.667-1.25-1.316-1.55-1.95c-0.567-2.267-1.583-4.184-3.05-5.75c-1.434-1.566-3-2.4-4.7-2.5
			c-0.233-0.033-0.5-0.05-0.8-0.05c-0.367,0.033-0.633,0.05-0.8,0.05c0.2-0.134,0.5-0.384,0.9-0.75c0.333-0.3,0.583-0.616,0.75-0.95
			c-2.133-1.899-3.583-3.184-4.35-3.85c-1.267-1.134-2.784-2.25-4.55-3.351c2.567,0.667,6,2.417,10.3,5.25
			c1.733,1.5,2.983,2.483,3.75,2.95C211.433,356.536,211.6,356.919,211.8,357.319z M203.85,367.169
			c1.233,1.634,1.933,2.617,2.1,2.95c0.8,1.5,1.95,4,3.45,7.5c0.8,1.9,1.983,3.8,3.55,5.7c0.066-0.033-0.017-0.584-0.25-1.65
			c-0.267-1.1-0.383-1.666-0.35-1.7c0.167,0.367,0.65,1.467,1.45,3.301c0.767,1.8,1.283,2.933,1.55,3.399
			c0.1-0.1,0.083-0.649-0.05-1.649s-0.167-1.534-0.1-1.601c0.1,0.233,0.433,1.3,1,3.2c0.467,1.667,0.8,2.717,1,3.15l0.4-0.5
			c0.167,0.767,0.283,1.316,0.35,1.649c0.133,0.667,0.383,1.101,0.75,1.3c0.1,0.4,0.2,1.034,0.3,1.9c0.1,0.833,0.2,1.467,0.3,1.9
			c0.733,3.3,1.167,5.1,1.3,5.399c-0.167,0.033-0.65-0.866-1.45-2.7c-0.933-2.033-1.533-3.199-1.8-3.5
			c-0.133-0.333-0.233-0.899-0.3-1.699c-0.034-1-0.067-1.601-0.1-1.801c-0.033-0.233-0.117-0.383-0.25-0.449
			c-0.167-0.134-0.317-0.101-0.45,0.1c-0.433,0.267-0.9,0.733-1.4,1.4c-0.633,0.833-1.067,1.383-1.3,1.649
			c0.466-1.1,0.75-2.166,0.85-3.2c0.1-1.399-0.133-2.767-0.7-4.1c-0.067-0.2-0.333-0.65-0.8-1.35c-0.3-0.5-0.483-1-0.55-1.5
			c-0.067-0.334-0.2-0.634-0.4-0.9c-0.2-0.267-0.45-0.384-0.75-0.35c-0.333,0.1-0.684,0.383-1.05,0.85
			c-0.367,0.533-0.633,0.934-0.8,1.2c0-2.033-0.183-3.884-0.55-5.55c-0.467-1.967-1.15-3.434-2.05-4.4
			c-0.1,0.1-0.183,0.417-0.25,0.95c-0.066,0.533-0.117,0.816-0.15,0.85c-0.033-0.066-0.183-0.967-0.45-2.7
			c-0.233-1.3-0.533-2.05-0.9-2.25c-0.1,0.034-0.316,0.45-0.65,1.25c-0.333-1.399-0.733-3.1-1.2-5.1c-0.4-1.5-0.917-2.733-1.55-3.7
			C201.8,364.553,202.55,365.469,203.85,367.169z M245.7,445.569c0.199,1.033,0.35,2.35,0.449,3.95
			c0.034-0.5,0.134-0.934,0.301-1.301c0.166-0.366,0.267-0.666,0.3-0.899c0.033,0.833,0.383,3.934,1.05,9.3
			c0.5,3.866,0.55,5.55,0.15,5.05c-0.567-0.833-1.051-1.316-1.45-1.45c-0.4-0.166-0.783,0.034-1.15,0.601
			c-0.3,0.467-0.483,2.2-0.55,5.2c-0.066,3.133-0.133,4.85-0.2,5.149c-0.5,1.267-0.6,2.533-0.3,3.8c0.3,1.4,1.033,2.517,2.2,3.351
			v-1.05l3.05,3.949c1.233,1.4,2.583,2.334,4.05,2.801c-0.566-1.067-1.083-1.917-1.55-2.551l-0.6-0.699l5,3.399
			c2.533,1.601,6.033,2.434,10.5,2.5c0.633,0.033,1.449-0.033,2.449-0.2c1.233-0.199,2.051-0.316,2.45-0.35
			c0.667,0.2,1.417,0.184,2.25-0.05c0.5-0.167,1.2-0.434,2.101-0.8l-0.351,0.949c0.7-0.166,1.717-0.5,3.05-1
			c1.334-0.533,2.334-0.949,3-1.25c0.067,0.034-0.116,0.217-0.55,0.551c-0.399,0.366-0.566,0.566-0.5,0.6
			c1.8-0.434,4.167-1.134,7.101-2.1c3.433-1.134,5.767-1.884,7-2.25c-2,1.333-3.767,2.35-5.301,3.05
			c-2.033,0.967-4.017,1.666-5.949,2.1c-1.067,0.2-2.367,0.601-3.9,1.2l-5.85,1.7c-2.2,0.633-5.15,0.95-8.851,0.95
			c-1.166,0-2.566-0.184-4.2-0.551c-1.666-0.433-2.732-0.699-3.199-0.8c-1.267-0.3-2.351-0.649-3.25-1.05
			c-0.634-0.233-1.767-0.717-3.4-1.45c0.6,0.9,1.65,1.65,3.15,2.25c0.399,0.167,1.1,0.467,2.1,0.9c0.967,0.434,1.517,0.666,1.65,0.7
			c-0.667-0.067-1.7-0.284-3.101-0.65c-1.267-0.366-2.217-0.65-2.85-0.85c-1.333-0.434-2.384-1.301-3.15-2.601
			c-0.399-0.6-0.683-1.149-0.85-1.649l-0.05,2.1l-3-5.45l-0.301,2.65l-1.4-2.75c-0.967-2-1.517-3.4-1.65-4.2
			c-0.3-1.2-0.633-3.634-1-7.3c0.867,0.767,1.433-0.983,1.7-5.25c0.066-4.367,0.133-6.45,0.2-6.25c0.6,1.366,1.167,1.967,1.701,1.8
			c0.533-0.167,0.883-1.116,1.05-2.85c0.167-1.534-0.283-3.25-1.351-5.15c-1.133-1.8-1.8-2.884-2-3.25
			c0.167,0.1,0.417,0.366,0.75,0.8c0.333,0.2,0.717,0.15,1.15-0.149c0.4-0.301,0.667-0.733,0.8-1.301
			c0.067-0.199,0.134-0.649,0.2-1.35c0.134-3.8-0.233-7.967-1.1-12.5c-0.101-0.767-0.201-1.533-0.301-2.3c0.634,2.666,1.101,5,1.4,7
			C245.233,440.819,245.533,443.235,245.7,445.569z M239.25,456.819c-0.233,2.967-0.167,5.133,0.2,6.5c-0.2,0.033-0.65-0.2-1.35-0.7
			c-0.633-0.366-0.95-0.434-0.95-0.2c0.067,0.334,0.05,1.033-0.05,2.101c-0.033,1,0.15,1.75,0.55,2.25l-1.5-0.4
			c-0.5-0.066-0.783,0.066-0.85,0.4c-0.067,0.466,0.167,1.133,0.7,2c0.667,1.066,1.067,1.833,1.2,2.3c-0.2,0-0.467,0.017-0.8,0.05
			c-0.233,0.134-0.383,0.233-0.45,0.3c-0.333,0.4-0.467,0.934-0.4,1.601c0.1,0.566,0.283,1.267,0.55,2.1
			c0.333,1.1,0.867,2.217,1.6,3.35c0.733,1.301,1.633,2.483,2.7,3.551c-0.267,0.433-0.383,1.05-0.35,1.85
			c0.1,0.767,0.35,1.6,0.75,2.5c1.033,2.033,2.667,4.434,4.9,7.2c-2.234-2.434-4.184-4.75-5.851-6.95
			c-1.767-2.5-3.083-4.767-3.95-6.8c-0.7-1.7-1.183-3.45-1.45-5.25c-0.167-0.967-0.3-2.45-0.4-4.45
			c-0.167-2.634,0.566-6.05,2.2-10.25c2.233-5.9,3.45-9.2,3.65-9.9C239.8,451.27,239.583,453.553,239.25,456.819z M556.899,484.819
			l-3.75-0.2c-1.434-0.066-3.283-0.45-5.55-1.15c-0.733-0.233-1.616-0.6-2.65-1.1c-0.966-0.533-1.583-0.866-1.85-1
			c-0.767-0.366-1.417-0.783-1.95-1.25c-0.333-0.2-1-0.65-2-1.35c0.3,0.6,0.917,1.199,1.851,1.8c0.233,0.133,0.633,0.416,1.199,0.85
			c0.233,0.233,0.434,0.417,0.601,0.55c-0.367-0.233-0.867-0.517-1.5-0.85c-0.767-0.4-1.334-0.717-1.7-0.95
			c-0.767-0.434-1.35-1.066-1.75-1.899c-0.2-0.4-0.333-0.75-0.4-1.051l-0.199,1.051l-1.45-3.4l-0.4,1.4l-0.6-1.801
			c-0.434-1.166-0.684-1.983-0.75-2.449c-0.101-0.7-0.117-2.034-0.05-4c0.466,0.566,0.966-0.25,1.5-2.45
			c0.133-0.7,0.1-1.184-0.101-1.45c-0.166-0.3-0.399-0.283-0.7,0.05c-1.1,1.3-1.399,1.983-0.899,2.05
			c-1.134,0.9-1.917,1.467-2.351,1.7c-0.3,0.167-0.883,0.351-1.75,0.55l-1.25,0.351l0.65-0.851l-2.55,0.45l0.55-0.55l-1.7,0.1
			l-1.7-0.55c0.467,0.033,1.084,0,1.851-0.1c-0.767-0.367-1.283-0.617-1.55-0.75c-0.467-0.167-0.95-0.434-1.45-0.8
			c-0.167-0.134-0.601-0.417-1.3-0.851c-0.667-0.467-1.2-0.899-1.601-1.3c-1.267-1.267-2.2-2.366-2.8-3.3l-1.5-2.5
			c-1.967-3.667-3.1-5.967-3.4-6.9c0.301,0.5,0.9,1.5,1.801,3c0.733,1.267,1.333,2.267,1.8,3c0.066,0,0.267-0.366,0.6-1.1
			c0.066,0.133,0.184,0.649,0.351,1.55c0.133,0.8,0.283,1.316,0.449,1.55l0.4-1.399c0.134,0.199,0.667,1.1,1.6,2.699
			c0.934,1.534,1.517,2.417,1.75,2.65c0.601,0.6,1.134,1.05,1.601,1.35c0.434,0.233,1.05,0.5,1.85,0.801l2.65,0.75l-0.351-0.051
			c-0.366,0.034-0.783,0.117-1.25,0.25c0.634,0.367,1.351,0.551,2.15,0.551l2.15-0.051l-0.301,0.301
			c0.7,0.166,1.217,0.233,1.551,0.199c0.399-0.1,0.8-0.35,1.199-0.75c0.5-0.5,1.351-1.816,2.551-3.949
			c0.233-0.334,1.316-3.117,3.25-8.351l-0.101,10.65c-0.7,3.133-1.133,4.899-1.3,5.3c-0.4,0.6-0.55,1.233-0.45,1.9
			c0.066,0.833,0.434,1.583,1.101,2.25l0.05-0.601l1.6,2.601c0.601,0.966,1.334,1.716,2.2,2.25c-0.2-0.667-0.417-1.217-0.65-1.65
			l-0.35-0.4l2.8,2.7c1.467,1.3,3.584,2.4,6.351,3.3c0.333,0.101,0.833,0.2,1.5,0.301c0.767,0.133,1.267,0.216,1.5,0.25
			c0.433,0.233,0.916,0.366,1.449,0.399c0.301,0.033,0.75,0.033,1.351,0l-0.25,0.45c0.434,0.066,1.066,0.083,1.899,0.05
			c0.867-0.033,1.517-0.083,1.95-0.149c0.066,0.066-0.066,0.166-0.399,0.3c-0.267,0.1-0.384,0.166-0.351,0.2
			c1.134,0.066,2.65,0.116,4.55,0.149c2.267,0.101,3.767,0.167,4.5,0.2c-1.3,0.333-2.466,0.533-3.5,0.6
			c-1.333,0.134-2.616,0.117-3.85-0.05C558.649,484.819,557.833,484.786,556.899,484.819z M558.949,491.52l2.2-0.2l-8.35,2.649
			c0.8-0.633,1.1-0.933,0.899-0.899c-0.399,0.033-1.55,0.2-3.449,0.5c-1.867,0.333-2.934,0.5-3.2,0.5
			c-0.033-0.066,0.1-0.15,0.399-0.25c0.267-0.167,0.434-0.267,0.5-0.3c-0.466,0.033-1.233,0.066-2.3,0.1
			c-1.133,0-1.866,0.017-2.2,0.05c-0.033-0.066,0.167-0.184,0.601-0.35c0.366-0.134,0.55-0.233,0.55-0.3
			c-0.767-0.101-2-0.267-3.7-0.5l-0.1-0.301c-2.834-0.699-5.983-1.633-9.45-2.8c-0.667-0.2-1.233-0.35-1.7-0.45
			c0.033,0,0.117,0,0.25,0c0.733,0,1.233,0,1.5,0c-0.066,0.134-0.083,0.284-0.05,0.45c1.434,0.367,2.783,0.584,4.05,0.65
			c1.367,0.1,2.566,0,3.601-0.3c0.033,0.166,0.017,0.433-0.051,0.8c0,0.2,0.117,0.434,0.351,0.7c0.133,0.166,0.733,0.316,1.8,0.449
			c0.934,0.2,1.75,0.284,2.45,0.25c0.566,0.067,1.533-0.017,2.899-0.25c1.301-0.3,2.2-0.533,2.7-0.699
			c-0.333,0.3-0.717,0.6-1.149,0.899c-0.134,0.267-0.134,0.55,0,0.851c0,0.233,1.233,0.033,3.699-0.601l1.301-1.45l1.6,0.95
			c1.134,0.634,1.85,0.717,2.15,0.25C556.783,491.819,557.517,491.686,558.949,491.52z M486.45,420.419
			c2.066,1.134,3.816,2.45,5.25,3.95c2.1,1.3,4.399,2.85,6.899,4.65c3.366,2.533,5.917,4.416,7.65,5.649
			c-1.167-0.467-2.65-1.133-4.45-2c-1.967-0.967-3.4-1.633-4.3-2c0.033-0.3,0.033-0.55,0-0.75c-0.134-0.267-0.351-0.483-0.65-0.649
			c-0.666-0.4-1.983-0.65-3.95-0.75c0.534-0.367,0.867-0.617,1-0.75c0.233-0.301,0.217-0.567-0.05-0.801
			c-0.399-0.366-1.25-0.716-2.55-1.05c-1.6-0.399-2.583-0.666-2.95-0.8c0.033-0.167,0.084-0.35,0.15-0.55
			c0.066-0.233,0.066-0.434,0-0.601c-0.2-0.366-0.617-0.733-1.25-1.1c-0.566-0.267-1.283-0.55-2.15-0.85
			c-1.066-0.367-2.217-0.634-3.45-0.801c-0.433-0.033-0.866-0.083-1.3-0.149c-2.1-0.033-4.116,0.1-6.05,0.399
			c0.2-0.199,0.533-0.533,1-1c0.333-0.333,0.45-0.633,0.35-0.899c-0.232-0.134-0.466-0.233-0.699-0.3
			c-0.167-0.034-0.351-0.051-0.551-0.051c-1.433-0.033-4.116,0.101-8.05,0.4l1.101-0.65c0.1-0.1,0.183-0.166,0.25-0.199
			c0.233-0.301,0.017-0.483-0.65-0.551c-1.066-0.033-3.316,0.051-6.75,0.25c-3.2,0.267-5.283,0.483-6.25,0.65
			c0.134-0.066,1.017-0.384,2.65-0.95c0.967-0.333,1.483-0.717,1.55-1.149c0.066-0.134-0.384-0.217-1.351-0.25
			c-0.866-0.034-1.533-0.034-2,0c-0.833,0.066-2.3,0.366-4.399,0.899l-3,0.8c-1.101-0.366-2.3-0.649-3.601-0.85
			c-2.767-0.4-4.833-0.283-6.199,0.35c-0.2,0.134-0.45,0.284-0.75,0.45c-0.301,0.167-0.517,0.283-0.65,0.351
			c0.066-0.167,0.15-0.384,0.25-0.65c0.1-0.3,0.083-0.566-0.05-0.8l-4.45,0.95c-1.133,0.3-2.25,0.649-3.35,1.05
			c-0.233,0.133-0.467,0.267-0.7,0.399c-0.767,0.434-1.434,0.9-2,1.4l-5.2,0.9c-0.3,0.066-0.733,0.233-1.3,0.5
			c-0.601,0.267-0.867,0.449-0.8,0.55c0.166,0.267,0.583,0.35,1.25,0.25c1.199,0,1.883,0,2.05,0c-0.7,0.133-2.083,0.55-4.15,1.25
			c-2.267,0.733-3.75,1.25-4.45,1.55c-0.399,0.233-0.482,0.4-0.25,0.5c0.101,0.066,0.2,0.1,0.301,0.1l0.75,0.051
			c-2.567,0.866-4.301,1.5-5.2,1.899c-0.101,0.066-0.2,0.117-0.3,0.15c-0.134,0.133-0.25,0.267-0.351,0.399
			c-0.033,0.233,0.101,0.417,0.4,0.551c0.399,0.1,0.684,0.199,0.85,0.3c-1.233,0.333-2.533,0.767-3.899,1.3
			c-0.267,0.167-0.551,0.316-0.851,0.45c-0.7,0.434-1.333,0.916-1.899,1.45c-0.467,0.433-0.867,0.8-1.2,1.1
			c-0.3,0.4-0.45,0.767-0.45,1.1c0,0.101,0.05,0.217,0.15,0.351c0.1,0.133,0.183,0.25,0.25,0.35c-0.2,0.167-0.75,0.584-1.65,1.25
			c-0.767,0.566-1.217,1-1.35,1.3c-0.134,0.2-0.084,0.367,0.149,0.5c0.134,0.067,0.4,0.134,0.8,0.2
			c-1.199,0.601-1.949,1.15-2.25,1.65c-0.133,0.166-0.199,0.366-0.199,0.6c-0.033,0.101,0.017,0.233,0.149,0.4
			c-0.533,0.467-1.283,1.267-2.25,2.399c-0.933,1.034-1.7,1.851-2.3,2.45c0.8-1.233,1.917-3.083,3.35-5.55
			c1.134-1.866,2.217-3.483,3.25-4.85c0.534-1.334,1.284-2.634,2.25-3.9c1.134-1.4,2.434-2.7,3.9-3.9
			c-0.066,0.167-0.283,0.434-0.65,0.801c-0.267,0.366-0.316,0.649-0.149,0.85c1.1-0.866,2.434-1.667,4-2.4
			c0.399-0.333,0.816-0.6,1.25-0.8c-1.333,0.233-2,0.334-2,0.3c0.467-0.199,1.399-0.583,2.8-1.149c1.333-0.601,2.25-1.066,2.75-1.4
			l-0.15-0.35c0.334-0.2,1.034-0.517,2.101-0.95c0.866-0.333,1.55-0.667,2.05-1c-0.033,0-0.35,0.033-0.95,0.1
			c-0.233,0-0.483,0.017-0.75,0.051l9.5-3.9l-0.649,0.7c-0.301,0.399-0.15,0.483,0.449,0.25c0.4-0.167,0.983-0.517,1.75-1.05
			l0.801-0.7l3.899-0.95c0.2-0.066,0.4-0.134,0.601-0.2l3.149-0.75c0.7-0.033,1.483-0.05,2.351-0.05l5.649-0.8l1.65,0.45
			c1.267,0.333,2.25,0.517,2.95,0.55c0.899-0.033,1.033-0.233,0.399-0.601l-1.25-0.6l14.9-0.05c-0.333,0.133-0.7,0.25-1.101,0.35
			c-0.767,0.233-1.199,0.384-1.3,0.45c0.867,0.1,1.983,0.15,3.351,0.15c1.699,0,2.816,0.017,3.35,0.05l-0.1,0.7
			c0.866,0.1,2.366,0.183,4.5,0.25c2.199,0,3.699,0.05,4.5,0.149c-0.067,0.033-1.017,0.217-2.851,0.55
			c0.601,0.101,1.267,0.25,2,0.45c2.567,0.134,4.817,0.467,6.75,1c0.033-0.333-0.2-0.666-0.7-1c-0.666-0.333-1.133-0.6-1.399-0.8
			C481.7,418.136,484.184,419.152,486.45,420.419z M476.7,430.119c-2.434-0.767-5.167-1.033-8.2-0.8
			c-2.733,0.233-5.333,0.833-7.8,1.8c0.1-0.366,0.25-0.95,0.449-1.75c0.2-0.667,0.2-1.233,0-1.7c-0.3-0.467-2.517-1.05-6.649-1.75
			c-4-0.7-6.55-1-7.65-0.899c-0.767,0.1-1.183,0.166-1.25,0.199c-0.033,0-0.649,0.217-1.85,0.65c0.1-0.8,0.017-1.333-0.25-1.6
			c-0.101-0.067-0.4-0.15-0.9-0.25c-0.933-0.101-1.666-0.101-2.2,0c-0.666,0.166-1.216,0.233-1.649,0.199
			c-0.4,0.034-0.95,0.084-1.65,0.15s-1.066,0.134-1.1,0.2c-0.434,0.3-0.75,0.666-0.95,1.1c-0.967-0.133-1.917-0.133-2.85,0
			c-0.801,0.101-1.567,0.316-2.301,0.65c-0.633,0.267-1.116,0.5-1.449,0.7c-0.4,0.3-0.65,0.633-0.75,1
			c-0.067,0.133-0.084,0.316-0.051,0.55c0.101,0.2,0.167,0.35,0.2,0.45c-0.267,0.133-0.95,0.366-2.05,0.699
			c-0.833,0.233-1.4,0.517-1.7,0.851c-0.2,0.2-0.166,0.45,0.101,0.75c0.033,0.1,0.25,0.35,0.649,0.75c-1.3,0-2.217,0.184-2.75,0.55
			c-0.166,0.134-0.267,0.316-0.3,0.55c-0.066,0.2-0.066,0.434,0,0.7c-0.6,0.3-1.55,0.9-2.85,1.8c-1.167,0.733-2.167,1.283-3,1.65
			c1.133-1.101,2.783-2.75,4.949-4.95c2-2,3.801-3.616,5.4-4.85c1.167-1,2.066-1.684,2.7-2.051c1.1-0.699,2.233-1.267,3.399-1.699
			c0.601-0.2,1.25-0.367,1.95-0.5c0.134-0.034,0.283-0.067,0.45-0.101c2.467-0.733,4.15-1.166,5.05-1.3
			c0.733,0.366,1.617,0.483,2.65,0.35c0.566-0.033,1.434-0.149,2.6-0.35l-0.2,0.8c0.867,0.134,2.184,0.167,3.95,0.101
			c2.167-0.134,3.467-0.2,3.9-0.2c0,0.133-0.217,0.333-0.65,0.6c-0.533,0.2-0.8,0.351-0.8,0.45c0.934,0.2,2.583,0.4,4.95,0.6
			c2.667,0.167,4.283,0.284,4.85,0.351c0.101,0.066-0.333,0.2-1.3,0.399c-0.8,0.167-1.233,0.267-1.3,0.301
			c4.1,1.133,7.767,1.85,11,2.149s6.2,0.834,8.899,1.601c0.067,0.033,1.784,0.583,5.15,1.649c3.7,1.233,6.367,2.25,8,3.05
			c2.566,1.267,4.617,2.434,6.15,3.5c-0.101-0.033-1.367-0.533-3.801-1.5c-1.866-0.8-3.649-1.166-5.35-1.1
			c-1.066,0.066-3.15,0.017-6.25-0.15c-2.7-0.133-4.467-0.116-5.3,0.051c3.2-0.9,4.8-1.417,4.8-1.551
			c-1.633-0.933-4.4-1.449-8.3-1.55c0.066-0.1,0.616-0.316,1.649-0.649C476.116,430.469,476.633,430.253,476.7,430.119z
			 M511.05,462.219c-0.4-1.133-0.733-2.133-1-3c0.866,1.7,1.6,3.117,2.2,4.25c1,1.601,2.116,3.067,3.35,4.4
			c0.134,0,0.217-0.134,0.25-0.4c0.066-0.133,0.134-0.233,0.2-0.3c0.066,0.033,0.116,0.15,0.149,0.351
			c0.101,0.233,0.167,0.399,0.2,0.5c0.434,0.866,1.417,1.733,2.95,2.6c0.7,0.4,1.384,0.733,2.05,1l1.2,1.65
			c0.833,1.033,1.45,1.716,1.85,2.05c0.167,0.267,0.5,0.55,1,0.85c0.434,0.4,0.684,0.55,0.75,0.45c0.101-0.3,0-0.7-0.3-1.2
			c-0.566-0.934-0.883-1.467-0.95-1.6c0.4,0.533,1.334,1.45,2.801,2.75c1.566,1.434,2.649,2.35,3.25,2.75
			c0.333,0.267,0.483,0.267,0.449,0c0-0.066-0.017-0.134-0.05-0.2l-0.3-0.7c1.866,1.667,3.15,2.783,3.85,3.351
			c0.101,0.033,0.184,0.083,0.25,0.149c0.2,0.033,0.367,0.05,0.5,0.05c0.2-0.033,0.284-0.183,0.25-0.449
			c-0.066-0.434-0.1-0.733-0.1-0.9c0.833,0.833,1.75,1.7,2.75,2.6c0.267,0.167,0.517,0.317,0.75,0.45
			c0.667,0.367,1.333,0.684,2,0.95c0.566,0.134,1.033,0.25,1.4,0.35c0.433,0.101,0.783,0.084,1.05-0.05
			c0.1-0.066,0.166-0.184,0.2-0.35c0.1-0.134,0.166-0.233,0.199-0.3c0.233,0.033,0.784,0.3,1.65,0.8c0.8,0.333,1.384,0.5,1.75,0.5
			c0.2-0.033,0.3-0.167,0.3-0.4c0-0.133-0.066-0.35-0.2-0.649c1.034,0.699,1.801,1.05,2.301,1.05c0.199,0.033,0.399,0,0.6-0.101
			c0.066,0.034,0.167-0.05,0.3-0.25c0.566,0.167,1.517,0.4,2.851,0.7c1.233,0.334,2.216,0.601,2.949,0.8
			c-1.333-0.133-3.283-0.25-5.85-0.35c-2-0.066-3.783-0.217-5.35-0.45c-1.267,0.134-2.617,0.101-4.051-0.1
			c-1.666-0.233-3.283-0.7-4.85-1.4c0.134,0.033,0.434,0.101,0.9,0.2c0.399,0.033,0.649-0.033,0.75-0.2
			c-1.2-0.533-2.434-1.267-3.7-2.2c-0.467-0.133-0.884-0.333-1.25-0.6c0.833,0.934,1.233,1.434,1.2,1.5c-0.4-0.3-1.134-0.9-2.2-1.8
			c-1.101-0.767-1.9-1.283-2.4-1.55l-0.1,0.3c-0.3-0.2-0.884-0.617-1.75-1.25c-0.634-0.5-1.184-0.9-1.65-1.2
			c0.033,0.033,0.184,0.25,0.45,0.65c0.134,0.199,0.267,0.416,0.4,0.649l-7.301-5.85l0.801,0.25c0.466,0.066,0.466-0.117,0-0.55
			c-0.301-0.233-0.834-0.534-1.601-0.9l-0.899-0.35l-5-5.15c-0.467-0.7-0.95-1.566-1.45-2.6
			C511.399,463.036,511.149,462.52,511.05,462.219z M538.699,448.569c0.008,0.06,0.017,0.118,0.025,0.175h-0.025
			C538.704,448.685,538.704,448.627,538.699,448.569z M385.2,440.77c0-0.233-0.067-0.467-0.2-0.7
			c0.434-0.533,1.083-1.483,1.95-2.851c0.8-1.133,1.5-2.033,2.1-2.699c-0.667,1.5-1.616,3.767-2.85,6.8
			c-1.134,2.733-2.217,5.017-3.25,6.85c-0.733,1.4-1.317,2.417-1.75,3.05c-0.733,1.101-1.551,2.067-2.45,2.9
			c-0.434,0.4-0.934,0.783-1.5,1.15c-0.101,0.1-0.217,0.199-0.351,0.3c-1.933,1.6-3.267,2.633-4,3.1c-0.732-0.166-1.533,0-2.399,0.5
			c-0.467,0.233-1.167,0.65-2.101,1.25l-0.1-0.899c-0.733,0.166-1.85,0.583-3.35,1.25c-1.867,0.866-2.967,1.383-3.301,1.55
			c-0.066-0.167,0.067-0.45,0.4-0.851c0.367-0.399,0.533-0.649,0.5-0.75c-0.866,0.101-2.333,0.467-4.4,1.101
			c-2.333,0.733-3.767,1.166-4.3,1.3c-0.066-0.066,0.267-0.35,1-0.85c0.667-0.467,1.017-0.733,1.05-0.801
			c-9.5,0.667-16.982,1.134-22.449,1.4c-2.967,0.3-5.75,0.7-8.351,1.2c-3.467,0.633-5.467,0.934-6,0.899
			c1.967-0.3,4.733-1.267,8.3-2.899c3-1.434,5.434-2.767,7.301-4c0.066-0.033-0.084,0.5-0.45,1.6c-0.367,1.167-0.55,1.767-0.55,1.8
			c0.833,0.233,1.783,0.15,2.85-0.25c1.167-0.6,2.05-1.017,2.65-1.25c-0.101,0.434-0.167,0.867-0.2,1.301
			c2.533-0.034,4.95-0.467,7.25-1.301c2.399-0.866,4.434-2.133,6.1-3.8c0.033,0.434,0.067,1.084,0.101,1.95
			c0.033,0.767,0.199,1.366,0.5,1.8c0.399,0.367,2.467,0.217,6.199-0.45c3.634-0.666,5.917-1.25,6.851-1.75
			c0.633-0.333,0.983-0.533,1.05-0.6c0.033,0,0.483-0.417,1.35-1.25c0.167,0.833,0.4,1.333,0.7,1.5
			c0.134,0.066,0.417,0.05,0.851-0.05c0.833-0.2,1.449-0.45,1.85-0.75c0.533-0.367,1-0.634,1.4-0.8
			c0.333-0.134,0.783-0.351,1.35-0.65c0.6-0.333,0.917-0.533,0.95-0.6c0.233-0.467,0.383-0.95,0.45-1.45
			c0.866-0.2,1.683-0.533,2.449-1c0.667-0.4,1.268-0.884,1.801-1.45c0.467-0.467,0.816-0.866,1.05-1.2
			c0.267-0.467,0.399-0.899,0.399-1.3c0-0.167-0.05-0.35-0.149-0.55c-0.134-0.2-0.233-0.351-0.3-0.45
			c0.199-0.233,0.717-0.7,1.55-1.4c0.667-0.533,1.066-1.017,1.2-1.449c0.133-0.267,0.05-0.517-0.25-0.75
			c-0.067-0.101-0.334-0.284-0.801-0.551c1.134-0.466,1.867-0.966,2.2-1.5C385.2,441.27,385.233,441.036,385.2,440.77z
			 M347.1,470.069c0.101-0.033,0.2-0.084,0.3-0.15c0.634-0.267,1.134-0.45,1.5-0.55c0,0.134,0.018,0.267,0.051,0.4
			c1.633-0.167,3.133-0.467,4.5-0.9c1.399-0.533,2.55-1.15,3.449-1.85c0.067,0.133,0.15,0.366,0.25,0.699
			c0.101,0.233,0.301,0.434,0.601,0.601c0.233,0.133,0.967,0.05,2.2-0.25c1-0.267,1.816-0.517,2.449-0.75
			c0.601-0.167,1.534-0.684,2.801-1.55c1.199-0.801,2-1.417,2.399-1.851c-0.166,0.467-0.366,0.95-0.6,1.45
			c-0.101,0.3-0.017,0.583,0.25,0.85c0.1,0.167,1.283-0.55,3.55-2.149l0.6-2.101l2.051,0.4c1.399,0.134,2.149-0.116,2.25-0.75
			c0.033-0.1,0.75-0.533,2.149-1.3l2.05-1.101c-2.433,2.767-3.899,4.317-4.399,4.65c-0.5,0.167-0.95,0.384-1.351,0.65
			c-0.533,0.166-0.966,0.333-1.3,0.5c-3.467,1.699-5.467,2.666-6,2.899c-0.033-0.066,0.067-0.184,0.3-0.35
			c0.2-0.3,0.301-0.467,0.301-0.5c-0.4,0.166-1.134,0.5-2.2,1c-1.134,0.533-1.867,0.866-2.2,1c-0.066-0.066,0.083-0.25,0.45-0.55
			c0.333-0.301,0.467-0.483,0.399-0.551c-0.8,0.2-2.116,0.517-3.949,0.95l-0.2-0.2c-3.167,0.467-6.75,0.851-10.75,1.15
			C348.267,469.936,347.633,470.003,347.1,470.069z"/>
	</g>
</g>
</svg>
