<?xml version="1.0" standalone="no"?>
<!DOCTYPE svg PUBLIC "-//W3C//DTD SVG 1.1//EN" "http://www.w3.org/Graphics/SVG/1.1/DTD/svg11.dtd" >
<svg>
<metadata>
Created by FontForge 20120731 at Wed Nov 26 06:28:28 2014
 By Orthosie Webhosting
Copyright (c) 2005 by OurType. Sansa is a design by Fred Smeijers. All rights reserved.
</metadata>
<defs>
<font id="SansaSoftProBold" horiz-adv-x="625" >
  <font-face 
    font-family="SansaSoftProBold"
    font-weight="700"
    font-stretch="normal"
    units-per-em="1000"
    panose-1="2 0 6 3 8 0 0 2 0 4"
    ascent="812"
    descent="-188"
    x-height="547"
    cap-height="750"
    bbox="-211 -219 1436 1031"
    underline-thickness="21"
    underline-position="-113"
    unicode-range="U+0020-FB02"
  />
<missing-glyph horiz-adv-x="500" 
d="M0 0v700h500v-700h-500zM250 395l170 255h-340zM280 350l170 -255v510zM80 50h340l-170 255zM50 605v-510l170 255z" />
    <glyph glyph-name="fi" unicode="fi" horiz-adv-x="695" 
d="M617 504v-461q0 -43 -43 -43h-86q-43 0 -43 43v363h-179v-363q0 -43 -43 -43h-86q-43 0 -43 43v363h-43q-43 0 -43 43v55q0 43 43 43h43v15q0 91 51.5 139.5t143.5 48.5h55q43 0 43 -43v-39q0 -43 -43 -43q-78 0 -78 -70v-8h308q43 0 43 -43zM574 609h-86q-43 0 -43 43
v55q0 43 43 43h86q43 0 43 -43v-55q0 -43 -43 -43z" />
    <glyph glyph-name="fl" unicode="fl" horiz-adv-x="695" 
d="M617 707v-664q0 -43 -43 -43h-86q-43 0 -43 43v582h-109q-70 0 -70 -70v-8h58q43 0 43 -43v-55q0 -43 -43 -43h-58v-363q0 -43 -43 -43h-86q-43 0 -43 43v363h-43q-43 0 -43 43v55q0 43 43 43h43v15q0 91 51.5 139.5t143.5 48.5h285q43 0 43 -43z" />
    <glyph glyph-name="f_f" unicode="ff" horiz-adv-x="719" 
d="M445 547v15q0 90 52 139t144 49h66q43 0 43 -43v-39q0 -43 -43 -43h-12q-78 0 -78 -70v-8h74q43 0 43 -43v-55q0 -43 -43 -43h-74v-363q0 -43 -43 -43h-86q-43 0 -43 43v363h-179v-363q0 -43 -43 -43h-86q-43 0 -43 43v363h-43q-43 0 -43 43v55q0 43 43 43h43v15
q0 91 51.5 139.5t143.5 48.5h55q43 0 43 -43v-39q0 -43 -43 -43q-78 0 -78 -70v-8h179z" />
    <glyph glyph-name="f_f_i" unicode="ffi" horiz-adv-x="1047" 
d="M445 547v15q0 90 52 139t144 49h54q43 0 43 -43v-39q0 -43 -43 -43q-78 0 -78 -70v-8h309q43 0 43 -43v-461q0 -43 -43 -43h-86q-43 0 -43 43v363h-180v-363q0 -43 -43 -43h-86q-43 0 -43 43v363h-179v-363q0 -43 -43 -43h-86q-43 0 -43 43v363h-43q-43 0 -43 43v55
q0 43 43 43h43v15q0 91 51.5 139.5t143.5 48.5h55q43 0 43 -43v-39q0 -43 -43 -43q-78 0 -78 -70v-8h179zM926 609h-86q-43 0 -43 43v55q0 43 43 43h86q43 0 43 -43v-55q0 -43 -43 -43z" />
    <glyph glyph-name="f_f_l" unicode="ffl" horiz-adv-x="1047" 
d="M445 547v15q0 90 52 139t144 49h285q43 0 43 -43v-664q0 -43 -43 -43h-86q-43 0 -43 43v582h-110q-70 0 -70 -70v-8h59q43 0 43 -43v-55q0 -43 -43 -43h-59v-363q0 -43 -43 -43h-86q-43 0 -43 43v363h-179v-363q0 -43 -43 -43h-86q-43 0 -43 43v363h-43q-43 0 -43 43v55
q0 43 43 43h43v15q0 91 51.5 139.5t143.5 48.5h55q43 0 43 -43v-39q0 -43 -43 -43q-78 0 -78 -70v-8h179z" />
    <glyph glyph-name="f_t" unicode="ft" horiz-adv-x="766" 
d="M437 406h-171v-363q0 -43 -43 -43h-86q-43 0 -43 43v363h-43q-43 0 -43 43v55q0 43 43 43h43v15q0 91 51.5 139.5t143.5 48.5h55q43 0 43 -43v-39q0 -43 -43 -43q-78 0 -78 -70v-8h171v98q0 42 43 42h86q43 0 43 -42v-98h98q43 0 43 -43v-55q0 -43 -43 -43h-98v-156
q0 -60 22 -84.5t80 -24.5h12q43 0 43 -43v-55q0 -43 -43 -43h-59q-108 0 -167.5 53.5t-59.5 157.5v195z" />
    <glyph glyph-name="f_j" unicode="fj" horiz-adv-x="695" 
d="M352 -47q52 0 72.5 20.5t20.5 73.5v359h-179v-363q0 -43 -43 -43h-86q-43 0 -43 43v363h-43q-43 0 -43 43v55q0 43 43 43h43v15q0 91 51.5 139.5t143.5 48.5h55q43 0 43 -43v-39q0 -43 -43 -43q-78 0 -78 -70v-8h308q43 0 43 -43v-473q0 -105 -61.5 -162t-157.5 -57h-46
q-43 0 -43 43v55q0 43 43 43zM574 609h-86q-43 0 -43 43v55q0 43 43 43h86q43 0 43 -43v-55q0 -43 -43 -43z" />
    <glyph glyph-name="f_b" unicode="fb" horiz-adv-x="1039" 
d="M94 547v15q0 91 51.5 139.5t143.5 48.5h285q43 0 43 -43v-234l39 27q79 55 153 55q84 0 129.5 -47.5t45.5 -132.5v-109q0 -121 -81.5 -193.5t-207.5 -72.5h-207q-43 0 -43 43v582h-101q-78 0 -78 -70v-8h58q43 0 43 -43v-55q0 -43 -43 -43h-58v-363q0 -43 -43 -43h-86
q-43 0 -43 43v363h-43q-43 0 -43 43v55q0 43 43 43h43zM617 141h63q132 0 132 125v78q0 62 -62 62q-38 0 -102 -39l-31 -19v-207z" />
    <glyph glyph-name="f_h" unicode="fh" horiz-adv-x="1055" 
d="M977 383v-340q0 -43 -43 -43h-86q-43 0 -43 43v293q0 36 -10.5 53t-40.5 17q-32 0 -106 -47l-31 -19v-297q0 -43 -43 -43h-86q-43 0 -43 43v582h-101q-78 0 -78 -70v-8h58q43 0 43 -43v-55q0 -43 -43 -43h-58v-363q0 -43 -43 -43h-86q-43 0 -43 43v363h-43q-43 0 -43 43
v55q0 43 43 43h43v15q0 91 51.5 139.5t143.5 48.5h285q43 0 43 -43v-244l24 17q54 39 92.5 57t86.5 18q78 0 117.5 -45.5t39.5 -126.5z" />
    <glyph glyph-name="f_k" unicode="fk" horiz-adv-x="1008" 
d="M94 547v15q0 91 51.5 139.5t143.5 48.5h285q43 0 43 -43v-348h39l121 145q20 24 33.5 33.5t32.5 9.5h107q31 0 31 -20q0 -9 -11 -23l-173 -203l180 -258q7 -11 7 -21q0 -22 -33 -22h-113q-32 0 -61 43l-121 176h-39v-176q0 -43 -43 -43h-86q-43 0 -43 43v582h-101
q-78 0 -78 -70v-8h58q43 0 43 -43v-55q0 -43 -43 -43h-58v-363q0 -43 -43 -43h-86q-43 0 -43 43v363h-43q-43 0 -43 43v55q0 43 43 43h43z" />
    <glyph glyph-name=".notdef" horiz-adv-x="500" 
d="M0 0v700h500v-700h-500zM250 395l170 255h-340zM280 350l170 -255v510zM80 50h340l-170 255zM50 605v-510l170 255z" />
    <glyph glyph-name=".null" horiz-adv-x="0" 
 />
    <glyph glyph-name="nonmarkingreturn" horiz-adv-x="333" 
 />
    <glyph glyph-name="space" unicode=" " horiz-adv-x="266" 
 />
    <glyph glyph-name="exclam" unicode="!" horiz-adv-x="328" 
d="M78 43v86q0 43 43 43h86q43 0 43 -43v-86q0 -43 -43 -43h-86q-43 0 -43 43zM89 293l-10 414q-1 20 10.5 31.5t31.5 11.5h86q20 0 31.5 -11.5t10.5 -31.5l-10 -414q-2 -43 -44 -43h-62q-42 0 -44 43z" />
    <glyph glyph-name="quotedbl" unicode="&#x22;" horiz-adv-x="523" 
d="M231 707l-9 -117q-3 -43 -45 -43h-57q-42 0 -45 43l-9 117q-1 20 10.5 31.5t31.5 11.5h82q44 0 41 -43zM458 707l-10 -117q-3 -43 -45 -43h-56q-42 0 -45 43l-9 117q-1 20 10 31.5t32 11.5h82q20 0 31 -11.5t10 -31.5z" />
    <glyph glyph-name="numbersign" unicode="#" horiz-adv-x="719" 
d="M31 184v54q0 43 43 43h82v188h-82q-43 0 -43 43v54q0 43 43 43h82v98q0 43 43 43h55q43 0 43 -43v-98h125v98q0 43 43 43h55q42 0 42 -43v-98h83q42 0 42 -43v-54q0 -43 -42 -43h-83v-188h83q42 0 42 -43v-54q0 -43 -42 -43h-83v-98q0 -43 -42 -43h-55q-43 0 -43 43v98
h-125v-98q0 -43 -43 -43h-55q-43 0 -43 43v98h-82q-43 0 -43 43zM297 469v-188h125v188h-125z" />
    <glyph glyph-name="dollar" unicode="$" 
d="M230 -82v75q-70 7 -132 22q-43 9 -43 50v62q0 37 31 37q8 0 12 -1q96 -22 168 -22h39q109 0 109 82q0 55 -86 78l-117 31q-156 40 -156 211q0 98 63 150.5t167 62.5v68q0 43 43 43h39q43 0 43 -43v-68q69 -7 102 -15q43 -11 43 -49v-61q0 -39 -34 -39q-6 0 -9 1
q-80 16 -141 16h-35q-102 0 -102 -66q0 -52 71 -70l117 -32q86 -23 129 -76t43 -142q0 -108 -63.5 -163.5t-175.5 -65.5v-76q0 -43 -43 -43h-39q-43 0 -43 43z" />
    <glyph glyph-name="percent" unicode="%" horiz-adv-x="1031" 
d="M309 39l325 672q20 39 50 39h11q14 0 23.5 -7t9.5 -17q0 -8 -4 -15l-326 -672q-19 -39 -49 -39h-12q-14 0 -23 6.5t-9 17.5q0 8 4 15zM252 320q-98 0 -144 50t-46 167q0 120 46 169t144 49q97 0 142.5 -49.5t45.5 -168.5q0 -116 -46 -166.5t-142 -50.5zM252 417
q37 0 49.5 24t12.5 96q0 73 -12.5 96.5t-49.5 23.5q-39 0 -52 -23.5t-13 -96.5q0 -72 13 -96t52 -24zM783 -4q-98 0 -144 50t-46 167q0 120 46 169t144 49q97 0 143 -49.5t46 -168.5q0 -116 -46.5 -166.5t-142.5 -50.5zM783 93q37 0 50 24t13 96q0 73 -13 96.5t-50 23.5
q-39 0 -51.5 -23.5t-12.5 -96.5q0 -72 13 -96t51 -24z" />
    <glyph glyph-name="ampersand" unicode="&#x26;" horiz-adv-x="703" 
d="M613 312h-19v-277q-43 -16 -115 -29.5t-135 -13.5q-281 0 -281 227q0 59 34.5 108.5t90.5 67.5q-98 48 -98 160q0 69 39 116t99 67t135 20h20q66 0 138 -16q41 -9 41 -50v-61q0 -38 -31 -38q-7 0 -10 1q-65 15 -138 15h-20q-101 0 -101 -78q0 -38 21.5 -58t60.5 -20h269
q43 0 43 -43v-55q0 -43 -43 -43zM344 141q41 0 78 7v165h-78q-110 0 -110 -90q0 -82 110 -82z" />
    <glyph glyph-name="quotesingle" unicode="'" horiz-adv-x="297" 
d="M231 707l-9 -117q-3 -43 -45 -43h-57q-42 0 -45 43l-9 117q-1 20 10.5 31.5t31.5 11.5h82q44 0 41 -43z" />
    <glyph glyph-name="parenleft" unicode="(" horiz-adv-x="438" 
d="M178 -82q-63 65 -97 163.5t-34 215.5v31q0 116 34.5 215.5t96.5 163.5q24 24 38.5 33.5t33.5 9.5h83q28 0 28 -17q0 -11 -14 -26q-128 -132 -128 -379v-31q0 -249 128 -379q14 -15 14 -26q0 -17 -28 -17h-83q-19 0 -33.5 9.5t-38.5 33.5z" />
    <glyph glyph-name="parenright" unicode=")" horiz-adv-x="438" 
d="M260 -82q-25 -25 -39.5 -34t-33.5 -9h-83q-28 0 -28 17q0 11 15 26q128 133 128 379v31q0 246 -128 379q-15 15 -15 26q0 17 28 17h83q19 0 33.5 -9t39.5 -34q62 -64 96.5 -163.5t34.5 -215.5v-31q0 -116 -34 -214.5t-97 -164.5z" />
    <glyph glyph-name="asterisk" unicode="*" horiz-adv-x="500" 
d="M129 676l66 -38v77q0 35 35 35h40q35 0 35 -35v-78l67 39q14 7 22 7q13 0 26 -19l19 -34q6 -10 6 -21q0 -16 -19 -28l-67 -39l67 -38q19 -12 19 -27q0 -11 -6 -21l-19 -33q-12 -20 -27 -20q-8 0 -22 7l-66 38v-77q0 -35 -35 -35h-40q-35 0 -35 35v77l-67 -38
q-11 -7 -22 -7q-16 0 -26 19l-19 34q-6 10 -6 21q0 16 19 28l67 38l-67 39q-19 12 -19 27q0 11 6 21l19 33q12 20 27 20q8 0 22 -7z" />
    <glyph glyph-name="plus" unicode="+" 
d="M285 586h55q43 0 43 -43v-106h105q43 0 43 -42v-55q0 -43 -43 -43h-105v-106q0 -43 -43 -43h-55q-43 0 -43 43v106h-105q-43 0 -43 43v55q0 42 43 42h105v106q0 43 43 43z" />
    <glyph glyph-name="comma" unicode="," horiz-adv-x="328" 
d="M86 -125h-39q-37 0 -37 30q0 3 2 13l55 211q11 43 50 43h90q43 0 43 -43q0 -20 -10 -37l-95 -174q-25 -43 -59 -43z" />
    <glyph glyph-name="hyphen" unicode="-" horiz-adv-x="406" 
d="M31 340v55q0 42 43 42h258q43 0 43 -42v-55q0 -43 -43 -43h-258q-43 0 -43 43z" />
    <glyph glyph-name="hyphen" unicode="&#xad;" horiz-adv-x="406" 
d="M31 340v55q0 42 43 42h258q43 0 43 -42v-55q0 -43 -43 -43h-258q-43 0 -43 43z" />
    <glyph glyph-name="period" unicode="." horiz-adv-x="328" 
d="M78 43v86q0 43 43 43h86q43 0 43 -43v-86q0 -43 -43 -43h-86q-43 0 -43 43z" />
    <glyph glyph-name="slash" unicode="/" horiz-adv-x="582" 
d="M539 707l-333 -789q-19 -43 -55 -43h-77q-35 0 -35 26q0 9 4 17l333 789q19 43 55 43h77q35 0 35 -26q0 -9 -4 -17z" />
    <glyph glyph-name="zero" unicode="0" 
d="M313 -8q-145 0 -213.5 88.5t-68.5 294.5q0 210 68 296.5t214 86.5q145 0 213 -86.5t68 -296.5q0 -206 -68.5 -294.5t-212.5 -88.5zM313 141q64 0 86.5 47.5t22.5 186.5q0 140 -22.5 187t-86.5 47q-65 0 -87.5 -47t-22.5 -187q0 -139 22.5 -186.5t87.5 -47.5z" />
    <glyph glyph-name="one" unicode="1" 
d="M121 666l188 76q19 8 43 8h43q42 0 42 -43v-664q0 -43 -42 -43h-86q-43 0 -43 43v520l-145 -57q-12 -4 -16 -4q-27 0 -27 36v74q0 36 43 54z" />
    <glyph glyph-name="two" unicode="2" 
d="M55 43v74q0 77 30.5 128.5t109.5 106.5l102 70q78 52 78 109q0 40 -24.5 55.5t-84.5 15.5h-145q-43 0 -43 43v62q0 43 43 43h192q111 0 172.5 -55.5t61.5 -155.5q0 -42 -10 -74t-36.5 -60.5t-48.5 -46t-69 -49.5l-86 -59q-63 -42 -63 -94v-8h286q42 0 42 -43v-62
q0 -43 -42 -43h-422q-43 0 -43 43z" />
    <glyph glyph-name="three" unicode="3" 
d="M297 312h-98q-43 0 -43 43v40q0 42 43 42h119q73 43 73 98q0 38 -24 52.5t-70 14.5h-168q-43 0 -43 43v62q0 43 43 43h184q120 0 185 -39.5t65 -140.5q0 -42 -24.5 -84.5t-70.5 -74.5q110 -40 110 -177q0 -109 -74 -171.5t-191 -62.5h-192q-43 0 -43 43v62q0 43 43 43
h176q109 0 109 86q0 44 -28.5 61t-80.5 17z" />
    <glyph glyph-name="four" unicode="4" 
d="M183 706q7 44 46 44h101q39 0 39 -33q0 -5 -2 -14.5t-4.5 -22t-3.5 -19.5q-41 -213 -140 -391h136v93q0 43 43 43h86q43 0 43 -43v-93h24q43 0 43 -43v-63q0 -43 -43 -43h-24v-78q0 -43 -43 -43h-86q-43 0 -43 43v78h-265q-43 0 -43 43v47q0 22 8 40q94 205 128 455z" />
    <glyph glyph-name="five" unicode="5" 
d="M266 328h-145q-43 0 -43 43v336q0 43 43 43h383q43 0 43 -43v-62q0 -43 -43 -43h-262v-125h67q128 0 198.5 -58t70.5 -177q0 -123 -80 -182.5t-217 -59.5h-176q-43 0 -43 43v62q0 43 43 43h176q61 0 93 21t32 73q0 53 -35 69.5t-105 16.5z" />
    <glyph glyph-name="six" unicode="6" 
d="M313 141q93 0 93 101q0 110 -93 110q-53 0 -94 -15v-95q0 -48 24 -74.5t70 -26.5zM480 602h-121q-60 0 -100 -34t-40 -91v-10q53 25 125 25q115 0 174.5 -65.5t59.5 -184.5q0 -118 -75 -184t-198 -66q-118 0 -188 67t-70 183v211q0 142 92.5 219.5t243.5 77.5h97
q43 0 43 -43v-62q0 -43 -43 -43z" />
    <glyph glyph-name="seven" unicode="7" 
d="M172 43v51q0 150 60 284.5t151 223.5h-278q-43 0 -43 43v62q0 43 43 43h415q42 0 42 -43v-43q0 -22 -13 -39q-96 -109 -150.5 -236t-54.5 -295v-51q0 -43 -43 -43h-86q-43 0 -43 43z" />
    <glyph glyph-name="eight" unicode="8" 
d="M301 -8q-262 0 -262 219q0 93 86 156l28 21q-98 58 -98 171q0 98 71.5 148.5t174.5 50.5h23q119 0 182.5 -46.5t63.5 -152.5q0 -39 -21 -79.5t-49 -65.5l-21 -19q107 -59 107 -184q0 -101 -76.5 -160t-185.5 -59h-23zM354 446l21 23q31 31 31 78q0 30 -23.5 46t-58.5 16
h-23q-35 0 -58.5 -16t-23.5 -46q0 -18 4.5 -30.5t19.5 -22t22 -12.5t32 -13zM301 141h23q42 0 66 20t24 58q0 22 -6.5 38t-21.5 27.5t-27 17t-35 14.5l-52 21l-30 -32q-31 -35 -31 -86q0 -78 90 -78z" />
    <glyph glyph-name="nine" unicode="9" 
d="M313 391q51 0 93 14v95q0 48 -23.5 75t-69.5 27q-94 0 -94 -102q0 -109 94 -109zM145 148h121q60 0 100 34t40 91v2q-53 -25 -125 -25q-115 0 -174.5 65.5t-59.5 184.5q0 118 75 184t198 66q118 0 188 -67t70 -183v-203q0 -142 -92 -219.5t-244 -77.5h-97q-43 0 -43 43
v62q0 43 43 43z" />
    <glyph glyph-name="colon" unicode=":" horiz-adv-x="328" 
d="M78 43v86q0 43 43 43h86q43 0 43 -43v-86q0 -43 -43 -43h-86q-43 0 -43 43zM78 418v86q0 43 43 43h86q43 0 43 -43v-86q0 -43 -43 -43h-86q-43 0 -43 43z" />
    <glyph glyph-name="semicolon" unicode=";" horiz-adv-x="328" 
d="M78 418v86q0 43 43 43h86q43 0 43 -43v-86q0 -43 -43 -43h-86q-43 0 -43 43zM86 -125h-39q-37 0 -37 30q0 3 2 13l55 211q11 43 50 43h90q43 0 43 -43q0 -20 -10 -37l-95 -174q-25 -43 -59 -43z" />
    <glyph glyph-name="less" unicode="&#x3c;" 
d="M488 102l-351 181q-43 21 -43 57v55q0 35 43 56l351 183q10 6 20 6q23 0 23 -35v-78q0 -36 -43 -55l-218 -105l218 -103q43 -21 43 -56v-78q0 -34 -23 -34q-10 0 -20 6z" />
    <glyph glyph-name="equal" unicode="=" 
d="M94 449v55q0 43 43 43h351q43 0 43 -43v-55q0 -43 -43 -43h-351q-43 0 -43 43zM94 207v55q0 43 43 43h351q43 0 43 -43v-55q0 -43 -43 -43h-351q-43 0 -43 43z" />
    <glyph glyph-name="greater" unicode="&#x3e;" 
d="M488 283l-351 -181q-10 -6 -20 -6q-23 0 -23 34v78q0 35 43 56l218 103l-218 105q-43 19 -43 55v78q0 35 23 35q10 0 20 -6l351 -183q43 -21 43 -56v-55q0 -36 -43 -57z" />
    <glyph glyph-name="question" unicode="?" horiz-adv-x="520" 
d="M341 121v-70q0 -23 -14 -37t-37 -14h-70q-24 0 -37.5 14t-13.5 37v70q0 23 13.5 37t37.5 14h70q23 0 37 -14t14 -37zM116 750h152q220 0 220 -168q0 -61 -20 -106t-74 -89l-57 -47v-47q0 -43 -42 -43h-75q-44 0 -44 43v33q0 18 11 29l34 36q6 6 19.5 20t18 19t14.5 16
t13.5 16t10 15t9 16.5t5.5 15.5t4 18t1 20q0 19 -9 30.5t-28 16.5t-36 6.5t-46 1.5h-81q-23 0 -37 13.5t-14 36.5v47q0 23 14 37t37 14z" />
    <glyph glyph-name="at" unicode="@" horiz-adv-x="922" 
d="M465 242h35v188h-35q-74 0 -74 -102q0 -40 18.5 -63t55.5 -23zM629 -86q-74 -16 -156 -16q-199 0 -312.5 115.5t-113.5 314.5q0 193 120 311.5t313 118.5q182 0 288.5 -90t106.5 -262q0 -118 -73.5 -184t-196.5 -66h-140q-184 0 -184 172q0 85 50 136.5t134 51.5h113
q31 0 31 -32v-242h12q61 0 91 47t30 117q0 121 -68 181.5t-194 60.5q-141 0 -220.5 -87t-79.5 -233q0 -144 77.5 -232t215.5 -88q75 0 156 14q3 1 7 1q24 0 24 -28v-46q0 -28 -31 -35z" />
    <glyph glyph-name="A" unicode="A" horiz-adv-x="750" 
d="M529 43q-5 22 -28 121h-258q-28 -112 -30 -121q-11 -43 -50 -43h-87q-17 0 -27.5 8.5t-10.5 22.5q0 4 2 12q21 88 77 277q34 117 83 250.5t73 179.5h211q24 -45 73 -178.5t84 -251.5q56 -189 77 -277q2 -8 2 -12q0 -14 -10.5 -22.5t-27.5 -8.5h-103q-40 0 -50 43z
M375 613q-29 -73 -93 -300h182q-61 236 -89 300z" />
    <glyph glyph-name="B" unicode="B" horiz-adv-x="680" 
d="M121 0q-43 0 -43 43v664q0 43 43 43h262q234 0 234 -203q0 -105 -90 -152q49 -19 77.5 -61.5t28.5 -103.5q0 -230 -250 -230h-262zM359 313h-109v-165h109q51 0 72.5 18.5t21.5 67.5q0 45 -22 62t-72 17zM359 602h-109v-157h109q38 0 58.5 22t20.5 60q0 75 -79 75z" />
    <glyph glyph-name="C" unicode="C" horiz-adv-x="672" 
d="M582 13q-82 -21 -137 -21h-47q-168 0 -263.5 89.5t-95.5 254.5v78q0 161 103.5 252.5t271.5 91.5q128 0 211 -31v-176q0 -43 -43 -43h-70q-43 0 -43 43v51q-28 7 -71 7q-87 0 -133 -49t-46 -138v-86q0 -87 48 -141t131 -54h47q59 0 137 20q8 2 12 2q14 0 22.5 -10.5
t8.5 -27.5v-62q0 -39 -43 -50z" />
    <glyph glyph-name="D" unicode="D" horiz-adv-x="758" 
d="M359 0h-238q-43 0 -43 43v664q0 43 43 43h238q176 0 268 -87t92 -233v-94q0 -154 -90 -245t-270 -91zM359 602h-109v-454h109q87 0 133.5 54.5t46.5 149.5v62q0 89 -46.5 138.5t-133.5 49.5z" />
    <glyph glyph-name="E" unicode="E" horiz-adv-x="641" 
d="M78 203v504q0 43 43 43h399q42 0 42 -43v-62q0 -43 -42 -43h-270v-149h238q43 0 43 -43v-62q0 -43 -43 -43h-238v-71q0 -48 16.5 -67t61.5 -19h207q43 0 43 -43v-62q0 -43 -43 -43h-269q-92 0 -140 53.5t-48 149.5z" />
    <glyph glyph-name="F" unicode="F" horiz-adv-x="563" 
d="M250 273v-230q0 -43 -43 -43h-86q-43 0 -43 43v457q0 250 266 250h144q43 0 43 -43v-62q0 -43 -43 -43h-144q-46 0 -70 -27t-24 -75v-78h223q43 0 43 -43v-63q0 -43 -43 -43h-223z" />
    <glyph glyph-name="G" unicode="G" horiz-adv-x="742" 
d="M672 371v-336q-112 -43 -227 -43h-39q-169 0 -268 89.5t-99 254.5v78q0 87 32 154t87.5 108t126 61.5t153.5 20.5q96 0 191 -26q43 -11 43 -50v-66q0 -36 -29 -36q-4 0 -14 2q-95 27 -199 27q-96 0 -153.5 -51.5t-57.5 -143.5v-78q0 -86 51.5 -140.5t135.5 -54.5h39
q34 0 71 7v118h-67q-43 0 -43 43v62q0 43 43 43h180q43 0 43 -43z" />
    <glyph glyph-name="H" unicode="H" horiz-adv-x="766" 
d="M687 707v-664q0 -43 -42 -43h-86q-43 0 -43 43v269h-266v-269q0 -43 -43 -43h-86q-43 0 -43 43v664q0 43 43 43h86q43 0 43 -43v-246h266v246q0 43 43 43h86q42 0 42 -43z" />
    <glyph glyph-name="I" unicode="I" horiz-adv-x="328" 
d="M250 707v-664q0 -43 -43 -43h-86q-43 0 -43 43v664q0 43 43 43h86q43 0 43 -43z" />
    <glyph glyph-name="J" unicode="J" horiz-adv-x="484" 
d="M406 707v-457q0 -123 -63.5 -186.5t-186.5 -63.5h-82q-43 0 -43 43v62q0 43 43 43h67q51 0 72 24t21 78v352h-127q-43 0 -43 43v62q0 43 43 43h256q43 0 43 -43z" />
    <glyph glyph-name="K" unicode="K" horiz-adv-x="750" 
d="M498 43l-213 273h-35v-273q0 -43 -43 -43h-86q-43 0 -43 43v664q0 43 43 43h86q43 0 43 -43v-242h43l192 242q19 23 32.5 33t32.5 10h116q31 0 31 -20q0 -10 -10 -23l-257 -309l277 -355q10 -13 10 -22q0 -21 -31 -21h-124q-19 0 -32 10t-32 33z" />
    <glyph glyph-name="L" unicode="L" horiz-adv-x="563" 
d="M488 0h-222q-92 0 -140 53.5t-48 149.5v504q0 43 43 43h86q43 0 43 -43v-473q0 -48 16.5 -67t61.5 -19h160q43 0 43 -43v-62q0 -43 -43 -43z" />
    <glyph glyph-name="M" unicode="M" horiz-adv-x="906" 
d="M449 465l191 262q15 23 47 23h98q43 0 43 -43v-664q0 -43 -43 -43h-86q-43 0 -43 43v437l-176 -230q-11 -16 -31 -16h-8q-19 0 -30 16l-161 230v-437q0 -43 -43 -43h-86q-43 0 -43 43v664q0 43 43 43h98q31 0 48 -23z" />
    <glyph glyph-name="N" unicode="N" horiz-adv-x="766" 
d="M517 23l-267 422v-402q0 -43 -43 -43h-86q-43 0 -43 43v664q0 43 43 43h82q32 0 47 -23l266 -422v402q0 43 43 43h86q42 0 42 -43v-664q0 -43 -42 -43h-82q-32 0 -46 23z" />
    <glyph glyph-name="O" unicode="O" horiz-adv-x="766" 
d="M383 -8q-170 0 -257 97.5t-87 273.5v32q0 175 86.5 269t257.5 94q170 0 257 -94t87 -269v-32q0 -176 -87.5 -273.5t-256.5 -97.5zM383 141q91 0 127.5 58t36.5 164v32q0 104 -36.5 159t-127.5 55t-127.5 -55t-36.5 -159v-32q0 -106 36.5 -164t127.5 -58z" />
    <glyph glyph-name="P" unicode="P" horiz-adv-x="672" 
d="M336 188h-86v-145q0 -43 -43 -43h-86q-43 0 -43 43v664q0 43 43 43h231q281 0 281 -273q0 -149 -82 -219t-215 -70zM320 602h-70v-266h70q72 0 102.5 30t30.5 111q0 73 -30 99t-103 26z" />
    <glyph glyph-name="Q" unicode="Q" horiz-adv-x="766" 
d="M582 -177q-38 -11 -82 -11q-80 0 -126 35.5t-46 109.5v38q-143 15 -216 111t-73 257v32q0 175 86.5 269t257.5 94q170 0 257 -94t87 -269v-32q0 -161 -73 -256.5t-216 -111.5v-15q0 -31 14 -42.5t48 -11.5q38 0 82 10q4 1 12 1q31 0 31 -38v-25q0 -40 -43 -51zM383 141
q91 0 127.5 58t36.5 164v32q0 104 -36.5 159t-127.5 55t-127.5 -55t-36.5 -159v-32q0 -106 36.5 -164t127.5 -58z" />
    <glyph glyph-name="R" unicode="R" horiz-adv-x="688" 
d="M477 43q-23 54 -56 107t-66 73h-105v-180q0 -43 -43 -43h-86q-43 0 -43 43v664q0 43 43 43h231q138 0 209.5 -55.5t71.5 -194.5q0 -143 -121 -219q44 -35 90 -108t67 -130q3 -9 3 -16q0 -27 -36 -27h-106q-37 0 -53 43zM320 602h-70v-235h70q72 0 102.5 28t30.5 97
q0 67 -29 88.5t-104 21.5z" />
    <glyph glyph-name="S" unicode="S" horiz-adv-x="641" 
d="M98 15q-43 9 -43 50v62q0 38 31 38q4 0 12 -2q96 -22 168 -22h39q109 0 109 82q0 55 -86 78l-117 31q-156 40 -156 211q0 108 77.5 161.5t199.5 53.5h39q59 0 141 -16q43 -8 43 -50v-61q0 -38 -34 -38q-5 0 -9 1q-84 15 -141 15h-35q-102 0 -102 -66q0 -52 71 -70
l117 -32q86 -23 129 -76t43 -142q0 -120 -77.5 -175.5t-211.5 -55.5h-39q-81 0 -168 23z" />
    <glyph glyph-name="T" unicode="T" horiz-adv-x="609" 
d="M551 602h-160v-559q0 -43 -43 -43h-86q-43 0 -43 43v559h-160q-43 0 -43 43v62q0 43 43 43h492q43 0 43 -43v-62q0 -43 -43 -43z" />
    <glyph glyph-name="U" unicode="U" horiz-adv-x="766" 
d="M516 270v437q0 43 43 43h86q42 0 42 -43v-434q0 -138 -84 -209.5t-220 -71.5q-145 0 -225 70.5t-80 209.5v435q0 43 43 43h86q43 0 43 -43v-437q0 -66 32 -97.5t101 -31.5t101 31.5t32 97.5z" />
    <glyph glyph-name="V" unicode="V" horiz-adv-x="758" 
d="M546 707q10 43 49 43h87q38 0 38 -32q0 -7 -1 -11q-46 -199 -112.5 -399t-114.5 -308h-226q-51 116 -117.5 313.5t-109.5 393.5q-1 4 -1 11q0 32 38 32h103q39 0 49 -43q30 -141 77 -310t78 -245q33 81 83.5 251t79.5 304z" />
    <glyph glyph-name="W" unicode="W" horiz-adv-x="1133" 
d="M486 707q6 43 47 43h74q41 0 47 -43q21 -138 60 -299.5t75 -255.5q34 94 70.5 254.5t56.5 300.5q6 43 46 43h103q39 0 39 -33l-6 -45q-69 -393 -184 -672h-234q-76 182 -110 367q-31 -176 -109 -367h-234q-54 124 -104.5 311.5t-80.5 364.5q-6 39 -6 41q0 33 39 33h104
q40 0 46 -43q21 -145 57.5 -307.5t69.5 -247.5q35 86 74 249t60 306z" />
    <glyph glyph-name="X" unicode="X" horiz-adv-x="695" 
d="M634 707l-195 -312l219 -352q7 -11 7 -21q0 -22 -33 -22h-120q-7 0 -12.5 1.5t-9 3t-8 7t-6 8t-7 11t-7.5 12.5l-122 195l-122 -195q-27 -43 -60 -43h-95q-33 0 -33 22q0 10 7 21l213 340l-201 324q-7 11 -7 20q0 10 9.5 16.5t24.5 6.5h110q34 0 59 -43l104 -167l105 167
q27 43 60 43h94q34 0 34 -22q0 -8 -8 -21z" />
    <glyph glyph-name="Y" unicode="Y" horiz-adv-x="699" 
d="M664 707l-234 -422v-242q0 -43 -43 -43h-86q-43 0 -43 43v242l-224 422q-6 11 -6 20q0 23 34 23h98q35 0 57 -43l135 -277l142 277q22 43 57 43h85q34 0 34 -23q0 -9 -6 -20z" />
    <glyph glyph-name="Z" unicode="Z" horiz-adv-x="633" 
d="M39 43v27q0 30 19 55q82 106 181.5 253t139.5 224h-281q-43 0 -43 43v62q0 43 43 43h461q43 0 43 -43v-31q0 -26 -12 -49q-48 -89 -147.5 -239.5t-169.5 -239.5h286q43 0 43 -43v-62q0 -43 -43 -43h-477q-43 0 -43 43z" />
    <glyph glyph-name="bracketleft" unicode="[" horiz-adv-x="461" 
d="M137 750h218q43 0 43 -43v-39q0 -43 -43 -43h-89v-625h89q43 0 43 -43v-39q0 -43 -43 -43h-218q-43 0 -43 43v789q0 43 43 43z" />
    <glyph glyph-name="backslash" unicode="\" horiz-adv-x="582" 
d="M376 -82l-333 789q-4 8 -4 17q0 26 35 26h77q36 0 55 -43l333 -789q4 -8 4 -17q0 -26 -35 -26h-77q-36 0 -55 43z" />
    <glyph glyph-name="bracketright" unicode="]" horiz-adv-x="461" 
d="M105 750h219q43 0 43 -43v-789q0 -43 -43 -43h-219q-43 0 -43 43v39q0 43 43 43h90v625h-90q-43 0 -43 43v39q0 43 43 43z" />
    <glyph glyph-name="asciicircum" unicode="^" 
d="M49 152l182 352q22 43 57 43h49q35 0 57 -43l182 -352q6 -9 6 -19q0 -24 -34 -24h-75q-35 0 -56 43l-105 219l-103 -219q-21 -43 -56 -43h-76q-34 0 -34 24q0 10 6 19z" />
    <glyph glyph-name="underscore" unicode="_" 
d="M31 -98v55q0 43 43 43h477q43 0 43 -43v-55q0 -43 -43 -43h-477q-43 0 -43 43z" />
    <glyph glyph-name="grave" unicode="`" horiz-adv-x="256" 
d="M105 668l-85 70q-20 17 -20 28q0 15 29 15h107q33 0 61 -43l50 -70q9 -12 9 -22q0 -21 -33 -21h-42q-8 0 -15 1.5t-15 6.5t-12.5 8t-16.5 13t-17 14z" />
    <glyph glyph-name="a" unicode="a" horiz-adv-x="672" 
d="M594 504v-461q0 -43 -43 -43h-86q-43 0 -43 43v31l-39 -27q-81 -55 -153 -55q-84 0 -129.5 47.5t-45.5 132.5v109q0 121 81.5 193.5t207.5 72.5h207q43 0 43 -43zM391 180l31 19v207h-63q-132 0 -132 -125v-78q0 -62 62 -62q40 0 102 39z" />
    <glyph glyph-name="b" unicode="b" horiz-adv-x="672" 
d="M250 707v-234l39 27q79 55 152 55q85 0 130.5 -47.5t45.5 -132.5v-109q0 -121 -81.5 -193.5t-207.5 -72.5h-207q-43 0 -43 43v664q0 43 43 43h86q43 0 43 -43zM281 367l-31 -19v-207h62q133 0 133 125v78q0 62 -62 62q-40 0 -102 -39z" />
    <glyph glyph-name="c" unicode="c" horiz-adv-x="555" 
d="M449 12q-63 -20 -133 -20q-61 0 -109.5 11.5t-87 35.5t-59.5 65.5t-21 98.5v117q0 106 77 170.5t189 64.5q109 0 187 -39v-145q0 -43 -43 -43h-54q-43 0 -43 43v27q-16 8 -47 8q-44 0 -69 -25t-25 -69v-70q0 -101 109 -101q67 0 129 17q10 2 13 2q30 0 30 -37v-60
q0 -37 -43 -51z" />
    <glyph glyph-name="d" unicode="d" horiz-adv-x="672" 
d="M594 707v-664q0 -43 -43 -43h-86q-43 0 -43 43v31l-39 -27q-81 -55 -153 -55q-84 0 -129.5 47.5t-45.5 132.5v109q0 121 81.5 193.5t207.5 72.5h78v160q0 43 43 43h86q43 0 43 -43zM391 180l31 19v207h-63q-132 0 -132 -125v-78q0 -62 62 -62q40 0 102 39z" />
    <glyph glyph-name="e" unicode="e" horiz-adv-x="617" 
d="M473 11q-76 -19 -160 -19q-128 0 -201 54t-73 169v105q0 113 77.5 174t199.5 61q247 0 247 -180q0 -160 -204 -160h-148v-4q0 -70 117 -70q79 0 145 14q4 1 11 1q32 0 32 -36v-59q0 -39 -43 -50zM211 324v-8h137q58 0 58 47q0 32 -23 41.5t-67 9.5q-52 0 -78.5 -21
t-26.5 -69z" />
    <glyph glyph-name="f" unicode="f" horiz-adv-x="367" 
d="M94 406h-43q-43 0 -43 43v55q0 43 43 43h43v15q0 91 51.5 139.5t143.5 48.5h66q43 0 43 -43v-39q0 -43 -43 -43h-11q-78 0 -78 -70v-8h74q43 0 43 -43v-55q0 -43 -43 -43h-74v-363q0 -43 -43 -43h-86q-43 0 -43 43v363z" />
    <glyph glyph-name="g" unicode="g" horiz-adv-x="672" 
d="M168 -47h82q91 0 131.5 28.5t40.5 108.5v4l-39 -20q-74 -35 -115 -41q-15 -2 -30 -2q-88 0 -135.5 46.5t-47.5 133.5v70q0 121 81.5 193.5t207.5 72.5h207q43 0 43 -43v-426q0 -124 -77.5 -195t-204.5 -71h-144q-43 0 -43 43v55q0 43 43 43zM395 207l27 12v187h-63
q-132 0 -132 -125v-39q0 -62 62 -62q44 0 106 27z" />
    <glyph glyph-name="h" unicode="h" horiz-adv-x="688" 
d="M250 707v-243l23 16q55 40 93.5 57.5t86.5 17.5q78 0 117 -45.5t39 -126.5v-340q0 -43 -43 -43h-86q-43 0 -43 43v293q0 36 -10 53t-40 17q-34 0 -106 -47l-31 -19v-297q0 -43 -43 -43h-86q-43 0 -43 43v664q0 43 43 43h86q43 0 43 -43z" />
    <glyph glyph-name="i" unicode="i" horiz-adv-x="344" 
d="M94 406h-35q-43 0 -43 43v55q0 43 43 43h164q43 0 43 -43v-461q0 -43 -43 -43h-86q-43 0 -43 43v363zM223 609h-86q-43 0 -43 43v55q0 43 43 43h86q43 0 43 -43v-55q0 -43 -43 -43z" />
    <glyph glyph-name="j" unicode="j" horiz-adv-x="344" 
d="M102 406h-36q-43 0 -43 43v55q0 43 43 43h164q43 0 43 -43v-473q0 -105 -61.5 -162t-156.5 -57h-47q-43 0 -43 43v55q0 43 43 43q52 0 73 20.5t21 73.5v359zM230 609h-85q-43 0 -43 43v55q0 43 43 43h85q43 0 43 -43v-55q0 -43 -43 -43z" />
    <glyph glyph-name="k" unicode="k" horiz-adv-x="641" 
d="M289 359l121 145q20 24 33.5 33.5t32.5 9.5h111q27 0 27 -20q0 -7 -11 -23l-173 -203l179 -258q8 -11 8 -21q0 -22 -29 -22h-117q-20 0 -33 10t-28 33l-121 176h-39v-176q0 -43 -43 -43h-86q-43 0 -43 43v664q0 43 43 43h86q43 0 43 -43v-348h39z" />
    <glyph glyph-name="l" unicode="l" horiz-adv-x="344" 
d="M94 609h-35q-43 0 -43 43v55q0 43 43 43h164q43 0 43 -43v-664q0 -43 -43 -43h-86q-43 0 -43 43v566z" />
    <glyph glyph-name="m" unicode="m" horiz-adv-x="1031" 
d="M250 504v-40l20 16q48 40 86.5 57.5t88.5 17.5q113 0 145 -94h8l23 19q49 40 87.5 57.5t88.5 17.5q77 0 116.5 -45.5t39.5 -126.5v-340q0 -43 -43 -43h-86q-43 0 -43 43v293q0 36 -10.5 53t-40.5 17q-37 0 -101 -47l-27 -19v-297q0 -43 -43 -43h-86q-43 0 -43 43v293
q0 36 -10.5 53t-40.5 17q-36 0 -102 -47l-27 -19v-297q0 -43 -43 -43h-86q-43 0 -43 43v461q0 43 43 43h86q43 0 43 -43z" />
    <glyph glyph-name="n" unicode="n" horiz-adv-x="688" 
d="M250 504v-40l23 16q55 40 93.5 57.5t86.5 17.5q78 0 117 -45.5t39 -126.5v-340q0 -43 -43 -43h-86q-43 0 -43 43v293q0 36 -10 53t-40 17q-34 0 -106 -47l-31 -19v-297q0 -43 -43 -43h-86q-43 0 -43 43v461q0 43 43 43h86q43 0 43 -43z" />
    <glyph glyph-name="o" unicode="o" horiz-adv-x="641" 
d="M320 -8q-140 0 -210.5 64.5t-70.5 216.5q0 282 281 282q143 0 212.5 -68.5t69.5 -213.5q0 -153 -68 -217t-214 -64zM320 141q59 0 84.5 30t25.5 102q0 73 -25.5 103t-84.5 30t-84 -30t-25 -103q0 -72 25 -102t84 -30z" />
    <glyph glyph-name="p" unicode="p" horiz-adv-x="672" 
d="M250 504v-31l39 27q79 55 152 55q85 0 130.5 -47.5t45.5 -132.5v-109q0 -121 -81.5 -193.5t-207.5 -72.5h-78v-145q0 -43 -43 -43h-86q-43 0 -43 43v649q0 43 43 43h86q43 0 43 -43zM281 367l-31 -19v-207h62q133 0 133 125v78q0 62 -62 62q-40 0 -102 -39z" />
    <glyph glyph-name="q" unicode="q" horiz-adv-x="672" 
d="M594 504v-649q0 -43 -43 -43h-86q-43 0 -43 43v219l-39 -27q-81 -55 -153 -55q-84 0 -129.5 47.5t-45.5 132.5v109q0 121 81.5 193.5t207.5 72.5h207q43 0 43 -43zM391 180l31 19v207h-63q-132 0 -132 -125v-78q0 -62 62 -62q40 0 102 39z" />
    <glyph glyph-name="r" unicode="r" horiz-adv-x="438" 
d="M395 555q42 0 42 -43v-63q0 -43 -42 -43h-16q-82 0 -129 -54v-309q0 -43 -43 -43h-86q-43 0 -43 43v461q0 43 43 43h86q43 0 43 -43v-24q23 35 63 55t82 20z" />
    <glyph glyph-name="s" unicode="s" horiz-adv-x="539" 
d="M426 400q-62 10 -117 10q-90 0 -90 -27q0 -11 9.5 -18.5t17.5 -10t27 -6.5l75 -16q152 -32 152 -160q0 -180 -277 -180q-67 0 -141 12q-43 8 -43 48v59q0 39 33 39l10 -1q79 -12 141 -12q97 0 97 31q0 16 -10 23t-33 12l-86 20q-152 34 -152 156q0 89 75.5 132.5
t198.5 43.5q62 0 113 -9q43 -8 43 -48v-60q0 -39 -34 -39z" />
    <glyph glyph-name="t" unicode="t" horiz-adv-x="422" 
d="M367 141h12q43 0 43 -43v-55q0 -43 -43 -43h-59q-107 0 -166.5 53.5t-59.5 157.5v195h-43q-43 0 -43 43v55q0 43 43 43h43v98q0 42 43 42h86q43 0 43 -42v-98h97q43 0 43 -43v-55q0 -43 -43 -43h-97v-156q0 -60 22 -84.5t79 -24.5z" />
    <glyph glyph-name="u" unicode="u" horiz-adv-x="688" 
d="M437 43v40l-23 -17q-54 -39 -92.5 -56.5t-87.5 -17.5q-77 0 -116.5 45.5t-39.5 126.5v340q0 43 43 43h86q43 0 43 -43v-293q0 -36 10.5 -53t40.5 -17q32 0 105 46l31 20v297q0 43 43 43h86q43 0 43 -43v-461q0 -43 -43 -43h-86q-43 0 -43 43z" />
    <glyph glyph-name="v" unicode="v" horiz-adv-x="578" 
d="M375 406v98q0 43 43 43h86q43 0 43 -43v-98q0 -126 -55.5 -243.5t-108.5 -162.5h-195q-51 44 -104 162t-53 244v98q0 43 43 43h86q43 0 43 -43v-98q0 -89 26 -167t64 -122q36 43 59 120.5t23 168.5z" />
    <glyph glyph-name="w" unicode="w" horiz-adv-x="875" 
d="M844 504v-98q0 -126 -52.5 -244t-103.5 -162h-180q-14 12 -38.5 55.5t-35.5 77.5q-11 -33 -38.5 -76t-43.5 -57h-180q-48 41 -94.5 159t-46.5 247v98q0 43 43 43h86q43 0 43 -43v-98q0 -94 19.5 -171t54.5 -118q35 41 55 118t20 171v98q0 43 43 43h85q43 0 43 -43v-98
q0 -94 20 -171t55 -118q35 41 54.5 118t19.5 171v98q0 43 43 43h86q43 0 43 -43z" />
    <glyph glyph-name="x" unicode="x" horiz-adv-x="531" 
d="M23 43l156 233l-148 228q-8 13 -8 21q0 22 29 22h94q20 0 33 -10t28 -33l62 -95l63 95q15 23 28 33t33 10h86q29 0 29 -22q0 -8 -8 -21l-148 -222l157 -239q8 -13 8 -21q0 -22 -30 -22h-94q-20 0 -33 10t-28 33l-69 106l-71 -106q-15 -22 -28 -32.5t-32 -10.5h-87
q-29 0 -29 22q0 10 7 21z" />
    <glyph glyph-name="y" unicode="y" horiz-adv-x="680" 
d="M602 504v-426q0 -124 -77 -195t-205 -71h-129q-23 0 -36.5 14t-13.5 37v39q0 24 13.5 37.5t36.5 13.5h67q91 0 131 29.5t41 110.5l-35 -20q-78 -42 -141 -42q-88 0 -136 46t-48 133v294q0 43 43 43h86q43 0 43 -43v-263q0 -62 63 -62q51 0 101 27l24 12v286q0 43 43 43
h86q43 0 43 -43z" />
    <glyph glyph-name="z" unicode="z" horiz-adv-x="523" 
d="M31 43v16q0 42 26 69q158 164 228 278h-203q-43 0 -43 43v55q0 43 43 43h367q43 0 43 -43v-16q0 -43 -19 -78q-89 -151 -207 -269h191q43 0 43 -43v-55q0 -43 -43 -43h-383q-43 0 -43 43z" />
    <glyph glyph-name="braceleft" unicode="{" horiz-adv-x="523" 
d="M449 -125h-58q-204 0 -204 172v94q0 49 -16 73t-66 35q-43 10 -43 47v33q0 37 43 47q49 10 65.5 35t16.5 73v94q0 172 204 172h58q43 0 43 -43v-39q0 -43 -43 -43h-4q-52 0 -69 -21t-17 -81v-62q0 -68 -34.5 -101.5t-94.5 -46.5q61 -14 95 -47.5t34 -101.5v-62
q0 -60 17 -81t69 -21h4q43 0 43 -43v-39q0 -43 -43 -43z" />
    <glyph glyph-name="bar" unicode="|" horiz-adv-x="359" 
d="M152 813h55q43 0 43 -42v-916q0 -43 -43 -43h-55q-43 0 -43 43v916q0 42 43 42z" />
    <glyph glyph-name="braceright" unicode="}" horiz-adv-x="523" 
d="M133 -125h-59q-43 0 -43 43v39q0 43 43 43h4q52 0 69 21t17 81v62q0 68 34.5 101.5t94.5 47.5q-60 13 -94.5 46.5t-34.5 101.5v62q0 60 -17 81t-69 21h-4q-43 0 -43 43v39q0 43 43 43h59q203 0 203 -172v-94q0 -48 16.5 -73t65.5 -35q43 -10 43 -47v-33q0 -37 -43 -47
q-49 -11 -65.5 -35.5t-16.5 -72.5v-94q0 -172 -203 -172z" />
    <glyph glyph-name="asciitilde" unicode="~" 
d="M531 377v-57q0 -34 -43 -66q-31 -24 -74 -24q-37 0 -109 33.5t-98 33.5q-41 0 -70 -25q-17 -13 -28 -13q-15 0 -15 29v60q0 34 43 66q30 24 74 24q37 0 109 -33.5t98 -33.5q46 0 70 22q19 14 28 14q15 0 15 -30z" />
    <glyph glyph-name="exclamdown" unicode="&#xa1;" horiz-adv-x="328" 
d="M78 621v86q0 43 43 43h86q43 0 43 -43v-86q0 -43 -43 -43h-86q-43 0 -43 43zM79 43l10 414q2 43 44 43h62q42 0 44 -43l10 -414q1 -20 -10.5 -31.5t-31.5 -11.5h-86q-20 0 -31.5 11.5t-10.5 31.5z" />
    <glyph glyph-name="cent" unicode="&#xa2;" 
d="M544 161q10 2 13 2q29 0 29 -37v-63q0 -38 -43 -51q-56 -17 -105 -20v-74q0 -43 -42 -43h-40q-43 0 -43 43v78q-137 16 -209.5 103t-72.5 237v78q0 139 75.5 227t206.5 110v73q0 43 43 43h40q42 0 42 -43v-67q50 -3 105 -15q43 -11 43 -50v-61q0 -38 -32 -38q-7 0 -11 1
q-68 15 -160 15q-86 0 -129 -48.5t-43 -138.5v-86q0 -89 41 -142t123 -53h47q54 0 122 20z" />
    <glyph glyph-name="sterling" unicode="&#xa3;" 
d="M527 0h-429q-43 0 -43 43v62q0 43 43 43h11q18 15 28.5 46t10.5 64v47h-35q-43 0 -43 43v62q0 43 43 43h35v27q0 133 74.5 201.5t211.5 68.5h93q43 0 43 -43v-62q0 -43 -43 -43h-93q-114 0 -114 -122v-27h145q43 0 43 -43v-62q0 -43 -43 -43h-145v-47q0 -71 -39 -110h246
q43 0 43 -43v-62q0 -43 -43 -43z" />
    <glyph glyph-name="currency" unicode="&#xa4;" horiz-adv-x="500" 
d="M256 534h1q70 0 115 -40l71 75l45 -46l-79 -71q35 -47 35 -118q0 -76 -35 -122l75 -74l-44 -44l-69 76q-45 -42 -117 -42q-71 0 -114 40l-67 -74l-43 44l72 70q-37 50 -37 121q0 73 39 123l-76 71l45 46l68 -76q48 41 115 41zM255 471h-1q-53 0 -85.5 -40.5t-32.5 -100.5
q0 -67 36.5 -103t81.5 -36q48 0 83.5 35.5t35.5 106.5q0 56 -31.5 97t-86.5 41z" />
    <glyph glyph-name="yen" unicode="&#xa5;" 
d="M200 707l116 -246l121 246q21 43 55 43h85q34 0 34 -23q0 -9 -6 -20l-210 -391v-43h121q43 0 43 -43v-62q0 -43 -43 -43h-121v-82q0 -43 -43 -43h-86q-43 0 -43 43v82h-121q-43 0 -43 43v62q0 43 43 43h121v43l-204 391q-6 11 -6 20q0 23 34 23h98q34 0 55 -43z" />
    <glyph glyph-name="brokenbar" unicode="&#xa6;" horiz-adv-x="359" 
d="M152 219h55q43 0 43 -43v-321q0 -43 -43 -43h-55q-43 0 -43 43v321q0 43 43 43zM152 812h55q43 0 43 -42v-321q0 -43 -43 -43h-55q-43 0 -43 43v321q0 42 43 42z" />
    <glyph glyph-name="section" unicode="&#xa7;" horiz-adv-x="582" 
d="M262 70l-168 84q-43 22 -43 57v80q0 34 24 34q10 0 19 -5l246 -121q148 -73 148 -203q0 -88 -74 -136t-172 -48h-148q-43 0 -43 43v63q0 43 43 43h148q67 0 67 51q0 22 -10 33.5t-37 24.5zM488 242l-246 121q-148 73 -148 203q0 88 74 136t172 48h148q43 0 43 -43v-62
q0 -43 -43 -43h-148q-67 0 -67 -51q0 -22 10 -33t37 -26l168 -84q43 -20 43 -56v-81q0 -34 -24 -34q-10 0 -19 5z" />
    <glyph glyph-name="dieresis" unicode="&#xa8;" horiz-adv-x="413" 
d="M90 625h-47q-43 0 -43 43v39q0 43 43 43h47q43 0 43 -43v-39q0 -43 -43 -43zM370 625h-47q-43 0 -43 43v39q0 43 43 43h47q43 0 43 -43v-39q0 -43 -43 -43z" />
    <glyph glyph-name="copyright" unicode="&#xa9;" horiz-adv-x="879" 
d="M441 16q-167 0 -280.5 103t-113.5 264t113.5 264t280.5 103t279 -102.5t112 -264.5t-112 -264.5t-279 -102.5zM441 86q139 0 220 82t81 215t-81 215t-220 82t-221.5 -82.5t-82.5 -214.5t82.5 -214.5t221.5 -82.5zM551 188q-36 -8 -71 -8q-101 0 -169.5 49.5t-68.5 153.5
t67 153.5t168 49.5q28 0 74 -10q23 -6 23 -27v-8q0 -20 -15 -20h-8q-44 10 -74 10q-61 0 -99 -37.5t-38 -110.5t39.5 -111t100.5 -38q37 0 71 9q3 1 8 1q15 0 15 -20v-8q0 -22 -23 -28z" />
    <glyph glyph-name="ordfeminine" unicode="&#xaa;" horiz-adv-x="543" 
d="M271 750h151q43 0 43 -43v-336q0 -43 -43 -43h-47q-43 0 -43 43v11l-27 -15q-71 -39 -117 -39q-67 0 -104 34t-37 99v86q0 94 63.5 148.5t160.5 54.5zM309 445l23 15v204h-47q-105 0 -105 -98v-104q0 -48 49 -48q28 0 80 31z" />
    <glyph glyph-name="guillemotleft" unicode="&#xab;" horiz-adv-x="586" 
d="M238 148l-133 101q-23 18 -33 31t-10 32v47q0 19 10 32.5t33 31.5l133 100q13 10 23 10q20 0 20 -32v-48q0 -33 -43 -62l-74 -55l74 -55q43 -29 43 -62v-48q0 -32 -20 -32q-9 0 -23 9zM488 148l-133 101q-23 18 -33 31t-10 32v47q0 19 10 32.5t33 31.5l133 100
q13 10 23 10q20 0 20 -32v-48q0 -33 -43 -62l-74 -55l74 -55q43 -29 43 -62v-48q0 -32 -20 -32q-9 0 -23 9z" />
    <glyph glyph-name="logicalnot" unicode="&#xac;" 
d="M94 340v55q0 42 43 42h351q43 0 43 -42v-204q0 -43 -43 -43h-54q-43 0 -43 43v106h-254q-43 0 -43 43z" />
    <glyph glyph-name="registered" unicode="&#xae;" horiz-adv-x="879" 
d="M441 16q-167 0 -280.5 103t-113.5 264t113.5 264t280.5 103t279 -102.5t112 -264.5t-112 -264.5t-279 -102.5zM441 86q139 0 220 82t81 215t-81 215t-220 82t-221.5 -82.5t-82.5 -214.5t82.5 -214.5t221.5 -82.5zM379 375h39q36 0 59 21t23 65q0 36 -23 53t-59 17h-39
v-156zM312 586h118q168 0 168 -125q0 -41 -22.5 -71.5t-59.5 -41.5l82 -137q5 -8 5 -14q0 -17 -25 -17h-44q-25 0 -43 31l-59 105h-53v-105q0 -31 -31 -31h-36q-31 0 -31 31v344q0 31 31 31z" />
    <glyph glyph-name="macron" unicode="&#xaf;" horiz-adv-x="324" 
d="M281 625h-238q-43 0 -43 43v19q0 43 43 43h238q43 0 43 -43v-19q0 -43 -43 -43z" />
    <glyph glyph-name="macron" unicode="&#x2c9;" horiz-adv-x="324" 
d="M281 625h-238q-43 0 -43 43v19q0 43 43 43h238q43 0 43 -43v-19q0 -43 -43 -43z" />
    <glyph glyph-name="degree" unicode="&#xb0;" horiz-adv-x="516" 
d="M252 320q-98 0 -144 50t-46 167q0 120 46 169t144 49q97 0 142.5 -49.5t45.5 -168.5q0 -116 -46 -166.5t-142 -50.5zM252 417q37 0 49.5 24t12.5 96q0 73 -12.5 96.5t-49.5 23.5q-39 0 -52 -23.5t-13 -96.5q0 -72 13 -96t52 -24z" />
    <glyph glyph-name="plusminus" unicode="&#xb1;" 
d="M285 586h55q43 0 43 -43v-106h105q43 0 43 -42v-55q0 -43 -43 -43h-105v-106q0 -43 -43 -43h-55q-43 0 -43 43v106h-105q-43 0 -43 43v55q0 42 43 42h105v106q0 43 43 43zM94 -98v55q0 43 43 43h351q43 0 43 -43v-55q0 -43 -43 -43h-351q-43 0 -43 43z" />
    <glyph glyph-name="twosuperior" unicode="&#xb2;" horiz-adv-x="412" 
d="M32 355v41q0 44 21 74t74 61l65 38q46 27 46 54q0 18 -13.5 24t-47.5 6h-94q-35 0 -35 33v33q0 31 35 31h124q75 0 116.5 -32.5t41.5 -90.5q0 -32 -15.5 -57t-34.5 -39t-59 -37l-56 -32q-36 -21 -37 -41h177q35 0 35 -31v-35q0 -31 -35 -31h-273q-16 0 -25.5 8.5
t-9.5 22.5z" />
    <glyph glyph-name="threesuperior" unicode="&#xb3;" horiz-adv-x="412" 
d="M198 495h-62q-35 0 -35 31v22q0 31 35 31h75q40 22 40 46q0 28 -53 28h-108q-35 0 -35 33v33q0 31 35 31h119q81 0 125 -23t44 -82q0 -51 -51 -85q61 -28 61 -100q0 -63 -50 -99.5t-129 -36.5h-124q-35 0 -35 31v35q0 31 35 31h113q64 0 64 39q0 35 -64 35z" />
    <glyph glyph-name="acute" unicode="&#xb4;" horiz-adv-x="256" 
d="M236 738l-86 -70q-4 -3 -16.5 -13.5t-16 -13t-12.5 -8t-15.5 -7t-14.5 -1.5h-42q-33 0 -33 21q0 10 9 22l50 70q28 43 61 43h107q29 0 29 -15q0 -11 -20 -28z" />
    <glyph glyph-name="mu" unicode="&#xb5;" horiz-adv-x="688" 
d="M619 43q6 -20 -4 -31.5t-31 -11.5h-84q-38 0 -51 43q0 2 -1.5 6t-2.5 6q-49 -55 -109 -55q-58 0 -86 31v-176q0 -43 -43 -43h-86q-43 0 -43 43v649q0 43 43 43h86q43 0 43 -43v-293q0 -70 94 -70q56 0 93 38v325q0 43 43 43h86q43 0 43 -43v-379q0 -51 10 -82z" />
    <glyph glyph-name="mu" unicode="&#x3bc;" horiz-adv-x="688" 
d="M619 43q6 -20 -4 -31.5t-31 -11.5h-84q-38 0 -51 43q0 2 -1.5 6t-2.5 6q-49 -55 -109 -55q-58 0 -86 31v-176q0 -43 -43 -43h-86q-43 0 -43 43v649q0 43 43 43h86q43 0 43 -43v-293q0 -70 94 -70q56 0 93 38v325q0 43 43 43h86q43 0 43 -43v-379q0 -51 10 -82z" />
    <glyph glyph-name="paragraph" unicode="&#xb6;" horiz-adv-x="859" 
d="M547 707v-852q0 -43 -43 -43h-86q-43 0 -43 43v333h-62q-123 0 -202.5 73t-79.5 208t79.5 208t202.5 73h191q43 0 43 -43zM652 750h86q43 0 43 -43v-852q0 -43 -43 -43h-86q-43 0 -43 43v852q0 43 43 43z" />
    <glyph glyph-name="periodcentered" unicode="&#xb7;" horiz-adv-x="328" 
d="M78 316v86q0 43 43 43h86q43 0 43 -43v-86q0 -43 -43 -43h-86q-43 0 -43 43z" />
    <glyph glyph-name="periodcentered" unicode="&#x2219;" horiz-adv-x="328" 
d="M78 316v86q0 43 43 43h86q43 0 43 -43v-86q0 -43 -43 -43h-86q-43 0 -43 43z" />
    <glyph glyph-name="cedilla" unicode="&#xb8;" horiz-adv-x="238" 
d="M0 -164v22q0 25 23 25h71q54 0 54 31q0 17 -12.5 28t-32.5 21q-3 1 -5 2v12h78q26 -12 44 -35.5t18 -46.5q0 -42 -31 -62.5t-78 -20.5h-106q-23 0 -23 24z" />
    <glyph glyph-name="onesuperior" unicode="&#xb9;" horiz-adv-x="412" 
d="M79 704l120 42q11 4 31 4h28q35 0 35 -31v-364q0 -14 -9.5 -22.5t-25.5 -8.5h-56q-35 0 -35 31v274l-84 -27q-5 -2 -14 -2q-23 0 -23 27v40q0 24 33 37z" />
    <glyph glyph-name="ordmasculine" unicode="&#xba;" horiz-adv-x="500" 
d="M250 328q-104 0 -153.5 50.5t-49.5 160.5q0 111 49.5 161t153.5 50t153.5 -50t49.5 -161q0 -110 -49.5 -160.5t-153.5 -50.5zM250 414q41 0 55.5 27t14.5 98t-14.5 98t-55.5 27t-55.5 -27t-14.5 -98t14.5 -98t55.5 -27z" />
    <glyph glyph-name="guillemotright" unicode="&#xbb;" horiz-adv-x="586" 
d="M480 249l-132 -101q-14 -9 -23 -9q-20 0 -20 32v48q0 33 43 62l74 55l-74 55q-43 29 -43 62v48q0 32 20 32q10 0 23 -10l132 -100q23 -17 33 -30.5t10 -33.5v-47q0 -19 -10 -32.5t-33 -30.5zM230 249l-132 -101q-14 -9 -23 -9q-20 0 -20 32v48q0 33 43 62l74 55l-74 55
q-43 29 -43 62v48q0 32 20 32q10 0 23 -10l132 -100q23 -17 33 -30.5t10 -33.5v-47q0 -19 -10 -32.5t-33 -30.5z" />
    <glyph glyph-name="onequarter" unicode="&#xbc;" horiz-adv-x="1031" 
d="M309 39l325 672q20 39 50 39h11q14 0 23.5 -7t9.5 -17q0 -8 -4 -15l-326 -672q-19 -39 -49 -39h-12q-14 0 -23 6.5t-9 17.5q0 8 4 15zM130 704l120 42q11 4 31 4h28q35 0 35 -31v-364q0 -14 -9.5 -22.5t-25.5 -8.5h-56q-35 0 -35 31v274l-84 -27q-5 -2 -14 -2
q-23 0 -23 27v40q0 25 33 37zM690 396q6 30 39 30h65q33 0 33 -27q0 -10 -6 -32q-22 -99 -85 -204h67v43q0 32 35 32h56q35 0 35 -32v-43h8q35 0 35 -31v-34q0 -33 -35 -33h-8v-34q0 -31 -35 -31h-56q-35 0 -35 31v34h-164q-35 0 -35 33v25q0 19 5 26q53 95 81 247z" />
    <glyph glyph-name="onehalf" unicode="&#xbd;" horiz-adv-x="1031" 
d="M309 39l325 672q20 39 50 39h11q14 0 23.5 -7t9.5 -17q0 -8 -4 -15l-326 -672q-19 -39 -49 -39h-12q-14 0 -23 6.5t-9 17.5q0 8 4 15zM130 704l120 42q11 4 31 4h28q35 0 35 -31v-364q0 -14 -9.5 -22.5t-25.5 -8.5h-56q-35 0 -35 31v274l-84 -27q-5 -2 -14 -2
q-23 0 -23 27v40q0 25 33 37zM641 31v40q0 45 20.5 75t73.5 61l66 38q39 24 45 44q1 5 1 10q0 17 -14 23.5t-48 6.5h-94q-35 0 -35 32v34q0 31 35 31h124q75 0 117 -32.5t42 -90.5q0 -33 -16 -58t-34.5 -38t-59.5 -37l-55 -32q-37 -21 -38 -41h177q35 0 35 -32v-34
q0 -31 -35 -31h-272q-35 0 -35 31z" />
    <glyph glyph-name="threequarters" unicode="&#xbe;" horiz-adv-x="1031" 
d="M309 39l325 672q20 39 50 39h11q14 0 23.5 -7t9.5 -17q0 -8 -4 -15l-326 -672q-19 -39 -49 -39h-12q-14 0 -23 6.5t-9 17.5q0 8 4 15zM206 495h-62q-36 0 -36 31v22q0 31 36 31h75q40 22 40 46q0 28 -53 28h-108q-36 0 -36 33v33q0 31 36 31h119q81 0 125 -23t44 -82
q0 -51 -51 -85q61 -28 61 -100q0 -63 -50 -99.5t-129 -36.5h-124q-35 0 -35 31v35q0 31 35 31h113q64 0 64 39q0 35 -64 35zM690 396q6 30 39 30h65q33 0 33 -27q0 -10 -6 -32q-22 -99 -85 -204h67v43q0 32 35 32h56q35 0 35 -32v-43h8q35 0 35 -31v-34q0 -33 -35 -33h-8
v-34q0 -31 -35 -31h-56q-35 0 -35 31v34h-164q-35 0 -35 33v25q0 19 5 26q53 95 81 247z" />
    <glyph glyph-name="questiondown" unicode="&#xbf;" horiz-adv-x="520" 
d="M181 629v70q0 23 13.5 37t36.5 14h71q23 0 37 -14t14 -37v-70q0 -23 -14 -37t-37 -14h-71q-23 0 -36.5 14t-13.5 37zM405 0h-151q-221 0 -221 168q0 60 20.5 105t74.5 90l57 47v47q0 43 42 43h75q44 0 44 -43v-33q0 -18 -12 -29l-33 -36q-6 -6 -20 -20.5t-18 -19t-15 -16
t-14 -16t-10 -14.5t-9 -16t-5 -15.5t-4 -18.5t-1 -20q0 -19 9 -30.5t28 -16.5t36.5 -6.5t45.5 -1.5h81q24 0 37.5 -13.5t13.5 -36.5v-47q0 -23 -13.5 -37t-37.5 -14z" />
    <glyph glyph-name="Agrave" unicode="&#xc0;" horiz-adv-x="750" 
d="M529 43q-5 22 -28 121h-258q-28 -112 -30 -121q-11 -43 -50 -43h-87q-17 0 -27.5 8.5t-10.5 22.5q0 4 2 12q21 88 77 277q34 117 83 250.5t73 179.5h211q24 -45 73 -178.5t84 -251.5q56 -189 77 -277q2 -8 2 -12q0 -14 -10.5 -22.5t-27.5 -8.5h-103q-40 0 -50 43z
M375 613q-29 -73 -93 -300h182q-61 236 -89 300zM344 871l-85 70q-20 17 -20 28q0 15 29 15h107q33 0 61 -43l50 -70q9 -12 9 -22q0 -21 -33 -21h-42q-8 0 -15 1.5t-15 6.5t-12.5 8t-16.5 13t-17 14z" />
    <glyph glyph-name="Aacute" unicode="&#xc1;" horiz-adv-x="750" 
d="M529 43q-5 22 -28 121h-258q-28 -112 -30 -121q-11 -43 -50 -43h-87q-17 0 -27.5 8.5t-10.5 22.5q0 4 2 12q21 88 77 277q34 117 83 250.5t73 179.5h211q24 -45 73 -178.5t84 -251.5q56 -189 77 -277q2 -8 2 -12q0 -14 -10.5 -22.5t-27.5 -8.5h-103q-40 0 -50 43z
M375 613q-29 -73 -93 -300h182q-61 236 -89 300zM491 941l-86 -70q-4 -3 -16.5 -13.5t-16 -13t-12.5 -8t-15.5 -7t-14.5 -1.5h-42q-33 0 -33 21q0 10 9 22l50 70q28 43 61 43h107q29 0 29 -15q0 -11 -20 -28z" />
    <glyph glyph-name="Acircumflex" unicode="&#xc2;" horiz-adv-x="750" 
d="M529 43q-5 22 -28 121h-258q-28 -112 -30 -121q-11 -43 -50 -43h-87q-17 0 -27.5 8.5t-10.5 22.5q0 4 2 12q21 88 77 277q34 117 83 250.5t73 179.5h211q24 -45 73 -178.5t84 -251.5q56 -189 77 -277q2 -8 2 -12q0 -14 -10.5 -22.5t-27.5 -8.5h-103q-40 0 -50 43z
M375 613q-29 -73 -93 -300h182q-61 236 -89 300zM490 965l80 -94q12 -15 12 -23q0 -20 -31 -20h-41q-32 0 -73 43l-58 51h-8l-57 -51q-43 -43 -74 -43h-41q-31 0 -31 20q0 8 12 23l80 94q20 23 33.5 33t32.5 10h98q19 0 32.5 -10t33.5 -33z" />
    <glyph glyph-name="Atilde" unicode="&#xc3;" horiz-adv-x="750" 
d="M529 43q-5 22 -28 121h-258q-28 -112 -30 -121q-11 -43 -50 -43h-87q-17 0 -27.5 8.5t-10.5 22.5q0 4 2 12q21 88 77 277q34 117 83 250.5t73 179.5h211q24 -45 73 -178.5t84 -251.5q56 -189 77 -277q2 -8 2 -12q0 -14 -10.5 -22.5t-27.5 -8.5h-103q-40 0 -50 43z
M375 613q-29 -73 -93 -300h182q-61 236 -89 300zM245 967q27 17 56 17q28 0 75.5 -31t64.5 -31q36 0 63 24q15 14 25 14q18 0 18 -29v-17q0 -30 -42 -63q-34 -23 -64 -23q-28 0 -75 31.5t-65 31.5q-34 0 -55 -21q-15 -15 -25 -15q-18 0 -18 31v18q0 33 42 63z" />
    <glyph glyph-name="Adieresis" unicode="&#xc4;" horiz-adv-x="750" 
d="M529 43q-5 22 -28 121h-258q-28 -112 -30 -121q-11 -43 -50 -43h-87q-17 0 -27.5 8.5t-10.5 22.5q0 4 2 12q21 88 77 277q34 117 83 250.5t73 179.5h211q24 -45 73 -178.5t84 -251.5q56 -189 77 -277q2 -8 2 -12q0 -14 -10.5 -22.5t-27.5 -8.5h-103q-40 0 -50 43z
M375 613q-29 -73 -93 -300h182q-61 236 -89 300zM258 828h-47q-43 0 -43 43v39q0 43 43 43h47q43 0 43 -43v-39q0 -43 -43 -43zM538 828h-47q-43 0 -43 43v39q0 43 43 43h47q43 0 43 -43v-39q0 -43 -43 -43z" />
    <glyph glyph-name="Aring" unicode="&#xc5;" horiz-adv-x="750" 
d="M529 43q-5 22 -28 121h-258q-28 -112 -30 -121q-11 -43 -50 -43h-87q-17 0 -27.5 8.5t-10.5 22.5q0 4 2 12q21 88 77 277q34 117 83 250.5t73 179.5h211q24 -45 73 -178.5t84 -251.5q56 -189 77 -277q2 -8 2 -12q0 -14 -10.5 -22.5t-27.5 -8.5h-103q-40 0 -50 43z
M375 613q-29 -73 -93 -300h182q-61 236 -89 300zM375 828q-137 0 -137 102q0 48 38 74.5t99 26.5q62 0 99 -25.5t37 -75.5q0 -49 -37.5 -75.5t-98.5 -26.5zM375 867q33 0 49.5 18.5t16.5 44.5t-16.5 44t-49.5 18t-50 -18t-17 -44t17 -44.5t50 -18.5z" />
    <glyph glyph-name="AE" unicode="&#xc6;" horiz-adv-x="1000" 
d="M40 43q26 105 77 277q34 117 83 250.5t73 179.5h606q43 0 43 -43v-62q0 -43 -43 -43h-270v-149h239q43 0 43 -43v-62q0 -43 -43 -43h-239v-71q0 -48 16.5 -67t61.5 -19h208q42 0 42 -43v-62q0 -43 -42 -43h-270q-82 0 -129.5 43t-56.5 121h-197q-18 -72 -29 -121
q-10 -43 -49 -43h-88q-17 0 -27.5 8.5t-10.5 22.5q0 4 2 12zM282 313h155v289h-66q-27 -64 -89 -289z" />
    <glyph glyph-name="Ccedilla" unicode="&#xc7;" horiz-adv-x="672" 
d="M582 13q-82 -21 -137 -21h-47q-168 0 -263.5 89.5t-95.5 254.5v78q0 161 103.5 252.5t271.5 91.5q128 0 211 -31v-176q0 -43 -43 -43h-70q-43 0 -43 43v51q-28 7 -71 7q-87 0 -133 -49t-46 -138v-86q0 -87 48 -141t131 -54h47q59 0 137 20q8 2 12 2q14 0 22.5 -10.5
t8.5 -27.5v-62q0 -39 -43 -50zM279 -164v22q0 25 23 25h71q54 0 54 31q0 17 -12.5 28t-32.5 21q-3 1 -5 2v12h78q26 -12 44 -35.5t18 -46.5q0 -42 -31 -62.5t-78 -20.5h-106q-23 0 -23 24z" />
    <glyph glyph-name="Egrave" unicode="&#xc8;" horiz-adv-x="641" 
d="M78 203v504q0 43 43 43h399q42 0 42 -43v-62q0 -43 -42 -43h-270v-149h238q43 0 43 -43v-62q0 -43 -43 -43h-238v-71q0 -48 16.5 -67t61.5 -19h207q43 0 43 -43v-62q0 -43 -43 -43h-269q-92 0 -140 53.5t-48 149.5zM274 871l-85 70q-20 17 -20 28q0 15 29 15h107
q33 0 61 -43l50 -70q9 -12 9 -22q0 -21 -33 -21h-42q-8 0 -15 1.5t-15 6.5t-12.5 8t-16.5 13t-17 14z" />
    <glyph glyph-name="Eacute" unicode="&#xc9;" horiz-adv-x="641" 
d="M78 203v504q0 43 43 43h399q42 0 42 -43v-62q0 -43 -42 -43h-270v-149h238q43 0 43 -43v-62q0 -43 -43 -43h-238v-71q0 -48 16.5 -67t61.5 -19h207q43 0 43 -43v-62q0 -43 -43 -43h-269q-92 0 -140 53.5t-48 149.5zM452 941l-86 -70q-4 -3 -16.5 -13.5t-16 -13t-12.5 -8
t-15.5 -7t-14.5 -1.5h-42q-33 0 -33 21q0 10 9 22l50 70q28 43 61 43h107q29 0 29 -15q0 -11 -20 -28z" />
    <glyph glyph-name="Ecircumflex" unicode="&#xca;" horiz-adv-x="641" 
d="M78 203v504q0 43 43 43h399q42 0 42 -43v-62q0 -43 -42 -43h-270v-149h238q43 0 43 -43v-62q0 -43 -43 -43h-238v-71q0 -48 16.5 -67t61.5 -19h207q43 0 43 -43v-62q0 -43 -43 -43h-269q-92 0 -140 53.5t-48 149.5zM435 965l80 -94q12 -15 12 -23q0 -20 -31 -20h-41
q-32 0 -73 43l-58 51h-8l-57 -51q-43 -43 -74 -43h-41q-31 0 -31 20q0 8 12 23l80 94q20 23 33.5 33t32.5 10h98q19 0 32.5 -10t33.5 -33z" />
    <glyph glyph-name="Edieresis" unicode="&#xcb;" horiz-adv-x="641" 
d="M78 203v504q0 43 43 43h399q42 0 42 -43v-62q0 -43 -42 -43h-270v-149h238q43 0 43 -43v-62q0 -43 -43 -43h-238v-71q0 -48 16.5 -67t61.5 -19h207q43 0 43 -43v-62q0 -43 -43 -43h-269q-92 0 -140 53.5t-48 149.5zM203 828h-47q-43 0 -43 43v39q0 43 43 43h47
q43 0 43 -43v-39q0 -43 -43 -43zM483 828h-47q-43 0 -43 43v39q0 43 43 43h47q43 0 43 -43v-39q0 -43 -43 -43z" />
    <glyph glyph-name="Igrave" unicode="&#xcc;" horiz-adv-x="328" 
d="M250 707v-664q0 -43 -43 -43h-86q-43 0 -43 43v664q0 43 43 43h86q43 0 43 -43zM126 871l-85 70q-20 17 -20 28q0 15 29 15h107q33 0 61 -43l50 -70q9 -12 9 -22q0 -21 -33 -21h-42q-8 0 -15 1.5t-15 6.5t-12.5 8t-16.5 13t-17 14z" />
    <glyph glyph-name="Iacute" unicode="&#xcd;" horiz-adv-x="328" 
d="M250 707v-664q0 -43 -43 -43h-86q-43 0 -43 43v664q0 43 43 43h86q43 0 43 -43zM288 941l-86 -70q-4 -3 -16.5 -13.5t-16 -13t-12.5 -8t-15.5 -7t-14.5 -1.5h-42q-33 0 -33 21q0 10 9 22l50 70q28 43 61 43h107q29 0 29 -15q0 -11 -20 -28z" />
    <glyph glyph-name="Icircumflex" unicode="&#xce;" horiz-adv-x="328" 
d="M250 707v-664q0 -43 -43 -43h-86q-43 0 -43 43v664q0 43 43 43h86q43 0 43 -43zM279 965l80 -94q12 -15 12 -23q0 -20 -31 -20h-41q-32 0 -73 43l-58 51h-8l-57 -51q-43 -43 -74 -43h-41q-31 0 -31 20q0 8 12 23l80 94q20 23 33.5 33t32.5 10h98q19 0 32.5 -10t33.5 -33z
" />
    <glyph glyph-name="Idieresis" unicode="&#xcf;" horiz-adv-x="328" 
d="M250 707v-664q0 -43 -43 -43h-86q-43 0 -43 43v664q0 43 43 43h86q43 0 43 -43zM48 828h-47q-43 0 -43 43v39q0 43 43 43h47q43 0 43 -43v-39q0 -43 -43 -43zM328 828h-47q-43 0 -43 43v39q0 43 43 43h47q43 0 43 -43v-39q0 -43 -43 -43z" />
    <glyph glyph-name="Eth" unicode="&#xd0;" horiz-adv-x="758" 
d="M121 0q-43 0 -43 43v277h-8q-43 0 -43 43v32q0 42 43 42h8v270q0 43 43 43h238q176 0 268 -87t92 -233v-94q0 -154 -90 -245t-270 -91h-238zM310 320h-60v-172h109q87 0 133.5 54.5t46.5 149.5v62q0 89 -46.5 138.5t-133.5 49.5h-109v-165h60q43 0 43 -42v-32
q0 -43 -43 -43z" />
    <glyph glyph-name="Ntilde" unicode="&#xd1;" horiz-adv-x="766" 
d="M517 23l-267 422v-402q0 -43 -43 -43h-86q-43 0 -43 43v664q0 43 43 43h82q32 0 47 -23l266 -422v402q0 43 43 43h86q42 0 42 -43v-664q0 -43 -42 -43h-82q-32 0 -46 23zM253 967q27 17 56 17q28 0 75.5 -31t64.5 -31q36 0 63 24q15 14 25 14q18 0 18 -29v-17
q0 -30 -42 -63q-34 -23 -64 -23q-28 0 -75 31.5t-65 31.5q-34 0 -55 -21q-15 -15 -25 -15q-18 0 -18 31v18q0 33 42 63z" />
    <glyph glyph-name="Ograve" unicode="&#xd2;" horiz-adv-x="766" 
d="M383 -8q-170 0 -257 97.5t-87 273.5v32q0 175 86.5 269t257.5 94q170 0 257 -94t87 -269v-32q0 -176 -87.5 -273.5t-256.5 -97.5zM383 141q91 0 127.5 58t36.5 164v32q0 104 -36.5 159t-127.5 55t-127.5 -55t-36.5 -159v-32q0 -106 36.5 -164t127.5 -58zM344 871l-85 70
q-20 17 -20 28q0 15 29 15h107q33 0 61 -43l50 -70q9 -12 9 -22q0 -21 -33 -21h-42q-8 0 -15 1.5t-15 6.5t-12.5 8t-16.5 13t-17 14z" />
    <glyph glyph-name="Oacute" unicode="&#xd3;" horiz-adv-x="766" 
d="M383 -8q-170 0 -257 97.5t-87 273.5v32q0 175 86.5 269t257.5 94q170 0 257 -94t87 -269v-32q0 -176 -87.5 -273.5t-256.5 -97.5zM383 141q91 0 127.5 58t36.5 164v32q0 104 -36.5 159t-127.5 55t-127.5 -55t-36.5 -159v-32q0 -106 36.5 -164t127.5 -58zM507 941l-86 -70
q-4 -3 -16.5 -13.5t-16 -13t-12.5 -8t-15.5 -7t-14.5 -1.5h-42q-33 0 -33 21q0 10 9 22l50 70q28 43 61 43h107q29 0 29 -15q0 -11 -20 -28z" />
    <glyph glyph-name="Ocircumflex" unicode="&#xd4;" horiz-adv-x="766" 
d="M383 -8q-170 0 -257 97.5t-87 273.5v32q0 175 86.5 269t257.5 94q170 0 257 -94t87 -269v-32q0 -176 -87.5 -273.5t-256.5 -97.5zM383 141q91 0 127.5 58t36.5 164v32q0 104 -36.5 159t-127.5 55t-127.5 -55t-36.5 -159v-32q0 -106 36.5 -164t127.5 -58zM498 965l80 -94
q12 -15 12 -23q0 -20 -31 -20h-41q-32 0 -73 43l-58 51h-8l-57 -51q-43 -43 -74 -43h-41q-31 0 -31 20q0 8 12 23l80 94q20 23 33.5 33t32.5 10h98q19 0 32.5 -10t33.5 -33z" />
    <glyph glyph-name="Otilde" unicode="&#xd5;" horiz-adv-x="766" 
d="M383 -8q-170 0 -257 97.5t-87 273.5v32q0 175 86.5 269t257.5 94q170 0 257 -94t87 -269v-32q0 -176 -87.5 -273.5t-256.5 -97.5zM383 141q91 0 127.5 58t36.5 164v32q0 104 -36.5 159t-127.5 55t-127.5 -55t-36.5 -159v-32q0 -106 36.5 -164t127.5 -58zM253 967
q27 17 56 17q28 0 75.5 -31t64.5 -31q36 0 63 24q15 14 25 14q18 0 18 -29v-17q0 -30 -42 -63q-34 -23 -64 -23q-28 0 -75 31.5t-65 31.5q-34 0 -55 -21q-15 -15 -25 -15q-18 0 -18 31v18q0 33 42 63z" />
    <glyph glyph-name="Odieresis" unicode="&#xd6;" horiz-adv-x="766" 
d="M383 -8q-170 0 -257 97.5t-87 273.5v32q0 175 86.5 269t257.5 94q170 0 257 -94t87 -269v-32q0 -176 -87.5 -273.5t-256.5 -97.5zM383 141q91 0 127.5 58t36.5 164v32q0 104 -36.5 159t-127.5 55t-127.5 -55t-36.5 -159v-32q0 -106 36.5 -164t127.5 -58zM266 828h-47
q-43 0 -43 43v39q0 43 43 43h47q43 0 43 -43v-39q0 -43 -43 -43zM546 828h-47q-43 0 -43 43v39q0 43 43 43h47q43 0 43 -43v-39q0 -43 -43 -43z" />
    <glyph glyph-name="multiply" unicode="&#xd7;" 
d="M448 541l38 -38q15 -15 15 -31t-15 -31l-74 -74l74 -74q15 -15 15 -31t-15 -31l-38 -38q-16 -14 -31 -14q-16 0 -30 14l-75 74l-74 -74q-14 -14 -31 -14q-14 0 -30 14l-38 38q-15 15 -15 31t15 31l74 74l-74 74q-15 15 -15 31t15 31l38 38q15 15 30 15q17 0 31 -15
l74 -75l75 75q13 15 30 15q16 0 31 -15z" />
    <glyph glyph-name="Oslash" unicode="&#xd8;" horiz-adv-x="766" 
d="M59 36l55 67q-75 96 -75 260v32q0 175 86.5 269t257.5 94q131 0 216 -59l12 15q30 36 56 36h22q27 0 27 -18q0 -8 -9 -18l-54 -66q74 -92 74 -253v-32q0 -176 -87.5 -273.5t-256.5 -97.5q-131 0 -216 60l-13 -16q-28 -36 -55 -36h-23q-26 0 -26 18q0 8 9 18zM219 363
q0 -68 13 -114l263 322q-40 38 -112 38q-91 0 -127.5 -55t-36.5 -159v-32zM383 141q91 0 127.5 58t36.5 164v32q0 64 -13 107l-263 -322q39 -39 112 -39z" />
    <glyph glyph-name="Ugrave" unicode="&#xd9;" horiz-adv-x="766" 
d="M516 270v437q0 43 43 43h86q42 0 42 -43v-434q0 -138 -84 -209.5t-220 -71.5q-145 0 -225 70.5t-80 209.5v435q0 43 43 43h86q43 0 43 -43v-437q0 -66 32 -97.5t101 -31.5t101 31.5t32 97.5zM348 871l-85 70q-20 17 -20 28q0 15 29 15h107q33 0 61 -43l50 -70
q9 -12 9 -22q0 -21 -33 -21h-42q-8 0 -15 1.5t-15 6.5t-12.5 8t-16.5 13t-17 14z" />
    <glyph glyph-name="Uacute" unicode="&#xda;" horiz-adv-x="766" 
d="M516 270v437q0 43 43 43h86q42 0 42 -43v-434q0 -138 -84 -209.5t-220 -71.5q-145 0 -225 70.5t-80 209.5v435q0 43 43 43h86q43 0 43 -43v-437q0 -66 32 -97.5t101 -31.5t101 31.5t32 97.5zM507 941l-86 -70q-4 -3 -16.5 -13.5t-16 -13t-12.5 -8t-15.5 -7t-14.5 -1.5
h-42q-33 0 -33 21q0 10 9 22l50 70q28 43 61 43h107q29 0 29 -15q0 -11 -20 -28z" />
    <glyph glyph-name="Ucircumflex" unicode="&#xdb;" horiz-adv-x="766" 
d="M516 270v437q0 43 43 43h86q42 0 42 -43v-434q0 -138 -84 -209.5t-220 -71.5q-145 0 -225 70.5t-80 209.5v435q0 43 43 43h86q43 0 43 -43v-437q0 -66 32 -97.5t101 -31.5t101 31.5t32 97.5zM498 965l80 -94q12 -15 12 -23q0 -20 -31 -20h-41q-32 0 -73 43l-58 51h-8
l-57 -51q-43 -43 -74 -43h-41q-31 0 -31 20q0 8 12 23l80 94q20 23 33.5 33t32.5 10h98q19 0 32.5 -10t33.5 -33z" />
    <glyph glyph-name="Udieresis" unicode="&#xdc;" horiz-adv-x="766" 
d="M516 270v437q0 43 43 43h86q42 0 42 -43v-434q0 -138 -84 -209.5t-220 -71.5q-145 0 -225 70.5t-80 209.5v435q0 43 43 43h86q43 0 43 -43v-437q0 -66 32 -97.5t101 -31.5t101 31.5t32 97.5zM266 828h-47q-43 0 -43 43v39q0 43 43 43h47q43 0 43 -43v-39q0 -43 -43 -43z
M546 828h-47q-43 0 -43 43v39q0 43 43 43h47q43 0 43 -43v-39q0 -43 -43 -43z" />
    <glyph glyph-name="Yacute" unicode="&#xdd;" horiz-adv-x="699" 
d="M664 707l-234 -422v-242q0 -43 -43 -43h-86q-43 0 -43 43v242l-224 422q-6 11 -6 20q0 23 34 23h98q35 0 57 -43l135 -277l142 277q22 43 57 43h85q34 0 34 -23q0 -9 -6 -20zM481 941l-86 -70q-4 -3 -16.5 -13.5t-16 -13t-12.5 -8t-15.5 -7t-14.5 -1.5h-42q-33 0 -33 21
q0 10 9 22l50 70q28 43 61 43h107q29 0 29 -15q0 -11 -20 -28z" />
    <glyph glyph-name="Thorn" unicode="&#xde;" horiz-adv-x="672" 
d="M250 707v-35h102q281 0 281 -258q0 -143 -81.5 -208t-215.5 -65h-86v-98q0 -43 -43 -43h-86q-43 0 -43 43v664q0 43 43 43h86q43 0 43 -43zM320 523h-70v-234h70q73 0 103 26t30 99q0 67 -29 88t-104 21z" />
    <glyph glyph-name="germandbls" unicode="&#xdf;" horiz-adv-x="750" 
d="M359 2q-43 8 -43 49v60q0 37 32 37q7 0 11 -1q62 -10 98 -10q83 0 83 35q0 8 -2.5 14t-5.5 9.5t-10.5 8t-12 6t-17.5 6.5t-19 7l-51 19q-102 39 -102 145q0 70 75 121q34 24 44 38.5t10 31.5q0 21 -19 34t-51 13q-23 0 -38.5 -3t-35 -14t-29.5 -38t-10 -70v-457
q0 -43 -43 -43h-86q-43 0 -43 43v363h-43q-43 0 -43 43v55q0 43 43 43h43v8q0 97 80.5 146t208.5 49q53 0 105 -14t92.5 -48.5t40.5 -82.5q0 -13 -1.5 -24t-4.5 -21t-6 -17.5t-9 -15.5t-9.5 -13t-12 -12t-11.5 -10t-12.5 -10t-11.5 -9t-9.5 -7.5t-10.5 -8t-8.5 -8.5t-8 -11
t-4.5 -12.5t-2 -15.5q0 -33 51 -55l47 -19q63 -27 92 -60.5t29 -99.5q0 -90 -63.5 -137t-167.5 -47q-75 0 -129 10z" />
    <glyph glyph-name="agrave" unicode="&#xe0;" horiz-adv-x="672" 
d="M594 504v-461q0 -43 -43 -43h-86q-43 0 -43 43v31l-39 -27q-81 -55 -153 -55q-84 0 -129.5 47.5t-45.5 132.5v109q0 121 81.5 193.5t207.5 72.5h207q43 0 43 -43zM391 180l31 19v207h-63q-132 0 -132 -125v-78q0 -62 62 -62q40 0 102 39zM313 668l-85 70q-20 17 -20 28
q0 15 29 15h107q33 0 61 -43l50 -70q9 -12 9 -22q0 -21 -33 -21h-42q-8 0 -15 1.5t-15 6.5t-12.5 8t-16.5 13t-17 14z" />
    <glyph glyph-name="aacute" unicode="&#xe1;" horiz-adv-x="672" 
d="M594 504v-461q0 -43 -43 -43h-86q-43 0 -43 43v31l-39 -27q-81 -55 -153 -55q-84 0 -129.5 47.5t-45.5 132.5v109q0 121 81.5 193.5t207.5 72.5h207q43 0 43 -43zM391 180l31 19v207h-63q-132 0 -132 -125v-78q0 -62 62 -62q40 0 102 39zM487 738l-86 -70
q-4 -3 -16.5 -13.5t-16 -13t-12.5 -8t-15.5 -7t-14.5 -1.5h-42q-33 0 -33 21q0 10 9 22l50 70q28 43 61 43h107q29 0 29 -15q0 -11 -20 -28z" />
    <glyph glyph-name="acircumflex" unicode="&#xe2;" horiz-adv-x="672" 
d="M594 504v-461q0 -43 -43 -43h-86q-43 0 -43 43v31l-39 -27q-81 -55 -153 -55q-84 0 -129.5 47.5t-45.5 132.5v109q0 121 81.5 193.5t207.5 72.5h207q43 0 43 -43zM391 180l31 19v207h-63q-132 0 -132 -125v-78q0 -62 62 -62q40 0 102 39zM467 762l80 -94q12 -15 12 -23
q0 -20 -31 -20h-41q-32 0 -73 43l-58 51h-8l-57 -51q-43 -43 -74 -43h-41q-31 0 -31 20q0 8 12 23l80 94q20 23 33.5 33t32.5 10h98q19 0 32.5 -10t33.5 -33z" />
    <glyph glyph-name="atilde" unicode="&#xe3;" horiz-adv-x="672" 
d="M594 504v-461q0 -43 -43 -43h-86q-43 0 -43 43v31l-39 -27q-81 -55 -153 -55q-84 0 -129.5 47.5t-45.5 132.5v109q0 121 81.5 193.5t207.5 72.5h207q43 0 43 -43zM391 180l31 19v207h-63q-132 0 -132 -125v-78q0 -62 62 -62q40 0 102 39zM218 764q27 17 56 17
q28 0 75.5 -31t64.5 -31q36 0 63 24q15 14 25 14q18 0 18 -29v-17q0 -30 -42 -63q-34 -23 -64 -23q-28 0 -75 31.5t-65 31.5q-34 0 -55 -21q-15 -15 -25 -15q-18 0 -18 31v18q0 33 42 63z" />
    <glyph glyph-name="adieresis" unicode="&#xe4;" horiz-adv-x="672" 
d="M594 504v-461q0 -43 -43 -43h-86q-43 0 -43 43v31l-39 -27q-81 -55 -153 -55q-84 0 -129.5 47.5t-45.5 132.5v109q0 121 81.5 193.5t207.5 72.5h207q43 0 43 -43zM391 180l31 19v207h-63q-132 0 -132 -125v-78q0 -62 62 -62q40 0 102 39zM235 625h-47q-43 0 -43 43v39
q0 43 43 43h47q43 0 43 -43v-39q0 -43 -43 -43zM515 625h-47q-43 0 -43 43v39q0 43 43 43h47q43 0 43 -43v-39q0 -43 -43 -43z" />
    <glyph glyph-name="aring" unicode="&#xe5;" horiz-adv-x="672" 
d="M594 504v-461q0 -43 -43 -43h-86q-43 0 -43 43v31l-39 -27q-81 -55 -153 -55q-84 0 -129.5 47.5t-45.5 132.5v109q0 121 81.5 193.5t207.5 72.5h207q43 0 43 -43zM391 180l31 19v207h-63q-132 0 -132 -125v-78q0 -62 62 -62q40 0 102 39zM348 625q-137 0 -137 102
q0 48 38 74.5t99 26.5q62 0 99 -25.5t37 -75.5q0 -49 -37.5 -75.5t-98.5 -26.5zM348 664q33 0 49.5 18.5t16.5 44.5t-16.5 44t-49.5 18t-50 -18t-17 -44t17 -44.5t50 -18.5z" />
    <glyph glyph-name="ae" unicode="&#xe6;" horiz-adv-x="1000" 
d="M855 11q-75 -19 -159 -19q-182 0 -245 103l-68 -48q-79 -55 -153 -55q-84 0 -129.5 47.5t-45.5 132.5v109q0 121 81.5 193.5t207.5 72.5h355q247 0 247 -180q0 -83 -55 -121.5t-149 -38.5h-148q2 -66 117 -66q80 0 144 14q4 1 12 1q31 0 31 -36v-59q0 -39 -43 -50z
M391 180l31 19v113q0 51 17 94h-80q-132 0 -132 -125v-78q0 -62 62 -62q40 0 102 39zM594 316v-7h136q59 0 59 46q0 32 -23 41.5t-67 9.5q-52 0 -78.5 -21t-26.5 -69z" />
    <glyph glyph-name="ccedilla" unicode="&#xe7;" horiz-adv-x="555" 
d="M449 12q-63 -20 -133 -20q-61 0 -109.5 11.5t-87 35.5t-59.5 65.5t-21 98.5v117q0 106 77 170.5t189 64.5q109 0 187 -39v-145q0 -43 -43 -43h-54q-43 0 -43 43v27q-16 8 -47 8q-44 0 -69 -25t-25 -69v-70q0 -101 109 -101q67 0 129 17q10 2 13 2q30 0 30 -37v-60
q0 -37 -43 -51zM178 -164v22q0 25 23 25h71q54 0 54 31q0 17 -12.5 28t-32.5 21q-3 1 -5 2v12h78q26 -12 44 -35.5t18 -46.5q0 -42 -31 -62.5t-78 -20.5h-106q-23 0 -23 24z" />
    <glyph glyph-name="egrave" unicode="&#xe8;" horiz-adv-x="617" 
d="M473 11q-76 -19 -160 -19q-128 0 -201 54t-73 169v105q0 113 77.5 174t199.5 61q247 0 247 -180q0 -160 -204 -160h-148v-4q0 -70 117 -70q79 0 145 14q4 1 11 1q32 0 32 -36v-59q0 -39 -43 -50zM211 324v-8h137q58 0 58 47q0 32 -23 41.5t-67 9.5q-52 0 -78.5 -21
t-26.5 -69zM262 668l-85 70q-20 17 -20 28q0 15 29 15h107q33 0 61 -43l50 -70q9 -12 9 -22q0 -21 -33 -21h-42q-8 0 -15 1.5t-15 6.5t-12.5 8t-16.5 13t-17 14z" />
    <glyph glyph-name="eacute" unicode="&#xe9;" horiz-adv-x="617" 
d="M473 11q-76 -19 -160 -19q-128 0 -201 54t-73 169v105q0 113 77.5 174t199.5 61q247 0 247 -180q0 -160 -204 -160h-148v-4q0 -70 117 -70q79 0 145 14q4 1 11 1q32 0 32 -36v-59q0 -39 -43 -50zM211 324v-8h137q58 0 58 47q0 32 -23 41.5t-67 9.5q-52 0 -78.5 -21
t-26.5 -69zM440 738l-86 -70q-4 -3 -16.5 -13.5t-16 -13t-12.5 -8t-15.5 -7t-14.5 -1.5h-42q-33 0 -33 21q0 10 9 22l50 70q28 43 61 43h107q29 0 29 -15q0 -11 -20 -28z" />
    <glyph glyph-name="ecircumflex" unicode="&#xea;" horiz-adv-x="617" 
d="M473 11q-76 -19 -160 -19q-128 0 -201 54t-73 169v105q0 113 77.5 174t199.5 61q247 0 247 -180q0 -160 -204 -160h-148v-4q0 -70 117 -70q79 0 145 14q4 1 11 1q32 0 32 -36v-59q0 -39 -43 -50zM211 324v-8h137q58 0 58 47q0 32 -23 41.5t-67 9.5q-52 0 -78.5 -21
t-26.5 -69zM416 762l80 -94q12 -15 12 -23q0 -20 -31 -20h-41q-32 0 -73 43l-58 51h-8l-57 -51q-43 -43 -74 -43h-41q-31 0 -31 20q0 8 12 23l80 94q20 23 33.5 33t32.5 10h98q19 0 32.5 -10t33.5 -33z" />
    <glyph glyph-name="edieresis" unicode="&#xeb;" horiz-adv-x="617" 
d="M473 11q-76 -19 -160 -19q-128 0 -201 54t-73 169v105q0 113 77.5 174t199.5 61q247 0 247 -180q0 -160 -204 -160h-148v-4q0 -70 117 -70q79 0 145 14q4 1 11 1q32 0 32 -36v-59q0 -39 -43 -50zM211 324v-8h137q58 0 58 47q0 32 -23 41.5t-67 9.5q-52 0 -78.5 -21
t-26.5 -69zM184 625h-47q-43 0 -43 43v39q0 43 43 43h47q43 0 43 -43v-39q0 -43 -43 -43zM464 625h-47q-43 0 -43 43v39q0 43 43 43h47q43 0 43 -43v-39q0 -43 -43 -43z" />
    <glyph glyph-name="igrave" unicode="&#xec;" horiz-adv-x="344" 
d="M94 406h-35q-43 0 -43 43v55q0 43 43 43h164q43 0 43 -43v-461q0 -43 -43 -43h-86q-43 0 -43 43v363zM126 668l-85 70q-20 17 -20 28q0 15 29 15h107q33 0 61 -43l50 -70q9 -12 9 -22q0 -21 -33 -21h-42q-8 0 -15 1.5t-15 6.5t-12.5 8t-16.5 13t-17 14z" />
    <glyph glyph-name="iacute" unicode="&#xed;" horiz-adv-x="344" 
d="M94 406h-35q-43 0 -43 43v55q0 43 43 43h164q43 0 43 -43v-461q0 -43 -43 -43h-86q-43 0 -43 43v363zM307 738l-86 -70q-4 -3 -16.5 -13.5t-16 -13t-12.5 -8t-15.5 -7t-14.5 -1.5h-42q-33 0 -33 21q0 10 9 22l50 70q28 43 61 43h107q29 0 29 -15q0 -11 -20 -28z" />
    <glyph glyph-name="icircumflex" unicode="&#xee;" horiz-adv-x="344" 
d="M94 406h-35q-43 0 -43 43v55q0 43 43 43h164q43 0 43 -43v-461q0 -43 -43 -43h-86q-43 0 -43 43v363zM275 762l80 -94q12 -15 12 -23q0 -20 -31 -20h-41q-32 0 -73 43l-58 51h-8l-57 -51q-43 -43 -74 -43h-41q-31 0 -31 20q0 8 12 23l80 94q20 23 33.5 33t32.5 10h98
q19 0 32.5 -10t33.5 -33z" />
    <glyph glyph-name="idieresis" unicode="&#xef;" horiz-adv-x="344" 
d="M94 406h-35q-43 0 -43 43v55q0 43 43 43h164q43 0 43 -43v-461q0 -43 -43 -43h-86q-43 0 -43 43v363zM40 625h-47q-43 0 -43 43v39q0 43 43 43h47q43 0 43 -43v-39q0 -43 -43 -43zM320 625h-47q-43 0 -43 43v39q0 43 43 43h47q43 0 43 -43v-39q0 -43 -43 -43z" />
    <glyph glyph-name="eth" unicode="&#xf0;" horiz-adv-x="672" 
d="M609 605h-15v-562q0 -43 -43 -43h-86q-43 0 -43 43v31l-39 -27q-81 -55 -153 -55q-84 0 -129.5 47.5t-45.5 132.5v109q0 121 81.5 193.5t207.5 72.5h78v58h-78q-43 0 -43 43v4q0 43 43 43h78v12q0 43 43 43h86q43 0 43 -43v-12h15q43 0 43 -43v-4q0 -43 -43 -43zM391 180
l31 19v207h-63q-132 0 -132 -125v-78q0 -62 62 -62q40 0 102 39z" />
    <glyph glyph-name="ntilde" unicode="&#xf1;" horiz-adv-x="688" 
d="M250 504v-40l23 16q55 40 93.5 57.5t86.5 17.5q78 0 117 -45.5t39 -126.5v-340q0 -43 -43 -43h-86q-43 0 -43 43v293q0 36 -10 53t-40 17q-34 0 -106 -47l-31 -19v-297q0 -43 -43 -43h-86q-43 0 -43 43v461q0 43 43 43h86q43 0 43 -43zM214 764q27 17 56 17
q28 0 75.5 -31t64.5 -31q36 0 63 24q15 14 25 14q18 0 18 -29v-17q0 -30 -42 -63q-34 -23 -64 -23q-28 0 -75 31.5t-65 31.5q-34 0 -55 -21q-15 -15 -25 -15q-18 0 -18 31v18q0 33 42 63z" />
    <glyph glyph-name="ograve" unicode="&#xf2;" horiz-adv-x="641" 
d="M320 -8q-140 0 -210.5 64.5t-70.5 216.5q0 282 281 282q143 0 212.5 -68.5t69.5 -213.5q0 -153 -68 -217t-214 -64zM320 141q59 0 84.5 30t25.5 102q0 73 -25.5 103t-84.5 30t-84 -30t-25 -103q0 -72 25 -102t84 -30zM278 668l-85 70q-20 17 -20 28q0 15 29 15h107
q33 0 61 -43l50 -70q9 -12 9 -22q0 -21 -33 -21h-42q-8 0 -15 1.5t-15 6.5t-12.5 8t-16.5 13t-17 14z" />
    <glyph glyph-name="oacute" unicode="&#xf3;" horiz-adv-x="641" 
d="M320 -8q-140 0 -210.5 64.5t-70.5 216.5q0 282 281 282q143 0 212.5 -68.5t69.5 -213.5q0 -153 -68 -217t-214 -64zM320 141q59 0 84.5 30t25.5 102q0 73 -25.5 103t-84.5 30t-84 -30t-25 -103q0 -72 25 -102t84 -30zM448 738l-86 -70q-4 -3 -16.5 -13.5t-16 -13
t-12.5 -8t-15.5 -7t-14.5 -1.5h-42q-33 0 -33 21q0 10 9 22l50 70q28 43 61 43h107q29 0 29 -15q0 -11 -20 -28z" />
    <glyph glyph-name="ocircumflex" unicode="&#xf4;" horiz-adv-x="641" 
d="M320 -8q-140 0 -210.5 64.5t-70.5 216.5q0 282 281 282q143 0 212.5 -68.5t69.5 -213.5q0 -153 -68 -217t-214 -64zM320 141q59 0 84.5 30t25.5 102q0 73 -25.5 103t-84.5 30t-84 -30t-25 -103q0 -72 25 -102t84 -30zM435 762l80 -94q12 -15 12 -23q0 -20 -31 -20h-41
q-32 0 -73 43l-58 51h-8l-57 -51q-43 -43 -74 -43h-41q-31 0 -31 20q0 8 12 23l80 94q20 23 33.5 33t32.5 10h98q19 0 32.5 -10t33.5 -33z" />
    <glyph glyph-name="otilde" unicode="&#xf5;" horiz-adv-x="641" 
d="M320 -8q-140 0 -210.5 64.5t-70.5 216.5q0 282 281 282q143 0 212.5 -68.5t69.5 -213.5q0 -153 -68 -217t-214 -64zM320 141q59 0 84.5 30t25.5 102q0 73 -25.5 103t-84.5 30t-84 -30t-25 -103q0 -72 25 -102t84 -30zM190 764q27 17 56 17q28 0 75.5 -31t64.5 -31
q36 0 63 24q15 14 25 14q18 0 18 -29v-17q0 -30 -42 -63q-34 -23 -64 -23q-28 0 -75 31.5t-65 31.5q-34 0 -55 -21q-15 -15 -25 -15q-18 0 -18 31v18q0 33 42 63z" />
    <glyph glyph-name="odieresis" unicode="&#xf6;" horiz-adv-x="641" 
d="M320 -8q-140 0 -210.5 64.5t-70.5 216.5q0 282 281 282q143 0 212.5 -68.5t69.5 -213.5q0 -153 -68 -217t-214 -64zM320 141q59 0 84.5 30t25.5 102q0 73 -25.5 103t-84.5 30t-84 -30t-25 -103q0 -72 25 -102t84 -30zM203 625h-47q-43 0 -43 43v39q0 43 43 43h47
q43 0 43 -43v-39q0 -43 -43 -43zM483 625h-47q-43 0 -43 43v39q0 43 43 43h47q43 0 43 -43v-39q0 -43 -43 -43z" />
    <glyph glyph-name="divide" unicode="&#xf7;" 
d="M94 340v55q0 42 43 42h351q43 0 43 -42v-55q0 -43 -43 -43h-351q-43 0 -43 43zM285 641h55q43 0 43 -43v-55q0 -43 -43 -43h-55q-43 0 -43 43v55q0 43 43 43zM285 234h55q43 0 43 -43v-54q0 -43 -43 -43h-55q-43 0 -43 43v54q0 43 43 43z" />
    <glyph glyph-name="oslash" unicode="&#xf8;" horiz-adv-x="641" 
d="M62 36l32 36q-55 69 -55 201q0 282 281 282q105 0 170 -37q26 29 49 29h23q26 0 26 -18q0 -7 -9 -18l-34 -38q57 -69 57 -200q0 -153 -68 -217t-214 -64q-108 0 -171 35q-24 -27 -47 -27h-23q-26 0 -26 18q0 8 9 18zM320 141q59 0 84.5 30t25.5 102q0 38 -7 63l-163 -184
q21 -11 60 -11zM211 273q0 -37 6 -62l163 184q-25 11 -60 11q-59 0 -84 -30t-25 -103z" />
    <glyph glyph-name="ugrave" unicode="&#xf9;" horiz-adv-x="688" 
d="M437 43v40l-23 -17q-54 -39 -92.5 -56.5t-87.5 -17.5q-77 0 -116.5 45.5t-39.5 126.5v340q0 43 43 43h86q43 0 43 -43v-293q0 -36 10.5 -53t40.5 -17q32 0 105 46l31 20v297q0 43 43 43h86q43 0 43 -43v-461q0 -43 -43 -43h-86q-43 0 -43 43zM305 668l-85 70
q-20 17 -20 28q0 15 29 15h107q33 0 61 -43l50 -70q9 -12 9 -22q0 -21 -33 -21h-42q-8 0 -15 1.5t-15 6.5t-12.5 8t-16.5 13t-17 14z" />
    <glyph glyph-name="uacute" unicode="&#xfa;" horiz-adv-x="688" 
d="M437 43v40l-23 -17q-54 -39 -92.5 -56.5t-87.5 -17.5q-77 0 -116.5 45.5t-39.5 126.5v340q0 43 43 43h86q43 0 43 -43v-293q0 -36 10.5 -53t40.5 -17q32 0 105 46l31 20v297q0 43 43 43h86q43 0 43 -43v-461q0 -43 -43 -43h-86q-43 0 -43 43zM467 738l-86 -70
q-4 -3 -16.5 -13.5t-16 -13t-12.5 -8t-15.5 -7t-14.5 -1.5h-42q-33 0 -33 21q0 10 9 22l50 70q28 43 61 43h107q29 0 29 -15q0 -11 -20 -28z" />
    <glyph glyph-name="ucircumflex" unicode="&#xfb;" horiz-adv-x="688" 
d="M437 43v40l-23 -17q-54 -39 -92.5 -56.5t-87.5 -17.5q-77 0 -116.5 45.5t-39.5 126.5v340q0 43 43 43h86q43 0 43 -43v-293q0 -36 10.5 -53t40.5 -17q32 0 105 46l31 20v297q0 43 43 43h86q43 0 43 -43v-461q0 -43 -43 -43h-86q-43 0 -43 43zM459 762l80 -94
q12 -15 12 -23q0 -20 -31 -20h-41q-32 0 -73 43l-58 51h-8l-57 -51q-43 -43 -74 -43h-41q-31 0 -31 20q0 8 12 23l80 94q20 23 33.5 33t32.5 10h98q19 0 32.5 -10t33.5 -33z" />
    <glyph glyph-name="udieresis" unicode="&#xfc;" horiz-adv-x="688" 
d="M437 43v40l-23 -17q-54 -39 -92.5 -56.5t-87.5 -17.5q-77 0 -116.5 45.5t-39.5 126.5v340q0 43 43 43h86q43 0 43 -43v-293q0 -36 10.5 -53t40.5 -17q32 0 105 46l31 20v297q0 43 43 43h86q43 0 43 -43v-461q0 -43 -43 -43h-86q-43 0 -43 43zM228 625h-47q-43 0 -43 43
v39q0 43 43 43h47q43 0 43 -43v-39q0 -43 -43 -43zM508 625h-47q-43 0 -43 43v39q0 43 43 43h47q43 0 43 -43v-39q0 -43 -43 -43z" />
    <glyph glyph-name="yacute" unicode="&#xfd;" horiz-adv-x="680" 
d="M602 504v-426q0 -124 -77 -195t-205 -71h-129q-23 0 -36.5 14t-13.5 37v39q0 24 13.5 37.5t36.5 13.5h67q91 0 131 29.5t41 110.5l-35 -20q-78 -42 -141 -42q-88 0 -136 46t-48 133v294q0 43 43 43h86q43 0 43 -43v-263q0 -62 63 -62q51 0 101 27l24 12v286q0 43 43 43
h86q43 0 43 -43zM471 738l-86 -70q-4 -3 -16.5 -13.5t-16 -13t-12.5 -8t-15.5 -7t-14.5 -1.5h-42q-33 0 -33 21q0 10 9 22l50 70q28 43 61 43h107q29 0 29 -15q0 -11 -20 -28z" />
    <glyph glyph-name="thorn" unicode="&#xfe;" horiz-adv-x="672" 
d="M250 707v-234l39 27q79 55 152 55q85 0 130.5 -47.5t45.5 -132.5v-109q0 -121 -81.5 -193.5t-207.5 -72.5h-78v-145q0 -43 -43 -43h-86q-43 0 -43 43v852q0 43 43 43h86q43 0 43 -43zM281 367l-31 -19v-207h63q132 0 132 125v78q0 62 -62 62q-40 0 -102 -39z" />
    <glyph glyph-name="ydieresis" unicode="&#xff;" horiz-adv-x="680" 
d="M602 504v-426q0 -124 -77 -195t-205 -71h-129q-23 0 -36.5 14t-13.5 37v39q0 24 13.5 37.5t36.5 13.5h67q91 0 131 29.5t41 110.5l-35 -20q-78 -42 -141 -42q-88 0 -136 46t-48 133v294q0 43 43 43h86q43 0 43 -43v-263q0 -62 63 -62q51 0 101 27l24 12v286q0 43 43 43
h86q43 0 43 -43zM223 625h-47q-43 0 -43 43v39q0 43 43 43h47q43 0 43 -43v-39q0 -43 -43 -43zM503 625h-47q-43 0 -43 43v39q0 43 43 43h47q43 0 43 -43v-39q0 -43 -43 -43z" />
    <glyph glyph-name="Amacron" unicode="&#x100;" horiz-adv-x="750" 
d="M529 43q-5 22 -28 121h-258q-28 -112 -30 -121q-11 -43 -50 -43h-87q-17 0 -27.5 8.5t-10.5 22.5q0 4 2 12q21 88 77 277q34 117 83 250.5t73 179.5h211q24 -45 73 -178.5t84 -251.5q56 -189 77 -277q2 -8 2 -12q0 -14 -10.5 -22.5t-27.5 -8.5h-103q-40 0 -50 43z
M375 613q-29 -73 -93 -300h182q-61 236 -89 300zM494 828h-238q-43 0 -43 43v19q0 43 43 43h238q43 0 43 -43v-19q0 -43 -43 -43z" />
    <glyph glyph-name="amacron" unicode="&#x101;" horiz-adv-x="672" 
d="M594 504v-461q0 -43 -43 -43h-86q-43 0 -43 43v31l-39 -27q-81 -55 -153 -55q-84 0 -129.5 47.5t-45.5 132.5v109q0 121 81.5 193.5t207.5 72.5h207q43 0 43 -43zM391 180l31 19v207h-63q-132 0 -132 -125v-78q0 -62 62 -62q40 0 102 39zM474 625h-238q-43 0 -43 43v19
q0 43 43 43h238q43 0 43 -43v-19q0 -43 -43 -43z" />
    <glyph glyph-name="Abreve" unicode="&#x102;" horiz-adv-x="750" 
d="M529 43q-5 22 -28 121h-258q-28 -112 -30 -121q-11 -43 -50 -43h-87q-17 0 -27.5 8.5t-10.5 22.5q0 4 2 12q21 88 77 277q34 117 83 250.5t73 179.5h211q24 -45 73 -178.5t84 -251.5q56 -189 77 -277q2 -8 2 -12q0 -14 -10.5 -22.5t-27.5 -8.5h-103q-40 0 -50 43z
M375 613q-29 -73 -93 -300h182q-61 236 -89 300zM478 976q15 32 36 32h14q27 0 27 -26q0 -58 -53 -106t-127 -48t-128 47.5t-54 106.5q0 26 28 26h16q22 0 35 -32q11 -24 39 -39t64 -15q78 0 103 54z" />
    <glyph glyph-name="abreve" unicode="&#x103;" horiz-adv-x="672" 
d="M594 504v-461q0 -43 -43 -43h-86q-43 0 -43 43v31l-39 -27q-81 -55 -153 -55q-84 0 -129.5 47.5t-45.5 132.5v109q0 121 81.5 193.5t207.5 72.5h207q43 0 43 -43zM391 180l31 19v207h-63q-132 0 -132 -125v-78q0 -62 62 -62q40 0 102 39zM455 773q15 32 36 32h14
q27 0 27 -26q0 -58 -53 -106t-127 -48t-128 47.5t-54 106.5q0 26 28 26h16q22 0 35 -32q11 -24 39 -39t64 -15q78 0 103 54z" />
    <glyph glyph-name="Aogonek" unicode="&#x104;" horiz-adv-x="750" 
d="M529 43q-5 22 -28 121h-258q-28 -112 -30 -121q-11 -43 -50 -43h-87q-17 0 -27.5 8.5t-10.5 22.5q0 4 2 12q21 88 77 277q34 117 83 250.5t73 179.5h211q24 -45 73 -178.5t84 -251.5q56 -189 77 -277q2 -8 2 -12q0 -14 -10.5 -22.5t-27.5 -8.5h-103q-40 0 -50 43z
M375 613q-29 -73 -93 -300h182q-61 236 -89 300zM770 -142v-22q0 -24 -23 -24h-106q-47 0 -78 20.5t-31 62.5q0 23 18 46.5t44 35.5h79v-12l-19 -9.5t-15 -9.5t-13.5 -14.5t-3.5 -17.5q0 -31 55 -31h70q23 0 23 -25z" />
    <glyph glyph-name="aogonek" unicode="&#x105;" horiz-adv-x="672" 
d="M594 504v-461q0 -43 -43 -43h-86q-43 0 -43 43v31l-39 -27q-81 -55 -153 -55q-84 0 -129.5 47.5t-45.5 132.5v109q0 121 81.5 193.5t207.5 72.5h207q43 0 43 -43zM391 180l31 19v207h-63q-132 0 -132 -125v-78q0 -62 62 -62q40 0 102 39zM648 -142v-22q0 -24 -23 -24
h-106q-47 0 -78 20.5t-31 62.5q0 23 18 46.5t44 35.5h79v-12l-19 -9.5t-15 -9.5t-13.5 -14.5t-3.5 -17.5q0 -31 55 -31h70q23 0 23 -25z" />
    <glyph glyph-name="Cacute" unicode="&#x106;" horiz-adv-x="672" 
d="M582 13q-82 -21 -137 -21h-47q-168 0 -263.5 89.5t-95.5 254.5v78q0 161 103.5 252.5t271.5 91.5q128 0 211 -31v-176q0 -43 -43 -43h-70q-43 0 -43 43v51q-28 7 -71 7q-87 0 -133 -49t-46 -138v-86q0 -87 48 -141t131 -54h47q59 0 137 20q8 2 12 2q14 0 22.5 -10.5
t8.5 -27.5v-62q0 -39 -43 -50zM518 941l-86 -70q-4 -3 -16.5 -13.5t-16 -13t-12.5 -8t-15.5 -7t-14.5 -1.5h-42q-33 0 -33 21q0 10 9 22l50 70q28 43 61 43h107q29 0 29 -15q0 -11 -20 -28z" />
    <glyph glyph-name="cacute" unicode="&#x107;" horiz-adv-x="555" 
d="M449 12q-63 -20 -133 -20q-61 0 -109.5 11.5t-87 35.5t-59.5 65.5t-21 98.5v117q0 106 77 170.5t189 64.5q109 0 187 -39v-145q0 -43 -43 -43h-54q-43 0 -43 43v27q-16 8 -47 8q-44 0 -69 -25t-25 -69v-70q0 -101 109 -101q67 0 129 17q10 2 13 2q30 0 30 -37v-60
q0 -37 -43 -51zM436 738l-86 -70q-4 -3 -16.5 -13.5t-16 -13t-12.5 -8t-15.5 -7t-14.5 -1.5h-42q-33 0 -33 21q0 10 9 22l50 70q28 43 61 43h107q29 0 29 -15q0 -11 -20 -28z" />
    <glyph glyph-name="Ccircumflex" unicode="&#x108;" horiz-adv-x="672" 
d="M582 13q-82 -21 -137 -21h-47q-168 0 -263.5 89.5t-95.5 254.5v78q0 161 103.5 252.5t271.5 91.5q128 0 211 -31v-176q0 -43 -43 -43h-70q-43 0 -43 43v51q-28 7 -71 7q-87 0 -133 -49t-46 -138v-86q0 -87 48 -141t131 -54h47q59 0 137 20q8 2 12 2q14 0 22.5 -10.5
t8.5 -27.5v-62q0 -39 -43 -50zM490 965l80 -94q12 -15 12 -23q0 -20 -31 -20h-41q-32 0 -73 43l-58 51h-8l-57 -51q-43 -43 -74 -43h-41q-31 0 -31 20q0 8 12 23l80 94q20 23 33.5 33t32.5 10h98q19 0 32.5 -10t33.5 -33z" />
    <glyph glyph-name="ccircumflex" unicode="&#x109;" horiz-adv-x="555" 
d="M449 12q-63 -20 -133 -20q-61 0 -109.5 11.5t-87 35.5t-59.5 65.5t-21 98.5v117q0 106 77 170.5t189 64.5q109 0 187 -39v-145q0 -43 -43 -43h-54q-43 0 -43 43v27q-16 8 -47 8q-44 0 -69 -25t-25 -69v-70q0 -101 109 -101q67 0 129 17q10 2 13 2q30 0 30 -37v-60
q0 -37 -43 -51zM404 762l80 -94q12 -15 12 -23q0 -20 -31 -20h-41q-32 0 -73 43l-58 51h-8l-57 -51q-43 -43 -74 -43h-41q-31 0 -31 20q0 8 12 23l80 94q20 23 33.5 33t32.5 10h98q19 0 32.5 -10t33.5 -33z" />
    <glyph glyph-name="Cdotaccent" unicode="&#x10a;" horiz-adv-x="672" 
d="M582 13q-82 -21 -137 -21h-47q-168 0 -263.5 89.5t-95.5 254.5v78q0 161 103.5 252.5t271.5 91.5q128 0 211 -31v-176q0 -43 -43 -43h-70q-43 0 -43 43v51q-28 7 -71 7q-87 0 -133 -49t-46 -138v-86q0 -87 48 -141t131 -54h47q59 0 137 20q8 2 12 2q14 0 22.5 -10.5
t8.5 -27.5v-62q0 -39 -43 -50zM418 820h-86q-43 0 -43 43v39q0 43 43 43h86q43 0 43 -43v-39q0 -43 -43 -43z" />
    <glyph glyph-name="cdotaccent" unicode="&#x10b;" horiz-adv-x="555" 
d="M449 12q-63 -20 -133 -20q-61 0 -109.5 11.5t-87 35.5t-59.5 65.5t-21 98.5v117q0 106 77 170.5t189 64.5q109 0 187 -39v-145q0 -43 -43 -43h-54q-43 0 -43 43v27q-16 8 -47 8q-44 0 -69 -25t-25 -69v-70q0 -101 109 -101q67 0 129 17q10 2 13 2q30 0 30 -37v-60
q0 -37 -43 -51zM332 617h-86q-43 0 -43 43v39q0 43 43 43h86q43 0 43 -43v-39q0 -43 -43 -43z" />
    <glyph glyph-name="Ccaron" unicode="&#x10c;" horiz-adv-x="672" 
d="M582 13q-82 -21 -137 -21h-47q-168 0 -263.5 89.5t-95.5 254.5v78q0 161 103.5 252.5t271.5 91.5q128 0 211 -31v-176q0 -43 -43 -43h-70q-43 0 -43 43v51q-28 7 -71 7q-87 0 -133 -49t-46 -138v-86q0 -87 48 -141t131 -54h47q59 0 137 20q8 2 12 2q14 0 22.5 -10.5
t8.5 -27.5v-62q0 -39 -43 -50zM574 965l-80 -94q-20 -23 -33.5 -33t-32.5 -10h-98q-19 0 -32.5 10t-33.5 33l-80 94q-12 13 -12 24q0 19 31 19h41q5 0 10 -1t8.5 -2t9 -4t8 -4.5t9 -6.5t8.5 -7t10 -9t11 -9l57 -51h8l58 51q38 34 52 39q10 4 21 4h41q31 0 31 -19
q0 -11 -12 -24z" />
    <glyph glyph-name="ccaron" unicode="&#x10d;" horiz-adv-x="555" 
d="M449 12q-63 -20 -133 -20q-61 0 -109.5 11.5t-87 35.5t-59.5 65.5t-21 98.5v117q0 106 77 170.5t189 64.5q109 0 187 -39v-145q0 -43 -43 -43h-54q-43 0 -43 43v27q-16 8 -47 8q-44 0 -69 -25t-25 -69v-70q0 -101 109 -101q67 0 129 17q10 2 13 2q30 0 30 -37v-60
q0 -37 -43 -51zM476 762l-80 -94q-20 -23 -33.5 -33t-32.5 -10h-98q-19 0 -32.5 10t-33.5 33l-80 94q-12 14 -12 24q0 19 31 19h41q5 0 10 -1t8.5 -2t9 -4t8 -4.5t9 -6.5t8.5 -7t10 -9t11 -9l57 -51h8l58 51q38 34 52 39q10 4 21 4h41q31 0 31 -19q0 -10 -12 -24z" />
    <glyph glyph-name="Dcaron" unicode="&#x10e;" horiz-adv-x="758" 
d="M359 0h-238q-43 0 -43 43v664q0 43 43 43h238q176 0 268 -87t92 -233v-94q0 -154 -90 -245t-270 -91zM359 602h-109v-454h109q87 0 133.5 54.5t46.5 149.5v62q0 89 -46.5 138.5t-133.5 49.5zM547 965l-80 -94q-20 -23 -33.5 -33t-32.5 -10h-98q-19 0 -32.5 10t-33.5 33
l-80 94q-12 13 -12 24q0 19 31 19h41q5 0 10 -1t8.5 -2t9 -4t8 -4.5t9 -6.5t8.5 -7t10 -9t11 -9l57 -51h8l58 51q38 34 52 39q10 4 21 4h41q31 0 31 -19q0 -11 -12 -24z" />
    <glyph glyph-name="dcaron" unicode="&#x10f;" horiz-adv-x="672" 
d="M594 707v-664q0 -43 -43 -43h-86q-43 0 -43 43v31l-39 -27q-81 -55 -153 -55q-84 0 -129.5 47.5t-45.5 132.5v109q0 121 81.5 193.5t207.5 72.5h78v160q0 43 43 43h86q43 0 43 -43zM391 180l31 19v207h-63q-132 0 -132 -125v-78q0 -62 62 -62q40 0 102 39zM641 637l19 70
q13 43 51 43h39q43 0 43 -43q0 -14 -8 -22l-35 -48q-16 -23 -29.5 -33t-33.5 -10h-11q-37 0 -37 29q0 4 2 14z" />
    <glyph glyph-name="Dcroat" unicode="&#x110;" horiz-adv-x="758" 
d="M121 0q-43 0 -43 43v277h-8q-43 0 -43 43v32q0 42 43 42h8v270q0 43 43 43h238q176 0 268 -87t92 -233v-94q0 -154 -90 -245t-270 -91h-238zM310 320h-60v-172h109q87 0 133.5 54.5t46.5 149.5v62q0 89 -46.5 138.5t-133.5 49.5h-109v-165h60q43 0 43 -42v-32
q0 -43 -43 -43z" />
    <glyph glyph-name="dcroat" unicode="&#x111;" horiz-adv-x="672" 
d="M609 605h-15v-562q0 -43 -43 -43h-86q-43 0 -43 43v31l-39 -27q-81 -55 -153 -55q-84 0 -129.5 47.5t-45.5 132.5v109q0 121 81.5 193.5t207.5 72.5h78v58h-78q-43 0 -43 43v4q0 43 43 43h78v12q0 43 43 43h86q43 0 43 -43v-12h15q43 0 43 -43v-4q0 -43 -43 -43zM391 180
l31 19v207h-63q-132 0 -132 -125v-78q0 -62 62 -62q40 0 102 39z" />
    <glyph glyph-name="Emacron" unicode="&#x112;" horiz-adv-x="641" 
d="M78 203v504q0 43 43 43h399q42 0 42 -43v-62q0 -43 -42 -43h-270v-149h238q43 0 43 -43v-62q0 -43 -43 -43h-238v-71q0 -48 16.5 -67t61.5 -19h207q43 0 43 -43v-62q0 -43 -43 -43h-269q-92 0 -140 53.5t-48 149.5zM435 828h-238q-43 0 -43 43v19q0 43 43 43h238
q43 0 43 -43v-19q0 -43 -43 -43z" />
    <glyph glyph-name="emacron" unicode="&#x113;" horiz-adv-x="617" 
d="M473 11q-76 -19 -160 -19q-128 0 -201 54t-73 169v105q0 113 77.5 174t199.5 61q247 0 247 -180q0 -160 -204 -160h-148v-4q0 -70 117 -70q79 0 145 14q4 1 11 1q32 0 32 -36v-59q0 -39 -43 -50zM211 324v-8h137q58 0 58 47q0 32 -23 41.5t-67 9.5q-52 0 -78.5 -21
t-26.5 -69zM427 625h-238q-43 0 -43 43v19q0 43 43 43h238q43 0 43 -43v-19q0 -43 -43 -43z" />
    <glyph glyph-name="Ebreve" unicode="&#x114;" horiz-adv-x="641" 
d="M78 203v504q0 43 43 43h399q42 0 42 -43v-62q0 -43 -42 -43h-270v-149h238q43 0 43 -43v-62q0 -43 -43 -43h-238v-71q0 -48 16.5 -67t61.5 -19h207q43 0 43 -43v-62q0 -43 -43 -43h-269q-92 0 -140 53.5t-48 149.5zM424 976q15 32 36 32h14q27 0 27 -26q0 -58 -53 -106
t-127 -48t-128 47.5t-54 106.5q0 26 28 26h16q22 0 35 -32q11 -24 39 -39t64 -15q78 0 103 54z" />
    <glyph glyph-name="ebreve" unicode="&#x115;" horiz-adv-x="617" 
d="M473 11q-76 -19 -160 -19q-128 0 -201 54t-73 169v105q0 113 77.5 174t199.5 61q247 0 247 -180q0 -160 -204 -160h-148v-4q0 -70 117 -70q79 0 145 14q4 1 11 1q32 0 32 -36v-59q0 -39 -43 -50zM211 324v-8h137q58 0 58 47q0 32 -23 41.5t-67 9.5q-52 0 -78.5 -21
t-26.5 -69zM408 773q15 32 36 32h14q27 0 27 -26q0 -58 -53 -106t-127 -48t-128 47.5t-54 106.5q0 26 28 26h16q22 0 35 -32q11 -24 39 -39t64 -15q78 0 103 54z" />
    <glyph glyph-name="Edotaccent" unicode="&#x116;" horiz-adv-x="641" 
d="M78 203v504q0 43 43 43h399q42 0 42 -43v-62q0 -43 -42 -43h-270v-149h238q43 0 43 -43v-62q0 -43 -43 -43h-238v-71q0 -48 16.5 -67t61.5 -19h207q43 0 43 -43v-62q0 -43 -43 -43h-269q-92 0 -140 53.5t-48 149.5zM363 820h-86q-43 0 -43 43v39q0 43 43 43h86
q43 0 43 -43v-39q0 -43 -43 -43z" />
    <glyph glyph-name="edotaccent" unicode="&#x117;" horiz-adv-x="617" 
d="M473 11q-76 -19 -160 -19q-128 0 -201 54t-73 169v105q0 113 77.5 174t199.5 61q247 0 247 -180q0 -160 -204 -160h-148v-4q0 -70 117 -70q79 0 145 14q4 1 11 1q32 0 32 -36v-59q0 -39 -43 -50zM211 324v-8h137q58 0 58 47q0 32 -23 41.5t-67 9.5q-52 0 -78.5 -21
t-26.5 -69zM356 617h-86q-43 0 -43 43v39q0 43 43 43h86q43 0 43 -43v-39q0 -43 -43 -43z" />
    <glyph glyph-name="Eogonek" unicode="&#x118;" horiz-adv-x="641" 
d="M78 203v504q0 43 43 43h399q42 0 42 -43v-62q0 -43 -42 -43h-270v-149h238q43 0 43 -43v-62q0 -43 -43 -43h-238v-71q0 -48 16.5 -67t61.5 -19h207q43 0 43 -43v-62q0 -43 -43 -43h-269q-92 0 -140 53.5t-48 149.5zM578 -142v-22q0 -24 -23 -24h-106q-47 0 -78 20.5
t-31 62.5q0 23 18 46.5t44 35.5h79v-12l-19 -9.5t-15 -9.5t-13.5 -14.5t-3.5 -17.5q0 -31 55 -31h70q23 0 23 -25z" />
    <glyph glyph-name="eogonek" unicode="&#x119;" horiz-adv-x="617" 
d="M473 11q-76 -19 -160 -19q-128 0 -201 54t-73 169v105q0 113 77.5 174t199.5 61q247 0 247 -180q0 -160 -204 -160h-148v-4q0 -70 117 -70q79 0 145 14q4 1 11 1q32 0 32 -36v-59q0 -39 -43 -50zM211 324v-8h137q58 0 58 47q0 32 -23 41.5t-67 9.5q-52 0 -78.5 -21
t-26.5 -69zM454 -142v-22q0 -24 -23 -24h-106q-47 0 -78 20.5t-31 62.5q0 23 18 46.5t44 35.5h79v-12l-19 -9.5t-15 -9.5t-13.5 -14.5t-3.5 -17.5q0 -31 55 -31h70q23 0 23 -25z" />
    <glyph glyph-name="Ecaron" unicode="&#x11a;" horiz-adv-x="641" 
d="M78 203v504q0 43 43 43h399q42 0 42 -43v-62q0 -43 -42 -43h-270v-149h238q43 0 43 -43v-62q0 -43 -43 -43h-238v-71q0 -48 16.5 -67t61.5 -19h207q43 0 43 -43v-62q0 -43 -43 -43h-269q-92 0 -140 53.5t-48 149.5zM511 965l-80 -94q-20 -23 -33.5 -33t-32.5 -10h-98
q-19 0 -32.5 10t-33.5 33l-80 94q-12 13 -12 24q0 19 31 19h41q5 0 10 -1t8.5 -2t9 -4t8 -4.5t9 -6.5t8.5 -7t10 -9t11 -9l57 -51h8l58 51q38 34 52 39q10 4 21 4h41q31 0 31 -19q0 -11 -12 -24z" />
    <glyph glyph-name="ecaron" unicode="&#x11b;" horiz-adv-x="617" 
d="M473 11q-76 -19 -160 -19q-128 0 -201 54t-73 169v105q0 113 77.5 174t199.5 61q247 0 247 -180q0 -160 -204 -160h-148v-4q0 -70 117 -70q79 0 145 14q4 1 11 1q32 0 32 -36v-59q0 -39 -43 -50zM211 324v-8h137q58 0 58 47q0 32 -23 41.5t-67 9.5q-52 0 -78.5 -21
t-26.5 -69zM504 762l-80 -94q-20 -23 -33.5 -33t-32.5 -10h-98q-19 0 -32.5 10t-33.5 33l-80 94q-12 14 -12 24q0 19 31 19h41q5 0 10 -1t8.5 -2t9 -4t8 -4.5t9 -6.5t8.5 -7t10 -9t11 -9l57 -51h8l58 51q38 34 52 39q10 4 21 4h41q31 0 31 -19q0 -10 -12 -24z" />
    <glyph glyph-name="Gcircumflex" unicode="&#x11c;" horiz-adv-x="742" 
d="M672 371v-336q-112 -43 -227 -43h-39q-169 0 -268 89.5t-99 254.5v78q0 87 32 154t87.5 108t126 61.5t153.5 20.5q96 0 191 -26q43 -11 43 -50v-66q0 -36 -29 -36q-4 0 -14 2q-95 27 -199 27q-96 0 -153.5 -51.5t-57.5 -143.5v-78q0 -86 51.5 -140.5t135.5 -54.5h39
q34 0 71 7v118h-67q-43 0 -43 43v62q0 43 43 43h180q43 0 43 -43zM517 965l80 -94q12 -15 12 -23q0 -20 -31 -20h-41q-32 0 -73 43l-58 51h-8l-57 -51q-43 -43 -74 -43h-41q-31 0 -31 20q0 8 12 23l80 94q20 23 33.5 33t32.5 10h98q19 0 32.5 -10t33.5 -33z" />
    <glyph glyph-name="gcircumflex" unicode="&#x11d;" horiz-adv-x="672" 
d="M168 -47h82q91 0 131.5 28.5t40.5 108.5v4l-39 -20q-74 -35 -115 -41q-15 -2 -30 -2q-88 0 -135.5 46.5t-47.5 133.5v70q0 121 81.5 193.5t207.5 72.5h207q43 0 43 -43v-426q0 -124 -77.5 -195t-204.5 -71h-144q-43 0 -43 43v55q0 43 43 43zM395 207l27 12v187h-63
q-132 0 -132 -125v-39q0 -62 62 -62q44 0 106 27zM470 762l80 -94q12 -15 12 -23q0 -20 -31 -20h-41q-32 0 -73 43l-58 51h-8l-57 -51q-43 -43 -74 -43h-41q-31 0 -31 20q0 8 12 23l80 94q20 23 33.5 33t32.5 10h98q19 0 32.5 -10t33.5 -33z" />
    <glyph glyph-name="Gbreve" unicode="&#x11e;" horiz-adv-x="742" 
d="M672 371v-336q-112 -43 -227 -43h-39q-169 0 -268 89.5t-99 254.5v78q0 87 32 154t87.5 108t126 61.5t153.5 20.5q96 0 191 -26q43 -11 43 -50v-66q0 -36 -29 -36q-4 0 -14 2q-95 27 -199 27q-96 0 -153.5 -51.5t-57.5 -143.5v-78q0 -86 51.5 -140.5t135.5 -54.5h39
q34 0 71 7v118h-67q-43 0 -43 43v62q0 43 43 43h180q43 0 43 -43zM502 976q15 32 36 32h14q27 0 27 -26q0 -58 -53 -106t-127 -48t-128 47.5t-54 106.5q0 26 28 26h16q22 0 35 -32q11 -24 39 -39t64 -15q78 0 103 54z" />
    <glyph glyph-name="gbreve" unicode="&#x11f;" horiz-adv-x="672" 
d="M168 -47h82q91 0 131.5 28.5t40.5 108.5v4l-39 -20q-74 -35 -115 -41q-15 -2 -30 -2q-88 0 -135.5 46.5t-47.5 133.5v70q0 121 81.5 193.5t207.5 72.5h207q43 0 43 -43v-426q0 -124 -77.5 -195t-204.5 -71h-144q-43 0 -43 43v55q0 43 43 43zM395 207l27 12v187h-63
q-132 0 -132 -125v-39q0 -62 62 -62q44 0 106 27zM459 773q15 32 36 32h14q27 0 27 -26q0 -58 -53 -106t-127 -48t-128 47.5t-54 106.5q0 26 28 26h16q22 0 35 -32q11 -24 39 -39t64 -15q78 0 103 54z" />
    <glyph glyph-name="Gdotaccent" unicode="&#x120;" horiz-adv-x="742" 
d="M672 371v-336q-112 -43 -227 -43h-39q-169 0 -268 89.5t-99 254.5v78q0 87 32 154t87.5 108t126 61.5t153.5 20.5q96 0 191 -26q43 -11 43 -50v-66q0 -36 -29 -36q-4 0 -14 2q-95 27 -199 27q-96 0 -153.5 -51.5t-57.5 -143.5v-78q0 -86 51.5 -140.5t135.5 -54.5h39
q34 0 71 7v118h-67q-43 0 -43 43v62q0 43 43 43h180q43 0 43 -43zM445 820h-86q-43 0 -43 43v39q0 43 43 43h86q43 0 43 -43v-39q0 -43 -43 -43z" />
    <glyph glyph-name="gdotaccent" unicode="&#x121;" horiz-adv-x="672" 
d="M168 -47h82q91 0 131.5 28.5t40.5 108.5v4l-39 -20q-74 -35 -115 -41q-15 -2 -30 -2q-88 0 -135.5 46.5t-47.5 133.5v70q0 121 81.5 193.5t207.5 72.5h207q43 0 43 -43v-426q0 -124 -77.5 -195t-204.5 -71h-144q-43 0 -43 43v55q0 43 43 43zM395 207l27 12v187h-63
q-132 0 -132 -125v-39q0 -62 62 -62q44 0 106 27zM395 617h-86q-43 0 -43 43v39q0 43 43 43h86q43 0 43 -43v-39q0 -43 -43 -43z" />
    <glyph glyph-name="Gcommaaccent" unicode="&#x122;" horiz-adv-x="742" 
d="M672 371v-336q-112 -43 -227 -43h-39q-169 0 -268 89.5t-99 254.5v78q0 87 32 154t87.5 108t126 61.5t153.5 20.5q96 0 191 -26q43 -11 43 -50v-66q0 -36 -29 -36q-4 0 -14 2q-95 27 -199 27q-96 0 -153.5 -51.5t-57.5 -143.5v-78q0 -86 51.5 -140.5t135.5 -54.5h39
q34 0 71 7v118h-67q-43 0 -43 43v62q0 43 43 43h180q43 0 43 -43zM315 -152l19 70q13 43 51 43h39q43 0 43 -43q0 -14 -8 -22l-35 -48q-29 -43 -62 -43h-12q-37 0 -37 29q0 4 2 14z" />
    <glyph glyph-name="gcommaaccent" unicode="&#x123;" horiz-adv-x="672" 
d="M168 -47h82q91 0 131.5 28.5t40.5 108.5v4l-39 -20q-74 -35 -115 -41q-15 -2 -30 -2q-88 0 -135.5 46.5t-47.5 133.5v70q0 121 81.5 193.5t207.5 72.5h207q43 0 43 -43v-426q0 -124 -77.5 -195t-204.5 -71h-144q-43 0 -43 43v55q0 43 43 43zM395 207l27 12v187h-63
q-132 0 -132 -125v-39q0 -62 62 -62q44 0 106 27zM450 707l-19 -70q-12 -43 -51 -43h-39q-43 0 -43 43q0 12 8 22l35 48q30 43 62 43h12q37 0 37 -29q0 -4 -2 -14z" />
    <glyph glyph-name="Hcircumflex" unicode="&#x124;" horiz-adv-x="766" 
d="M687 707v-664q0 -43 -42 -43h-86q-43 0 -43 43v269h-266v-269q0 -43 -43 -43h-86q-43 0 -43 43v664q0 43 43 43h86q43 0 43 -43v-246h266v246q0 43 43 43h86q42 0 42 -43zM498 965l80 -94q12 -15 12 -23q0 -20 -31 -20h-41q-32 0 -73 43l-58 51h-8l-57 -51
q-43 -43 -74 -43h-41q-31 0 -31 20q0 8 12 23l80 94q20 23 33.5 33t32.5 10h98q19 0 32.5 -10t33.5 -33z" />
    <glyph glyph-name="hcircumflex" unicode="&#x125;" horiz-adv-x="688" 
d="M250 707v-243l23 16q55 40 93.5 57.5t86.5 17.5q78 0 117 -45.5t39 -126.5v-340q0 -43 -43 -43h-86q-43 0 -43 43v293q0 36 -10 53t-40 17q-34 0 -106 -47l-31 -19v-297q0 -43 -43 -43h-86q-43 0 -43 43v664q0 43 43 43h86q43 0 43 -43zM279 965l80 -94q12 -15 12 -23
q0 -20 -31 -20h-41q-32 0 -73 43l-58 51h-8l-57 -51q-43 -43 -74 -43h-41q-31 0 -31 20q0 8 12 23l80 94q20 23 33.5 33t32.5 10h98q19 0 32.5 -10t33.5 -33z" />
    <glyph glyph-name="Hbar" unicode="&#x126;" horiz-adv-x="766" 
d="M699 535h-12v-492q0 -43 -42 -43h-86q-43 0 -43 43v269h-266v-269q0 -43 -43 -43h-86q-43 0 -43 43v492h-12q-43 0 -43 43v43q0 43 43 43h12v43q0 43 43 43h86q43 0 43 -43v-43h266v43q0 43 43 43h86q42 0 42 -43v-43h12q43 0 43 -43v-43q0 -43 -43 -43zM250 535v-74h266
v74h-266z" />
    <glyph glyph-name="hbar" unicode="&#x127;" horiz-adv-x="688" 
d="M328 605h-78v-141l23 16q55 40 93.5 57.5t86.5 17.5q78 0 117 -45.5t39 -126.5v-340q0 -43 -43 -43h-86q-43 0 -43 43v293q0 36 -10 53t-40 17q-34 0 -106 -47l-31 -19v-297q0 -43 -43 -43h-86q-43 0 -43 43v562h-16q-42 0 -42 43v4q0 43 42 43h16v12q0 43 43 43h86
q43 0 43 -43v-12h78q43 0 43 -43v-4q0 -43 -43 -43z" />
    <glyph glyph-name="Itilde" unicode="&#x128;" horiz-adv-x="328" 
d="M250 707v-664q0 -43 -43 -43h-86q-43 0 -43 43v664q0 43 43 43h86q43 0 43 -43zM34 967q27 17 56 17q28 0 75.5 -31t64.5 -31q36 0 63 24q15 14 25 14q18 0 18 -29v-17q0 -30 -42 -63q-34 -23 -64 -23q-28 0 -75 31.5t-65 31.5q-34 0 -55 -21q-15 -15 -25 -15
q-18 0 -18 31v18q0 33 42 63z" />
    <glyph glyph-name="itilde" unicode="&#x129;" horiz-adv-x="344" 
d="M94 406h-35q-43 0 -43 43v55q0 43 43 43h164q43 0 43 -43v-461q0 -43 -43 -43h-86q-43 0 -43 43v363zM22 764q27 17 56 17q28 0 75.5 -31t64.5 -31q36 0 63 24q15 14 25 14q18 0 18 -29v-17q0 -30 -42 -63q-34 -23 -64 -23q-28 0 -75 31.5t-65 31.5q-34 0 -55 -21
q-15 -15 -25 -15q-18 0 -18 31v18q0 33 42 63z" />
    <glyph glyph-name="Imacron" unicode="&#x12a;" horiz-adv-x="328" 
d="M250 707v-664q0 -43 -43 -43h-86q-43 0 -43 43v664q0 43 43 43h86q43 0 43 -43zM283 828h-238q-43 0 -43 43v19q0 43 43 43h238q43 0 43 -43v-19q0 -43 -43 -43z" />
    <glyph glyph-name="imacron" unicode="&#x12b;" horiz-adv-x="344" 
d="M94 406h-35q-43 0 -43 43v55q0 43 43 43h164q43 0 43 -43v-461q0 -43 -43 -43h-86q-43 0 -43 43v363zM267 625h-238q-43 0 -43 43v19q0 43 43 43h238q43 0 43 -43v-19q0 -43 -43 -43z" />
    <glyph glyph-name="Ibreve" unicode="&#x12c;" horiz-adv-x="328" 
d="M250 707v-664q0 -43 -43 -43h-86q-43 0 -43 43v664q0 43 43 43h86q43 0 43 -43zM267 976q15 32 36 32h14q27 0 27 -26q0 -58 -53 -106t-127 -48t-128 47.5t-54 106.5q0 26 28 26h16q22 0 35 -32q11 -24 39 -39t64 -15q78 0 103 54z" />
    <glyph glyph-name="ibreve" unicode="&#x12d;" horiz-adv-x="344" 
d="M94 406h-35q-43 0 -43 43v55q0 43 43 43h164q43 0 43 -43v-461q0 -43 -43 -43h-86q-43 0 -43 43v363zM267 773q15 32 36 32h14q27 0 27 -26q0 -58 -53 -106t-127 -48t-128 47.5t-54 106.5q0 26 28 26h16q22 0 35 -32q11 -24 39 -39t64 -15q78 0 103 54z" />
    <glyph glyph-name="Iogonek" unicode="&#x12e;" horiz-adv-x="328" 
d="M250 707v-664q0 -43 -43 -43h-86q-43 0 -43 43v664q0 43 43 43h86q43 0 43 -43zM297 -142v-22q0 -24 -23 -24h-106q-47 0 -78 20.5t-31 62.5q0 23 18 46.5t44 35.5h79v-12l-19 -9.5t-15 -9.5t-13.5 -14.5t-3.5 -17.5q0 -31 55 -31h70q23 0 23 -25z" />
    <glyph glyph-name="iogonek" unicode="&#x12f;" horiz-adv-x="344" 
d="M94 406h-35q-43 0 -43 43v55q0 43 43 43h164q43 0 43 -43v-461q0 -43 -43 -43h-86q-43 0 -43 43v363zM223 609h-86q-43 0 -43 43v55q0 43 43 43h86q43 0 43 -43v-55q0 -43 -43 -43zM318 -142v-22q0 -24 -23 -24h-106q-47 0 -78 20.5t-31 62.5q0 23 18 46.5t44 35.5h79
v-12l-19 -9.5t-15 -9.5t-13.5 -14.5t-3.5 -17.5q0 -31 55 -31h70q23 0 23 -25z" />
    <glyph glyph-name="Idotaccent" unicode="&#x130;" horiz-adv-x="328" 
d="M250 707v-664q0 -43 -43 -43h-86q-43 0 -43 43v664q0 43 43 43h86q43 0 43 -43zM207 820h-86q-43 0 -43 43v39q0 43 43 43h86q43 0 43 -43v-39q0 -43 -43 -43z" />
    <glyph glyph-name="dotlessi" unicode="&#x131;" horiz-adv-x="344" 
d="M94 406h-35q-43 0 -43 43v55q0 43 43 43h164q43 0 43 -43v-461q0 -43 -43 -43h-86q-43 0 -43 43v363z" />
    <glyph glyph-name="IJ" unicode="&#x132;" horiz-adv-x="777" 
d="M250 707v-664q0 -43 -43 -43h-86q-43 0 -43 43v664q0 43 43 43h86q43 0 43 -43zM699 707v-457q0 -123 -63.5 -186.5t-186.5 -63.5h-82q-43 0 -43 43v62q0 43 43 43h67q51 0 72 24t21 78v352h-127q-43 0 -43 43v62q0 43 43 43h256q43 0 43 -43z" />
    <glyph glyph-name="ij" unicode="&#x133;" horiz-adv-x="687" 
d="M437 406h-35q-43 0 -43 43v55q0 43 43 43h164q43 0 43 -43v-473q0 -105 -61.5 -162t-156.5 -57h-47q-43 0 -43 43v55q0 43 43 43q52 0 72.5 20.5t20.5 73.5v359zM94 406h-35q-43 0 -43 43v55q0 43 43 43h164q43 0 43 -43v-461q0 -43 -43 -43h-86q-43 0 -43 43v363z
M223 609h-86q-43 0 -43 43v55q0 43 43 43h86q43 0 43 -43v-55q0 -43 -43 -43zM566 609h-86q-43 0 -43 43v55q0 43 43 43h86q43 0 43 -43v-55q0 -43 -43 -43z" />
    <glyph glyph-name="Jcircumflex" unicode="&#x134;" horiz-adv-x="484" 
d="M406 707v-457q0 -123 -63.5 -186.5t-186.5 -63.5h-82q-43 0 -43 43v62q0 43 43 43h67q51 0 72 24t21 78v352h-127q-43 0 -43 43v62q0 43 43 43h256q43 0 43 -43zM357 965l80 -94q12 -15 12 -23q0 -20 -31 -20h-41q-32 0 -73 43l-58 51h-8l-57 -51q-43 -43 -74 -43h-41
q-31 0 -31 20q0 8 12 23l80 94q20 23 33.5 33t32.5 10h98q19 0 32.5 -10t33.5 -33z" />
    <glyph glyph-name="jcircumflex" unicode="&#x135;" horiz-adv-x="352" 
d="M102 406h-36q-43 0 -43 43v55q0 43 43 43h164q43 0 43 -43v-473q0 -105 -61.5 -162t-156.5 -57h-47q-43 0 -43 43v55q0 43 43 43q52 0 73 20.5t21 73.5v359zM283 762l80 -94q12 -15 12 -23q0 -20 -31 -20h-41q-32 0 -73 43l-58 51h-8l-57 -51q-43 -43 -74 -43h-41
q-31 0 -31 20q0 8 12 23l80 94q20 23 33.5 33t32.5 10h98q19 0 32.5 -10t33.5 -33z" />
    <glyph glyph-name="Kcommaaccent" unicode="&#x136;" horiz-adv-x="750" 
d="M498 43l-213 273h-35v-273q0 -43 -43 -43h-86q-43 0 -43 43v664q0 43 43 43h86q43 0 43 -43v-242h43l192 242q19 23 32.5 33t32.5 10h116q31 0 31 -20q0 -10 -10 -23l-257 -309l277 -355q10 -13 10 -22q0 -21 -31 -21h-124q-19 0 -32 10t-32 33zM265 -152l19 70
q13 43 51 43h39q43 0 43 -43q0 -14 -8 -22l-35 -48q-29 -43 -62 -43h-12q-37 0 -37 29q0 4 2 14z" />
    <glyph glyph-name="kcommaaccent" unicode="&#x137;" horiz-adv-x="641" 
d="M289 359l121 145q20 24 33.5 33.5t32.5 9.5h111q27 0 27 -20q0 -7 -11 -23l-173 -203l179 -258q8 -11 8 -21q0 -22 -29 -22h-117q-20 0 -33 10t-28 33l-121 176h-39v-176q0 -43 -43 -43h-86q-43 0 -43 43v664q0 43 43 43h86q43 0 43 -43v-348h39zM233 -152l19 70
q13 43 51 43h39q43 0 43 -43q0 -14 -8 -22l-35 -48q-29 -43 -62 -43h-12q-37 0 -37 29q0 4 2 14z" />
    <glyph glyph-name="Lacute" unicode="&#x139;" horiz-adv-x="563" 
d="M488 0h-222q-92 0 -140 53.5t-48 149.5v504q0 43 43 43h86q43 0 43 -43v-473q0 -48 16.5 -67t61.5 -19h160q43 0 43 -43v-62q0 -43 -43 -43zM354 941l-86 -70q-4 -3 -16.5 -13.5t-16 -13t-12.5 -8t-15.5 -7t-14.5 -1.5h-42q-33 0 -33 21q0 10 9 22l50 70q28 43 61 43h107
q29 0 29 -15q0 -11 -20 -28z" />
    <glyph glyph-name="lacute" unicode="&#x13a;" horiz-adv-x="344" 
d="M94 609h-35q-43 0 -43 43v55q0 43 43 43h164q43 0 43 -43v-664q0 -43 -43 -43h-86q-43 0 -43 43v566zM350 965l-86 -70q-4 -3 -16.5 -13.5t-16 -13t-12.5 -8t-15.5 -7t-14.5 -1.5h-42q-33 0 -33 21q0 10 9 22l50 70q28 43 61 43h107q29 0 29 -15q0 -11 -20 -28z" />
    <glyph glyph-name="Lcommaaccent" unicode="&#x13b;" horiz-adv-x="563" 
d="M488 0h-222q-92 0 -140 53.5t-48 149.5v504q0 43 43 43h86q43 0 43 -43v-473q0 -48 16.5 -67t61.5 -19h160q43 0 43 -43v-62q0 -43 -43 -43zM218 -152l19 70q13 43 51 43h39q43 0 43 -43q0 -14 -8 -22l-35 -48q-29 -43 -62 -43h-12q-37 0 -37 29q0 4 2 14z" />
    <glyph glyph-name="lcommaaccent" unicode="&#x13c;" horiz-adv-x="344" 
d="M94 609h-35q-43 0 -43 43v55q0 43 43 43h164q43 0 43 -43v-664q0 -43 -43 -43h-86q-43 0 -43 43v566zM81 -152l19 70q13 43 51 43h39q43 0 43 -43q0 -14 -8 -22l-35 -48q-29 -43 -62 -43h-12q-37 0 -37 29q0 4 2 14z" />
    <glyph glyph-name="Lcaron" unicode="&#x13d;" horiz-adv-x="562" 
d="M488 0h-222q-92 0 -140 53.5t-48 149.5v504q0 43 43 43h86q43 0 43 -43v-473q0 -48 16.5 -67t61.5 -19h160q43 0 43 -43v-62q0 -43 -43 -43zM328 637l20 70q11 43 50 43h39q43 0 43 -43q0 -15 -7 -22l-36 -48q-29 -43 -62 -43h-12q-37 0 -37 29q0 4 2 14z" />
    <glyph glyph-name="lcaron" unicode="&#x13e;" horiz-adv-x="344" 
d="M94 609h-35q-43 0 -43 43v55q0 43 43 43h164q43 0 43 -43v-664q0 -43 -43 -43h-86q-43 0 -43 43v566zM312 637l20 70q13 43 51 43h39q43 0 43 -43q0 -14 -8 -22l-35 -48q-16 -23 -29.5 -33t-33.5 -10h-11q-37 0 -37 29q0 2 0.5 6.5t0.5 7.5z" />
    <glyph glyph-name="Ldot" unicode="&#x13f;" horiz-adv-x="562" 
d="M488 0h-222q-92 0 -140 53.5t-48 149.5v504q0 43 43 43h86q43 0 43 -43v-473q0 -48 16.5 -67t61.5 -19h160q43 0 43 -43v-62q0 -43 -43 -43zM418 373h-51q-43 0 -43 43v39q0 43 43 43h51q43 0 43 -43v-39q0 -43 -43 -43z" />
    <glyph glyph-name="ldot" unicode="&#x140;" horiz-adv-x="441" 
d="M94 609h-35q-43 0 -43 43v55q0 43 43 43h164q43 0 43 -43v-664q0 -43 -43 -43h-86q-43 0 -43 43v566zM414 373h-51q-43 0 -43 43v39q0 43 43 43h51q43 0 43 -43v-39q0 -43 -43 -43z" />
    <glyph glyph-name="Lslash" unicode="&#x141;" horiz-adv-x="562" 
d="M359 425l-109 -60v-131q0 -48 16.5 -67t61.5 -19h160q43 0 43 -43v-62q0 -43 -43 -43h-222q-92 0 -140 53.5t-48 149.5v67l-16 -9q-9 -6 -19 -6q-23 0 -23 33v36q0 35 42 58l16 9v316q0 43 43 43h86q43 0 43 -43v-221l109 60q11 6 20 6q23 0 23 -33v-37q0 -36 -43 -57z
" />
    <glyph glyph-name="lslash" unicode="&#x142;" horiz-adv-x="344" 
d="M94 283l-35 -25q-13 -9 -22 -9q-21 0 -21 32v22q0 33 43 62l35 25v219h-35q-43 0 -43 43v55q0 43 43 43h164q43 0 43 -43v-193l35 25q14 9 21 9q22 0 22 -32v-22q0 -32 -43 -62l-35 -25v-364q0 -43 -43 -43h-86q-43 0 -43 43v240z" />
    <glyph glyph-name="Nacute" unicode="&#x143;" horiz-adv-x="766" 
d="M517 23l-267 422v-402q0 -43 -43 -43h-86q-43 0 -43 43v664q0 43 43 43h82q32 0 47 -23l266 -422v402q0 43 43 43h86q42 0 42 -43v-664q0 -43 -42 -43h-82q-32 0 -46 23zM514 941l-86 -70q-4 -3 -16.5 -13.5t-16 -13t-12.5 -8t-15.5 -7t-14.5 -1.5h-42q-33 0 -33 21
q0 10 9 22l50 70q28 43 61 43h107q29 0 29 -15q0 -11 -20 -28z" />
    <glyph glyph-name="nacute" unicode="&#x144;" horiz-adv-x="688" 
d="M250 504v-40l23 16q55 40 93.5 57.5t86.5 17.5q78 0 117 -45.5t39 -126.5v-340q0 -43 -43 -43h-86q-43 0 -43 43v293q0 36 -10 53t-40 17q-34 0 -106 -47l-31 -19v-297q0 -43 -43 -43h-86q-43 0 -43 43v461q0 43 43 43h86q43 0 43 -43zM475 738l-86 -70
q-4 -3 -16.5 -13.5t-16 -13t-12.5 -8t-15.5 -7t-14.5 -1.5h-42q-33 0 -33 21q0 10 9 22l50 70q28 43 61 43h107q29 0 29 -15q0 -11 -20 -28z" />
    <glyph glyph-name="Ncommaaccent" unicode="&#x145;" horiz-adv-x="766" 
d="M517 23l-267 422v-402q0 -43 -43 -43h-86q-43 0 -43 43v664q0 43 43 43h82q32 0 47 -23l266 -422v402q0 43 43 43h86q42 0 42 -43v-664q0 -43 -42 -43h-82q-32 0 -46 23zM276 -152l19 70q13 43 51 43h39q43 0 43 -43q0 -14 -8 -22l-35 -48q-29 -43 -62 -43h-12
q-37 0 -37 29q0 4 2 14z" />
    <glyph glyph-name="ncommaaccent" unicode="&#x146;" horiz-adv-x="688" 
d="M250 504v-40l23 16q55 40 93.5 57.5t86.5 17.5q78 0 117 -45.5t39 -126.5v-340q0 -43 -43 -43h-86q-43 0 -43 43v293q0 36 -10 53t-40 17q-34 0 -106 -47l-31 -19v-297q0 -43 -43 -43h-86q-43 0 -43 43v461q0 43 43 43h86q43 0 43 -43zM249 -152l19 70q13 43 51 43h39
q43 0 43 -43q0 -14 -8 -22l-35 -48q-29 -43 -62 -43h-12q-37 0 -37 29q0 4 2 14z" />
    <glyph glyph-name="Ncaron" unicode="&#x147;" horiz-adv-x="766" 
d="M517 23l-267 422v-402q0 -43 -43 -43h-86q-43 0 -43 43v664q0 43 43 43h82q32 0 47 -23l266 -422v402q0 43 43 43h86q42 0 42 -43v-664q0 -43 -42 -43h-82q-32 0 -46 23zM578 965l-80 -94q-20 -23 -33.5 -33t-32.5 -10h-98q-19 0 -32.5 10t-33.5 33l-80 94q-12 13 -12 24
q0 19 31 19h41q5 0 10 -1t8.5 -2t9 -4t8 -4.5t9 -6.5t8.5 -7t10 -9t11 -9l57 -51h8l58 51q38 34 52 39q10 4 21 4h41q31 0 31 -19q0 -11 -12 -24z" />
    <glyph glyph-name="ncaron" unicode="&#x148;" horiz-adv-x="688" 
d="M250 504v-40l23 16q55 40 93.5 57.5t86.5 17.5q78 0 117 -45.5t39 -126.5v-340q0 -43 -43 -43h-86q-43 0 -43 43v293q0 36 -10 53t-40 17q-34 0 -106 -47l-31 -19v-297q0 -43 -43 -43h-86q-43 0 -43 43v461q0 43 43 43h86q43 0 43 -43zM539 762l-80 -94
q-20 -23 -33.5 -33t-32.5 -10h-98q-19 0 -32.5 10t-33.5 33l-80 94q-12 14 -12 24q0 19 31 19h41q5 0 10 -1t8.5 -2t9 -4t8 -4.5t9 -6.5t8.5 -7t10 -9t11 -9l57 -51h8l58 51q38 34 52 39q10 4 21 4h41q31 0 31 -19q0 -10 -12 -24z" />
    <glyph glyph-name="napostrophe" unicode="&#x149;" horiz-adv-x="688" 
d="M250 504v-40l23 16q55 40 93.5 57.5t86.5 17.5q78 0 117 -45.5t39 -126.5v-340q0 -43 -43 -43h-86q-43 0 -43 43v293q0 36 -10 53t-40 17q-34 0 -106 -47l-31 -19v-297q0 -43 -43 -43h-86q-43 0 -43 43v461q0 43 43 43h86q43 0 43 -43zM34 637l19 70q13 43 51 43h39
q43 0 43 -43q0 -14 -8 -22l-35 -48q-29 -43 -62 -43h-12q-37 0 -37 29q0 4 2 14z" />
    <glyph glyph-name="Eng" unicode="&#x14a;" horiz-adv-x="767" 
d="M687 707v-676q0 -123 -63 -186.5t-187 -63.5h-82q-43 0 -43 43v63q0 43 43 43h67q50 0 71 22t23 72l-266 421v-402q0 -43 -43 -43h-86q-43 0 -43 43v664q0 43 43 43h82q32 0 47 -23l266 -422v402q0 43 43 43h86q42 0 42 -43z" />
    <glyph glyph-name="eng" unicode="&#x14b;" horiz-adv-x="687" 
d="M609 383v-352q0 -105 -61.5 -162t-156.5 -57h-47q-43 0 -43 43v55q0 43 43 43q52 0 72.5 20.5t20.5 73.5v289q0 36 -10 53t-40 17q-34 0 -106 -47l-31 -19v-297q0 -43 -43 -43h-86q-43 0 -43 43v461q0 43 43 43h86q43 0 43 -43v-40l23 16q55 40 93.5 57.5t86.5 17.5
q78 0 117 -45.5t39 -126.5z" />
    <glyph glyph-name="Omacron" unicode="&#x14c;" horiz-adv-x="766" 
d="M383 -8q-170 0 -257 97.5t-87 273.5v32q0 175 86.5 269t257.5 94q170 0 257 -94t87 -269v-32q0 -176 -87.5 -273.5t-256.5 -97.5zM383 141q91 0 127.5 58t36.5 164v32q0 104 -36.5 159t-127.5 55t-127.5 -55t-36.5 -159v-32q0 -106 36.5 -164t127.5 -58zM502 828h-238
q-43 0 -43 43v19q0 43 43 43h238q43 0 43 -43v-19q0 -43 -43 -43z" />
    <glyph glyph-name="omacron" unicode="&#x14d;" horiz-adv-x="641" 
d="M320 -8q-140 0 -210.5 64.5t-70.5 216.5q0 282 281 282q143 0 212.5 -68.5t69.5 -213.5q0 -153 -68 -217t-214 -64zM320 141q59 0 84.5 30t25.5 102q0 73 -25.5 103t-84.5 30t-84 -30t-25 -103q0 -72 25 -102t84 -30zM439 625h-238q-43 0 -43 43v19q0 43 43 43h238
q43 0 43 -43v-19q0 -43 -43 -43z" />
    <glyph glyph-name="Obreve" unicode="&#x14e;" horiz-adv-x="766" 
d="M383 -8q-170 0 -257 97.5t-87 273.5v32q0 175 86.5 269t257.5 94q170 0 257 -94t87 -269v-32q0 -176 -87.5 -273.5t-256.5 -97.5zM383 141q91 0 127.5 58t36.5 164v32q0 104 -36.5 159t-127.5 55t-127.5 -55t-36.5 -159v-32q0 -106 36.5 -164t127.5 -58zM486 976
q15 32 36 32h14q27 0 27 -26q0 -58 -53 -106t-127 -48t-128 47.5t-54 106.5q0 26 28 26h16q22 0 35 -32q11 -24 39 -39t64 -15q78 0 103 54z" />
    <glyph glyph-name="obreve" unicode="&#x14f;" horiz-adv-x="641" 
d="M320 -8q-140 0 -210.5 64.5t-70.5 216.5q0 282 281 282q143 0 212.5 -68.5t69.5 -213.5q0 -153 -68 -217t-214 -64zM320 141q59 0 84.5 30t25.5 102q0 73 -25.5 103t-84.5 30t-84 -30t-25 -103q0 -72 25 -102t84 -30zM424 773q15 32 36 32h14q27 0 27 -26q0 -58 -53 -106
t-127 -48t-128 47.5t-54 106.5q0 26 28 26h16q22 0 35 -32q11 -24 39 -39t64 -15q78 0 103 54z" />
    <glyph glyph-name="Ohungarumlaut" unicode="&#x150;" horiz-adv-x="766" 
d="M383 -8q-170 0 -257 97.5t-87 273.5v32q0 175 86.5 269t257.5 94q170 0 257 -94t87 -269v-32q0 -176 -87.5 -273.5t-256.5 -97.5zM383 141q91 0 127.5 58t36.5 164v32q0 104 -36.5 159t-127.5 55t-127.5 -55t-36.5 -159v-32q0 -106 36.5 -164t127.5 -58zM390 941l-91 -70
q-2 -2 -9.5 -7.5t-9.5 -7t-8.5 -6t-9 -5.5t-7.5 -4.5t-8 -4.5t-7.5 -3t-7.5 -3t-7 -1.5t-8 -0.5h-26q-31 0 -31 19q-1 8 12 24l62 70q22 24 35.5 33.5t33.5 9.5h78q29 0 29 -15q0 -11 -20 -28zM630 941l-92 -70q-23 -18 -31.5 -23.5t-23 -12.5t-27.5 -7h-26q-31 0 -31 19
q0 11 12 24l62 70q22 24 35.5 33.5t33.5 9.5h78q29 0 29 -16q-2 -14 -19 -27z" />
    <glyph glyph-name="ohungarumlaut" unicode="&#x151;" horiz-adv-x="641" 
d="M320 -8q-140 0 -210.5 64.5t-70.5 216.5q0 282 281 282q143 0 212.5 -68.5t69.5 -213.5q0 -153 -68 -217t-214 -64zM320 141q59 0 84.5 30t25.5 102q0 73 -25.5 103t-84.5 30t-84 -30t-25 -103q0 -72 25 -102t84 -30zM328 738l-91 -70q-2 -2 -9.5 -7.5t-9.5 -7t-8.5 -6
t-9 -6l-7.5 -4.5t-8 -4t-7.5 -3t-7.5 -3t-7 -1.5t-8 -0.5h-26q-31 0 -31 19q-1 8 12 24l62 70q22 24 35.5 33.5t33.5 9.5h78q29 0 29 -15q0 -11 -20 -28zM568 738l-92 -70q-23 -18 -31.5 -23.5t-23 -12.5t-27.5 -7h-26q-31 0 -31 19q0 10 12 24l62 70q22 24 35.5 33.5
t33.5 9.5h78q29 0 29 -16q-2 -14 -19 -27z" />
    <glyph glyph-name="OE" unicode="&#x152;" horiz-adv-x="1023" 
d="M918 0h-535q-170 0 -257 97.5t-87 273.5v16q0 175 86.5 269t257.5 94h519q43 0 43 -43v-62q0 -43 -43 -43h-269v-149h238q43 0 43 -43v-62q0 -43 -43 -43h-238v-157h285q43 0 43 -43v-62q0 -43 -43 -43zM219 387v-16q0 -106 36.5 -164.5t127.5 -58.5h78v454h-78
q-91 0 -127.5 -55t-36.5 -160z" />
    <glyph glyph-name="oe" unicode="&#x153;" horiz-adv-x="1008" 
d="M863 11q-75 -19 -159 -19q-123 0 -191 47q-66 -47 -193 -47q-140 0 -210.5 64.5t-70.5 216.5q0 282 281 282q126 0 196 -54q74 54 191 54q247 0 247 -180q0 -83 -55 -121.5t-149 -38.5h-148v-4q0 -70 117 -70q78 0 144 14q4 1 12 1q31 0 31 -36v-59q0 -39 -43 -50z
M320 141q59 0 84.5 30t25.5 102v14q-2 65 -28 92t-82 27q-59 0 -84 -30t-25 -103q0 -72 25 -102t84 -30zM602 324v-8h136q59 0 59 47q0 32 -23 41.5t-67 9.5q-52 0 -78.5 -21t-26.5 -69z" />
    <glyph glyph-name="Racute" unicode="&#x154;" horiz-adv-x="688" 
d="M477 43q-23 54 -56 107t-66 73h-105v-180q0 -43 -43 -43h-86q-43 0 -43 43v664q0 43 43 43h231q138 0 209.5 -55.5t71.5 -194.5q0 -143 -121 -219q44 -35 90 -108t67 -130q3 -9 3 -16q0 -27 -36 -27h-106q-37 0 -53 43zM320 602h-70v-235h70q72 0 102.5 28t30.5 97
q0 67 -29 88.5t-104 21.5zM464 941l-86 -70q-4 -3 -16.5 -13.5t-16 -13t-12.5 -8t-15.5 -7t-14.5 -1.5h-42q-33 0 -33 21q0 10 9 22l50 70q28 43 61 43h107q29 0 29 -15q0 -11 -20 -28z" />
    <glyph glyph-name="racute" unicode="&#x155;" horiz-adv-x="438" 
d="M395 555q42 0 42 -43v-63q0 -43 -42 -43h-16q-82 0 -129 -54v-309q0 -43 -43 -43h-86q-43 0 -43 43v461q0 43 43 43h86q43 0 43 -43v-24q23 35 63 55t82 20zM354 738l-86 -70q-4 -3 -16.5 -13.5t-16 -13t-12.5 -8t-15.5 -7t-14.5 -1.5h-42q-33 0 -33 21q0 10 9 22l50 70
q28 43 61 43h107q29 0 29 -15q0 -11 -20 -28z" />
    <glyph glyph-name="Rcommaaccent" unicode="&#x156;" horiz-adv-x="688" 
d="M477 43q-23 54 -56 107t-66 73h-105v-180q0 -43 -43 -43h-86q-43 0 -43 43v664q0 43 43 43h231q138 0 209.5 -55.5t71.5 -194.5q0 -143 -121 -219q44 -35 90 -108t67 -130q3 -9 3 -16q0 -27 -36 -27h-106q-37 0 -53 43zM320 602h-70v-235h70q72 0 102.5 28t30.5 97
q0 67 -29 88.5t-104 21.5zM257 -152l19 70q13 43 51 43h39q43 0 43 -43q0 -14 -8 -22l-35 -48q-29 -43 -62 -43h-12q-37 0 -37 29q0 4 2 14z" />
    <glyph glyph-name="rcommaaccent" unicode="&#x157;" horiz-adv-x="438" 
d="M395 555q42 0 42 -43v-63q0 -43 -42 -43h-16q-82 0 -129 -54v-309q0 -43 -43 -43h-86q-43 0 -43 43v461q0 43 43 43h86q43 0 43 -43v-24q23 35 63 55t82 20zM69 -152l19 70q13 43 51 43h39q43 0 43 -43q0 -14 -8 -22l-35 -48q-29 -43 -62 -43h-12q-37 0 -37 29q0 4 2 14z
" />
    <glyph glyph-name="Rcaron" unicode="&#x158;" horiz-adv-x="688" 
d="M477 43q-23 54 -56 107t-66 73h-105v-180q0 -43 -43 -43h-86q-43 0 -43 43v664q0 43 43 43h231q138 0 209.5 -55.5t71.5 -194.5q0 -143 -121 -219q44 -35 90 -108t67 -130q3 -9 3 -16q0 -27 -36 -27h-106q-37 0 -53 43zM320 602h-70v-235h70q72 0 102.5 28t30.5 97
q0 67 -29 88.5t-104 21.5zM531 965l-80 -94q-20 -23 -33.5 -33t-32.5 -10h-98q-19 0 -32.5 10t-33.5 33l-80 94q-12 13 -12 24q0 19 31 19h41q5 0 10 -1t8.5 -2t9 -4t8 -4.5t9 -6.5t8.5 -7t10 -9t11 -9l57 -51h8l58 51q38 34 52 39q10 4 21 4h41q31 0 31 -19q0 -11 -12 -24z
" />
    <glyph glyph-name="rcaron" unicode="&#x159;" horiz-adv-x="438" 
d="M395 555q42 0 42 -43v-63q0 -43 -42 -43h-16q-82 0 -129 -54v-309q0 -43 -43 -43h-86q-43 0 -43 43v461q0 43 43 43h86q43 0 43 -43v-24q23 35 63 55t82 20zM445 762l-80 -94q-20 -23 -33.5 -33t-32.5 -10h-98q-19 0 -32.5 10t-33.5 33l-80 94q-12 14 -12 24q0 19 31 19
h41q5 0 10 -1t8.5 -2t9 -4t8 -4.5t9 -6.5t8.5 -7t10 -9t11 -9l57 -51h8l58 51q38 34 52 39q10 4 21 4h41q31 0 31 -19q0 -10 -12 -24z" />
    <glyph glyph-name="Sacute" unicode="&#x15a;" horiz-adv-x="641" 
d="M98 15q-43 9 -43 50v62q0 38 31 38q4 0 12 -2q96 -22 168 -22h39q109 0 109 82q0 55 -86 78l-117 31q-156 40 -156 211q0 108 77.5 161.5t199.5 53.5h39q59 0 141 -16q43 -8 43 -50v-61q0 -38 -34 -38q-5 0 -9 1q-84 15 -141 15h-35q-102 0 -102 -66q0 -52 71 -70
l117 -32q86 -23 129 -76t43 -142q0 -120 -77.5 -175.5t-211.5 -55.5h-39q-81 0 -168 23zM467 941l-86 -70q-4 -3 -16.5 -13.5t-16 -13t-12.5 -8t-15.5 -7t-14.5 -1.5h-42q-33 0 -33 21q0 10 9 22l50 70q28 43 61 43h107q29 0 29 -15q0 -11 -20 -28z" />
    <glyph glyph-name="sacute" unicode="&#x15b;" horiz-adv-x="539" 
d="M426 400q-62 10 -117 10q-90 0 -90 -27q0 -11 9.5 -18.5t17.5 -10t27 -6.5l75 -16q152 -32 152 -160q0 -180 -277 -180q-67 0 -141 12q-43 8 -43 48v59q0 39 33 39l10 -1q79 -12 141 -12q97 0 97 31q0 16 -10 23t-33 12l-86 20q-152 34 -152 156q0 89 75.5 132.5
t198.5 43.5q62 0 113 -9q43 -8 43 -48v-60q0 -39 -34 -39zM421 738l-86 -70q-4 -3 -16.5 -13.5t-16 -13t-12.5 -8t-15.5 -7t-14.5 -1.5h-42q-33 0 -33 21q0 10 9 22l50 70q28 43 61 43h107q29 0 29 -15q0 -11 -20 -28z" />
    <glyph glyph-name="Scircumflex" unicode="&#x15c;" horiz-adv-x="641" 
d="M98 15q-43 9 -43 50v62q0 38 31 38q4 0 12 -2q96 -22 168 -22h39q109 0 109 82q0 55 -86 78l-117 31q-156 40 -156 211q0 108 77.5 161.5t199.5 53.5h39q59 0 141 -16q43 -8 43 -50v-61q0 -38 -34 -38q-5 0 -9 1q-84 15 -141 15h-35q-102 0 -102 -66q0 -52 71 -70
l117 -32q86 -23 129 -76t43 -142q0 -120 -77.5 -175.5t-211.5 -55.5h-39q-81 0 -168 23zM439 965l80 -94q12 -15 12 -23q0 -20 -31 -20h-41q-32 0 -73 43l-58 51h-8l-57 -51q-43 -43 -74 -43h-41q-31 0 -31 20q0 8 12 23l80 94q20 23 33.5 33t32.5 10h98q19 0 32.5 -10
t33.5 -33z" />
    <glyph glyph-name="scircumflex" unicode="&#x15d;" horiz-adv-x="539" 
d="M426 400q-62 10 -117 10q-90 0 -90 -27q0 -11 9.5 -18.5t17.5 -10t27 -6.5l75 -16q152 -32 152 -160q0 -180 -277 -180q-67 0 -141 12q-43 8 -43 48v59q0 39 33 39l10 -1q79 -12 141 -12q97 0 97 31q0 16 -10 23t-33 12l-86 20q-152 34 -152 156q0 89 75.5 132.5
t198.5 43.5q62 0 113 -9q43 -8 43 -48v-60q0 -39 -34 -39zM388 762l80 -94q12 -15 12 -23q0 -20 -31 -20h-41q-32 0 -73 43l-58 51h-8l-57 -51q-43 -43 -74 -43h-41q-31 0 -31 20q0 8 12 23l80 94q20 23 33.5 33t32.5 10h98q19 0 32.5 -10t33.5 -33z" />
    <glyph glyph-name="Scedilla" unicode="&#x15e;" horiz-adv-x="641" 
d="M98 15q-43 9 -43 50v62q0 38 31 38q4 0 12 -2q96 -22 168 -22h39q109 0 109 82q0 55 -86 78l-117 31q-156 40 -156 211q0 108 77.5 161.5t199.5 53.5h39q59 0 141 -16q43 -8 43 -50v-61q0 -38 -34 -38q-5 0 -9 1q-84 15 -141 15h-35q-102 0 -102 -66q0 -52 71 -70
l117 -32q86 -23 129 -76t43 -142q0 -120 -77.5 -175.5t-211.5 -55.5h-39q-81 0 -168 23zM162 -164v22q0 25 23 25h71q54 0 54 31q0 17 -12.5 28t-32.5 21q-3 1 -5 2v12h78q26 -12 44 -35.5t18 -46.5q0 -42 -31 -62.5t-78 -20.5h-106q-23 0 -23 24z" />
    <glyph glyph-name="Scedilla" unicode="&#xf6c1;" horiz-adv-x="641" 
d="M98 15q-43 9 -43 50v62q0 38 31 38q4 0 12 -2q96 -22 168 -22h39q109 0 109 82q0 55 -86 78l-117 31q-156 40 -156 211q0 108 77.5 161.5t199.5 53.5h39q59 0 141 -16q43 -8 43 -50v-61q0 -38 -34 -38q-5 0 -9 1q-84 15 -141 15h-35q-102 0 -102 -66q0 -52 71 -70
l117 -32q86 -23 129 -76t43 -142q0 -120 -77.5 -175.5t-211.5 -55.5h-39q-81 0 -168 23zM162 -164v22q0 25 23 25h71q54 0 54 31q0 17 -12.5 28t-32.5 21q-3 1 -5 2v12h78q26 -12 44 -35.5t18 -46.5q0 -42 -31 -62.5t-78 -20.5h-106q-23 0 -23 24z" />
    <glyph glyph-name="scedilla" unicode="&#x15f;" horiz-adv-x="539" 
d="M426 400q-62 10 -117 10q-90 0 -90 -27q0 -11 9.5 -18.5t17.5 -10t27 -6.5l75 -16q152 -32 152 -160q0 -180 -277 -180q-67 0 -141 12q-43 8 -43 48v59q0 39 33 39l10 -1q79 -12 141 -12q97 0 97 31q0 16 -10 23t-33 12l-86 20q-152 34 -152 156q0 89 75.5 132.5
t198.5 43.5q62 0 113 -9q43 -8 43 -48v-60q0 -39 -34 -39zM100 -164v22q0 25 23 25h71q54 0 54 31q0 17 -12.5 28t-32.5 21q-3 1 -5 2v12h78q26 -12 44 -35.5t18 -46.5q0 -42 -31 -62.5t-78 -20.5h-106q-23 0 -23 24z" />
    <glyph glyph-name="scedilla" unicode="&#xf6c2;" horiz-adv-x="539" 
d="M426 400q-62 10 -117 10q-90 0 -90 -27q0 -11 9.5 -18.5t17.5 -10t27 -6.5l75 -16q152 -32 152 -160q0 -180 -277 -180q-67 0 -141 12q-43 8 -43 48v59q0 39 33 39l10 -1q79 -12 141 -12q97 0 97 31q0 16 -10 23t-33 12l-86 20q-152 34 -152 156q0 89 75.5 132.5
t198.5 43.5q62 0 113 -9q43 -8 43 -48v-60q0 -39 -34 -39zM100 -164v22q0 25 23 25h71q54 0 54 31q0 17 -12.5 28t-32.5 21q-3 1 -5 2v12h78q26 -12 44 -35.5t18 -46.5q0 -42 -31 -62.5t-78 -20.5h-106q-23 0 -23 24z" />
    <glyph glyph-name="Scaron" unicode="&#x160;" horiz-adv-x="641" 
d="M98 15q-43 9 -43 50v62q0 38 31 38q4 0 12 -2q96 -22 168 -22h39q109 0 109 82q0 55 -86 78l-117 31q-156 40 -156 211q0 108 77.5 161.5t199.5 53.5h39q59 0 141 -16q43 -8 43 -50v-61q0 -38 -34 -38q-5 0 -9 1q-84 15 -141 15h-35q-102 0 -102 -66q0 -52 71 -70
l117 -32q86 -23 129 -76t43 -142q0 -120 -77.5 -175.5t-211.5 -55.5h-39q-81 0 -168 23zM519 965l-80 -94q-20 -23 -33.5 -33t-32.5 -10h-98q-19 0 -32.5 10t-33.5 33l-80 94q-12 13 -12 24q0 19 31 19h41q5 0 10 -1t8.5 -2t9 -4t8 -4.5t9 -6.5t8.5 -7t10 -9t11 -9l57 -51h8
l58 51q38 34 52 39q10 4 21 4h41q31 0 31 -19q0 -11 -12 -24z" />
    <glyph glyph-name="scaron" unicode="&#x161;" horiz-adv-x="539" 
d="M426 400q-62 10 -117 10q-90 0 -90 -27q0 -11 9.5 -18.5t17.5 -10t27 -6.5l75 -16q152 -32 152 -160q0 -180 -277 -180q-67 0 -141 12q-43 8 -43 48v59q0 39 33 39l10 -1q79 -12 141 -12q97 0 97 31q0 16 -10 23t-33 12l-86 20q-152 34 -152 156q0 89 75.5 132.5
t198.5 43.5q62 0 113 -9q43 -8 43 -48v-60q0 -39 -34 -39zM468 762l-80 -94q-20 -23 -33.5 -33t-32.5 -10h-98q-19 0 -32.5 10t-33.5 33l-80 94q-12 14 -12 24q0 19 31 19h41q5 0 10 -1t8.5 -2t9 -4t8 -4.5t9 -6.5t8.5 -7t10 -9t11 -9l57 -51h8l58 51q38 34 52 39q10 4 21 4
h41q31 0 31 -19q0 -10 -12 -24z" />
    <glyph glyph-name="Tcommaaccent" unicode="&#x162;" horiz-adv-x="609" 
d="M551 602h-160v-559q0 -43 -43 -43h-86q-43 0 -43 43v559h-160q-43 0 -43 43v62q0 43 43 43h492q43 0 43 -43v-62q0 -43 -43 -43zM174 -164v22q0 25 23 25h71q54 0 54 31q0 17 -12.5 28t-32.5 21q-3 1 -5 2v12h78q26 -12 44 -35.5t18 -46.5q0 -42 -31 -62.5t-78 -20.5
h-106q-23 0 -23 24z" />
    <glyph glyph-name="tcommaaccent" unicode="&#x163;" horiz-adv-x="422" 
d="M367 141h12q43 0 43 -43v-55q0 -43 -43 -43h-59q-107 0 -166.5 53.5t-59.5 157.5v195h-43q-43 0 -43 43v55q0 43 43 43h43v98q0 42 43 42h86q43 0 43 -42v-98h97q43 0 43 -43v-55q0 -43 -43 -43h-97v-156q0 -60 22 -84.5t79 -24.5zM178 -164v22q0 25 23 25h71q54 0 54 31
q0 17 -12.5 28t-32.5 21q-3 1 -5 2v12h78q26 -12 44 -35.5t18 -46.5q0 -42 -31 -62.5t-78 -20.5h-106q-23 0 -23 24z" />
    <glyph glyph-name="Tcaron" unicode="&#x164;" horiz-adv-x="609" 
d="M551 602h-160v-559q0 -43 -43 -43h-86q-43 0 -43 43v559h-160q-43 0 -43 43v62q0 43 43 43h492q43 0 43 -43v-62q0 -43 -43 -43zM500 965l-80 -94q-20 -23 -33.5 -33t-32.5 -10h-98q-19 0 -32.5 10t-33.5 33l-80 94q-12 13 -12 24q0 19 31 19h41q5 0 10 -1t8.5 -2t9 -4
t8 -4.5t9 -6.5t8.5 -7t10 -9t11 -9l57 -51h8l58 51q38 34 52 39q10 4 21 4h41q31 0 31 -19q0 -11 -12 -24z" />
    <glyph glyph-name="tcaron" unicode="&#x165;" horiz-adv-x="422" 
d="M379 141q43 0 43 -43v-55q0 -43 -43 -43h-59q-107 0 -166.5 53.5t-59.5 157.5v195h-43q-43 0 -43 43v55q0 43 43 43h43v98q0 42 43 42h86q43 0 43 -42v-98h97q43 0 43 -43v-55q0 -43 -43 -43h-97v-156q0 -60 22 -84.5t79 -24.5h12zM316 637l20 70q13 43 51 43h39
q43 0 43 -43q0 -14 -8 -22l-35 -48q-16 -23 -29.5 -33t-33.5 -10h-11q-38 0 -38 29q0 4 2 14z" />
    <glyph glyph-name="Tbar" unicode="&#x166;" horiz-adv-x="609" 
d="M492 305h-101v-262q0 -43 -43 -43h-86q-43 0 -43 43v262h-102q-43 0 -43 43v62q0 43 43 43h102v149h-160q-43 0 -43 43v62q0 43 43 43h492q43 0 43 -43v-62q0 -43 -43 -43h-160v-149h101q43 0 43 -43v-62q0 -43 -43 -43z" />
    <glyph glyph-name="tbar" unicode="&#x167;" horiz-adv-x="422" 
d="M367 141h12q43 0 43 -43v-55q0 -43 -43 -43h-59q-107 0 -166.5 53.5t-59.5 157.5v19h-43q-43 0 -43 43v36q0 43 43 43h43v54h-43q-43 0 -43 43v55q0 43 43 43h43v98q0 42 43 42h86q43 0 43 -42v-98h97q43 0 43 -43v-55q0 -43 -43 -43h-97v-54h97q43 0 43 -43v-36
q0 -43 -43 -43h-97q3 -48 25.5 -68.5t75.5 -20.5z" />
    <glyph glyph-name="Utilde" unicode="&#x168;" horiz-adv-x="766" 
d="M516 270v437q0 43 43 43h86q42 0 42 -43v-434q0 -138 -84 -209.5t-220 -71.5q-145 0 -225 70.5t-80 209.5v435q0 43 43 43h86q43 0 43 -43v-437q0 -66 32 -97.5t101 -31.5t101 31.5t32 97.5zM253 967q27 17 56 17q28 0 75.5 -31t64.5 -31q36 0 63 24q15 14 25 14
q18 0 18 -29v-17q0 -30 -42 -63q-34 -23 -64 -23q-28 0 -75 31.5t-65 31.5q-34 0 -55 -21q-15 -15 -25 -15q-18 0 -18 31v18q0 33 42 63z" />
    <glyph glyph-name="utilde" unicode="&#x169;" horiz-adv-x="688" 
d="M437 43v40l-23 -17q-54 -39 -92.5 -56.5t-87.5 -17.5q-77 0 -116.5 45.5t-39.5 126.5v340q0 43 43 43h86q43 0 43 -43v-293q0 -36 10.5 -53t40.5 -17q32 0 105 46l31 20v297q0 43 43 43h86q43 0 43 -43v-461q0 -43 -43 -43h-86q-43 0 -43 43zM214 764q27 17 56 17
q28 0 75.5 -31t64.5 -31q36 0 63 24q15 14 25 14q18 0 18 -29v-17q0 -30 -42 -63q-34 -23 -64 -23q-28 0 -75 31.5t-65 31.5q-34 0 -55 -21q-15 -15 -25 -15q-18 0 -18 31v18q0 33 42 63z" />
    <glyph glyph-name="Umacron" unicode="&#x16a;" horiz-adv-x="766" 
d="M516 270v437q0 43 43 43h86q42 0 42 -43v-434q0 -138 -84 -209.5t-220 -71.5q-145 0 -225 70.5t-80 209.5v435q0 43 43 43h86q43 0 43 -43v-437q0 -66 32 -97.5t101 -31.5t101 31.5t32 97.5zM502 828h-238q-43 0 -43 43v19q0 43 43 43h238q43 0 43 -43v-19q0 -43 -43 -43
z" />
    <glyph glyph-name="umacron" unicode="&#x16b;" horiz-adv-x="688" 
d="M437 43v40l-23 -17q-54 -39 -92.5 -56.5t-87.5 -17.5q-77 0 -116.5 45.5t-39.5 126.5v340q0 43 43 43h86q43 0 43 -43v-293q0 -36 10.5 -53t40.5 -17q32 0 105 46l31 20v297q0 43 43 43h86q43 0 43 -43v-461q0 -43 -43 -43h-86q-43 0 -43 43zM463 625h-238q-43 0 -43 43
v19q0 43 43 43h238q43 0 43 -43v-19q0 -43 -43 -43z" />
    <glyph glyph-name="Ubreve" unicode="&#x16c;" horiz-adv-x="766" 
d="M516 270v437q0 43 43 43h86q42 0 42 -43v-434q0 -138 -84 -209.5t-220 -71.5q-145 0 -225 70.5t-80 209.5v435q0 43 43 43h86q43 0 43 -43v-437q0 -66 32 -97.5t101 -31.5t101 31.5t32 97.5zM486 976q15 32 36 32h14q27 0 27 -26q0 -58 -53 -106t-127 -48t-128 47.5
t-54 106.5q0 26 28 26h16q22 0 35 -32q11 -24 39 -39t64 -15q78 0 103 54z" />
    <glyph glyph-name="ubreve" unicode="&#x16d;" horiz-adv-x="688" 
d="M437 43v40l-23 -17q-54 -39 -92.5 -56.5t-87.5 -17.5q-77 0 -116.5 45.5t-39.5 126.5v340q0 43 43 43h86q43 0 43 -43v-293q0 -36 10.5 -53t40.5 -17q32 0 105 46l31 20v297q0 43 43 43h86q43 0 43 -43v-461q0 -43 -43 -43h-86q-43 0 -43 43zM447 773q15 32 36 32h14
q27 0 27 -26q0 -58 -53 -106t-127 -48t-128 47.5t-54 106.5q0 26 28 26h16q22 0 35 -32q11 -24 39 -39t64 -15q78 0 103 54z" />
    <glyph glyph-name="Uring" unicode="&#x16e;" horiz-adv-x="766" 
d="M516 270v437q0 43 43 43h86q42 0 42 -43v-434q0 -138 -84 -209.5t-220 -71.5q-145 0 -225 70.5t-80 209.5v435q0 43 43 43h86q43 0 43 -43v-437q0 -66 32 -97.5t101 -31.5t101 31.5t32 97.5zM383 828q-137 0 -137 102q0 48 38 74.5t99 26.5q62 0 99 -25.5t37 -75.5
q0 -49 -37.5 -75.5t-98.5 -26.5zM383 867q33 0 49.5 18.5t16.5 44.5t-16.5 44t-49.5 18t-50 -18t-17 -44t17 -44.5t50 -18.5z" />
    <glyph glyph-name="uring" unicode="&#x16f;" horiz-adv-x="688" 
d="M437 43v40l-23 -17q-54 -39 -92.5 -56.5t-87.5 -17.5q-77 0 -116.5 45.5t-39.5 126.5v340q0 43 43 43h86q43 0 43 -43v-293q0 -36 10.5 -53t40.5 -17q32 0 105 46l31 20v297q0 43 43 43h86q43 0 43 -43v-461q0 -43 -43 -43h-86q-43 0 -43 43zM344 625q-137 0 -137 102
q0 48 38 74.5t99 26.5q62 0 99 -25.5t37 -75.5q0 -49 -37.5 -75.5t-98.5 -26.5zM344 664q33 0 49.5 18.5t16.5 44.5t-16.5 44t-49.5 18t-50 -18t-17 -44t17 -44.5t50 -18.5z" />
    <glyph glyph-name="Uhungarumlaut" unicode="&#x170;" horiz-adv-x="766" 
d="M516 270v437q0 43 43 43h86q42 0 42 -43v-434q0 -138 -84 -209.5t-220 -71.5q-145 0 -225 70.5t-80 209.5v435q0 43 43 43h86q43 0 43 -43v-437q0 -66 32 -97.5t101 -31.5t101 31.5t32 97.5zM386 941l-91 -70q-2 -2 -9.5 -7.5t-9.5 -7t-8.5 -6t-9 -5.5t-7.5 -4.5t-8 -4.5
t-7.5 -3t-7.5 -3t-7 -1.5t-8 -0.5h-26q-31 0 -31 19q-1 8 12 24l62 70q22 24 35.5 33.5t33.5 9.5h78q29 0 29 -15q0 -11 -20 -28zM626 941l-92 -70q-23 -18 -31.5 -23.5t-23 -12.5t-27.5 -7h-26q-31 0 -31 19q0 11 12 24l62 70q22 24 35.5 33.5t33.5 9.5h78q29 0 29 -16
q-2 -14 -19 -27z" />
    <glyph glyph-name="uhungarumlaut" unicode="&#x171;" horiz-adv-x="688" 
d="M437 43v40l-23 -17q-54 -39 -92.5 -56.5t-87.5 -17.5q-77 0 -116.5 45.5t-39.5 126.5v340q0 43 43 43h86q43 0 43 -43v-293q0 -36 10.5 -53t40.5 -17q32 0 105 46l31 20v297q0 43 43 43h86q43 0 43 -43v-461q0 -43 -43 -43h-86q-43 0 -43 43zM348 738l-91 -70
q-2 -2 -9.5 -7.5t-9.5 -7t-8.5 -6t-9 -6l-7.5 -4.5t-8 -4t-7.5 -3t-7.5 -3t-7 -1.5t-8 -0.5h-26q-31 0 -31 19q-1 8 12 24l62 70q22 24 35.5 33.5t33.5 9.5h78q29 0 29 -15q0 -11 -20 -28zM588 738l-92 -70q-23 -18 -31.5 -23.5t-23 -12.5t-27.5 -7h-26q-31 0 -31 19
q0 10 12 24l62 70q22 24 35.5 33.5t33.5 9.5h78q29 0 29 -16q-2 -14 -19 -27z" />
    <glyph glyph-name="Uogonek" unicode="&#x172;" horiz-adv-x="766" 
d="M516 270v437q0 43 43 43h86q42 0 42 -43v-434q0 -138 -84 -209.5t-220 -71.5q-145 0 -225 70.5t-80 209.5v435q0 43 43 43h86q43 0 43 -43v-437q0 -66 32 -97.5t101 -31.5t101 31.5t32 97.5zM515 -142v-22q0 -24 -23 -24h-106q-47 0 -78 20.5t-31 62.5q0 23 18 46.5
t44 35.5h79v-12l-19 -9.5t-15 -9.5t-13.5 -14.5t-3.5 -17.5q0 -31 55 -31h70q23 0 23 -25z" />
    <glyph glyph-name="uogonek" unicode="&#x173;" horiz-adv-x="688" 
d="M437 43v40l-23 -17q-54 -39 -92.5 -56.5t-87.5 -17.5q-77 0 -116.5 45.5t-39.5 126.5v340q0 43 43 43h86q43 0 43 -43v-293q0 -36 10.5 -53t40.5 -17q32 0 105 46l31 20v297q0 43 43 43h86q43 0 43 -43v-461q0 -43 -43 -43h-86q-43 0 -43 43zM664 -142v-22q0 -24 -23 -24
h-106q-47 0 -78 20.5t-31 62.5q0 23 18 46.5t44 35.5h79v-12l-19 -9.5t-15 -9.5t-13.5 -14.5t-3.5 -17.5q0 -31 55 -31h70q23 0 23 -25z" />
    <glyph glyph-name="Wcircumflex" unicode="&#x174;" horiz-adv-x="1133" 
d="M486 707q6 43 47 43h74q41 0 47 -43q21 -138 60 -299.5t75 -255.5q34 94 70.5 254.5t56.5 300.5q6 43 46 43h103q39 0 39 -33l-6 -45q-69 -393 -184 -672h-234q-76 182 -110 367q-31 -176 -109 -367h-234q-54 124 -104.5 311.5t-80.5 364.5q-6 39 -6 41q0 33 39 33h104
q40 0 46 -43q21 -145 57.5 -307.5t69.5 -247.5q35 86 74 249t60 306zM681 965l80 -94q12 -15 12 -23q0 -20 -31 -20h-41q-32 0 -73 43l-58 51h-8l-57 -51q-43 -43 -74 -43h-41q-31 0 -31 20q0 8 12 23l80 94q20 23 33.5 33t32.5 10h98q19 0 32.5 -10t33.5 -33z" />
    <glyph glyph-name="wcircumflex" unicode="&#x175;" horiz-adv-x="875" 
d="M844 504v-98q0 -126 -52.5 -244t-103.5 -162h-180q-14 12 -38.5 55.5t-35.5 77.5q-11 -33 -38.5 -76t-43.5 -57h-180q-48 41 -94.5 159t-46.5 247v98q0 43 43 43h86q43 0 43 -43v-98q0 -94 19.5 -171t54.5 -118q35 41 55 118t20 171v98q0 43 43 43h85q43 0 43 -43v-98
q0 -94 20 -171t55 -118q35 41 54.5 118t19.5 171v98q0 43 43 43h86q43 0 43 -43zM552 762l80 -94q12 -15 12 -23q0 -20 -31 -20h-41q-32 0 -73 43l-58 51h-8l-57 -51q-43 -43 -74 -43h-41q-31 0 -31 20q0 8 12 23l80 94q20 23 33.5 33t32.5 10h98q19 0 32.5 -10t33.5 -33z
" />
    <glyph glyph-name="Ycircumflex" unicode="&#x176;" horiz-adv-x="699" 
d="M664 707l-234 -422v-242q0 -43 -43 -43h-86q-43 0 -43 43v242l-224 422q-6 11 -6 20q0 23 34 23h98q35 0 57 -43l135 -277l142 277q22 43 57 43h85q34 0 34 -23q0 -9 -6 -20zM465 965l80 -94q12 -15 12 -23q0 -20 -31 -20h-41q-32 0 -73 43l-58 51h-8l-57 -51
q-43 -43 -74 -43h-41q-31 0 -31 20q0 8 12 23l80 94q20 23 33.5 33t32.5 10h98q19 0 32.5 -10t33.5 -33z" />
    <glyph glyph-name="ycircumflex" unicode="&#x177;" horiz-adv-x="680" 
d="M602 504v-426q0 -124 -77 -195t-205 -71h-129q-23 0 -36.5 14t-13.5 37v39q0 24 13.5 37.5t36.5 13.5h67q91 0 131 29.5t41 110.5l-35 -20q-78 -42 -141 -42q-88 0 -136 46t-48 133v294q0 43 43 43h86q43 0 43 -43v-263q0 -62 63 -62q51 0 101 27l24 12v286q0 43 43 43
h86q43 0 43 -43zM455 762l80 -94q12 -15 12 -23q0 -20 -31 -20h-41q-32 0 -73 43l-58 51h-8l-57 -51q-43 -43 -74 -43h-41q-31 0 -31 20q0 8 12 23l80 94q20 23 33.5 33t32.5 10h98q19 0 32.5 -10t33.5 -33z" />
    <glyph glyph-name="Ydieresis" unicode="&#x178;" horiz-adv-x="699" 
d="M664 707l-234 -422v-242q0 -43 -43 -43h-86q-43 0 -43 43v242l-224 422q-6 11 -6 20q0 23 34 23h98q35 0 57 -43l135 -277l142 277q22 43 57 43h85q34 0 34 -23q0 -9 -6 -20zM233 828h-47q-43 0 -43 43v39q0 43 43 43h47q43 0 43 -43v-39q0 -43 -43 -43zM513 828h-47
q-43 0 -43 43v39q0 43 43 43h47q43 0 43 -43v-39q0 -43 -43 -43z" />
    <glyph glyph-name="Zacute" unicode="&#x179;" horiz-adv-x="633" 
d="M39 43v27q0 30 19 55q82 106 181.5 253t139.5 224h-281q-43 0 -43 43v62q0 43 43 43h461q43 0 43 -43v-31q0 -26 -12 -49q-48 -89 -147.5 -239.5t-169.5 -239.5h286q43 0 43 -43v-62q0 -43 -43 -43h-477q-43 0 -43 43zM448 941l-86 -70q-4 -3 -16.5 -13.5t-16 -13
t-12.5 -8t-15.5 -7t-14.5 -1.5h-42q-33 0 -33 21q0 10 9 22l50 70q28 43 61 43h107q29 0 29 -15q0 -11 -20 -28z" />
    <glyph glyph-name="zacute" unicode="&#x17a;" horiz-adv-x="523" 
d="M31 43v16q0 42 26 69q158 164 228 278h-203q-43 0 -43 43v55q0 43 43 43h367q43 0 43 -43v-16q0 -43 -19 -78q-89 -151 -207 -269h191q43 0 43 -43v-55q0 -43 -43 -43h-383q-43 0 -43 43zM393 738l-86 -70q-4 -3 -16.5 -13.5t-16 -13t-12.5 -8t-15.5 -7t-14.5 -1.5h-42
q-33 0 -33 21q0 10 9 22l50 70q28 43 61 43h107q29 0 29 -15q0 -11 -20 -28z" />
    <glyph glyph-name="Zdotaccent" unicode="&#x17b;" horiz-adv-x="633" 
d="M39 43v27q0 30 19 55q82 106 181.5 253t139.5 224h-281q-43 0 -43 43v62q0 43 43 43h461q43 0 43 -43v-31q0 -26 -12 -49q-48 -89 -147.5 -239.5t-169.5 -239.5h286q43 0 43 -43v-62q0 -43 -43 -43h-477q-43 0 -43 43zM359 820h-86q-43 0 -43 43v39q0 43 43 43h86
q43 0 43 -43v-39q0 -43 -43 -43z" />
    <glyph glyph-name="zdotaccent" unicode="&#x17c;" horiz-adv-x="523" 
d="M31 43v16q0 42 26 69q158 164 228 278h-203q-43 0 -43 43v55q0 43 43 43h367q43 0 43 -43v-16q0 -43 -19 -78q-89 -151 -207 -269h191q43 0 43 -43v-55q0 -43 -43 -43h-383q-43 0 -43 43zM305 617h-86q-43 0 -43 43v39q0 43 43 43h86q43 0 43 -43v-39q0 -43 -43 -43z" />
    <glyph glyph-name="Zcaron" unicode="&#x17d;" horiz-adv-x="633" 
d="M39 43v27q0 30 19 55q82 106 181.5 253t139.5 224h-281q-43 0 -43 43v62q0 43 43 43h461q43 0 43 -43v-31q0 -26 -12 -49q-48 -89 -147.5 -239.5t-169.5 -239.5h286q43 0 43 -43v-62q0 -43 -43 -43h-477q-43 0 -43 43zM511 965l-80 -94q-20 -23 -33.5 -33t-32.5 -10h-98
q-19 0 -32.5 10t-33.5 33l-80 94q-12 13 -12 24q0 19 31 19h41q5 0 10 -1t8.5 -2t9 -4t8 -4.5t9 -6.5t8.5 -7t10 -9t11 -9l57 -51h8l58 51q38 34 52 39q10 4 21 4h41q31 0 31 -19q0 -11 -12 -24z" />
    <glyph glyph-name="zcaron" unicode="&#x17e;" horiz-adv-x="523" 
d="M31 43v16q0 42 26 69q158 164 228 278h-203q-43 0 -43 43v55q0 43 43 43h367q43 0 43 -43v-16q0 -43 -19 -78q-89 -151 -207 -269h191q43 0 43 -43v-55q0 -43 -43 -43h-383q-43 0 -43 43zM457 762l-80 -94q-20 -23 -33.5 -33t-32.5 -10h-98q-19 0 -32.5 10t-33.5 33
l-80 94q-12 14 -12 24q0 19 31 19h41q5 0 10 -1t8.5 -2t9 -4t8 -4.5t9 -6.5t8.5 -7t10 -9t11 -9l57 -51h8l58 51q38 34 52 39q10 4 21 4h41q31 0 31 -19q0 -10 -12 -24z" />
    <glyph glyph-name="longs" unicode="&#x17f;" horiz-adv-x="367" 
d="M94 547v15q0 91 51.5 139.5t143.5 48.5h66q43 0 43 -43v-39q0 -43 -43 -43h-11q-78 0 -78 -70v-512q0 -43 -43 -43h-86q-43 0 -43 43v363h-43q-43 0 -43 43v55q0 43 43 43h43z" />
    <glyph glyph-name="florin" unicode="&#x192;" 
d="M74 -39h31q58 0 82 26.5t24 86.5v231h-74q-43 0 -43 43v62q0 43 43 43h74v35q0 262 277 262h32q42 0 42 -43v-62q0 -43 -42 -43h-32q-57 0 -81 -27t-24 -87v-35h105q43 0 43 -43v-62q0 -43 -43 -43h-105v-231q0 -262 -278 -262h-31q-43 0 -43 43v63q0 43 43 43z" />
    <glyph glyph-name="Scommaaccent" unicode="&#x218;" horiz-adv-x="641" 
d="M98 15q-43 9 -43 50v62q0 38 31 38q4 0 12 -2q96 -22 168 -22h39q109 0 109 82q0 55 -86 78l-117 31q-156 40 -156 211q0 108 77.5 161.5t199.5 53.5h39q59 0 141 -16q43 -8 43 -50v-61q0 -38 -34 -38q-5 0 -9 1q-84 15 -141 15h-35q-102 0 -102 -66q0 -52 71 -70
l117 -32q86 -23 129 -76t43 -142q0 -120 -77.5 -175.5t-211.5 -55.5h-39q-81 0 -168 23zM194 -152l19 70q13 43 51 43h39q43 0 43 -43q0 -14 -8 -22l-35 -48q-29 -43 -62 -43h-12q-37 0 -37 29q0 4 2 14z" />
    <glyph glyph-name="scommaaccent" unicode="&#x219;" horiz-adv-x="539" 
d="M426 400q-62 10 -117 10q-90 0 -90 -27q0 -11 9.5 -18.5t17.5 -10t27 -6.5l75 -16q152 -32 152 -160q0 -180 -277 -180q-67 0 -141 12q-43 8 -43 48v59q0 39 33 39l10 -1q79 -12 141 -12q97 0 97 31q0 16 -10 23t-33 12l-86 20q-152 34 -152 156q0 89 75.5 132.5
t198.5 43.5q62 0 113 -9q43 -8 43 -48v-60q0 -39 -34 -39zM155 -152l19 70q13 43 51 43h39q43 0 43 -43q0 -14 -8 -22l-35 -48q-29 -43 -62 -43h-12q-37 0 -37 29q0 4 2 14z" />
    <glyph glyph-name="uni021A" unicode="&#x21a;" horiz-adv-x="609" 
d="M551 602h-160v-559q0 -43 -43 -43h-86q-43 0 -43 43v559h-160q-43 0 -43 43v62q0 43 43 43h492q43 0 43 -43v-62q0 -43 -43 -43zM210 -152l19 70q13 43 51 43h39q43 0 43 -43q0 -14 -8 -22l-35 -48q-29 -43 -62 -43h-12q-37 0 -37 29q0 4 2 14z" />
    <glyph glyph-name="uni021B" unicode="&#x21b;" horiz-adv-x="422" 
d="M367 141h12q43 0 43 -43v-55q0 -43 -43 -43h-59q-107 0 -166.5 53.5t-59.5 157.5v195h-43q-43 0 -43 43v55q0 43 43 43h43v98q0 42 43 42h86q43 0 43 -42v-98h97q43 0 43 -43v-55q0 -43 -43 -43h-97v-156q0 -60 22 -84.5t79 -24.5zM214 -152l19 70q13 43 51 43h39
q43 0 43 -43q0 -14 -8 -22l-35 -48q-29 -43 -62 -43h-12q-37 0 -37 29q0 4 2 14z" />
    <glyph glyph-name="circumflex" unicode="&#x2c6;" horiz-adv-x="414" 
d="M322 762l80 -94q12 -15 12 -23q0 -20 -31 -20h-41q-32 0 -73 43l-58 51h-8l-57 -51q-43 -43 -74 -43h-41q-31 0 -31 20q0 8 12 23l80 94q20 23 33.5 33t32.5 10h98q19 0 32.5 -10t33.5 -33z" />
    <glyph glyph-name="caron" unicode="&#x2c7;" horiz-adv-x="414" 
d="M402 762l-80 -94q-20 -23 -33.5 -33t-32.5 -10h-98q-19 0 -32.5 10t-33.5 33l-80 94q-12 14 -12 24q0 19 31 19h41q5 0 10 -1t8.5 -2t9 -4t8 -4.5t9 -6.5t8.5 -7t10 -9t11 -9l57 -51h8l58 51q38 34 52 39q10 4 21 4h41q31 0 31 -19q0 -10 -12 -24z" />
    <glyph glyph-name="breve" unicode="&#x2d8;" horiz-adv-x="363" 
d="M285 773q15 32 36 32h14q27 0 27 -26q0 -58 -53 -106t-127 -48t-128 47.5t-54 106.5q0 26 28 26h16q22 0 35 -32q11 -24 39 -39t64 -15q78 0 103 54z" />
    <glyph glyph-name="dotaccent" unicode="&#x2d9;" horiz-adv-x="172" 
d="M129 617h-86q-43 0 -43 43v39q0 43 43 43h86q43 0 43 -43v-39q0 -43 -43 -43z" />
    <glyph glyph-name="ring" unicode="&#x2da;" horiz-adv-x="273" 
d="M137 625q-137 0 -137 102q0 48 38 74.5t99 26.5q62 0 99 -25.5t37 -75.5q0 -49 -37.5 -75.5t-98.5 -26.5zM137 664q33 0 49.5 18.5t16.5 44.5t-16.5 44t-49.5 18t-50 -18t-17 -44t17 -44.5t50 -18.5z" />
    <glyph glyph-name="ogonek" unicode="&#x2db;" horiz-adv-x="238" 
d="M238 -142v-22q0 -24 -23 -24h-106q-47 0 -78 20.5t-31 62.5q0 23 18 46.5t44 35.5h79v-12l-19 -9.5t-15 -9.5t-13.5 -14.5t-3.5 -17.5q0 -31 55 -31h70q23 0 23 -25z" />
    <glyph glyph-name="tilde" unicode="&#x2dc;" horiz-adv-x="344" 
d="M42 764q27 17 56 17q28 0 75.5 -31t64.5 -31q36 0 63 24q15 14 25 14q18 0 18 -29v-17q0 -30 -42 -63q-34 -23 -64 -23q-28 0 -75 31.5t-65 31.5q-34 0 -55 -21q-15 -15 -25 -15q-18 0 -18 31v18q0 33 42 63z" />
    <glyph glyph-name="hungarumlaut" unicode="&#x2dd;" horiz-adv-x="490" 
d="M231 738l-91 -70q-2 -2 -9.5 -7.5t-9.5 -7t-8.5 -6t-9 -6l-7.5 -4.5t-8 -4t-7.5 -3t-7.5 -3t-7 -1.5t-8 -0.5h-26q-31 0 -31 19q-1 8 12 24l62 70q22 24 35.5 33.5t33.5 9.5h78q29 0 29 -15q0 -11 -20 -28zM471 738l-92 -70q-23 -18 -31.5 -23.5t-23 -12.5t-27.5 -7h-26
q-31 0 -31 19q0 10 12 24l62 70q22 24 35.5 33.5t33.5 9.5h78q29 0 29 -16q-2 -14 -19 -27z" />
    <glyph glyph-name="Delta" unicode="&#x394;" horiz-adv-x="680" 
d="M203 141h281l-140 453zM429 707l237 -679q2 -6 2 -8v-4q0 -16 -16 -16h-617q-15 0 -15 16v4q0 1 0.5 3.5t0.5 4.5l238 679q16 43 52 43h66q36 0 52 -43z" />
    <glyph glyph-name="Delta" unicode="&#x2206;" horiz-adv-x="680" 
d="M203 141h281l-140 453zM429 707l237 -679q2 -6 2 -8v-4q0 -16 -16 -16h-617q-15 0 -15 16v4q0 1 0.5 3.5t0.5 4.5l238 679q16 43 52 43h66q36 0 52 -43z" />
    <glyph glyph-name="Omega" unicode="&#x3a9;" horiz-adv-x="758" 
d="M39 0v98h152q-152 119 -152 285q0 164 98.5 254t241.5 90t241.5 -90t98.5 -254q0 -167 -153 -285h153v-98h-281v78q113 105 113 305q0 133 -45.5 207t-126.5 74t-126.5 -74t-45.5 -207q0 -198 113 -305v-78h-281z" />
    <glyph glyph-name="Omega" unicode="&#x2126;" horiz-adv-x="758" 
d="M39 0v98h152q-152 119 -152 285q0 164 98.5 254t241.5 90t241.5 -90t98.5 -254q0 -167 -153 -285h153v-98h-281v78q113 105 113 305q0 133 -45.5 207t-126.5 74t-126.5 -74t-45.5 -207q0 -198 113 -305v-78h-281z" />
    <glyph glyph-name="pi" unicode="&#x3c0;" horiz-adv-x="711" 
d="M609 504v-461q0 -43 -43 -43h-86q-43 0 -43 43v359h-187v-359q0 -43 -43 -43h-86q-43 0 -43 43v461q0 43 43 43h445q43 0 43 -43z" />
    <glyph glyph-name="endash" unicode="&#x2013;" horiz-adv-x="500" 
d="M31 340v55q0 42 43 42h352q43 0 43 -42v-55q0 -43 -43 -43h-352q-43 0 -43 43z" />
    <glyph glyph-name="emdash" unicode="&#x2014;" horiz-adv-x="1000" 
d="M31 340v55q0 42 43 42h852q43 0 43 -42v-55q0 -43 -43 -43h-852q-43 0 -43 43z" />
    <glyph glyph-name="quoteleft" unicode="&#x2018;" horiz-adv-x="297" 
d="M195 750h39q37 0 37 -30q0 -8 -1 -13l-56 -211q-11 -43 -50 -43h-90q-43 0 -43 43q0 20 10 37l96 174q24 43 58 43z" />
    <glyph glyph-name="quoteright" unicode="&#x2019;" horiz-adv-x="297" 
d="M102 453h-40q-37 0 -37 30q0 3 2 13l56 211q11 43 50 43h90q43 0 43 -43q0 -20 -10 -37l-96 -174q-24 -43 -58 -43z" />
    <glyph glyph-name="quotesinglbase" unicode="&#x201a;" horiz-adv-x="328" 
d="M86 -125h-39q-37 0 -37 30q0 3 2 13l55 211q11 43 50 43h90q43 0 43 -43q0 -20 -10 -37l-95 -174q-25 -43 -59 -43z" />
    <glyph glyph-name="quotedblleft" unicode="&#x201c;" horiz-adv-x="555" 
d="M453 750h39q37 0 37 -30q0 -3 -2 -13l-55 -211q-11 -43 -50 -43h-90q-43 0 -43 43q0 20 10 37l96 174q24 43 58 43zM195 750h39q37 0 37 -30q0 -8 -1 -13l-56 -211q-11 -43 -50 -43h-90q-43 0 -43 43q0 20 10 37l96 174q24 43 58 43z" />
    <glyph glyph-name="quotedblright" unicode="&#x201d;" horiz-adv-x="555" 
d="M102 453h-40q-37 0 -37 30q0 3 2 13l56 211q11 43 50 43h90q43 0 43 -43q0 -20 -10 -37l-96 -174q-24 -43 -58 -43zM359 453h-39q-37 0 -37 30q0 3 2 13l56 211q11 43 50 43h89q43 0 43 -43q0 -22 -9 -37l-96 -174q-25 -43 -59 -43z" />
    <glyph glyph-name="quotedblbase" unicode="&#x201e;" horiz-adv-x="555" 
d="M86 -125h-39q-37 0 -37 30q0 3 2 13l55 211q11 43 50 43h90q43 0 43 -43q0 -20 -10 -37l-95 -174q-25 -43 -59 -43zM344 -125h-39q-37 0 -37 30q0 3 2 13l55 211q11 43 50 43h90q43 0 43 -43q0 -20 -10 -37l-96 -174q-24 -43 -58 -43z" />
    <glyph glyph-name="dagger" unicode="&#x2020;" horiz-adv-x="602" 
d="M258 750h86q43 0 43 -43v-160h109q43 0 43 -43v-55q0 -43 -43 -43h-109v-488q0 -43 -43 -43h-86q-43 0 -43 43v488h-110q-43 0 -43 43v55q0 43 43 43h110v160q0 43 43 43z" />
    <glyph glyph-name="daggerdbl" unicode="&#x2021;" horiz-adv-x="602" 
d="M62 121v55q0 43 43 43h110v187h-110q-43 0 -43 43v55q0 43 43 43h110v160q0 43 43 43h86q43 0 43 -43v-160h109q43 0 43 -43v-55q0 -43 -43 -43h-109v-187h109q43 0 43 -43v-55q0 -43 -43 -43h-109v-160q0 -43 -43 -43h-86q-43 0 -43 43v160h-110q-43 0 -43 43z" />
    <glyph glyph-name="bullet" unicode="&#x2022;" horiz-adv-x="500" 
d="M250 125q-76 0 -131.5 49.5t-55.5 138.5t55.5 138t131.5 49t132 -49t56 -138t-56 -138.5t-132 -49.5z" />
    <glyph glyph-name="ellipsis" unicode="&#x2026;" horiz-adv-x="922" 
d="M78 43v86q0 43 43 43h86q43 0 43 -43v-86q0 -43 -43 -43h-86q-43 0 -43 43zM375 43v86q0 43 43 43h86q43 0 43 -43v-86q0 -43 -43 -43h-86q-43 0 -43 43zM672 43v86q0 43 43 43h86q43 0 43 -43v-86q0 -43 -43 -43h-86q-43 0 -43 43z" />
    <glyph glyph-name="perthousand" unicode="&#x2030;" horiz-adv-x="1512" 
d="M309 39l325 672q20 39 50 39h11q14 0 23.5 -7t9.5 -17q0 -8 -4 -15l-326 -672q-19 -39 -49 -39h-12q-14 0 -23 6.5t-9 17.5q0 8 4 15zM252 320q-98 0 -144 50t-46 167q0 120 46 169t144 49q97 0 142.5 -49.5t45.5 -168.5q0 -116 -46 -166.5t-142 -50.5zM252 417
q37 0 49.5 24t12.5 96q0 73 -12.5 96.5t-49.5 23.5q-39 0 -52 -23.5t-13 -96.5q0 -72 13 -96t52 -24zM783 -4q-98 0 -144 50t-46 167q0 120 46 169t144 49q97 0 143 -49.5t46 -168.5q0 -116 -46.5 -166.5t-142.5 -50.5zM783 93q37 0 50 24t13 96q0 73 -13 96.5t-50 23.5
q-39 0 -51.5 -23.5t-12.5 -96.5q0 -72 13 -96t51 -24zM1247 -4q-98 0 -144 50t-46 167q0 120 46 169t144 49q97 0 143 -49.5t46 -168.5q0 -116 -46.5 -166.5t-142.5 -50.5zM1247 93q37 0 50 24t13 96q0 73 -13 96.5t-50 23.5q-39 0 -51.5 -23.5t-12.5 -96.5q0 -72 13 -96
t51 -24z" />
    <glyph glyph-name="guilsinglleft" unicode="&#x2039;" horiz-adv-x="336" 
d="M238 148l-133 101q-23 18 -33 31t-10 32v47q0 19 10 32.5t33 31.5l133 100q13 10 23 10q20 0 20 -32v-48q0 -33 -43 -62l-74 -55l74 -55q43 -29 43 -62v-48q0 -32 -20 -32q-9 0 -23 9z" />
    <glyph glyph-name="guilsinglright" unicode="&#x203a;" horiz-adv-x="336" 
d="M230 249l-132 -101q-14 -9 -23 -9q-20 0 -20 32v48q0 33 43 62l74 55l-74 55q-43 29 -43 62v48q0 32 20 32q10 0 23 -10l132 -100q23 -17 33 -30.5t10 -33.5v-47q0 -19 -10 -32.5t-33 -30.5z" />
    <glyph glyph-name="fraction" unicode="&#x2044;" horiz-adv-x="8" 
d="M-207 39l325 672q20 39 50 39h12q14 0 23 -7t9 -17q0 -8 -4 -15l-325 -672q-20 -39 -50 -39h-12q-14 0 -23 7t-9 17q0 8 4 15z" />
    <glyph glyph-name="fraction" unicode="&#x2215;" horiz-adv-x="8" 
d="M-207 39l325 672q20 39 50 39h12q14 0 23 -7t9 -17q0 -8 -4 -15l-325 -672q-20 -39 -50 -39h-12q-14 0 -23 7t-9 17q0 8 4 15z" />
    <glyph glyph-name="uni2070" unicode="&#x2070;" horiz-adv-x="412" 
d="M207 320q-98 0 -144 50t-46 167q0 120 46 169t144 49q97 0 143 -49.5t46 -168.5q0 -116 -46.5 -166.5t-142.5 -50.5zM207 417q37 0 50 24t13 96q0 73 -13 96.5t-50 23.5q-39 0 -51.5 -23.5t-12.5 -96.5q0 -72 13 -96t51 -24z" />
    <glyph glyph-name="uni2074" unicode="&#x2074;" horiz-adv-x="412" 
d="M114 720q6 30 38 30h66q33 0 33 -26q0 -11 -6 -33q-22 -99 -85 -204h67v43q0 32 35 32h55q36 0 36 -32v-43h7q36 0 36 -31v-34q0 -32 -36 -32h-7v-35q0 -31 -36 -31h-55q-35 0 -35 31v35h-165q-35 0 -35 32v25q0 17 6 27q52 93 81 246z" />
    <glyph glyph-name="uni2075" unicode="&#x2075;" horiz-adv-x="412" 
d="M177 504h-94q-35 0 -35 31v184q0 31 35 31h247q35 0 35 -31v-33q0 -33 -35 -33h-161v-52h35q182 0 182 -136q0 -72 -53.5 -106.5t-145.5 -34.5h-115q-16 0 -25.5 8.5t-9.5 22.5v35q0 14 9.5 22.5t25.5 8.5h115q73 0 73 44q0 17 -12.5 26t-28 11t-42.5 2z" />
    <glyph glyph-name="uni2076" unicode="&#x2076;" horiz-adv-x="412" 
d="M315 653h-79q-34 0 -57 -14.5t-26 -39.5q32 9 74 9q78 0 118.5 -37.5t40.5 -105.5t-50.5 -106.5t-134.5 -38.5q-80 0 -127 38.5t-47 106.5v115q0 82 62 126t163 44h63q36 0 36 -31v-33q0 -33 -36 -33zM207 417q53 0 53 48q0 53 -53 53q-29 0 -54 -7v-46q0 -48 54 -48z
" />
    <glyph glyph-name="uni2077" unicode="&#x2077;" horiz-adv-x="412" 
d="M107 355v29q0 81 33.5 151t89.5 118h-158q-35 0 -35 33v33q0 31 35 31h268q35 0 35 -31v-24q0 -16 -11 -27q-61 -60 -96 -127.5t-35 -156.5v-29q0 -31 -35 -31h-55q-36 0 -36 31z" />
    <glyph glyph-name="uni2078" unicode="&#x2078;" horiz-adv-x="412" 
d="M198 320q-177 0 -177 127q0 58 60 93l7 4q-56 32 -56 94q0 58 48 87.5t118 29.5h16q166 0 166 -117q0 -24 -15 -49t-35 -38l-3 -2q64 -38 64 -102q0 -59 -51.5 -93t-125.5 -34h-16zM198 417h16q51 0 51 34q0 13 -8.5 22.5t-15.5 12.5t-27 10l-31 11l-17 -14
q-18 -15 -18 -42q0 -34 50 -34zM230 585l10 10q20 18 20 37q0 25 -46 25h-16q-45 0 -45 -25q0 -13 7.5 -18.5t24.5 -11.5z" />
    <glyph glyph-name="uni2079" unicode="&#x2079;" horiz-adv-x="412" 
d="M98 421h79q33 0 55.5 13t26.5 38q-33 -11 -73 -11q-78 0 -118.5 38t-40.5 107q0 68 50.5 106t133.5 38q79 0 127 -39t48 -105v-112q0 -81 -62 -125.5t-163 -44.5h-63q-36 0 -36 31v35q0 31 36 31zM207 554q30 0 53 6v46q0 47 -53 47q-54 0 -54 -47q0 -52 54 -52z" />
    <glyph glyph-name="uni2080" unicode="&#x2080;" horiz-adv-x="412" 
d="M207 -4q-98 0 -144 50t-46 167q0 120 46 169t144 49q97 0 143 -49.5t46 -168.5q0 -116 -46.5 -166.5t-142.5 -50.5zM207 93q37 0 50 24t13 96q0 73 -13 96.5t-50 23.5q-39 0 -51.5 -23.5t-12.5 -96.5q0 -72 13 -96t51 -24z" />
    <glyph glyph-name="uni2081" unicode="&#x2081;" horiz-adv-x="412" 
d="M79 380l120 42q11 4 31 4h28q35 0 35 -31v-364q0 -14 -9.5 -22.5t-25.5 -8.5h-56q-35 0 -35 31v274l-84 -28q-5 -2 -14 -2q-23 0 -23 28v40q0 24 33 37z" />
    <glyph glyph-name="uni2082" unicode="&#x2082;" horiz-adv-x="412" 
d="M32 31v40q0 44 21 74.5t74 61.5l65 38q46 27 46 54q0 18 -13.5 24t-47.5 6h-94q-35 0 -35 32v34q0 31 35 31h124q75 0 116.5 -32.5t41.5 -90.5q0 -25 -7 -44t-24.5 -35t-32 -26t-45.5 -28l-56 -32q-36 -21 -37 -41h177q35 0 35 -32v-34q0 -31 -35 -31h-273
q-16 0 -25.5 8.5t-9.5 22.5z" />
    <glyph glyph-name="uni2083" unicode="&#x2083;" horiz-adv-x="412" 
d="M196 171h-62q-35 0 -35 31v22q0 31 35 31h75q40 22 40 46q0 28 -53 28h-108q-35 0 -35 32v34q0 31 35 31h119q81 0 125 -23t44 -83q0 -50 -51 -85q61 -27 61 -99q0 -63 -50 -99.5t-129 -36.5h-124q-35 0 -35 31v34q0 32 35 32h113q64 0 64 39q0 35 -64 35z" />
    <glyph glyph-name="uni2084" unicode="&#x2084;" horiz-adv-x="412" 
d="M114 396q6 30 38 30h66q38 0 32 -33q-24 -124 -90 -230h67v43q0 32 35 32h55q36 0 36 -32v-43h7q36 0 36 -31v-34q0 -33 -36 -33h-7v-34q0 -31 -36 -31h-55q-35 0 -35 31v34h-165q-35 0 -35 33v25q0 17 6 26q61 111 81 247z" />
    <glyph glyph-name="uni2085" unicode="&#x2085;" horiz-adv-x="412" 
d="M177 180h-94q-35 0 -35 31v184q0 31 35 31h247q35 0 35 -31v-34q0 -32 -35 -32h-161v-53h35q182 0 182 -135q0 -72 -53.5 -106.5t-145.5 -34.5h-115q-16 0 -25.5 8.5t-9.5 22.5v34q0 32 35 32h115q73 0 73 44q0 17 -12.5 26t-28 11t-42.5 2z" />
    <glyph glyph-name="uni2086" unicode="&#x2086;" horiz-adv-x="412" 
d="M315 329h-79q-34 0 -57 -14.5t-26 -40.5q31 10 74 10q78 0 118.5 -37.5t40.5 -105.5t-50.5 -106.5t-134.5 -38.5q-80 0 -127 38.5t-47 106.5v115q0 82 62 126t163 44h63q36 0 36 -31v-34q0 -32 -36 -32zM207 93q53 0 53 48q0 52 -53 52q-27 0 -54 -6v-46q0 -48 54 -48z
" />
    <glyph glyph-name="uni2087" unicode="&#x2087;" horiz-adv-x="412" 
d="M107 31v29q0 81 33.5 151t89.5 118h-158q-35 0 -35 32v34q0 31 35 31h268q35 0 35 -31v-24q0 -16 -11 -27q-61 -61 -96 -128t-35 -156v-29q0 -31 -35 -31h-55q-36 0 -36 31z" />
    <glyph glyph-name="uni2088" unicode="&#x2088;" horiz-adv-x="412" 
d="M198 -4q-177 0 -177 127q0 58 60 93l7 4q-56 32 -56 93q0 58 48.5 88t117.5 30h16q166 0 166 -118q0 -23 -15 -48t-35 -38l-3 -2q64 -38 64 -102q0 -59 -51.5 -93t-125.5 -34h-16zM198 93h16q51 0 51 34q0 13 -8.5 22t-16 12.5t-26.5 10.5l-31 11l-17 -14
q-18 -15 -18 -42q0 -34 50 -34zM230 261l10 10q20 18 20 37q0 25 -46 25h-16q-45 0 -45 -25q0 -13 7.5 -18.5t24.5 -12.5z" />
    <glyph glyph-name="uni2089" unicode="&#x2089;" horiz-adv-x="412" 
d="M98 97h79q75 0 82 50q-34 -10 -73 -10q-78 0 -118.5 38t-40.5 107q0 68 50.5 106t133.5 38q79 0 127 -39t48 -105v-112q0 -81 -62 -125.5t-163 -44.5h-63q-36 0 -36 31v34q0 32 36 32zM207 229q30 0 53 6v47q0 47 -53 47q-54 0 -54 -47q0 -53 54 -53z" />
    <glyph glyph-name="Euro" unicode="&#x20ac;" 
d="M484 250h-195q0 -56 32 -82.5t85 -26.5h32q54 0 98 17q9 3 15 3q27 0 27 -36v-62q0 -37 -43 -53q-47 -18 -97 -18h-32q-80 0 -145 26t-108.5 86t-43.5 146h-47q-31 0 -31 31v28q0 31 31 31h47v70h-47q-31 0 -31 31v28q0 31 31 31h47q0 116 86.5 187t210.5 71h24
q47 0 105 -15q43 -11 43 -51v-61q0 -37 -31 -37q-8 0 -12 1q-48 14 -105 14h-24q-117 0 -117 -109h195q32 0 32 -31v-28q0 -31 -32 -31h-195v-70h195q32 0 32 -31v-28q0 -31 -32 -31z" />
    <glyph glyph-name="trademark" unicode="&#x2122;" horiz-adv-x="859" 
d="M129 660h-67q-31 0 -31 31v28q0 31 31 31h243q31 0 31 -31v-28q0 -31 -31 -31h-67v-285q0 -31 -31 -31h-47q-31 0 -31 31v285zM798 719v-344q0 -31 -31 -31h-47q-32 0 -32 31v188l-67 -112q-9 -14 -23 -14h-8q-16 0 -25 14l-65 104v-180q0 -31 -31 -31h-47q-31 0 -31 31
v344q0 31 31 31h50q23 0 43 -31l79 -129l79 129q20 31 43 31h51q31 0 31 -31z" />
    <glyph glyph-name="partialdiff" unicode="&#x2202;" 
d="M312 141q46 0 70 26.5t24 74.5v95q-41 15 -94 15q-93 0 -93 -110q0 -101 93 -101zM266 602h-121q-43 0 -43 43v62q0 43 43 43h97q151 0 243.5 -77.5t92.5 -219.5v-211q0 -116 -70 -183t-188 -67q-123 0 -198 66t-75 184q0 119 59.5 184.5t174.5 65.5q72 0 125 -25v10
q0 57 -40 91t-100 34z" />
    <glyph glyph-name="product" unicode="&#x220f;" horiz-adv-x="767" 
d="M687 707v-664q0 -43 -42 -43h-86q-43 0 -43 43v559h-266v-559q0 -43 -43 -43h-86q-43 0 -43 43v664q0 43 43 43h524q42 0 42 -43z" />
    <glyph glyph-name="summation" unicode="&#x2211;" horiz-adv-x="672" 
d="M570 0h-465q-37 0 -37 34v8q0 7 5.5 18t16.5 28.5t15 24.5l153 258l-153 266q-4 7 -15 24.5t-16.5 28.5t-5.5 18v8q0 34 37 34h465q43 0 43 -43v-35q0 -43 -43 -43h-289l121 -203q12 -21 12 -39v-35q0 -16 -12 -36l-121 -195h289q43 0 43 -43v-35q0 -43 -43 -43z" />
    <glyph glyph-name="minus" unicode="&#x2212;" 
d="M94 340v55q0 42 43 42h351q43 0 43 -42v-55q0 -43 -43 -43h-351q-43 0 -43 43z" />
    <glyph glyph-name="radical" unicode="&#x221a;" horiz-adv-x="641" 
d="M170 43l-147 461q-2 5 -2 15q0 28 36 28h49q38 0 51 -43l113 -387l192 559q16 43 53 43h83q43 0 43 -43v-31q0 -43 -43 -43h-36l-200 -559q-14 -43 -51 -43h-89q-36 0 -52 43z" />
    <glyph glyph-name="infinity" unicode="&#x221e;" horiz-adv-x="598" 
d="M133 188q-60 0 -88.5 45t-28.5 111t28.5 111t88.5 45q35 0 61.5 -17.5t67.5 -68.5l31 -39q40 51 86 88t82 37q60 0 88.5 -44t28.5 -112q0 -66 -28.5 -111t-88.5 -45q-36 0 -66.5 18.5t-66.5 63.5l-35 43q-93 -125 -160 -125zM461 234q70 0 70 110q0 109 -70 109
q-26 0 -67.5 -31.5t-77.5 -73.5l39 -47q57 -67 106 -67zM133 234q56 0 137 106l-36 43q-58 70 -101 70q-70 0 -70 -109q0 -52 20 -81t50 -29z" />
    <glyph glyph-name="integral" unicode="&#x222b;" horiz-adv-x="367" 
d="M324 609h-11q-79 0 -79 -70v-539q0 -90 -51.5 -139t-143.5 -49h-35q-43 0 -43 43v55q0 43 43 43h12q78 0 78 70v540q0 90 51.5 138.5t143.5 48.5h35q43 0 43 -43v-55q0 -43 -43 -43z" />
    <glyph glyph-name="approxequal" unicode="&#x2248;" 
d="M531 485v-56q0 -20 -9.5 -34.5t-33.5 -32.5q-33 -23 -74 -23q-37 0 -109 33t-98 33q-40 0 -70 -24q-17 -14 -28 -14q-15 0 -15 29v60q0 34 43 66q32 25 74 25q37 0 109 -34t98 -34q46 0 70 22q18 15 28 15q15 0 15 -31zM531 243v-56q0 -20 -9.5 -34.5t-33.5 -32.5
q-30 -23 -74 -23q-37 0 -109 33t-98 33q-40 0 -70 -24q-17 -14 -28 -14q-15 0 -15 29v60q0 34 43 66q32 25 74 25q37 0 109 -34t98 -34q46 0 70 22q17 14 28 14q15 0 15 -30z" />
    <glyph glyph-name="notequal" unicode="&#x2260;" 
d="M94 207v55q0 43 43 43h108l25 101h-133q-43 0 -43 43v55q0 43 43 43h168l20 82q11 43 49 43h24q39 0 39 -31q0 -4 -2 -12l-20 -82h73q43 0 43 -43v-55q0 -43 -43 -43h-108l-25 -101h133q43 0 43 -43v-55q0 -43 -43 -43h-168l-20 -82q-11 -43 -49 -43h-24q-39 0 -39 31
q0 4 2 12l20 82h-73q-43 0 -43 43z" />
    <glyph glyph-name="lessequal" unicode="&#x2264;" 
d="M488 102l-351 181q-43 21 -43 57v55q0 35 43 56l351 183q10 6 20 6q23 0 23 -35v-78q0 -36 -43 -55l-218 -105l218 -103q43 -21 43 -56v-78q0 -34 -23 -34q-10 0 -20 6zM531 -43v-55q0 -43 -43 -43h-351q-43 0 -43 43v55q0 43 43 43h351q43 0 43 -43z" />
    <glyph glyph-name="greaterequal" unicode="&#x2265;" 
d="M488 283l-351 -181q-10 -6 -20 -6q-23 0 -23 34v78q0 35 43 56l218 103l-218 105q-43 19 -43 55v78q0 35 23 35q10 0 20 -6l351 -183q43 -21 43 -56v-55q0 -36 -43 -57zM94 -98v55q0 43 43 43h351q43 0 43 -43v-55q0 -43 -43 -43h-351q-43 0 -43 43z" />
    <glyph glyph-name="lozenge" unicode="&#x25ca;" horiz-adv-x="703" 
d="M352 172l171 203l-171 203l-172 -203zM62 411l253 297q13 15 37 15t35 -14l254 -299q13 -19 13 -35q0 -19 -14 -36l-253 -298q-11 -14 -35 -14t-37 15l-253 298q-14 18 -14 35q0 19 14 36z" />
    <glyph glyph-name="dotlessj" unicode="&#xf6be;" horiz-adv-x="352" 
d="M102 406h-36q-43 0 -43 43v55q0 43 43 43h164q43 0 43 -43v-473q0 -105 -61.5 -162t-156.5 -57h-47q-43 0 -43 43v55q0 43 43 43q52 0 73 20.5t21 73.5v359z" />
    <glyph glyph-name="commaaccent" unicode="&#xf6c3;" horiz-adv-x="154" 
d="M2 -152l19 70q13 43 51 43h39q43 0 43 -43q0 -14 -8 -22l-35 -48q-29 -43 -62 -43h-12q-37 0 -37 29q0 4 2 14z" />
    <glyph glyph-name="CR" horiz-adv-x="200" 
 />
    <glyph glyph-name="a.superior" horiz-adv-x="578" 
d="M511 717v-355q0 -33 -37 -33h-75q-36 0 -36 33v25l-34 -22q-69 -42 -131 -42q-72 0 -111.5 36.5t-39.5 102.5v84q0 93 70 148.5t179 55.5h178q37 0 37 -33zM336 468l27 14v160h-54q-114 0 -114 -96v-61q0 -48 54 -48q35 0 87 31z" />
    <glyph glyph-name="b.superior" horiz-adv-x="578" 
d="M215 873v-180l34 21q72 42 131 42q72 0 111.5 -36t39.5 -102v-85q0 -93 -70.5 -148.5t-178.5 -55.5h-178q-37 0 -37 33v511q0 33 37 33h74q37 0 37 -33zM242 612l-27 -15v-160h54q114 0 114 96v61q0 48 -54 48q-31 0 -87 -30z" />
    <glyph glyph-name="c.superior" horiz-adv-x="477" 
d="M387 338q-54 -15 -115 -15q-109 0 -174 38.5t-65 123.5v91q0 81 66.5 130.5t162.5 49.5q94 0 161 -29v-112q0 -33 -36 -33h-48q-36 0 -36 33v21q-14 6 -41 6q-38 0 -59 -19.5t-21 -53.5v-53q0 -79 93 -79q58 0 112 14q4 1 10 1q26 0 26 -28v-46q0 -31 -36 -40z" />
    <glyph glyph-name="d.superior" horiz-adv-x="578" 
d="M511 873v-511q0 -33 -37 -33h-75q-36 0 -36 33v25l-34 -22q-69 -42 -131 -42q-72 0 -111.5 36.5t-39.5 102.5v84q0 93 70 148.5t179 55.5h67v123q0 33 36 33h75q37 0 37 -33zM336 468l27 14v160h-54q-114 0 -114 -96v-61q0 -48 54 -48q35 0 87 31z" />
    <glyph glyph-name="e.superior" horiz-adv-x="531" 
d="M406 337q-67 -14 -136 -14q-110 0 -173.5 41.5t-63.5 129.5v82q0 87 67 133.5t172 46.5q212 0 212 -138q0 -124 -175 -124h-127v-3q0 -54 100 -54q69 0 124 11q4 1 11 1q26 0 26 -27v-46q0 -30 -37 -39zM182 579v-7h117q51 0 51 36q0 25 -20 32t-58 7q-45 0 -67.5 -15.5
t-22.5 -52.5z" />
    <glyph glyph-name="f.superior" horiz-adv-x="315" 
d="M81 642h-37q-37 0 -37 33v42q0 33 37 33h37v13q0 68 44.5 105.5t123.5 37.5h57q37 0 37 -33v-29q0 -33 -37 -33h-10q-67 0 -67 -55v-6h63q37 0 37 -33v-42q0 -33 -37 -33h-63v-280q0 -33 -38 -33h-74q-36 0 -36 33v280z" />
    <glyph glyph-name="g.superior" horiz-adv-x="578" 
d="M145 293h70q78 0 113 22t35 83v3l-34 -14q-70 -33 -124 -33q-76 0 -117 35t-41 102v55q0 93 70 148.5t179 55.5h178q37 0 37 -33v-327q0 -96 -66.5 -150.5t-175.5 -54.5h-124q-38 0 -38 33v42q0 33 38 33zM339 488l24 9v145h-54q-114 0 -114 -96v-30q0 -48 54 -48
q34 0 90 20z" />
    <glyph glyph-name="h.superior" horiz-adv-x="592" 
d="M215 873v-187l20 13q48 30 80.5 43.5t74.5 13.5q66 0 100 -35t34 -97v-262q0 -33 -37 -33h-74q-37 0 -37 33v226q0 27 -9 40.5t-34 13.5q-29 0 -91 -37l-27 -14v-229q0 -33 -37 -33h-74q-37 0 -37 33v511q0 33 37 33h74q37 0 37 -33z" />
    <glyph glyph-name="i.superior" horiz-adv-x="296" 
d="M81 642h-30q-37 0 -37 33v42q0 33 37 33h140q38 0 38 -33v-355q0 -33 -38 -33h-74q-36 0 -36 33v280zM191 798h-74q-36 0 -36 33v42q0 33 36 33h74q38 0 38 -33v-42q0 -33 -38 -33z" />
    <glyph glyph-name="j.superior" horiz-adv-x="296" 
d="M87 642h-30q-36 0 -36 33v42q0 33 36 33h141q37 0 37 -33v-363q0 -82 -53 -125.5t-135 -43.5h-40q-37 0 -37 33v42q0 33 37 33q45 0 62.5 16t17.5 56v277zM198 798h-74q-17 0 -27 9t-10 24v42q0 33 37 33h74q37 0 37 -33v-42q0 -33 -37 -33z" />
    <glyph glyph-name="k.superior" horiz-adv-x="551" 
d="M249 605l104 112q30 33 56 33h96q23 0 23 -15q0 -7 -9 -18l-150 -156l155 -199q7 -8 7 -15q0 -18 -25 -18h-101q-26 0 -52 33l-104 135h-34v-135q0 -33 -37 -33h-74q-37 0 -37 33v511q0 33 37 33h74q37 0 37 -33v-268h34z" />
    <glyph glyph-name="l.superior" horiz-adv-x="296" 
d="M81 798h-30q-37 0 -37 33v42q0 33 37 33h140q38 0 38 -33v-511q0 -33 -38 -33h-74q-36 0 -36 33v436z" />
    <glyph glyph-name="m.superior" horiz-adv-x="887" 
d="M215 717v-31l16 13q71 57 152 57q96 0 125 -72h6l20 15q40 30 74 43.5t78 13.5q66 0 99.5 -35t33.5 -97v-262q0 -33 -36 -33h-74q-37 0 -37 33v226q0 27 -9 40.5t-35 13.5q-31 0 -87 -37l-23 -14v-229q0 -33 -38 -33h-74q-37 0 -37 33v226q0 28 -8.5 41t-34.5 13
q-28 0 -88 -37l-23 -14v-229q0 -33 -37 -33h-74q-37 0 -37 33v355q0 33 37 33h74q37 0 37 -33z" />
    <glyph glyph-name="n.superior" horiz-adv-x="592" 
d="M215 717v-31l20 13q48 30 80.5 43.5t74.5 13.5q66 0 100 -35t34 -97v-262q0 -33 -37 -33h-74q-37 0 -37 33v226q0 27 -9 40.5t-34 13.5q-29 0 -91 -37l-27 -14v-229q0 -33 -37 -33h-74q-37 0 -37 33v355q0 33 37 33h74q37 0 37 -33z" />
    <glyph glyph-name="o.superior" horiz-adv-x="551" 
d="M275 323q-121 0 -181.5 50t-60.5 167q0 216 242 216q123 0 183 -52.5t60 -163.5q0 -118 -59 -167.5t-184 -49.5zM275 437q51 0 72.5 23.5t21.5 79.5t-21.5 79t-72.5 23t-72 -23t-21 -79t21.5 -79.5t71.5 -23.5z" />
    <glyph glyph-name="p.superior" horiz-adv-x="578" 
d="M215 717v-24l34 21q72 42 131 42q72 0 111.5 -36t39.5 -102v-85q0 -93 -70.5 -148.5t-178.5 -55.5h-67v-111q0 -33 -37 -33h-74q-37 0 -37 33v499q0 33 37 33h74q37 0 37 -33zM242 612l-27 -15v-160h54q114 0 114 96v61q0 48 -54 48q-31 0 -87 -30z" />
    <glyph glyph-name="q.superior" horiz-adv-x="578" 
d="M511 717v-499q0 -33 -37 -33h-75q-36 0 -36 33v169l-34 -22q-69 -42 -131 -42q-72 0 -111.5 36.5t-39.5 102.5v84q0 93 70 148.5t179 55.5h178q37 0 37 -33zM336 468l27 14v160h-54q-114 0 -114 -96v-61q0 -48 54 -48q35 0 87 31z" />
    <glyph glyph-name="r.superior" horiz-adv-x="377" 
d="M339 756q37 0 37 -33v-48q0 -33 -37 -33h-13q-71 0 -111 -42v-238q0 -33 -37 -33h-74q-37 0 -37 33v355q0 33 37 33h74q37 0 37 -33v-18q20 26 54 41.5t70 15.5z" />
    <glyph glyph-name="s.superior" horiz-adv-x="464" 
d="M373 637q-2 0 -17.5 2t-23.5 3q-33 3 -66 3q-78 0 -78 -21q0 -9 8.5 -15t15.5 -7.5t23 -4.5l64 -12q131 -26 131 -123q0 -139 -239 -139q-65 0 -121 9q-37 6 -37 37v46q0 30 29 30q4 0 21.5 -2.5t25.5 -3.5q58 -4 82 -4q84 0 84 23q0 13 -8 17.5t-29 9.5l-73 16
q-132 27 -132 120q0 68 65.5 101.5t171.5 33.5q55 0 96 -7q37 -5 37 -36v-46q0 -30 -30 -30z" />
    <glyph glyph-name="t.superior" horiz-adv-x="363" 
d="M315 437h11q37 0 37 -33v-42q0 -33 -37 -33h-51q-92 0 -143 41t-51 121v151h-37q-37 0 -37 33v42q0 33 37 33h37v75q0 33 36 33h74q38 0 38 -33v-75h83q38 0 38 -33v-42q0 -33 -38 -33h-83v-121q0 -45 19 -64.5t67 -19.5z" />
    <glyph glyph-name="u.superior" horiz-adv-x="592" 
d="M376 362v31l-20 -13q-46 -30 -79.5 -43.5t-75.5 -13.5q-66 0 -100 35t-34 97v262q0 33 37 33h74q37 0 37 -33v-226q0 -27 9 -40.5t35 -13.5q27 0 91 37l26 14v229q0 33 37 33h74q37 0 37 -33v-355q0 -33 -37 -33h-74q-37 0 -37 33z" />
    <glyph glyph-name="v.superior" horiz-adv-x="497" 
d="M322 642v75q0 33 37 33h75q37 0 37 -33v-75q0 -97 -48 -188t-94 -125h-167q-44 33 -89.5 124t-45.5 189v75q0 33 36 33h75q37 0 37 -33v-75q0 -68 22.5 -128t54.5 -95q31 33 50.5 93t19.5 130z" />
    <glyph glyph-name="w.superior" horiz-adv-x="753" 
d="M726 717v-75q0 -98 -45 -188.5t-89 -124.5h-155q-12 9 -33 43t-31 60q-10 -25 -33.5 -58.5t-36.5 -44.5h-156q-41 32 -80.5 123t-39.5 190v75q0 33 36 33h75q37 0 37 -33v-75q0 -155 63 -223q65 68 65 223v75q0 33 36 33h74q37 0 37 -33v-75q0 -154 64 -223q64 67 64 223
v75q0 33 37 33h73q38 0 38 -33z" />
    <glyph glyph-name="x.superior" horiz-adv-x="457" 
d="M21 362l133 179l-127 176q-6 8 -6 16q0 17 23 17h82q26 0 52 -33l53 -73l54 73q25 33 53 33h75q24 0 24 -17q0 -6 -7 -16l-128 -171l135 -184q7 -10 7 -16q0 -17 -24 -17h-82q-28 0 -53 33l-59 81l-61 -81q-26 -33 -52 -33h-75q-24 0 -24 17q0 6 7 16z" />
    <glyph glyph-name="y.superior" horiz-adv-x="585" 
d="M518 717v-327q0 -96 -66.5 -150.5t-176.5 -54.5h-110q-20 0 -32 10.5t-12 28.5v30q0 18 12 28.5t32 10.5h57q78 0 112 22t35 85l-30 -14q-62 -32 -120 -32q-158 0 -158 137v226q0 33 37 33h73q37 0 37 -33v-202q0 -48 54 -48q43 0 88 20l19 10v220q0 33 37 33h74
q38 0 38 -33z" />
    <glyph glyph-name="z.superior" horiz-adv-x="450" 
d="M27 362v12q0 33 22 54q139 130 196 214h-175q-37 0 -37 33v42q0 33 37 33h317q36 0 36 -33v-12q0 -35 -17 -60q-76 -117 -177 -208h164q37 0 37 -33v-42q0 -33 -37 -33h-330q-36 0 -36 33z" />
    <glyph glyph-name="zero.numerator" horiz-adv-x="508" 
d="M254 320q-98 0 -144.5 50.5t-46.5 166.5q0 119 46 168.5t145 49.5q97 0 142.5 -49.5t45.5 -168.5q0 -116 -46 -166.5t-142 -50.5zM254 417q37 0 49.5 24t12.5 96q0 73 -12.5 96.5t-49.5 23.5q-39 0 -52 -23.5t-13 -96.5q0 -72 13 -96t52 -24z" />
    <glyph glyph-name="one.numerator" horiz-adv-x="508" 
d="M126 704l120 42q11 4 31 4h28q35 0 35 -31v-364q0 -14 -9.5 -22.5t-25.5 -8.5h-56q-35 0 -35 31v274l-84 -27q-5 -2 -14 -2q-23 0 -23 27v40q0 25 33 37z" />
    <glyph glyph-name="two.numerator" horiz-adv-x="508" 
d="M79 355v41q0 44 21 74t74 61l65 38q46 27 46 54q0 18 -13.5 24t-47.5 6h-94q-35 0 -35 33v33q0 31 35 31h124q75 0 116.5 -32.5t41.5 -90.5q0 -32 -15.5 -57t-34.5 -39t-59 -37l-56 -32q-36 -21 -37 -41h177q35 0 35 -31v-35q0 -31 -35 -31h-273q-16 0 -25.5 8.5
t-9.5 22.5z" />
    <glyph glyph-name="three.numerator" horiz-adv-x="508" 
d="M245 495h-62q-36 0 -36 31v22q0 31 36 31h75q40 22 40 46q0 28 -53 28h-108q-35 0 -35 33v33q0 31 35 31h119q81 0 125 -23t44 -82q0 -51 -51 -85q61 -28 61 -100q0 -63 -50 -99.5t-129 -36.5h-124q-35 0 -35 31v35q0 31 35 31h113q64 0 64 39q0 35 -64 35z" />
    <glyph glyph-name="four.numerator" horiz-adv-x="508" 
d="M161 720q6 30 38 30h66q33 0 33 -26q0 -11 -6 -33q-25 -103 -85 -204h66v43q0 32 36 32h55q35 0 35 -32v-43h8q35 0 35 -31v-34q0 -32 -35 -32h-8v-35q0 -31 -35 -31h-55q-36 0 -36 31v35h-164q-35 0 -35 32v25q0 17 6 27q49 87 81 246z" />
    <glyph glyph-name="five.numerator" horiz-adv-x="508" 
d="M224 504h-94q-35 0 -35 31v184q0 31 35 31h247q35 0 35 -31v-33q0 -33 -35 -33h-161v-52h35q182 0 182 -136q0 -72 -54 -106.5t-146 -34.5h-114q-16 0 -25.5 8.5t-9.5 22.5v35q0 14 9.5 22.5t25.5 8.5h114q74 0 74 44q0 17 -12.5 26t-28 11t-42.5 2z" />
    <glyph glyph-name="six.numerator" horiz-adv-x="508" 
d="M362 653h-79q-34 0 -57 -14.5t-26 -39.5q32 9 73 9q79 0 119.5 -37.5t40.5 -105.5t-51 -106.5t-134 -38.5q-80 0 -127 38.5t-47 106.5v115q0 82 62 126t163 44h63q35 0 35 -31v-33q0 -33 -35 -33zM254 417q53 0 53 48q0 53 -53 53q-29 0 -54 -7v-46q0 -48 54 -48z" />
    <glyph glyph-name="seven.numerator" horiz-adv-x="508" 
d="M154 355v29q0 81 33.5 151t89.5 118h-158q-35 0 -35 33v33q0 31 35 31h268q35 0 35 -31v-24q0 -16 -11 -27q-61 -60 -96 -127.5t-35 -156.5v-29q0 -31 -35 -31h-56q-16 0 -25.5 8.5t-9.5 22.5z" />
    <glyph glyph-name="eight.numerator" horiz-adv-x="508" 
d="M245 320q-177 0 -177 127q0 58 60 93l7 4q-56 32 -56 94q0 58 48 87.5t118 29.5h16q166 0 166 -117q0 -24 -15 -49t-35 -38l-3 -2q63 -37 63 -102q0 -59 -51 -93t-125 -34h-16zM245 417h16q51 0 51 34q0 13 -8.5 22.5t-15.5 12.5t-27 10l-32 11l-16 -14q-18 -15 -18 -42
q0 -34 50 -34zM277 585l10 10q20 18 20 37q0 25 -46 25h-16q-45 0 -45 -25q0 -13 7.5 -18.5t23.5 -11.5z" />
    <glyph glyph-name="nine.numerator" horiz-adv-x="508" 
d="M145 421h79q33 0 55.5 13t26.5 38q-33 -11 -74 -11q-77 0 -117.5 38t-40.5 107q0 68 50.5 106t133.5 38q79 0 127 -39t48 -105v-112q0 -81 -62 -125.5t-163 -44.5h-63q-36 0 -36 31v35q0 31 36 31zM254 554q30 0 53 6v46q0 47 -53 47q-54 0 -54 -47q0 -52 54 -52z" />
    <glyph glyph-name="zero.denominator" horiz-adv-x="508" 
d="M254 -4q-98 0 -144.5 50.5t-46.5 166.5q0 119 46 168.5t145 49.5q97 0 142.5 -49.5t45.5 -168.5q0 -116 -46 -166.5t-142 -50.5zM254 93q37 0 49.5 24t12.5 96q0 73 -12.5 96.5t-49.5 23.5q-39 0 -52 -23.5t-13 -96.5q0 -72 13 -96t52 -24z" />
    <glyph glyph-name="one.denominator" horiz-adv-x="508" 
d="M126 380l120 42q11 4 31 4h28q35 0 35 -31v-364q0 -14 -9.5 -22.5t-25.5 -8.5h-56q-35 0 -35 31v274l-84 -28q-5 -2 -14 -2q-23 0 -23 28v40q0 25 33 37z" />
    <glyph glyph-name="two.denominator" horiz-adv-x="508" 
d="M79 31v40q0 44 21 74.5t74 61.5l65 38q46 27 46 54q0 18 -13.5 24t-47.5 6h-94q-35 0 -35 32v34q0 31 35 31h124q75 0 116.5 -32.5t41.5 -90.5q0 -25 -7 -44t-24.5 -35t-32 -26t-45.5 -28l-56 -32q-36 -21 -37 -41h177q35 0 35 -32v-34q0 -31 -35 -31h-273
q-16 0 -25.5 8.5t-9.5 22.5z" />
    <glyph glyph-name="three.denominator" horiz-adv-x="508" 
d="M243 171h-62q-35 0 -35 31v22q0 31 35 31h75q40 22 40 46q0 28 -53 28h-108q-35 0 -35 32v34q0 31 35 31h119q81 0 125 -23t44 -83q0 -50 -51 -85q61 -27 61 -99q0 -63 -50 -99.5t-129 -36.5h-124q-35 0 -35 31v34q0 32 35 32h113q64 0 64 39q0 35 -64 35z" />
    <glyph glyph-name="four.denominator" horiz-adv-x="508" 
d="M161 396q6 30 38 30h66q38 0 32 -33q-24 -124 -90 -230h66v43q0 32 36 32h55q35 0 35 -32v-43h8q35 0 35 -31v-34q0 -33 -35 -33h-8v-34q0 -31 -35 -31h-55q-36 0 -36 31v34h-164q-35 0 -35 33v25q0 17 6 26q59 106 81 247z" />
    <glyph glyph-name="five.denominator" horiz-adv-x="508" 
d="M224 180h-94q-35 0 -35 31v184q0 31 35 31h247q35 0 35 -31v-34q0 -32 -35 -32h-161v-53h35q182 0 182 -135q0 -72 -54 -106.5t-146 -34.5h-114q-16 0 -25.5 8.5t-9.5 22.5v34q0 32 35 32h114q74 0 74 44q0 17 -12.5 26t-28 11t-42.5 2z" />
    <glyph glyph-name="six.denominator" horiz-adv-x="508" 
d="M362 329h-79q-34 0 -57 -14.5t-26 -40.5q31 10 73 10q78 0 119 -37.5t41 -105.5t-51 -106.5t-134 -38.5q-80 0 -127 38.5t-47 106.5v115q0 82 62 126t163 44h63q35 0 35 -31v-34q0 -32 -35 -32zM254 93q53 0 53 48q0 52 -53 52q-27 0 -54 -6v-46q0 -48 54 -48z" />
    <glyph glyph-name="seven.denominator" horiz-adv-x="508" 
d="M154 31v29q0 81 33.5 151t89.5 118h-158q-35 0 -35 32v34q0 31 35 31h268q35 0 35 -31v-24q0 -16 -11 -27q-61 -61 -96 -128t-35 -156v-29q0 -31 -35 -31h-56q-16 0 -25.5 8.5t-9.5 22.5z" />
    <glyph glyph-name="eight.denominator" horiz-adv-x="508" 
d="M245 -4q-177 0 -177 127q0 58 60 93l7 4q-56 32 -56 93q0 58 48.5 88t117.5 30h16q166 0 166 -118q0 -23 -15 -48t-35 -38l-3 -2q63 -37 63 -102q0 -59 -51 -93t-125 -34h-16zM245 93h16q51 0 51 34q0 13 -8.5 22t-16 12.5t-26.5 10.5l-32 11l-16 -14q-18 -15 -18 -42
q0 -34 50 -34zM277 261l10 10q20 18 20 37q0 25 -46 25h-16q-45 0 -45 -25q0 -13 7 -18.5t24 -12.5z" />
    <glyph glyph-name="nine.denominator" horiz-adv-x="508" 
d="M145 97h79q75 0 82 50q-34 -10 -74 -10q-78 0 -118 38t-40 107q0 68 50.5 106t133.5 38q79 0 127 -39t48 -105v-112q0 -81 -62 -125.5t-163 -44.5h-63q-36 0 -36 31v34q0 32 36 32zM254 229q30 0 53 6v47q0 47 -53 47q-54 0 -54 -47q0 -53 54 -53z" />
    <glyph glyph-name="Gcedilla" horiz-adv-x="742" 
d="M672 371v-336q-112 -43 -227 -43h-39q-169 0 -268 89.5t-99 254.5v78q0 87 32 154t87.5 108t126 61.5t153.5 20.5q96 0 191 -26q43 -11 43 -50v-66q0 -36 -29 -36q-4 0 -14 2q-95 27 -199 27q-96 0 -153.5 -51.5t-57.5 -143.5v-78q0 -86 51.5 -140.5t135.5 -54.5h39
q34 0 71 7v118h-67q-43 0 -43 43v62q0 43 43 43h180q43 0 43 -43zM315 -152l19 70q13 43 51 43h39q43 0 43 -43q0 -14 -8 -22l-35 -48q-29 -43 -62 -43h-12q-37 0 -37 29q0 4 2 14z" />
    <glyph glyph-name="gcedilla" horiz-adv-x="672" 
d="M168 -47h82q91 0 131.5 28.5t40.5 108.5v4l-39 -20q-74 -35 -115 -41q-15 -2 -30 -2q-88 0 -135.5 46.5t-47.5 133.5v70q0 121 81.5 193.5t207.5 72.5h207q43 0 43 -43v-426q0 -124 -77.5 -195t-204.5 -71h-144q-43 0 -43 43v55q0 43 43 43zM395 207l27 12v187h-63
q-132 0 -132 -125v-39q0 -62 62 -62q44 0 106 27zM450 707l-19 -70q-12 -43 -51 -43h-39q-43 0 -43 43q0 12 8 22l35 48q30 43 62 43h12q37 0 37 -29q0 -4 -2 -14z" />
    <glyph glyph-name="Kcedilla" horiz-adv-x="750" 
d="M498 43l-213 273h-35v-273q0 -43 -43 -43h-86q-43 0 -43 43v664q0 43 43 43h86q43 0 43 -43v-242h43l192 242q19 23 32.5 33t32.5 10h116q31 0 31 -20q0 -10 -10 -23l-257 -309l277 -355q10 -13 10 -22q0 -21 -31 -21h-124q-19 0 -32 10t-32 33zM265 -152l19 70
q13 43 51 43h39q43 0 43 -43q0 -14 -8 -22l-35 -48q-29 -43 -62 -43h-12q-37 0 -37 29q0 4 2 14z" />
    <glyph glyph-name="kcedilla" horiz-adv-x="641" 
d="M289 359l121 145q20 24 33.5 33.5t32.5 9.5h111q27 0 27 -20q0 -7 -11 -23l-173 -203l179 -258q8 -11 8 -21q0 -22 -29 -22h-117q-20 0 -33 10t-28 33l-121 176h-39v-176q0 -43 -43 -43h-86q-43 0 -43 43v664q0 43 43 43h86q43 0 43 -43v-348h39zM233 -152l19 70
q13 43 51 43h39q43 0 43 -43q0 -14 -8 -22l-35 -48q-29 -43 -62 -43h-12q-37 0 -37 29q0 4 2 14z" />
    <glyph glyph-name="Lcedilla" horiz-adv-x="563" 
d="M488 0h-222q-92 0 -140 53.5t-48 149.5v504q0 43 43 43h86q43 0 43 -43v-473q0 -48 16.5 -67t61.5 -19h160q43 0 43 -43v-62q0 -43 -43 -43zM218 -152l19 70q13 43 51 43h39q43 0 43 -43q0 -14 -8 -22l-35 -48q-29 -43 -62 -43h-12q-37 0 -37 29q0 4 2 14z" />
    <glyph glyph-name="lcedilla" horiz-adv-x="344" 
d="M94 609h-35q-43 0 -43 43v55q0 43 43 43h164q43 0 43 -43v-664q0 -43 -43 -43h-86q-43 0 -43 43v566zM81 -152l19 70q13 43 51 43h39q43 0 43 -43q0 -14 -8 -22l-35 -48q-29 -43 -62 -43h-12q-37 0 -37 29q0 4 2 14z" />
    <glyph glyph-name="Ncedilla" horiz-adv-x="766" 
d="M517 23l-267 422v-402q0 -43 -43 -43h-86q-43 0 -43 43v664q0 43 43 43h82q32 0 47 -23l266 -422v402q0 43 43 43h86q42 0 42 -43v-664q0 -43 -42 -43h-82q-32 0 -46 23zM276 -152l19 70q13 43 51 43h39q43 0 43 -43q0 -14 -8 -22l-35 -48q-29 -43 -62 -43h-12
q-37 0 -37 29q0 4 2 14z" />
    <glyph glyph-name="ncedilla" horiz-adv-x="688" 
d="M250 504v-40l23 16q55 40 93.5 57.5t86.5 17.5q78 0 117 -45.5t39 -126.5v-340q0 -43 -43 -43h-86q-43 0 -43 43v293q0 36 -10 53t-40 17q-34 0 -106 -47l-31 -19v-297q0 -43 -43 -43h-86q-43 0 -43 43v461q0 43 43 43h86q43 0 43 -43zM249 -152l19 70q13 43 51 43h39
q43 0 43 -43q0 -14 -8 -22l-35 -48q-29 -43 -62 -43h-12q-37 0 -37 29q0 4 2 14z" />
    <glyph glyph-name="Rcedilla" horiz-adv-x="688" 
d="M477 43q-23 54 -56 107t-66 73h-105v-180q0 -43 -43 -43h-86q-43 0 -43 43v664q0 43 43 43h231q138 0 209.5 -55.5t71.5 -194.5q0 -143 -121 -219q44 -35 90 -108t67 -130q3 -9 3 -16q0 -27 -36 -27h-106q-37 0 -53 43zM320 602h-70v-235h70q72 0 102.5 28t30.5 97
q0 67 -29 88.5t-104 21.5zM257 -152l19 70q13 43 51 43h39q43 0 43 -43q0 -14 -8 -22l-35 -48q-29 -43 -62 -43h-12q-37 0 -37 29q0 4 2 14z" />
    <glyph glyph-name="rcedilla" horiz-adv-x="438" 
d="M395 555q42 0 42 -43v-63q0 -43 -42 -43h-16q-82 0 -129 -54v-309q0 -43 -43 -43h-86q-43 0 -43 43v461q0 43 43 43h86q43 0 43 -43v-24q23 35 63 55t82 20zM69 -152l19 70q13 43 51 43h39q43 0 43 -43q0 -14 -8 -22l-35 -48q-29 -43 -62 -43h-12q-37 0 -37 29q0 4 2 14z
" />
    <glyph glyph-name="caronquoteleft" horiz-adv-x="154" 
d="M152 707l-19 -70q-12 -43 -51 -43h-39q-43 0 -43 43q0 12 8 22l35 48q30 43 62 43h12q37 0 37 -29q0 -4 -2 -14z" />
    <glyph glyph-name="caronquoteright" horiz-adv-x="154" 
d="M2 637l19 70q13 43 51 43h39q43 0 43 -43q0 -14 -8 -22l-35 -48q-29 -43 -62 -43h-12q-37 0 -37 29q0 4 2 14z" />
    </font>
</defs>
</svg>
