<?xml version="1.0" standalone="no"?>
<!DOCTYPE svg PUBLIC "-//W3C//DTD SVG 1.1//EN" "http://www.w3.org/Graphics/SVG/1.1/DTD/svg11.dtd" >
<svg>
<metadata>
Created by FontForge 20120731 at Wed Nov 26 06:32:48 2014
 By Orthosie Webhosting
Copyright (c) 2005 by OurType. Sansa is a design by Fred Smeijers. All rights reserved.
</metadata>
<defs>
<font id="SansaSoftProSemiBoldItalic" horiz-adv-x="625" >
  <font-face 
    font-family="SansaSoftProSemiBoldItalic"
    font-weight="600"
    font-style="italic"
    font-stretch="normal"
    units-per-em="1000"
    panose-1="2 0 6 3 8 0 0 2 0 4"
    ascent="812"
    descent="-188"
    x-height="547"
    cap-height="750"
    bbox="-196 -215 1377 1036"
    underline-thickness="21"
    underline-position="-113"
    unicode-range="U+0020-FB02"
  />
<missing-glyph horiz-adv-x="500" 
d="M0 0v700h500v-700h-500zM250 395l170 255h-340zM280 350l170 -255v510zM80 50h340l-170 255zM50 605v-510l170 255z" />
    <glyph glyph-name="fi" unicode="fi" horiz-adv-x="661" 
d="M47 41l86 402h-50q-30 0 -30 27q0 6 2 14l6 27q7 36 44 36h51l4 19q19 90 77.5 137t148.5 47h47q29 0 29 -26q0 -5 -2 -13l-5 -22q-8 -36 -44 -36h-22q-87 0 -107 -91l-3 -15h309q30 0 30 -26q0 -6 -2 -14l-100 -471q-8 -36 -44 -36h-51q-30 0 -30 26q0 9 2 15l85 402
h-222l-86 -407q-8 -36 -44 -36h-51q-30 0 -30 26q0 9 2 15zM658 709l-7 -35q-6 -36 -44 -36h-50q-31 0 -31 26q0 9 2 15l7 35q8 36 44 36h51q30 0 30 -26q0 -9 -2 -15z" />
    <glyph glyph-name="fl" unicode="fl" horiz-adv-x="649" 
d="M657 710l-143 -674q-8 -36 -44 -36h-51q-30 0 -30 26q0 9 2 15l130 612h-132q-87 0 -107 -91l-3 -15h84q31 0 31 -26q0 -6 -2 -14l-6 -28q-10 -36 -45 -36h-85l-86 -407q-8 -36 -44 -36h-51q-30 0 -30 26q0 9 2 15l86 402h-50q-30 0 -30 27q0 6 2 14l6 27q7 36 44 36h51
l4 19q19 90 77.5 137t148.5 47h243q30 0 30 -26q0 -6 -2 -14z" />
    <glyph glyph-name="f_f" unicode="ff" horiz-adv-x="698" 
d="M47 41l86 402h-50q-30 0 -30 27q0 6 2 14l6 27q7 36 44 36h51l4 19q19 90 77.5 137t148.5 47h47q29 0 29 -26q0 -5 -2 -13l-5 -22q-8 -36 -44 -36h-22q-87 0 -107 -91l-3 -15h223l4 19q19 90 77 137t148 47h47q30 0 30 -26q0 -5 -2 -13l-5 -22q-8 -36 -44 -36h-23
q-86 0 -106 -91l-3 -15h84q30 0 30 -26q0 -6 -2 -14l-6 -28q-8 -36 -44 -36h-85l-86 -407q-8 -36 -44 -36h-51q-30 0 -30 26q0 9 2 15l86 402h-223l-86 -407q-8 -36 -44 -36h-51q-30 0 -30 26q0 9 2 15z" />
    <glyph glyph-name="f_f_i" unicode="ffi" horiz-adv-x="996" 
d="M392 41l86 402h-222l-86 -407q-8 -36 -44 -36h-51q-30 0 -30 26q0 9 2 15l86 402h-50q-30 0 -30 27q0 6 2 14l6 27q7 36 44 36h51l4 19q19 90 77.5 137t148.5 47h47q29 0 29 -26q0 -5 -2 -13l-5 -22q-8 -36 -44 -36h-22q-87 0 -107 -91l-3 -15h222l4 19q19 90 77 137
t148 47h47q30 0 30 -26q0 -5 -2 -13l-5 -22q-8 -36 -44 -36h-23q-86 0 -106 -91l-3 -15h309q30 0 30 -26q0 -6 -2 -14l-101 -471q-8 -36 -44 -36h-50q-31 0 -31 26q0 9 2 15l86 402h-222l-86 -407q-8 -36 -44 -36h-51q-30 0 -30 26q0 9 2 15zM1003 709l-7 -35
q-6 -36 -44 -36h-51q-30 0 -30 26q0 9 2 15l7 35q8 36 44 36h51q30 0 30 -26q0 -9 -2 -15z" />
    <glyph glyph-name="f_f_l" unicode="ffl" horiz-adv-x="993" 
d="M47 41l86 402h-50q-30 0 -30 27q0 6 2 14l6 27q7 36 44 36h51l4 19q19 90 77.5 137t148.5 47h47q29 0 29 -26q0 -5 -2 -13l-5 -22q-8 -36 -44 -36h-22q-87 0 -107 -91l-3 -15h221l4 19q19 90 77 137t148 47h244q30 0 30 -26q0 -6 -2 -14l-144 -674q-7 -36 -44 -36h-50
q-31 0 -31 26q0 9 2 15l131 613l-133 -1q-86 0 -106 -91l-3 -15h84q30 0 30 -26q0 -6 -2 -14l-6 -28q-8 -36 -44 -36h-85l-86 -407q-8 -36 -44 -36h-51q-30 0 -30 26q0 9 2 15l86 402h-221l-86 -407q-8 -36 -44 -36h-51q-30 0 -30 26q0 9 2 15z" />
    <glyph glyph-name="f_t" unicode="ft" horiz-adv-x="748" 
d="M636 0h-49q-77 0 -122 37t-45 109q0 29 8 63l50 234h-222l-86 -407q-8 -36 -44 -36h-51q-30 0 -30 26q0 9 2 15l86 402h-50q-30 0 -30 27q0 6 2 14l6 27q7 36 44 36h51l4 19q19 90 77.5 137t148.5 47h47q29 0 29 -26q0 -5 -2 -13l-5 -22q-8 -36 -44 -36h-22
q-87 0 -107 -91l-3 -15h221l21 96q8 36 43 36h51q31 0 31 -27q0 -7 -2 -15l-20 -90h103q30 0 30 -26q0 -6 -2 -14l-6 -28q-10 -36 -45 -36h-102l-46 -219q-10 -43 -10 -58q0 -38 20 -51.5t69 -13.5h23q30 0 30 -27q0 -2 -0.5 -7t-0.5 -6l-6 -25q-10 -36 -45 -36z" />
    <glyph glyph-name="f_j" unicode="fj" horiz-adv-x="651" 
d="M47 41l86 402h-50q-30 0 -30 27q0 6 2 14l6 27q7 36 44 36h51l4 19q19 90 77.5 137t148.5 47h47q29 0 29 -26q0 -5 -2 -13l-5 -22q-8 -36 -44 -36h-22q-87 0 -107 -91l-3 -15h310q29 0 29 -26q0 -6 -1 -10l-97 -459q-51 -240 -279 -240h-11q-29 0 -29 27q0 5 3 17l4 24
q7 36 45 36q62 0 95.5 33.5t47.5 100.5l83 393h-223l-86 -407q-8 -36 -44 -36h-51q-30 0 -30 26q0 9 2 15zM659 709l-7 -35q-6 -36 -44 -36h-50q-31 0 -31 26q0 9 2 15l7 35q8 36 44 36h51q30 0 30 -26q0 -9 -2 -15z" />
    <glyph glyph-name="f_b" unicode="fb" horiz-adv-x="993" 
d="M421 0q-30 0 -30 26q0 9 2 15l130 612h-134q-87 0 -107 -91l-3 -15h84q31 0 31 -26q0 -6 -2 -14l-6 -28q-10 -36 -45 -36h-85l-86 -407q-8 -36 -44 -36h-51q-30 0 -30 26q0 9 2 15l86 402h-50q-30 0 -30 27q0 6 2 14l6 27q7 36 44 36h51l4 19q19 90 77.5 137t148.5 47
h245q30 0 30 -26q0 -6 -2 -14l-55 -260l48 37q92 68 166 68q62 0 98 -32.5t36 -93.5q0 -30 -12 -85l-15 -71q-29 -136 -115 -204.5t-221 -68.5h-168zM636 382l-55 -41l-51 -237h74q83 0 130 39.5t67 127.5l13 60q11 49 11 66q0 28 -12 39.5t-40 11.5q-48 0 -137 -66z" />
    <glyph glyph-name="f_h" unicode="fh" horiz-adv-x="1009" 
d="M745 41l65 305q7 40 7 53q0 27 -11 38t-37 11q-44 0 -145 -75l-42 -31h-1l-65 -306q-8 -36 -44 -36h-51q-30 0 -30 26q0 9 2 15l130 612h-134q-87 0 -107 -91l-3 -15h84q31 0 31 -26q0 -6 -2 -14l-6 -28q-10 -36 -45 -36h-85l-86 -407q-8 -36 -44 -36h-51q-30 0 -30 26
q0 9 2 15l86 402h-50q-30 0 -30 27q0 6 2 14l6 27q7 36 44 36h51l4 19q19 90 77.5 137t148.5 47h245q30 0 30 -26q0 -6 -2 -14l-56 -261l43 32q96 74 175 74q58 0 91.5 -29.5t33.5 -85.5q0 -33 -8 -71l-70 -333q-8 -36 -44 -36h-51q-30 0 -30 26q0 9 2 15z" />
    <glyph glyph-name="f_k" unicode="fk" horiz-adv-x="934" 
d="M710 36l-104 206h-48l-43 -206q-8 -36 -44 -36h-51q-30 0 -30 26q0 9 2 15l130 612h-133q-87 0 -107 -91l-3 -15h84q31 0 31 -26q0 -6 -2 -14l-6 -28q-10 -36 -45 -36h-85l-86 -407q-8 -36 -44 -36h-51q-30 0 -30 26q0 9 2 15l86 402h-50q-30 0 -30 27q0 6 2 14l6 27
q7 36 44 36h51l4 19q19 90 77.5 137t148.5 47h244q30 0 30 -26q0 -6 -2 -14l-78 -364h48l174 165q38 36 62 36h72q23 0 23 -14q0 -9 -14 -22l-225 -210l133 -265q3 -7 3 -15q0 -21 -29 -21h-70q-29 0 -47 36z" />
    <glyph glyph-name=".notdef" horiz-adv-x="500" 
d="M0 0v700h500v-700h-500zM250 395l170 255h-340zM280 350l170 -255v510zM80 50h340l-170 255zM50 605v-510l170 255z" />
    <glyph glyph-name=".null" horiz-adv-x="0" 
 />
    <glyph glyph-name="nonmarkingreturn" horiz-adv-x="333" 
 />
    <glyph glyph-name="space" unicode=" " horiz-adv-x="266" 
 />
    <glyph glyph-name="exclam" unicode="!" horiz-adv-x="295" 
d="M290 714l-105 -451q-8 -32 -40 -32h-37q-25 0 -25 22q0 9 2 17l83 444q7 36 44 36h50q29 0 29 -25q0 -7 -1 -11zM108 0h-54q-32 0 -32 25q0 3 2 11l13 53q10 36 44 36h55q31 0 31 -25q0 -3 -2 -11l-13 -53q-10 -36 -44 -36z" />
    <glyph glyph-name="quotedbl" unicode="&#x22;" horiz-adv-x="492" 
d="M289 714l-34 -131q-10 -36 -47 -36h-29q-32 0 -32 27q0 5 2 15l20 125q7 36 43 36h51q28 0 28 -23q0 -3 -2 -13zM485 714l-34 -131q-10 -36 -47 -36h-29q-31 0 -31 27q0 5 2 15l19 125q7 36 43 36h51q28 0 28 -23q0 -3 -2 -13z" />
    <glyph glyph-name="numbersign" unicode="#" 
d="M47 263h89l47 224h-88q-30 0 -30 27q0 6 1 9l7 32q8 36 44 36h88l26 123q8 36 44 36h34q29 0 29 -26q0 -6 -1 -10l-27 -123h114l26 123q8 36 44 36h33q30 0 30 -26q0 -6 -1 -10l-27 -123h90q29 0 29 -27q0 -5 -1 -9l-6 -32q-8 -36 -44 -36h-90l-47 -224h89q29 0 29 -26
q0 -7 -1 -10l-7 -32q-8 -36 -44 -36h-88l-26 -123q-8 -36 -44 -36h-33q-29 0 -29 26q0 6 1 10l26 123h-114l-26 -123q-8 -36 -44 -36h-33q-29 0 -29 26q0 6 1 10l26 123h-90q-29 0 -29 27q0 5 1 9l7 32q8 36 44 36zM288 487l-47 -224h114l47 224h-114z" />
    <glyph glyph-name="dollar" unicode="$" 
d="M186 -86l15 79q-67 3 -136 26q-28 9 -28 34q0 6 8 48q5 29 29 29q6 0 14 -3q78 -30 156 -30h27q65 0 105 31.5t40 88.5q0 38 -22.5 60t-67.5 41l-87 38q-53 24 -90.5 68.5t-37.5 111.5q0 96 69.5 153.5t181.5 66.5l16 75q8 36 44 36h26q31 0 31 -26q0 -8 -2 -14l-16 -70
q59 -5 115 -24q28 -9 28 -32q0 -6 -7 -46q-5 -29 -31 -29q-8 0 -13 2q-70 25 -132 25h-28q-66 0 -107 -27.5t-41 -80.5q0 -33 19.5 -52.5t53.5 -34.5l92 -40q141 -60 141 -189q0 -103 -66.5 -164.5t-183.5 -71.5l-18 -82q-8 -36 -44 -36h-25q-30 0 -30 26q0 5 2 13z" />
    <glyph glyph-name="percent" unicode="%" horiz-adv-x="979" 
d="M204 320q-69 0 -104.5 33.5t-35.5 96.5q0 74 25.5 141.5t83 115.5t135.5 48q140 0 140 -131q0 -55 -14.5 -107.5t-43 -97.5t-77 -72t-109.5 -27zM218 391q59 0 95.5 73t36.5 158q0 62 -55 62q-59 0 -95.5 -73t-36.5 -158q0 -62 55 -62zM693 -4q-68 0 -103.5 33.5
t-35.5 96.5q0 55 15 107.5t44 97.5t77 72.5t107 27.5q140 0 140 -131q0 -55 -14.5 -107.5t-43 -97.5t-77 -72t-109.5 -27zM707 66q59 0 95.5 73.5t36.5 158.5q0 61 -55 61q-59 0 -95.5 -73t-36.5 -157q0 -63 55 -63zM293 29l343 692q16 29 40 29h12q25 0 25 -18q0 -5 -3 -11
l-344 -692q-16 -29 -39 -29h-13q-25 0 -25 17q0 2 4 12z" />
    <glyph glyph-name="ampersand" unicode="&#x26;" horiz-adv-x="651" 
d="M380 113l48 228h-113q-64 0 -105.5 -40t-41.5 -104q0 -49 32.5 -74.5t92.5 -25.5q20 0 48.5 5.5t38.5 10.5zM585 339h-29l-66 -309q-116 -38 -219 -38q-101 0 -166 48t-65 143q0 72 40 129.5t128 85.5q-33 20 -51.5 57.5t-18.5 75.5q0 107 82.5 167t198.5 60h23
q59 0 109.5 -11.5t50.5 -40.5q0 -30 -10 -51.5t-30 -21.5q-3 0 -11 2q-66 17 -124 17h-16q-68 0 -105.5 -29t-37.5 -86q0 -43 25 -68.5t71 -25.5h244q30 0 30 -26q0 -6 -8 -42t-45 -36z" />
    <glyph glyph-name="quotesingle" unicode="'" horiz-adv-x="295" 
d="M289 714l-34 -131q-10 -36 -47 -36h-29q-32 0 -32 27q0 5 2 15l20 125q7 36 43 36h51q28 0 28 -23q0 -3 -2 -13z" />
    <glyph glyph-name="parenleft" unicode="(" horiz-adv-x="385" 
d="M151 -125q-27 0 -55 36q-70 88 -70 245q0 66 14 141l6 31q22 118 80.5 219.5t138.5 166.5q45 36 69 36h48q21 0 21 -14q0 -8 -17 -22q-169 -133 -216 -386l-6 -31q-18 -97 -18 -158q0 -136 70 -228q8 -11 8 -20q0 -16 -26 -16h-47z" />
    <glyph glyph-name="parenright" unicode=")" horiz-adv-x="386" 
d="M116 -89q-45 -36 -68 -36h-48q-21 0 -21 12q0 10 17 24q178 147 217 386l5 30q16 92 16 158q0 151 -68 229q-9 9 -9 19q0 17 26 17h47q29 0 56 -36q69 -90 69 -245q0 -78 -13 -142l-6 -30q-23 -119 -81.5 -220.5t-138.5 -165.5z" />
    <glyph glyph-name="asterisk" unicode="*" horiz-adv-x="501" 
d="M189 668l81 -54l23 108q6 28 35 28h26q23 0 23 -20q0 -8 -2 -14l-21 -101l103 53q9 5 19 5q13 0 19 -16l8 -21q2 -8 2 -11q0 -18 -22 -28l-105 -54l83 -55q12 -8 12 -18t-9 -20l-19 -21q-13 -16 -26 -16q-7 0 -15 5l-81 53l-22 -107q-6 -28 -35 -28h-27q-22 0 -22 19
q0 10 2 16l21 100l-103 -53q-9 -5 -19 -5q-13 0 -19 16l-8 21q-2 8 -2 11q0 16 21 28l105 54l-82 55q-12 8 -12 17q0 10 10 21l17 21q13 16 26 16q10 0 15 -5z" />
    <glyph glyph-name="plus" unicode="+" 
d="M416 550l-28 -131h130q29 0 29 -25q0 -7 -1 -11l-7 -31q-8 -37 -44 -37h-129l-28 -130q-8 -37 -44 -37h-32q-31 0 -31 27q0 6 1 10l28 130h-129q-30 0 -30 27q0 6 1 10l6 31q8 36 44 36h130l29 131q7 36 43 36h34q29 0 29 -26q0 -6 -1 -10z" />
    <glyph glyph-name="comma" unicode="," horiz-adv-x="287" 
d="M8 -125h-29q-22 0 -22 15q0 7 8 25l69 164q11 26 27 36t44 10h46q28 0 28 -25v-7q0 -21 -13 -36l-105 -143q-30 -39 -53 -39z" />
    <glyph glyph-name="hyphen" unicode="-" horiz-adv-x="411" 
d="M325 315h-235q-29 0 -29 27q0 7 6 41q7 36 45 36h236q29 0 29 -26q0 -7 -7 -41q-6 -37 -45 -37z" />
    <glyph glyph-name="hyphen" unicode="&#xad;" horiz-adv-x="411" 
d="M325 315h-235q-29 0 -29 27q0 7 6 41q7 36 45 36h236q29 0 29 -26q0 -7 -7 -41q-6 -37 -45 -37z" />
    <glyph glyph-name="period" unicode="." horiz-adv-x="304" 
d="M112 0h-54q-32 0 -32 25q0 3 2 11l13 53q8 36 44 36h55q31 0 31 -25q0 -3 -2 -11l-13 -53q-8 -36 -44 -36z" />
    <glyph glyph-name="slash" unicode="/" horiz-adv-x="536" 
d="M52 -89l339 803q15 36 46 36h45q30 0 30 -21q0 -3 -4 -15l-339 -803q-16 -36 -47 -36h-46q-28 0 -28 21q0 7 4 15z" />
    <glyph glyph-name="zero" unicode="0" 
d="M242 -8q-100 0 -151.5 58t-51.5 167q0 96 22.5 189.5t65 173.5t114.5 129t161 49q205 0 205 -225q0 -98 -21.5 -191t-64 -173t-115 -128.5t-164.5 -48.5zM263 95q66 0 117 70t75 167t24 197q0 66 -22.5 96t-72.5 30q-66 0 -117.5 -70t-75.5 -167t-24 -197q0 -66 22.5 -96
t73.5 -30z" />
    <glyph glyph-name="one" unicode="1" 
d="M354 614l-183 -68q-9 -3 -15 -3q-16 0 -16 18q0 5 1 9l9 44q7 33 46 48l215 81q19 7 36 7h29q29 0 29 -25q0 -6 -2 -14l-143 -675q-8 -36 -44 -36h-55q-31 0 -31 26q0 6 1 10z" />
    <glyph glyph-name="two" unicode="2" 
d="M457 0h-410q-31 0 -31 26q0 7 2 19l11 59q15 71 54.5 124.5t128.5 101.5l106 59q73 40 105 78t32 93q0 86 -118 86h-166q-30 0 -30 26q0 7 6 42q7 36 44 36h184q95 0 152.5 -49t57.5 -131q0 -91 -53 -149.5t-166 -120.5l-85 -47q-58 -32 -84 -58t-35 -71l-4 -20h322
q32 0 32 -25q0 -8 -10 -43q-10 -36 -45 -36z" />
    <glyph glyph-name="three" unicode="3" 
d="M238 0h-176q-31 0 -31 26q0 6 8 42q7 36 44 36h167q171 0 171 146q0 45 -35 68.5t-90 23.5h-74q-31 0 -31 26q0 6 6 34q8 36 44 36h116q110 49 110 132q0 76 -111 76h-168q-30 0 -30 25q0 7 8 43t44 36h178q95 0 152.5 -39.5t57.5 -116.5q0 -132 -142 -189
q94 -49 94 -155q0 -119 -82.5 -184.5t-229.5 -65.5z" />
    <glyph glyph-name="four" unicode="4" 
d="M20 191l5 28q4 20 14 33q173 232 255 462q13 36 47 36h62q28 0 28 -21q0 -6 -3 -15q-93 -237 -267 -456h200l33 150q6 35 43 35h56q29 0 29 -25q0 -6 -1 -10l-32 -150h47q29 0 29 -27q0 -5 -7 -40q-8 -36 -46 -36h-45l-25 -119q-8 -36 -44 -36h-55q-31 0 -31 26q0 6 1 10
l26 119h-291q-29 0 -29 26q0 6 1 10z" />
    <glyph glyph-name="five" unicode="5" 
d="M557 646h-272l-36 -174h76q107 0 166 -50t59 -141q0 -124 -86.5 -202.5t-237.5 -78.5h-175q-31 0 -31 25q0 8 9 43q11 36 44 36h169q81 0 129.5 46t48.5 121q0 94 -132 94h-147q-32 0 -32 26q0 6 1 9l69 314q8 36 44 36h357q29 0 29 -26q0 -6 -7 -42q-8 -36 -45 -36z" />
    <glyph glyph-name="six" unicode="6" 
d="M334 375q-66 0 -133 -35l-21 -99q-6 -25 -6 -55q0 -47 23 -68t72 -21q72 0 115.5 49t43.5 141q0 88 -94 88zM540 646h-97q-79 0 -136 -47t-78 -134l-6 -25q68 39 145 39q91 0 139.5 -51.5t48.5 -136.5q0 -128 -82 -213.5t-223 -85.5q-98 0 -152 45.5t-54 130.5q0 38 9 75
l45 212q29 137 122.5 216t244.5 79h96q31 0 31 -26q0 -6 -8 -42q-7 -36 -45 -36z" />
    <glyph glyph-name="seven" unicode="7" 
d="M495 644h-347q-30 0 -30 25q0 7 8 45q8 36 45 36h447q29 0 29 -27q0 -6 -6 -41q-3 -15 -13 -25q-267 -258 -352 -587l-8 -34q-10 -36 -44 -36h-56q-30 0 -30 24q0 4 2 12l6 25q50 177 145 332.5t204 250.5z" />
    <glyph glyph-name="eight" unicode="8" 
d="M230 -8q-92 0 -147.5 42.5t-55.5 123.5q0 64 36 117.5t95 91.5l42 27q-81 55 -81 144q0 105 80.5 162.5t191.5 57.5h26q83 0 137.5 -41.5t54.5 -115.5q0 -103 -114 -189l-35 -26q89 -58 89 -157q0 -107 -84 -172t-207 -65h-28zM345 321l-66 33l-36 -28
q-37 -28 -60.5 -67.5t-23.5 -80.5q0 -78 99 -78h18q60 0 102.5 34.5t42.5 94.5q0 33 -19 53.5t-57 38.5zM244 543q0 -50 65 -81l68 -34l27 21q77 61 77 136q0 70 -89 70h-30q-51 0 -84.5 -30t-33.5 -82z" />
    <glyph glyph-name="nine" unicode="9" 
d="M190 0h-104q-30 0 -30 26q0 6 7 42t44 36h102q82 0 139.5 46.5t75.5 134.5l5 25q-68 -39 -147 -39q-90 0 -138.5 52t-48.5 136q0 131 77.5 215t221.5 84q99 0 154.5 -50t55.5 -138q0 -47 -8 -81l-42 -194q-30 -138 -120.5 -216.5t-243.5 -78.5zM318 375q64 0 134 34
l19 86q6 25 6 62q0 46 -26 71t-73 25q-73 0 -112.5 -48.5t-39.5 -141.5q0 -88 92 -88z" />
    <glyph glyph-name="colon" unicode=":" horiz-adv-x="301" 
d="M112 0h-54q-32 0 -32 25q0 3 2 11l13 53q8 36 44 36h55q31 0 31 -25q0 -3 -2 -11l-13 -53q-8 -36 -44 -36zM203 422h-55q-31 0 -31 25q0 3 2 11l13 53q8 36 44 36h54q32 0 32 -26q0 -2 -2 -10l-13 -53q-8 -36 -44 -36z" />
    <glyph glyph-name="semicolon" unicode=";" horiz-adv-x="305" 
d="M207 422h-55q-31 0 -31 25q0 3 2 11l13 53q8 36 44 36h54q32 0 32 -26q0 -2 -2 -10l-13 -53q-8 -36 -44 -36zM10 -125h-30q-21 0 -21 15q0 7 8 25l69 164q11 26 27 36t44 10h46q28 0 28 -25v-7q0 -21 -13 -36l-106 -143q-28 -39 -52 -39z" />
    <glyph glyph-name="less" unicode="&#x3c;" 
d="M156 434l405 190q10 5 17 5q16 0 16 -19q0 -6 -1 -9l-11 -46q-7 -29 -47 -47l-308 -141l251 -139q27 -16 27 -37q0 -6 -1 -10l-10 -46q-7 -29 -27 -29q-7 0 -15 5l-324 190q-27 15 -27 38q0 6 1 10l7 37q6 29 47 48z" />
    <glyph glyph-name="equal" unicode="=" 
d="M474 197h-365q-29 0 -29 26q0 6 1 9l6 32q8 36 45 36h365q29 0 29 -26q0 -6 -1 -10l-6 -32q-8 -35 -45 -35zM522 425h-364q-30 0 -30 26q0 6 1 10l7 31q8 36 44 36h365q29 0 29 -25q0 -7 -1 -11l-7 -31q-6 -36 -44 -36z" />
    <glyph glyph-name="greater" unicode="&#x3e;" 
d="M196 624l325 -190q27 -16 27 -38q0 -6 -1 -10l-8 -37q-7 -31 -47 -48l-405 -190q-12 -5 -17 -5q-14 0 -14 18q0 7 1 11l9 46q6 29 46 47l310 139l-251 141q-27 14 -27 36q0 7 1 11l10 46q7 28 27 28q6 0 14 -5z" />
    <glyph glyph-name="question" unicode="?" horiz-adv-x="435" 
d="M236 651h-100q-31 0 -31 26q0 7 6 37q7 36 44 36h121q191 0 191 -146q0 -59 -30.5 -105.5t-97.5 -106.5l-100 -89l-10 -54q-8 -36 -45 -36h-45q-32 0 -32 25q0 2 10 49q5 21 18 31l85 82q7 7 28.5 27.5t27.5 26.5t21 22t19.5 24.5t12.5 22t10 26t2 26.5q0 76 -105 76z
M146 0h-50q-32 0 -32 25q0 3 2 11l13 53q8 36 44 36h51q31 0 31 -25q0 -3 -2 -11l-13 -53q-7 -36 -44 -36z" />
    <glyph glyph-name="at" unicode="@" horiz-adv-x="926" 
d="M447 229h52l46 214h-42q-49 0 -82 -44.5t-33 -106.5q0 -35 14.5 -49t44.5 -14zM648 480l-52 -251h17q75 0 129.5 72t54.5 178q0 188 -235 188q-183 0 -293 -124t-110 -314q0 -240 251 -240q70 0 141 11q22 4 28 4q18 0 18 -16q0 -6 -2 -12l-6 -28q-6 -27 -32 -33
q-76 -17 -162 -17q-155 0 -250.5 84t-95.5 239q0 237 148 387t375 150q152 0 241.5 -71.5t89.5 -200.5q0 -148 -87 -239t-224 -91h-158q-68 0 -105.5 32t-37.5 93q0 111 65.5 173t162.5 62h105q26 0 26 -24q0 -2 -2 -12z" />
    <glyph glyph-name="A" unicode="A" horiz-adv-x="700" 
d="M472 36q0 71 -5 159h-301q-29 -65 -66 -159q-15 -36 -48 -36h-58q-27 0 -27 21q0 6 3 15q81 207 195 415.5t191 298.5h157q33 -118 62 -321t31 -393q0 -36 -34 -36h-64q-36 0 -36 36zM410 648q-94 -133 -197 -348h246q-18 203 -49 348z" />
    <glyph glyph-name="B" unicode="B" horiz-adv-x="658" 
d="M348 330h-130l-47 -226h150q64 0 99.5 38t35.5 99q0 42 -30 65.5t-78 23.5zM408 646h-124l-45 -217h139q56 0 93 41t37 96q0 80 -100 80zM28 41l144 673q8 36 44 36h232q94 0 144.5 -41.5t50.5 -124.5q0 -67 -40 -123t-105 -82q41 -17 65.5 -54t24.5 -87
q0 -104 -69.5 -171t-188.5 -67h-273q-31 0 -31 26q0 7 2 15z" />
    <glyph glyph-name="C" unicode="C" horiz-adv-x="652" 
d="M506 13q-74 -21 -137 -21h-44q-132 0 -206.5 61t-74.5 184q0 45 11 94l18 88q71 339 422 339q112 0 198 -41l-32 -145q-8 -36 -43 -36h-45q-29 0 -29 26q0 6 1 10l14 69q-30 12 -90 12q-210 0 -262 -231l-20 -91q-10 -40 -10 -83q0 -77 42 -114t127 -37h47q61 0 137 24
q8 2 12 2q19 0 19 -20q0 -6 -9 -47q-7 -32 -46 -43z" />
    <glyph glyph-name="D" unicode="D" horiz-adv-x="727" 
d="M299 0h-242q-31 0 -31 26q0 7 2 15l144 673q8 36 44 36h224q131 0 202.5 -55t71.5 -168q0 -59 -11 -109l-20 -92q-72 -326 -384 -326zM406 646h-121l-114 -542h127q108 0 169 59t87 175l17 78q10 46 10 90q0 79 -42 109.5t-133 30.5z" />
    <glyph glyph-name="E" unicode="E" horiz-adv-x="588" 
d="M437 0h-221q-76 0 -120.5 34t-44.5 103q0 34 8 66l108 511q8 36 44 36h365q29 0 29 -26q0 -6 -7 -42q-8 -36 -46 -36h-272l-42 -203h254q29 0 29 -26q0 -6 -7 -42q-8 -36 -46 -36h-253l-26 -123q-7 -49 -7 -54q0 -33 17.5 -45.5t57.5 -12.5h205q29 0 29 -26q0 -6 -8 -42
q-6 -36 -46 -36z" />
    <glyph glyph-name="F" unicode="F" horiz-adv-x="550" 
d="M28 41l103 488q23 112 88.5 166.5t185.5 54.5h165q30 0 30 -26q0 -6 -8 -42t-45 -36h-162q-54 0 -83 -28t-41 -88l-22 -101h247q30 0 30 -27q0 -6 -8 -42t-45 -36h-247l-60 -288q-8 -36 -44 -36h-55q-31 0 -31 26q0 7 2 15z" />
    <glyph glyph-name="G" unicode="G" horiz-adv-x="703" 
d="M426 281q-30 0 -30 27q0 5 8 42q8 36 45 36h181q29 0 29 -26q0 -2 -3 -17l-65 -308q-39 -16 -104 -29.5t-116 -13.5h-57q-127 0 -197.5 60.5t-70.5 181.5q0 45 11 94l19 96q34 169 143 251.5t280 82.5q95 0 179 -29q29 -10 29 -34q0 -6 -9 -47q-6 -29 -30 -29q-8 0 -15 3
q-78 31 -172 31q-225 0 -274 -231l-19 -88q-9 -49 -9 -82q0 -80 41.5 -117.5t127.5 -37.5h41q48 0 99 17l35 167h-97z" />
    <glyph glyph-name="H" unicode="H" horiz-adv-x="752" 
d="M481 41l64 300h-324l-65 -305q-8 -36 -44 -36h-55q-31 0 -31 26q0 7 2 15l144 673q8 36 44 36h55q31 0 31 -26q0 -7 -2 -15l-56 -262h323l58 267q8 36 44 36h56q30 0 30 -26q0 -7 -2 -15l-144 -673q-8 -36 -44 -36h-55q-31 0 -31 26q0 7 2 15z" />
    <glyph glyph-name="I" unicode="I" horiz-adv-x="300" 
d="M28 41l144 673q8 36 44 36h55q31 0 31 -26q0 -7 -2 -15l-144 -673q-8 -36 -44 -36h-55q-31 0 -31 26q0 7 2 15z" />
    <glyph glyph-name="J" unicode="J" horiz-adv-x="461" 
d="M8 0q-29 0 -29 26q0 6 7 42t45 36h59q115 0 141 128l87 414h-145q-29 0 -29 26q0 6 7 42q8 36 45 36h237q29 0 29 -25q0 -10 -2 -17l-101 -476q-49 -232 -279 -232h-72z" />
    <glyph glyph-name="K" unicode="K" horiz-adv-x="681" 
d="M28 41l144 673q8 36 44 36h55q31 0 31 -26q0 -7 -2 -15l-57 -266h44l283 271q39 36 63 36h83q19 0 19 -14q0 -8 -14 -22l-342 -318l215 -360q6 -11 6 -18q0 -18 -26 -18h-73q-30 0 -53 36l-179 302h-49l-64 -302q-8 -36 -44 -36h-55q-31 0 -31 26q0 7 2 15z" />
    <glyph glyph-name="L" unicode="L" horiz-adv-x="546" 
d="M418 0h-202q-76 0 -120.5 34t-44.5 103q0 34 8 66l109 511q8 36 44 36h56q30 0 30 -26q0 -7 -2 -15l-107 -493q-7 -49 -7 -54q0 -33 17.5 -45.5t57.5 -12.5h184q30 0 30 -26q0 -6 -8 -42t-45 -36z" />
    <glyph glyph-name="M" unicode="M" horiz-adv-x="871" 
d="M598 41l104 496l-248 -259q-15 -15 -34 -15h-8q-19 0 -27 15l-123 259l-106 -501q-8 -36 -44 -36h-55q-31 0 -31 26q0 7 2 15l144 673q8 36 44 36h56q28 0 38 -20l145 -307l284 306q19 21 46 21h56q29 0 29 -25q0 -9 -3 -21l-141 -668q-8 -36 -44 -36h-56q-30 0 -30 26
q0 7 2 15z" />
    <glyph glyph-name="N" unicode="N" horiz-adv-x="757" 
d="M756 709l-145 -673q-8 -36 -44 -36h-42q-28 0 -37 20l-230 498l-102 -482q-8 -36 -44 -36h-55q-31 0 -31 26q0 7 2 15l145 673q8 36 43 36h44q27 0 36 -20l229 -498l103 482q8 36 44 36h56q30 0 30 -26q0 -7 -2 -15z" />
    <glyph glyph-name="O" unicode="O" horiz-adv-x="747" 
d="M315 -8q-131 0 -201 62.5t-70 183.5q0 50 12 110l15 74q70 336 388 336q131 0 201.5 -63t70.5 -183q0 -61 -11 -110l-16 -74q-35 -168 -130 -252t-259 -84zM334 97q101 0 158 58t82 179l14 65q11 55 11 99q0 83 -39 119t-120 36q-101 0 -156.5 -58t-82.5 -179l-14 -65
q-10 -43 -10 -99q0 -83 38 -119t119 -36z" />
    <glyph glyph-name="P" unicode="P" horiz-adv-x="636" 
d="M28 41l144 673q8 36 44 36h214q96 0 153.5 -52t57.5 -144q0 -151 -88 -238t-243 -87h-113l-41 -193q-8 -36 -44 -36h-55q-31 0 -31 26q0 7 2 15zM387 646h-101l-66 -312h105q88 0 135 52t47 150q0 110 -120 110z" />
    <glyph glyph-name="Q" unicode="Q" horiz-adv-x="747" 
d="M499 -82q22 0 22 -22q0 -6 -6 -32q-7 -32 -45 -42q-47 -10 -91 -10q-127 0 -127 108q0 25 4 44l6 31q-106 12 -162 73.5t-56 169.5q0 50 12 110l15 74q70 336 389 336q130 0 200.5 -63t70.5 -183q0 -61 -11 -110l-16 -74q-67 -317 -350 -334l-4 -24q-4 -18 -4 -24
q0 -22 12.5 -30.5t38.5 -8.5q30 0 68 5q5 1 16.5 3.5t17.5 2.5zM335 97q100 0 156 58t83 179l15 65q10 43 10 99q0 83 -38.5 119t-119.5 36q-101 0 -156.5 -58t-82.5 -179l-15 -65q-9 -39 -9 -99q0 -83 37.5 -119t119.5 -36z" />
    <glyph glyph-name="R" unicode="R" horiz-adv-x="667" 
d="M28 41l144 673q8 36 44 36h210q100 0 159 -48t59 -137q0 -95 -47.5 -163.5t-134.5 -105.5q31 -37 59 -102t41 -130q6 -33 6 -36q0 -28 -31 -28h-59q-38 0 -43 36q-13 67 -39 130t-57 94h-135l-48 -224q-8 -36 -44 -36h-55q-31 0 -31 26q0 7 2 15zM393 646h-107l-59 -281
h98q83 0 133.5 49.5t50.5 135.5q0 96 -116 96z" />
    <glyph glyph-name="S" unicode="S" horiz-adv-x="559" 
d="M514 628q-65 25 -132 25h-28q-66 0 -107.5 -27.5t-41.5 -80.5q0 -33 19 -52t55 -35l92 -40q141 -61 141 -189q0 -112 -78.5 -174.5t-214.5 -62.5h-33q-75 0 -160 27q-28 8 -28 33q0 7 9 49q7 28 28 28q8 0 13 -2q78 -30 157 -30h26q65 0 105.5 31.5t40.5 88.5
q0 38 -22.5 60t-67.5 41l-87 38q-53 24 -90.5 68.5t-37.5 111.5q0 106 83.5 164t212.5 58h23q73 0 145 -25q29 -9 29 -33q0 -6 -8 -45q-7 -30 -31 -30q-4 0 -12 3z" />
    <glyph glyph-name="T" unicode="T" horiz-adv-x="581" 
d="M115 644q-29 0 -29 26q0 6 8 42q8 35 45 38h496q29 0 29 -26q0 -6 -8 -42q-7 -35 -45 -38h-179l-129 -608q-8 -36 -44 -36h-56q-30 0 -30 26q0 7 2 15l128 603h-188z" />
    <glyph glyph-name="U" unicode="U" horiz-adv-x="738" 
d="M742 709l-94 -438q-59 -279 -345 -279q-108 0 -173.5 48.5t-65.5 146.5q0 43 15 111l89 416q8 36 44 36h56q30 0 30 -26q0 -7 -2 -15l-89 -415q-13 -60 -13 -87q0 -108 131 -108q76 0 127 46.5t69 127.5l93 441q8 36 44 36h56q30 0 30 -26q0 -7 -2 -15z" />
    <glyph glyph-name="V" unicode="V" horiz-adv-x="684" 
d="M620 714q15 36 46 36h59q29 0 29 -21q0 -7 -3 -15q-77 -196 -187.5 -398.5t-197.5 -315.5h-163q-34 131 -62.5 323t-31.5 391q0 36 36 36h61q17 0 27.5 -10t10.5 -26q1 -157 21 -324.5t46 -282.5q79 117 163 282t146 325z" />
    <glyph glyph-name="W" unicode="W" horiz-adv-x="1064" 
d="M984 714q13 36 46 36h56q28 0 28 -23q0 -2 -9 -32q-75 -204 -169 -393t-170 -302h-164q-42 205 -42 444q-50 -125 -116 -248t-116 -196h-165q-21 83 -36 224t-15 275q0 130 4 215q2 36 36 36h62q17 0 27 -8.5t10 -23.5q0 -10 -0.5 -22t-1.5 -27t-1 -24q-3 -73 -3 -146
q0 -225 29 -392q66 101 143.5 266t143.5 341q13 36 45 36h40q34 0 34 -34q0 -12 -2 -36q-6 -126 -6 -182q0 -215 31 -391q68 110 146.5 277t134.5 330z" />
    <glyph glyph-name="X" unicode="X" horiz-adv-x="645" 
d="M411 36l-102 237l-199 -237q-31 -36 -58 -36h-67q-24 0 -24 15q0 7 11 21l290 345l-142 333q-3 8 -3 13q0 10 9.5 16.5t23.5 6.5h68q27 0 43 -36l95 -221l186 221q30 36 59 36h66q23 0 23 -15q0 -8 -10 -21l-277 -329l151 -349q3 -7 3 -13q0 -10 -9.5 -16.5t-23.5 -6.5
h-75q-15 0 -22 8t-16 28z" />
    <glyph glyph-name="Y" unicode="Y" horiz-adv-x="649" 
d="M203 41l56 258l-126 381q-13 38 -13 46q0 24 31 24h58q32 0 43 -36l99 -306l227 306q28 36 55 36h56q26 0 26 -17q0 -7 -9 -19l-318 -412l-57 -266q-8 -36 -44 -36h-56q-30 0 -30 26q0 7 2 15z" />
    <glyph glyph-name="Z" unicode="Z" horiz-adv-x="600" 
d="M460 642h-314q-30 0 -30 26q0 14 7 46q8 36 45 36h444q30 0 30 -27q0 -11 -3 -20q-2 -10 -12 -25q-99 -151 -228 -315.5t-217 -254.5h318q29 0 29 -26q0 -14 -7 -46q-6 -36 -44 -36h-464q-30 0 -30 26q0 6 4 25q4 17 19 34q336 369 453 557z" />
    <glyph glyph-name="bracketleft" unicode="[" horiz-adv-x="409" 
d="M220 750h188q27 0 27 -21q0 -7 -6 -36q-6 -31 -39 -31h-102l-146 -699h99q27 0 27 -23q0 -5 -6 -34q-6 -31 -39 -31h-189q-29 0 -29 26q0 6 1 10l170 803q8 36 44 36z" />
    <glyph glyph-name="backslash" unicode="\" horiz-adv-x="534" 
d="M294 -89l-163 796q-3 12 -3 16q0 27 32 27h42q33 0 41 -36l163 -796q0 -2 1.5 -8t1.5 -8q0 -27 -33 -27h-42q-32 0 -40 36z" />
    <glyph glyph-name="bracketright" unicode="]" horiz-adv-x="411" 
d="M186 750h188q29 0 29 -26q0 -7 -3 -19l-169 -794q-7 -36 -44 -36h-188q-25 0 -25 21q0 6 6 36q8 31 38 31h102l147 699h-101q-26 0 -26 21q0 6 6 36q8 31 40 31z" />
    <glyph glyph-name="asciicircum" unicode="^" 
d="M423 511l112 -365q2 -8 2 -10q0 -12 -9.5 -19.5t-23.5 -7.5h-46q-28 0 -39 37l-81 284l-199 -284q-26 -37 -55 -37h-46q-24 0 -24 17q0 7 8 20l267 365q28 36 56 36h38q29 0 40 -36z" />
    <glyph glyph-name="underscore" unicode="_" horiz-adv-x="576" 
d="M450 -104h-491q-29 0 -29 27q0 7 7 41q2 16 14.5 26t29.5 10h492q29 0 29 -26q0 -7 -7 -41q-6 -37 -45 -37z" />
    <glyph glyph-name="grave" unicode="`" horiz-adv-x="233" 
d="M200 661l-102 84q-18 15 -18 25q0 11 22 11h71q34 0 59 -36l62 -84q11 -16 11 -21q0 -15 -24 -15h-13q-11 0 -23 5t-19 10.5t-26 20.5z" />
    <glyph glyph-name="a" unicode="a" horiz-adv-x="615" 
d="M579 507l-100 -471q-8 -36 -44 -36h-51q-30 0 -30 26q0 12 1 15l12 55l-47 -36q-87 -68 -166 -68q-62 0 -98 32.5t-36 93.5q0 30 12 85l15 70q28 136 114.5 205t221.5 69h168q30 0 30 -26q0 -6 -2 -14zM199 99q49 0 138 66l53 39l51 239h-74q-81 0 -127.5 -39.5
t-67.5 -127.5l-15 -60q-10 -45 -10 -67q0 -27 12.5 -38.5t39.5 -11.5z" />
    <glyph glyph-name="b" unicode="b" horiz-adv-x="629" 
d="M296 710l-56 -260l49 37q92 68 166 68q62 0 98 -32.5t36 -93.5q0 -30 -12 -85l-15 -71q-29 -136 -115.5 -204.5t-220.5 -68.5h-168q-31 0 -31 26q0 9 2 15l144 673q8 36 44 36h51q30 0 30 -26q0 -6 -2 -14zM272 382l-55 -41l-51 -238l1 1h74q83 0 130 39.5t66 127.5
l14 60q11 49 11 66q0 28 -12 39.5t-40 11.5q-22 0 -50 -12t-43.5 -22.5t-44.5 -31.5z" />
    <glyph glyph-name="c" unicode="c" horiz-adv-x="531" 
d="M385 397l8 40q-30 15 -69 15q-61 0 -96 -31t-50 -104l-18 -82q-10 -50 -10 -65q0 -45 25.5 -60t79.5 -15q73 0 127 23q9 4 17 4q16 0 16 -16q0 -6 -3 -15l-7 -32q-4 -17 -12.5 -26t-26.5 -15q-70 -26 -137 -26q-205 0 -205 153q0 33 13 85l20 90q50 235 290 235
q45 0 92.5 -11t76.5 -28l-28 -123q-8 -37 -44 -37h-31q-30 0 -30 27q0 10 2 14z" />
    <glyph glyph-name="d" unicode="d" horiz-adv-x="616" 
d="M623 710l-144 -674q-8 -36 -43 -36h-51q-31 0 -31 26q0 9 2 15l12 56l-48 -37q-87 -68 -166 -68q-62 0 -98 32.5t-36 93.5q0 30 12 85l15 70q28 136 114.5 205t221.5 69h81l36 167q8 36 44 36h51q30 0 30 -26q0 -6 -2 -14zM199 99q49 0 138 66l54 40l51 238h-75
q-81 0 -127.5 -39.5t-67.5 -127.5l-15 -60q-10 -45 -10 -67q0 -27 12.5 -38.5t39.5 -11.5z" />
    <glyph glyph-name="e" unicode="e" horiz-adv-x="566" 
d="M385 17q-75 -25 -159 -25q-202 0 -202 155q0 30 11 78l22 95q26 118 103 176.5t193 58.5q79 0 130 -34.5t51 -103.5q0 -92 -62.5 -135t-167.5 -43h-143l-1 -6q-10 -40 -10 -64q0 -44 26.5 -59t78.5 -15q78 0 144 22q11 3 17 3q16 0 16 -16q0 -10 -2 -16l-6 -30
q-5 -31 -39 -41zM180 322l-1 -4h131q106 0 106 82q0 55 -85 55q-61 0 -98.5 -30.5t-52.5 -102.5z" />
    <glyph glyph-name="f" unicode="f" horiz-adv-x="353" 
d="M47 41l86 402h-50q-30 0 -30 27q0 6 2 14l6 27q7 36 44 36h51l4 19q19 90 77.5 137t148.5 47h47q29 0 29 -26q0 -5 -2 -13l-5 -22q-8 -36 -44 -36h-22q-87 0 -107 -91l-3 -15h84q31 0 31 -26q0 -6 -2 -14l-6 -28q-10 -36 -45 -36h-85l-86 -407q-8 -36 -44 -36h-51
q-30 0 -30 26q0 9 2 15z" />
    <glyph glyph-name="g" unicode="g" horiz-adv-x="611" 
d="M575 507l-92 -433q-29 -137 -113 -199.5t-233 -62.5h-90q-30 0 -30 27q0 7 2 15l5 26q8 36 45 36h67q103 0 154.5 36t68.5 116l6 32q-116 -69 -198 -69q-139 0 -139 137q0 35 8 65l14 60q58 254 311 254h186q30 0 30 -26q0 -6 -2 -14zM214 138q61 0 172 60l52 245h-94
q-76 0 -117 -39t-57 -119l-10 -47q-7 -26 -7 -41q0 -33 14 -46t47 -13z" />
    <glyph glyph-name="h" unicode="h" horiz-adv-x="646" 
d="M382 41l64 305q8 34 8 53q0 27 -11.5 38t-37.5 11q-43 0 -144 -75l-42 -31h-2l-65 -306q-8 -36 -44 -36h-50q-31 0 -31 26q0 9 2 15l144 673q8 36 44 36h51q30 0 30 -26q0 -6 -2 -14l-56 -261l42 32q97 74 176 74q58 0 91.5 -29.5t33.5 -85.5q0 -33 -8 -71l-70 -333
q-8 -36 -44 -36h-51q-30 0 -30 26q0 9 2 15z" />
    <glyph glyph-name="i" unicode="i" horiz-adv-x="296" 
d="M260 507l-101 -471q-8 -36 -44 -36h-51q-30 0 -30 26q0 9 2 15l86 402h-51q-29 0 -29 27q0 2 3 17l4 24q7 36 45 36h137q31 0 31 -26q0 -6 -2 -14zM302 709l-7 -35q-6 -36 -44 -36h-51q-30 0 -30 26q0 9 2 15l7 35q8 36 44 36h50q31 0 31 -26q0 -9 -2 -15z" />
    <glyph glyph-name="j" unicode="j" horiz-adv-x="302" 
d="M-109 -188h-11q-29 0 -29 27q0 5 3 17l3 24q7 36 45 36q62 0 95.5 33.5t47.5 100.5l84 393h-51q-29 0 -29 27q0 2 3 17l4 24q7 36 45 36h137q30 0 30 -26q0 -6 -1 -10l-98 -459q-51 -240 -278 -240zM309 709l-7 -35q-6 -36 -44 -36h-51q-30 0 -30 26q0 9 2 15l7 35
q7 36 43 36h51q31 0 31 -26q0 -9 -2 -15z" />
    <glyph glyph-name="k" unicode="k" horiz-adv-x="571" 
d="M296 710l-78 -364h48l173 165q39 36 63 36h71q24 0 24 -14q0 -9 -14 -22l-226 -210l133 -265q4 -7 4 -15q0 -21 -29 -21h-70q-29 0 -47 36l-104 206h-48l-44 -206q-8 -36 -44 -36h-50q-31 0 -31 26q0 9 2 15l144 673q8 36 44 36h51q30 0 30 -26q0 -6 -2 -14z" />
    <glyph glyph-name="l" unicode="l" horiz-adv-x="295" 
d="M302 710l-144 -674q-8 -36 -44 -36h-51q-30 0 -30 26q0 9 2 15l129 605h-50q-30 0 -30 27q0 8 2 14l6 27q8 36 45 36h136q31 0 31 -26q0 -6 -2 -14z" />
    <glyph glyph-name="m" unicode="m" horiz-adv-x="985" 
d="M376 41l64 305q8 34 8 53q0 27 -10.5 38t-37.5 11q-40 0 -141 -75l-42 -31l-65 -306q-8 -36 -44 -36h-50q-31 0 -31 26q0 9 2 15l101 470q8 36 44 36h51q30 0 30 -26q0 -6 -2 -14l-12 -56l39 30q97 74 173 74q56 0 89 -28t35 -81h3l46 35q96 74 173 74q58 0 91 -29.5
t33 -85.5q0 -33 -8 -71l-70 -333q-8 -36 -44 -36h-51q-30 0 -30 26q0 9 2 15l64 305q8 34 8 53q0 27 -11 38t-37 11q-39 0 -134 -69q-5 -4 -8 -6l-41 -30l-64 -307q-8 -36 -44 -36h-51q-30 0 -30 26q0 9 2 15z" />
    <glyph glyph-name="n" unicode="n" horiz-adv-x="645" 
d="M380 41l64 305q8 34 8 53q0 27 -11.5 38t-37.5 11q-43 0 -144 -75l-42 -31l-65 -306q-8 -36 -44 -36h-50q-31 0 -31 26q0 9 2 15l101 470q8 36 44 36h51q30 0 30 -26q0 -6 -2 -14l-12 -56l39 30q97 74 176 74q58 0 91.5 -29.5t33.5 -85.5q0 -33 -8 -71l-70 -333
q-8 -36 -44 -36h-51q-30 0 -30 26q0 9 2 15z" />
    <glyph glyph-name="o" unicode="o" horiz-adv-x="612" 
d="M238 -8q-95 0 -152.5 50t-57.5 142q0 158 91.5 264.5t238.5 106.5q99 0 154.5 -48.5t55.5 -143.5q0 -159 -88.5 -265t-241.5 -106zM260 95q80 0 131.5 76t51.5 172q0 58 -25 83.5t-81 25.5q-82 0 -133 -75t-51 -173q0 -56 26 -82.5t81 -26.5z" />
    <glyph glyph-name="p" unicode="p" horiz-adv-x="630" 
d="M253 507l-12 -57l48 37q90 68 166 68q62 0 98 -32.5t36 -93.5q0 -25 -13 -85l-14 -71q-29 -136 -115.5 -204.5t-220.5 -68.5h-81l-32 -151q-8 -37 -44 -37h-50q-31 0 -31 27q0 9 2 15l140 657q8 36 44 36h51q30 0 30 -26q0 -6 -2 -14zM271 382l-54 -42l-50 -236h74
q82 0 129.5 39.5t66.5 127.5l14 60q11 49 11 66q0 28 -12 39.5t-40 11.5q-51 0 -139 -66z" />
    <glyph glyph-name="q" unicode="q" horiz-adv-x="616" 
d="M580 507l-140 -658q-6 -37 -44 -37h-50q-31 0 -31 27q0 9 2 15l52 243l-49 -37q-87 -68 -166 -68q-62 0 -98 32.5t-36 93.5q0 30 12 85l15 70q28 136 114.5 205t221.5 69h169q30 0 30 -26q0 -6 -2 -14zM199 99q49 0 138 66l55 40l50 238h-75q-81 0 -127.5 -39.5
t-67.5 -127.5l-15 -60q-10 -45 -10 -67q0 -27 12.5 -38.5t39.5 -11.5z" />
    <glyph glyph-name="r" unicode="r" horiz-adv-x="420" 
d="M418 550h4q29 0 29 -27q0 -6 -1 -9l-9 -44q-6 -36 -45 -36h-9q-35 0 -68.5 -14.5t-50 -27t-48.5 -40.5l-64 -299q-6 -27 -16 -40t-31 -13h-51q-31 0 -31 25q0 3 5 28l95 440q6 27 16 40.5t32 13.5h51q29 0 29 -26q0 -9 -14 -73q37 44 85 73t92 29z" />
    <glyph glyph-name="s" unicode="s" horiz-adv-x="505" 
d="M442 545q28 -3 28 -27q0 -4 -2 -18l-5 -25q-6 -33 -35 -33q-4 0 -12.5 1.5t-20 3t-16.5 2.5q-38 5 -75 5q-115 0 -115 -64q0 -22 13.5 -33t40.5 -19l76 -24q60 -18 93.5 -49t33.5 -93q0 -50 -23.5 -86t-65 -56t-89 -29t-103.5 -9q-64 0 -133 12q-28 5 -28 30q0 10 3 20
l5 22q6 31 34 31q5 0 32 -5q49 -9 105 -9q134 0 134 70q0 17 -10 28.5t-19.5 15.5t-28.5 10l-82 26q-55 18 -85.5 48t-30.5 89q0 60 38.5 101t94 57.5t124.5 16.5q48 0 124 -10z" />
    <glyph glyph-name="t" unicode="t" horiz-adv-x="405" 
d="M292 0h-49q-76 0 -121.5 37t-45.5 109q0 29 8 63l50 234h-51q-30 0 -30 27q0 6 2 14l6 27q7 36 44 36h52l21 96q8 36 43 36h50q31 0 31 -27q0 -7 -2 -15l-20 -90h103q30 0 30 -26q0 -6 -2 -14l-6 -28q-10 -36 -45 -36h-102l-46 -219q-10 -42 -10 -58q0 -38 20 -51.5
t69 -13.5h23q31 0 31 -27q0 -7 -2 -13l-6 -25q-10 -36 -45 -36z" />
    <glyph glyph-name="u" unicode="u" horiz-adv-x="633" 
d="M247 506l-64 -305q-8 -34 -8 -54q0 -26 11.5 -37t37.5 -11q43 0 144 75l41 30l66 307q7 36 44 36h50q31 0 31 -26q0 -9 -2 -15l-101 -470q-8 -36 -44 -36h-51q-30 0 -30 26q0 6 2 14l12 55l-39 -30q-98 -73 -176 -73q-58 0 -91.5 29.5t-33.5 84.5q0 34 8 72l70 333
q8 36 44 36h51q30 0 30 -26q0 -9 -2 -15z" />
    <glyph glyph-name="v" unicode="v" horiz-adv-x="547" 
d="M545 506l-21 -90q-31 -139 -101 -245.5t-151 -170.5h-134q-34 52 -58 133t-24 168q0 60 11 117l20 93q8 36 44 36h50q30 0 30 -26q0 -9 -2 -15l-20 -93q-11 -55 -11 -112q0 -64 14 -123t36 -93q49 40 100 134t73 197l21 95q8 36 44 36h51q30 0 30 -26q0 -9 -2 -15z" />
    <glyph glyph-name="w" unicode="w" horiz-adv-x="810" 
d="M804 506l-23 -100q-29 -126 -93 -237t-134 -169h-132q-18 28 -34.5 76.5t-18.5 86.5q-15 -35 -56 -86t-69 -77h-136q-61 99 -61 258q0 63 15 148l20 105q8 36 44 36h51q30 0 30 -26q0 -9 -2 -15l-19 -100q-16 -76 -16 -148q0 -113 36 -173q51 51 93.5 138t60.5 183
l21 105q8 36 44 36h51q30 0 30 -26q0 -9 -2 -15l-20 -100q-15 -87 -15 -148q0 -121 34 -173q49 49 90.5 135.5t63.5 185.5l24 105q8 36 44 36h50q31 0 31 -26q0 -9 -2 -15z" />
    <glyph glyph-name="x" unicode="x" horiz-adv-x="493" 
d="M271 36l-62 139l-122 -139q-33 -36 -58 -36h-61q-25 0 -25 16q0 9 10 20l211 240l-105 235q-4 8 -4 13q0 23 29 23h55q31 0 47 -36l62 -140l122 140q33 36 59 36h60q25 0 25 -16q0 -7 -11 -20l-210 -241l104 -234q4 -8 4 -15q0 -21 -30 -21h-55q-30 0 -45 36z" />
    <glyph glyph-name="y" unicode="y" horiz-adv-x="632" 
d="M245 506l-44 -204q-14 -63 -14 -80q0 -31 14 -42t48 -11q64 0 161 50l63 292q8 36 44 36h50q31 0 31 -26q0 -9 -2 -15l-93 -432q-29 -134 -111 -198t-234 -64h-86q-30 0 -30 27q0 7 2 15l5 23q8 36 45 36h64q105 0 154.5 38t66.5 119l11 55q-117 -62 -191 -62
q-139 0 -139 132q0 27 12 84l50 232q8 36 44 36h51q30 0 30 -26q0 -9 -2 -15z" />
    <glyph glyph-name="z" unicode="z" horiz-adv-x="511" 
d="M372 0h-364q-29 0 -29 27q0 11 1 14l3 16q4 21 30 44q84 73 179.5 168.5t157.5 173.5h-236q-30 0 -30 27q0 6 2 14l6 27q8 36 45 36h343q31 0 31 -26q0 -7 -2 -15l-3 -13q-6 -27 -24 -53q-50 -72 -152.5 -177.5t-171.5 -158.5h237q30 0 30 -27q0 -7 -2 -15l-6 -26
q-8 -36 -45 -36z" />
    <glyph glyph-name="braceleft" unicode="{" horiz-adv-x="493" 
d="M338 -125h-26q-88 0 -127 27.5t-39 91.5q0 36 8 71l20 94q4 16 4 32q0 33 -22.5 52t-72.5 28q-21 1 -21 20q0 5 5 35q4 25 35 28q64 10 95.5 36t41.5 75l20 94q22 104 76.5 147.5t163.5 43.5h25q27 0 27 -21q0 -6 -7 -36q-7 -31 -38 -31h-15q-52 0 -74.5 -21t-33.5 -80
l-21 -100q-14 -68 -55.5 -101.5t-104.5 -46.5q102 -23 102 -108q0 -16 -5 -41l-22 -101q-6 -30 -6 -49q0 -28 16 -39.5t55 -11.5h14q28 0 28 -22q0 -5 -7 -35q-7 -31 -39 -31z" />
    <glyph glyph-name="bar" unicode="|" horiz-adv-x="312" 
d="M4 -151l197 928q8 36 44 36h34q30 0 30 -25q0 -7 -1 -11l-198 -928q-8 -37 -44 -37h-34q-29 0 -29 27q0 6 1 10z" />
    <glyph glyph-name="braceright" unicode="}" horiz-adv-x="493" 
d="M-8 -125h-25q-27 0 -27 21q0 6 7 36q8 31 38 31h14q52 0 73.5 20.5t33.5 79.5l22 101q14 68 55.5 101.5t105.5 47.5q-102 23 -102 107q0 21 4 41l21 100q7 35 7 51q0 28 -16 39t-55 11h-14q-28 0 -28 21q0 6 7 36q8 31 39 31h26q88 0 127.5 -28t39.5 -91q0 -31 -9 -72
l-20 -94q-4 -16 -4 -32q0 -33 22.5 -52t72.5 -27q22 -3 22 -21q0 -7 -6 -34q-6 -26 -34 -29q-65 -10 -96 -36t-42 -75l-20 -94q-21 -103 -75.5 -146.5t-163.5 -43.5z" />
    <glyph glyph-name="asciitilde" unicode="~" 
d="M487 277q-41 -28 -87 -28q-37 0 -102 33t-91 33q-47 0 -83 -30q-17 -13 -25 -13q-10 0 -10 13q0 6 1 10l8 38q7 30 48 58q46 28 87 28q37 0 103 -33t91 -33q50 0 82 27q17 13 25 13q10 0 10 -14q0 -6 -1 -9l-7 -35q-5 -28 -49 -58z" />
    <glyph glyph-name="exclamdown" unicode="&#xa1;" horiz-adv-x="297" 
d="M32 36l106 451q8 32 40 32h36q25 0 25 -22q0 -9 -2 -17l-83 -444q-7 -36 -44 -36h-49q-30 0 -30 25q0 7 1 11zM214 750h55q31 0 31 -25q0 -3 -2 -11l-13 -53q-10 -36 -44 -36h-54q-32 0 -32 25q0 3 2 11l13 53q10 36 44 36z" />
    <glyph glyph-name="cent" unicode="&#xa2;" 
d="M629 733q29 -10 29 -33q0 -6 -9 -43q-7 -31 -32 -31q-4 0 -13 2.5t-22 6.5t-20 6q-57 12 -102 12q-211 0 -260 -231l-19 -91q-10 -48 -10 -83q0 -78 38.5 -114.5t119.5 -36.5h47q48 0 108 16q32 10 41 10q18 0 18 -20q0 -7 -8 -46q-6 -32 -46 -43q-49 -16 -112 -21
l-18 -82q-8 -36 -43 -36h-26q-30 0 -30 26q0 9 2 15l15 77q-116 7 -178 67.5t-62 176.5q0 41 12 94l17 86q63 306 351 338l16 76q6 36 44 36h25q30 0 30 -26q0 -7 -2 -15l-14 -70q57 -3 113 -23z" />
    <glyph glyph-name="sterling" unicode="&#xa3;" horiz-adv-x="626" 
d="M453 0h-426q-29 0 -29 26q0 6 9 46q8 36 44 36h14q69 43 93 155l15 72h-51q-29 0 -29 25q0 7 9 48q6 36 44 36h51l14 63q29 131 104 187t199 56h97q31 0 31 -26q0 -6 -9 -46q-7 -36 -45 -36h-84q-69 0 -108.5 -31.5t-58.5 -111.5l-13 -55h170q29 0 29 -26q0 -6 -9 -47
q-8 -36 -45 -36h-168l-15 -72q-24 -112 -93 -155h284q29 0 29 -25q0 -7 -9 -47q-8 -36 -44 -36z" />
    <glyph glyph-name="currency" unicode="&#xa4;" horiz-adv-x="500" 
d="M256 534h1q70 0 115 -40l71 75l45 -46l-79 -71q35 -47 35 -118q0 -76 -35 -122l75 -74l-44 -44l-69 76q-45 -42 -117 -42q-71 0 -114 40l-67 -74l-43 44l72 70q-37 50 -37 121q0 73 39 123l-76 71l45 46l68 -76q48 41 115 41zM255 471h-1q-53 0 -85.5 -40.5t-32.5 -100.5
q0 -67 36.5 -103t81.5 -36q48 0 83.5 35.5t35.5 106.5q0 56 -31.5 97t-86.5 41z" />
    <glyph glyph-name="yen" unicode="&#xa5;" 
d="M494 160h-148l-27 -124q-8 -36 -43 -36h-56q-30 0 -30 26q0 6 1 10l27 124h-149q-29 0 -29 26q0 6 9 47q8 37 45 37h148l9 42l-133 402q-2 8 -2 12q0 24 32 24h60q31 0 42 -36l93 -293l214 293q26 36 53 36h57q25 0 25 -18q0 -7 -7 -18l-306 -400l-10 -44h151
q29 0 29 -27q0 -6 -10 -47q-8 -36 -45 -36z" />
    <glyph glyph-name="brokenbar" unicode="&#xa6;" horiz-adv-x="312" 
d="M4 -151l70 334q8 36 44 36h34q30 0 30 -26q0 -6 -1 -10l-71 -334q-8 -37 -44 -37h-34q-29 0 -29 27q0 6 1 10zM131 443l70 334q8 36 44 36h34q30 0 30 -25q0 -7 -1 -11l-71 -334q-8 -36 -44 -36h-34q-29 0 -29 27q0 5 1 9z" />
    <glyph glyph-name="section" unicode="&#xa7;" horiz-adv-x="529" 
d="M94 310l203 -132q98 -64 98 -160q0 -104 -71.5 -155t-186.5 -51h-163q-30 0 -30 26q0 7 9 47q8 36 44 36h159q105 0 105 88q0 44 -45 75l-147 100q-29 19 -29 42q0 5 13 65q5 25 22 25q9 0 19 -6zM422 252l-203 133q-97 63 -97 160q0 103 71 154t187 51h163q29 0 29 -25
q0 -7 -9 -47q-6 -36 -43 -36h-161q-50 0 -76.5 -22.5t-26.5 -65.5q0 -46 44 -75l147 -101q30 -21 30 -41q0 -6 -13 -66q-5 -26 -24 -26q-8 0 -18 7z" />
    <glyph glyph-name="dieresis" unicode="&#xa8;" horiz-adv-x="407" 
d="M203 643q-8 -37 -44 -37h-52q-29 0 -29 26q0 7 10 51q8 36 44 36h52q29 0 29 -27q0 -5 -10 -49zM463 643q-8 -37 -44 -37h-52q-29 0 -29 26q0 7 10 51q8 36 44 36h51q30 0 30 -27q0 -5 -10 -49z" />
    <glyph glyph-name="copyright" unicode="&#xa9;" horiz-adv-x="851" 
d="M435 16q-166 0 -277 102.5t-111 264.5t111 264.5t277 102.5t276 -102.5t110 -264.5t-110 -264.5t-276 -102.5zM435 76q142 0 226.5 85.5t84.5 221.5q0 135 -84.5 220.5t-226.5 85.5q-143 0 -228.5 -85.5t-85.5 -220.5t85.5 -221t228.5 -86zM549 189q-43 -9 -75 -9
q-101 0 -168.5 49.5t-67.5 153.5q0 71 34.5 118t85.5 66t115 19q34 0 76 -11q19 -6 19 -22v-12q0 -17 -11 -17q-5 0 -8 1q-42 11 -76 11q-66 0 -107 -38.5t-41 -114.5t41.5 -115t107.5 -39q35 0 75 10q3 1 8 1q11 0 11 -16v-12q0 -17 -19 -23z" />
    <glyph glyph-name="ordfeminine" unicode="&#xaa;" horiz-adv-x="537" 
d="M559 718l-87 -364q-7 -27 -38 -27h-43q-27 0 -27 21q0 6 2 10l10 43l-40 -28q-77 -52 -143 -52q-54 0 -85 25t-31 72q0 18 11 65l13 55q49 210 289 210h144q26 0 26 -20q0 -7 -1 -10zM231 403q40 0 119 51l46 31l43 184h-63q-69 0 -109.5 -31t-58.5 -98l-13 -47
q-8 -37 -8 -51q0 -21 10.5 -30t33.5 -9z" />
    <glyph glyph-name="guillemotleft" unicode="&#xab;" horiz-adv-x="585" 
d="M208 146l-120 121q-26 24 -26 44q0 5 7 40q6 26 48 54l171 120q14 9 22 9q12 0 12 -16q0 -6 -10 -52q-2 -11 -9.5 -21t-14 -15t-24.5 -18l-110 -76l78 -77q26 -24 26 -43q0 -7 -10 -53q-5 -25 -22 -25q-8 0 -18 8zM458 146l-120 121q-26 24 -26 44q0 5 7 40q6 26 48 54
l171 120q14 9 22 9q12 0 12 -16q0 -6 -10 -52q-2 -11 -9.5 -21t-14 -15t-24.5 -18l-110 -76l78 -77q26 -24 26 -43q0 -7 -10 -53q-5 -25 -22 -25q-8 0 -18 8z" />
    <glyph glyph-name="logicalnot" unicode="&#xac;" 
d="M546 362l-38 -177q-8 -37 -44 -37h-33q-30 0 -30 26q0 7 1 11l27 130h-294q-31 0 -31 27q0 6 1 10l7 31q8 36 45 36h364q30 0 30 -25q0 -7 -1 -11l-3 -14q0 -1 -0.5 -3t-0.5 -4z" />
    <glyph glyph-name="registered" unicode="&#xae;" horiz-adv-x="851" 
d="M435 16q-166 0 -277 102.5t-111 264.5t111 264.5t277 102.5t276 -102.5t110 -264.5t-110 -264.5t-276 -102.5zM435 76q142 0 226.5 85.5t84.5 221.5q0 135 -84.5 220.5t-226.5 85.5q-143 0 -228.5 -85.5t-85.5 -220.5t85.5 -221t228.5 -86zM368 370h48q36 0 60 23t24 68
q0 38 -23.5 56.5t-60.5 18.5h-48v-166zM309 586h112q166 0 166 -125q0 -41 -22 -71.5t-60 -41.5l83 -142q4 -7 4 -12q0 -14 -21 -14h-41q-22 0 -37 26l-62 112h-63v-112q0 -26 -27 -26h-32q-28 0 -28 26v354q0 26 28 26z" />
    <glyph glyph-name="macron" unicode="&#xaf;" horiz-adv-x="321" 
d="M384 661q-10 -36 -44 -36h-231q-30 0 -30 24q0 4 5 24q10 36 44 36h230q31 0 31 -25q0 -3 -5 -23z" />
    <glyph glyph-name="macron" unicode="&#x2c9;" horiz-adv-x="321" 
d="M384 661q-10 -36 -44 -36h-231q-30 0 -30 24q0 4 5 24q10 36 44 36h230q31 0 31 -25q0 -3 -5 -23z" />
    <glyph glyph-name="degree" unicode="&#xb0;" horiz-adv-x="496" 
d="M243 320q-139 0 -139 130q0 55 15 107.5t44 97.5t77 72.5t107 27.5q140 0 140 -131q0 -55 -14.5 -107.5t-43 -97.5t-77 -72t-109.5 -27zM257 391q59 0 95.5 73t36.5 158q0 62 -55 62q-59 0 -95.5 -73t-36.5 -158q0 -62 55 -62z" />
    <glyph glyph-name="plusminus" unicode="&#xb1;" 
d="M416 550l-28 -131h130q29 0 29 -26q0 -6 -1 -10l-7 -31q-8 -37 -45 -37h-128l-28 -130q-8 -37 -44 -37h-33q-30 0 -30 27q0 6 1 10l28 130h-130q-30 0 -30 27q0 6 1 10l6 31q8 36 45 36h130l29 131q7 36 43 36h33q30 0 30 -26q0 -6 -1 -10zM406 -104h-364q-30 0 -30 27
q0 6 1 10l7 31q7 36 43 36h366q29 0 29 -25q0 -7 -1 -11l-7 -31q-8 -37 -44 -37z" />
    <glyph glyph-name="twosuperior" unicode="&#xb2;" horiz-adv-x="419" 
d="M347 324h-265q-29 0 -29 22q0 5 9 44q19 81 123 130l69 32q44 20 63.5 39.5t19.5 47.5q0 39 -68 39h-108q-27 0 -27 21q0 5 5 25q7 26 36 26h118q65 0 104.5 -29t39.5 -76q0 -52 -36.5 -86.5t-110.5 -69.5l-54 -25q-34 -17 -50.5 -31.5t-22.5 -36.5h198q28 0 28 -20
q0 -6 -6 -26q-7 -26 -36 -26z" />
    <glyph glyph-name="threesuperior" unicode="&#xb3;" horiz-adv-x="422" 
d="M209 324h-113q-29 0 -29 23q0 5 5 25q6 24 36 24h109q103 0 103 73q0 21 -21 32t-53 11h-48q-27 0 -27 21q0 5 4 22q6 24 36 24h75q64 28 64 66q0 33 -65 33h-108q-28 0 -28 21q0 5 5 25q7 26 37 26h115q66 0 104.5 -23t38.5 -71q0 -70 -81 -103q50 -31 50 -84
q0 -69 -55.5 -107t-153.5 -38z" />
    <glyph glyph-name="acute" unicode="&#xb4;" horiz-adv-x="294" 
d="M315 745l-102 -84q-17 -14 -25.5 -20t-19.5 -11t-22 -5h-29q-23 0 -23 15q0 8 10 21l78 84q31 36 59 36h71q21 0 21 -11q0 -10 -18 -25z" />
    <glyph glyph-name="mu" unicode="&#xb5;" horiz-adv-x="639" 
d="M-11 -146l141 657q8 36 44 36h51q30 0 30 -26q0 -9 -2 -15l-68 -319q-4 -13 -4 -28q0 -61 74 -61q39 0 121 59q20 13 34 26l70 328q8 36 44 36h51q30 0 30 -26q0 -1 -0.5 -7t-0.5 -8l-78 -358q-9 -46 -9 -86q0 -6 0.5 -16.5t0.5 -13.5q0 -15 -10.5 -23.5t-27.5 -8.5h-51
q-36 0 -36 55v28q-19 -19 -41 -33q-68 -50 -139 -50q-43 0 -66 14l-35 -165q-8 -37 -44 -37h-50q-31 0 -31 27q0 9 2 15z" />
    <glyph glyph-name="mu" unicode="&#x3bc;" horiz-adv-x="639" 
d="M-11 -146l141 657q8 36 44 36h51q30 0 30 -26q0 -9 -2 -15l-68 -319q-4 -13 -4 -28q0 -61 74 -61q39 0 121 59q20 13 34 26l70 328q8 36 44 36h51q30 0 30 -26q0 -1 -0.5 -7t-0.5 -8l-78 -358q-9 -46 -9 -86q0 -6 0.5 -16.5t0.5 -13.5q0 -15 -10.5 -23.5t-27.5 -8.5h-51
q-36 0 -36 55v28q-19 -19 -41 -33q-68 -50 -139 -50q-43 0 -66 14l-35 -165q-8 -37 -44 -37h-50q-31 0 -31 27q0 9 2 15z" />
    <glyph glyph-name="paragraph" unicode="&#xb6;" horiz-adv-x="783" 
d="M274 -151l73 338h-62q-104 0 -167 53.5t-63 154.5q0 89 29.5 158.5t79 111.5t111 63.5t130.5 21.5h149q29 0 29 -25q0 -7 -1 -11l-184 -865q-3 -17 -15 -27t-29 -10h-51q-30 0 -30 27q0 6 1 10zM474 -151l184 865q8 36 44 36h52q29 0 29 -26q0 -6 -1 -10l-184 -865
q-8 -37 -44 -37h-52q-29 0 -29 27q0 6 1 10z" />
    <glyph glyph-name="periodcentered" unicode="&#xb7;" horiz-adv-x="303" 
d="M174 297h-55q-31 0 -31 25q0 3 2 11l13 53q7 36 43 36h55q31 0 31 -26q0 -2 -2 -10l-12 -53q-8 -36 -44 -36z" />
    <glyph glyph-name="periodcentered" unicode="&#x2219;" horiz-adv-x="303" 
d="M174 297h-55q-31 0 -31 25q0 3 2 11l13 53q7 36 43 36h55q31 0 31 -26q0 -2 -2 -10l-12 -53q-8 -36 -44 -36z" />
    <glyph glyph-name="cedilla" unicode="&#xb8;" horiz-adv-x="242" 
d="M10 -188h-88q-25 0 -25 16q0 2 3 19q6 26 35 26h65q62 0 62 42q0 27 -39 50l3 12h66q20 -11 33 -30t13 -40q0 -45 -38.5 -69t-89.5 -26z" />
    <glyph glyph-name="onesuperior" unicode="&#xb9;" horiz-adv-x="422" 
d="M261 656l-107 -33q-5 -2 -12 -2q-17 0 -17 17q0 6 7 32q6 24 34 32l141 44q9 4 24 4h19q26 0 26 -20q0 -6 -1 -9l-93 -371q-7 -26 -35 -26h-36q-27 0 -27 22q0 7 1 9z" />
    <glyph glyph-name="ordmasculine" unicode="&#xba;" horiz-adv-x="544" 
d="M267 321q-82 0 -131.5 38.5t-49.5 109.5q0 121 78.5 203t204.5 82q85 0 133 -37t48 -111q0 -122 -76 -203.5t-207 -81.5zM285 400q69 0 113 58.5t44 132.5q0 44 -21.5 64.5t-68.5 20.5q-71 0 -115 -58t-44 -134q0 -84 92 -84z" />
    <glyph glyph-name="guillemotright" unicode="&#xbb;" horiz-adv-x="586" 
d="M136 525l120 -120q26 -26 26 -44q0 -6 -8 -40q-5 -26 -47 -54l-171 -121q-14 -8 -22 -8q-13 0 -13 16q0 6 10 52q2 11 10 21t14.5 15t24.5 18l109 76l-78 77q-25 25 -25 43q0 7 10 53q5 25 22 25q9 0 18 -9zM386 525l120 -120q26 -26 26 -44q0 -6 -8 -40q-5 -26 -47 -54
l-171 -121q-14 -8 -22 -8q-13 0 -13 16q0 6 10 52q2 11 10 21t14.5 15t24.5 18l109 76l-78 77q-25 25 -25 43q0 7 10 53q5 25 22 25q9 0 18 -9z" />
    <glyph glyph-name="onequarter" unicode="&#xbc;" horiz-adv-x="979" 
d="M281 29l343 692q16 29 40 29h13q24 0 24 -18q0 -5 -3 -11l-344 -692q-14 -29 -39 -29h-12q-26 0 -26 17q0 2 4 12zM232 656l-106 -33q-5 -2 -13 -2q-16 0 -16 17q0 6 7 32q4 23 34 32l140 44q11 4 25 4h18q27 0 27 -20q0 -6 -1 -9l-93 -371q-7 -26 -35 -26h-36
q-28 0 -28 22q0 7 1 9zM527 129q4 13 12 21q48 52 93.5 123t69.5 128q4 10 15 17.5t22 7.5h40q26 0 26 -18q0 -6 -3 -12q-42 -103 -161 -240h104l21 77q6 25 36 25h36q26 0 26 -20q0 -8 -3 -17l-16 -65h20q28 0 28 -20q0 -6 -6 -26q-8 -25 -37 -25h-24l-14 -60
q-2 -11 -12.5 -18t-23.5 -7h-36q-27 0 -27 22q0 4 1 7l14 56h-177q-29 0 -29 20q0 6 5 24z" />
    <glyph glyph-name="onehalf" unicode="&#xbd;" horiz-adv-x="979" 
d="M281 29l343 692q16 29 40 29h13q24 0 24 -18q0 -5 -3 -11l-344 -692q-14 -29 -39 -29h-12q-26 0 -26 17q0 2 4 12zM232 656l-106 -33q-5 -2 -13 -2q-16 0 -16 17q0 6 7 32q4 23 34 32l140 44q11 4 25 4h18q27 0 27 -20q0 -6 -1 -9l-93 -371q-7 -26 -35 -26h-36
q-28 0 -28 22q0 7 1 9zM825 0h-264q-30 0 -30 21q0 5 10 44q19 83 122 130l69 33q45 20 64 39t19 47q0 40 -68 40h-107q-28 0 -28 21q0 5 5 24q7 27 36 27h118q65 0 104.5 -29t39.5 -77q0 -51 -36 -85.5t-110 -69.5l-54 -25q-35 -17 -51.5 -31.5t-21.5 -36.5h198
q27 0 27 -20q0 -6 -6 -27q-7 -25 -36 -25z" />
    <glyph glyph-name="threequarters" unicode="&#xbe;" horiz-adv-x="979" 
d="M281 29l343 692q16 29 40 29h13q24 0 24 -18q0 -5 -3 -11l-344 -692q-14 -29 -39 -29h-12q-26 0 -26 17q0 2 4 12zM179 324h-114q-28 0 -28 23q0 5 5 25q6 24 36 24h109q103 0 103 73q0 21 -21 32t-53 11h-48q-27 0 -27 21q0 5 4 22q5 24 36 24h75q63 27 63 66
q0 33 -64 33h-109q-27 0 -27 21q0 5 5 25q7 26 37 26h114q66 0 105 -23t39 -71q0 -70 -81 -103q50 -31 50 -84q0 -69 -55.5 -107t-153.5 -38zM527 129q4 13 12 21q48 52 93.5 123t69.5 128q4 10 15 17.5t22 7.5h40q26 0 26 -18q0 -6 -3 -12q-42 -103 -161 -240h104l21 77
q6 25 36 25h36q26 0 26 -20q0 -8 -3 -17l-16 -65h20q28 0 28 -20q0 -6 -6 -26q-8 -25 -37 -25h-24l-14 -60q-2 -11 -12.5 -18t-23.5 -7h-36q-27 0 -27 22q0 4 1 7l14 56h-177q-29 0 -29 20q0 6 5 24z" />
    <glyph glyph-name="questiondown" unicode="&#xbf;" horiz-adv-x="435" 
d="M223 99h100q31 0 31 -26q0 -7 -6 -37q-7 -36 -44 -36h-121q-191 0 -191 146q0 59 30.5 105.5t97.5 106.5l100 89l10 54q8 36 45 36h45q32 0 32 -25q0 -2 -10 -49q-5 -21 -18 -31l-85 -82q-7 -7 -28.5 -27.5t-27.5 -26.5t-21 -22t-19.5 -24.5t-12.5 -22t-10 -26t-2 -26.5
q0 -76 105 -76zM312 750h51q32 0 32 -25q0 -3 -2 -11l-13 -53q-8 -36 -44 -36h-51q-31 0 -31 25q0 3 2 11l13 53q7 36 43 36z" />
    <glyph glyph-name="Agrave" unicode="&#xc0;" horiz-adv-x="700" 
d="M472 36q0 71 -5 159h-301q-29 -65 -66 -159q-15 -36 -48 -36h-58q-27 0 -27 21q0 6 3 15q81 207 195 415.5t191 298.5h157q33 -118 62 -321t31 -393q0 -36 -34 -36h-64q-36 0 -36 36zM410 648q-94 -133 -197 -348h246q-18 203 -49 348zM447 869l-102 84q-18 15 -18 25
q0 11 22 11h71q34 0 59 -36l62 -84q11 -16 11 -21q0 -15 -24 -15h-13q-11 0 -23 5t-19 10.5t-26 20.5z" />
    <glyph glyph-name="Aacute" unicode="&#xc1;" horiz-adv-x="700" 
d="M472 36q0 71 -5 159h-301q-29 -65 -66 -159q-15 -36 -48 -36h-58q-27 0 -27 21q0 6 3 15q81 207 195 415.5t191 298.5h157q33 -118 62 -321t31 -393q0 -36 -34 -36h-64q-36 0 -36 36zM410 648q-94 -133 -197 -348h246q-18 203 -49 348zM531 953l-102 -84
q-17 -14 -25.5 -20t-19.5 -11t-22 -5h-29q-23 0 -23 15q0 8 10 21l78 84q32 36 59 36h71q21 0 21 -11q0 -10 -18 -25z" />
    <glyph glyph-name="Acircumflex" unicode="&#xc2;" horiz-adv-x="700" 
d="M472 36q0 71 -5 159h-301q-29 -65 -66 -159q-15 -36 -48 -36h-58q-27 0 -27 21q0 6 3 15q81 207 195 415.5t191 298.5h157q33 -118 62 -321t31 -393q0 -36 -34 -36h-64q-36 0 -36 36zM410 648q-94 -133 -197 -348h246q-18 203 -49 348zM522 869l-59 68l-88 -68
q-45 -36 -72 -36h-14q-23 0 -23 13q0 9 15 23l101 93q38 36 64 36h54q24 0 47 -36l59 -93q6 -11 6 -17q0 -19 -27 -19h-11q-4 0 -8 1t-6.5 1.5t-6.5 3t-6 4t-6 5.5t-5.5 6t-6.5 7.5t-7 7.5z" />
    <glyph glyph-name="Atilde" unicode="&#xc3;" horiz-adv-x="700" 
d="M472 36q0 71 -5 159h-301q-29 -65 -66 -159q-15 -36 -48 -36h-58q-27 0 -27 21q0 6 3 15q81 207 195 415.5t191 298.5h157q33 -118 62 -321t31 -393q0 -36 -34 -36h-64q-36 0 -36 36zM410 648q-94 -133 -197 -348h246q-18 203 -49 348zM581 862q-41 -29 -72 -29
q-27 0 -69.5 38t-59.5 38q-31 0 -69 -38q-18 -17 -28 -17q-8 0 -8 11q0 7 5 28q5 26 49 60q31 26 66 26q30 0 72 -37.5t58 -37.5q30 0 73 39q19 18 29 18q7 0 7 -13q0 -6 -4 -25q-5 -25 -49 -61z" />
    <glyph glyph-name="Adieresis" unicode="&#xc4;" horiz-adv-x="700" 
d="M472 36q0 71 -5 159h-301q-29 -65 -66 -159q-15 -36 -48 -36h-58q-27 0 -27 21q0 6 3 15q81 207 195 415.5t191 298.5h157q33 -118 62 -321t31 -393q0 -36 -34 -36h-64q-36 0 -36 36zM410 648q-94 -133 -197 -348h246q-18 203 -49 348zM375 851q-8 -37 -44 -37h-52
q-29 0 -29 26q0 7 10 51q8 36 44 36h52q29 0 29 -27q0 -5 -10 -49zM635 851q-8 -37 -44 -37h-52q-29 0 -29 26q0 7 10 51q8 36 44 36h51q30 0 30 -27q0 -5 -10 -49z" />
    <glyph glyph-name="Aring" unicode="&#xc5;" horiz-adv-x="700" 
d="M472 36q0 71 -5 159h-301q-29 -65 -66 -159q-15 -36 -48 -36h-58q-27 0 -27 21q0 6 3 15q81 207 195 415.5t191 298.5h157q33 -118 62 -321t31 -393q0 -36 -34 -36h-64q-36 0 -36 36zM410 648q-94 -133 -197 -348h246q-18 203 -49 348zM453 833q-47 0 -74.5 21t-27.5 61
q0 53 39 87t99 34q47 0 74.5 -21t27.5 -61q0 -47 -38 -84t-100 -37zM457 872q36 0 57.5 19.5t21.5 54.5q0 24 -14 37.5t-37 13.5q-36 0 -57 -19.5t-21 -54.5q0 -23 13.5 -37t36.5 -14z" />
    <glyph glyph-name="AE" unicode="&#xc6;" horiz-adv-x="929" 
d="M219 300h198l73 345h-76q-96 -135 -195 -345zM766 0h-211q-76 0 -121 33.5t-45 103.5q0 13 6 58h-225q-6 -14 -17.5 -45t-21 -53.5t-21.5 -46.5t-26 -37t-28 -13h-59q-26 0 -26 21q0 7 3 14q80 206 194.5 414t191.5 301h543q30 0 30 -26q0 -6 -8 -42q-8 -37 -45 -37h-262
l-42 -202h243q30 0 30 -26q0 -6 -8 -42t-45 -36h-242l-33 -177q0 -33 17.5 -45.5t57.5 -12.5h194q29 0 29 -26q0 -6 -7 -42q-8 -36 -46 -36z" />
    <glyph glyph-name="Ccedilla" unicode="&#xc7;" horiz-adv-x="652" 
d="M506 13q-74 -21 -137 -21h-44q-132 0 -206.5 61t-74.5 184q0 45 11 94l18 88q71 339 422 339q112 0 198 -41l-32 -145q-8 -36 -43 -36h-45q-29 0 -29 26q0 6 1 10l14 69q-30 12 -90 12q-210 0 -262 -231l-20 -91q-10 -40 -10 -83q0 -77 42 -114t127 -37h47q61 0 137 24
q8 2 12 2q19 0 19 -20q0 -6 -9 -47q-7 -32 -46 -43zM266 -188h-88q-25 0 -25 16q0 2 3 19q6 26 35 26h65q62 0 62 42q0 27 -39 50l3 12h66q20 -11 33 -30t13 -40q0 -45 -38.5 -69t-89.5 -26z" />
    <glyph glyph-name="Egrave" unicode="&#xc8;" horiz-adv-x="588" 
d="M437 0h-221q-76 0 -120.5 34t-44.5 103q0 34 8 66l108 511q8 36 44 36h365q29 0 29 -26q0 -6 -7 -42q-8 -36 -46 -36h-272l-42 -203h254q29 0 29 -26q0 -6 -7 -42q-8 -36 -46 -36h-253l-26 -123q-7 -49 -7 -54q0 -33 17.5 -45.5t57.5 -12.5h205q29 0 29 -26q0 -6 -8 -42
q-6 -36 -46 -36zM365 869l-102 84q-18 15 -18 25q0 11 22 11h71q34 0 59 -36l62 -84q11 -16 11 -21q0 -15 -24 -15h-13q-11 0 -23 5t-19 10.5t-26 20.5z" />
    <glyph glyph-name="Eacute" unicode="&#xc9;" horiz-adv-x="588" 
d="M437 0h-221q-76 0 -120.5 34t-44.5 103q0 34 8 66l108 511q8 36 44 36h365q29 0 29 -26q0 -6 -7 -42q-8 -36 -46 -36h-272l-42 -203h254q29 0 29 -26q0 -6 -7 -42q-8 -36 -46 -36h-253l-26 -123q-7 -49 -7 -54q0 -33 17.5 -45.5t57.5 -12.5h205q29 0 29 -26q0 -6 -8 -42
q-6 -36 -46 -36zM527 953l-102 -84q-17 -14 -25.5 -20t-19.5 -11t-22 -5h-29q-23 0 -23 15q0 8 10 21l78 84q32 36 59 36h71q21 0 21 -11q0 -10 -18 -25z" />
    <glyph glyph-name="Ecircumflex" unicode="&#xca;" horiz-adv-x="588" 
d="M437 0h-221q-76 0 -120.5 34t-44.5 103q0 34 8 66l108 511q8 36 44 36h365q29 0 29 -26q0 -6 -7 -42q-8 -36 -46 -36h-272l-42 -203h254q29 0 29 -26q0 -6 -7 -42q-8 -36 -46 -36h-253l-26 -123q-7 -49 -7 -54q0 -33 17.5 -45.5t57.5 -12.5h205q29 0 29 -26q0 -6 -8 -42
q-6 -36 -46 -36zM479 869l-59 68l-88 -68q-45 -36 -72 -36h-14q-23 0 -23 13q0 9 15 23l101 93q38 36 64 36h54q24 0 47 -36l59 -93q6 -11 6 -17q0 -19 -27 -19h-11q-4 0 -8 1t-6.5 1.5t-6.5 3t-6 4t-6 5.5t-5.5 6t-6.5 7.5t-7 7.5z" />
    <glyph glyph-name="Edieresis" unicode="&#xcb;" horiz-adv-x="588" 
d="M437 0h-221q-76 0 -120.5 34t-44.5 103q0 34 8 66l108 511q8 36 44 36h365q29 0 29 -26q0 -6 -7 -42q-8 -36 -46 -36h-272l-42 -203h254q29 0 29 -26q0 -6 -7 -42q-8 -36 -46 -36h-253l-26 -123q-7 -49 -7 -54q0 -33 17.5 -45.5t57.5 -12.5h205q29 0 29 -26q0 -6 -8 -42
q-6 -36 -46 -36zM336 851q-8 -37 -44 -37h-52q-29 0 -29 26q0 7 10 51q8 36 44 36h52q29 0 29 -27q0 -5 -10 -49zM596 851q-8 -37 -44 -37h-52q-29 0 -29 26q0 7 10 51q8 36 44 36h51q30 0 30 -27q0 -5 -10 -49z" />
    <glyph glyph-name="Igrave" unicode="&#xcc;" horiz-adv-x="300" 
d="M28 41l144 673q8 36 44 36h55q31 0 31 -26q0 -7 -2 -15l-144 -673q-8 -36 -44 -36h-55q-31 0 -31 26q0 7 2 15zM260 869l-102 84q-18 15 -18 25q0 11 22 11h71q34 0 59 -36l62 -84q11 -16 11 -21q0 -15 -24 -15h-13q-11 0 -23 5t-19 10.5t-26 20.5z" />
    <glyph glyph-name="Iacute" unicode="&#xcd;" horiz-adv-x="300" 
d="M28 41l144 673q8 36 44 36h55q31 0 31 -26q0 -7 -2 -15l-144 -673q-8 -36 -44 -36h-55q-31 0 -31 26q0 7 2 15zM371 953l-102 -84q-17 -14 -25.5 -20t-19.5 -11t-22 -5h-29q-23 0 -23 15q0 8 10 21l78 84q32 36 59 36h71q21 0 21 -11q0 -10 -18 -25z" />
    <glyph glyph-name="Icircumflex" unicode="&#xce;" horiz-adv-x="300" 
d="M28 41l144 673q8 36 44 36h55q31 0 31 -26q0 -7 -2 -15l-144 -673q-8 -36 -44 -36h-55q-31 0 -31 26q0 7 2 15zM343 869l-59 68l-88 -68q-45 -36 -72 -36h-14q-23 0 -23 13q0 9 15 23l101 93q38 36 64 36h54q24 0 47 -36l59 -93q6 -11 6 -17q0 -19 -27 -19h-11q-4 0 -8 1
t-6.5 1.5t-6.5 3t-6 4t-6 5.5t-5.5 6t-6.5 7.5t-7 7.5z" />
    <glyph glyph-name="Idieresis" unicode="&#xcf;" horiz-adv-x="300" 
d="M28 41l144 673q8 36 44 36h55q31 0 31 -26q0 -7 -2 -15l-144 -673q-8 -36 -44 -36h-55q-31 0 -31 26q0 7 2 15zM199 851q-8 -37 -44 -37h-52q-29 0 -29 26q0 7 10 51q8 36 44 36h52q29 0 29 -27q0 -5 -10 -49zM459 851q-8 -37 -44 -37h-52q-29 0 -29 26q0 7 10 51
q8 36 44 36h51q30 0 30 -27q0 -5 -10 -49z" />
    <glyph glyph-name="Eth" unicode="&#xd0;" horiz-adv-x="727" 
d="M299 0h-242q-31 0 -31 26q0 7 2 15l64 299h-37q-30 0 -30 26q0 2 7 35q8 36 45 36h35l60 277q8 36 44 36h224q131 0 202.5 -55t71.5 -168q0 -59 -11 -109l-20 -92q-72 -326 -384 -326zM278 340h-58l-49 -236h127q108 0 169 59t87 175l17 78q10 46 10 90q0 79 -42 109.5
t-133 30.5h-121l-44 -209h60q29 0 29 -26q0 -2 -7 -35q-8 -36 -45 -36z" />
    <glyph glyph-name="Ntilde" unicode="&#xd1;" horiz-adv-x="756" 
d="M756 709l-145 -673q-8 -36 -44 -36h-42q-28 0 -37 20l-230 498l-102 -482q-8 -36 -44 -36h-55q-31 0 -31 26q0 7 2 15l145 673q8 36 43 36h44q27 0 36 -20l229 -498l103 482q8 36 44 36h56q30 0 30 -26q0 -7 -2 -15zM617 862q-41 -29 -72 -29q-27 0 -69.5 38t-59.5 38
q-31 0 -69 -38q-18 -17 -28 -17q-8 0 -8 11q0 7 5 28q5 26 49 60q31 26 66 26q30 0 72 -37.5t58 -37.5q30 0 73 39q19 18 29 18q7 0 7 -13q0 -6 -4 -25q-5 -25 -49 -61z" />
    <glyph glyph-name="Ograve" unicode="&#xd2;" horiz-adv-x="747" 
d="M315 -8q-131 0 -201 62.5t-70 183.5q0 50 12 110l15 74q70 336 388 336q131 0 201.5 -63t70.5 -183q0 -61 -11 -110l-16 -74q-35 -168 -130 -252t-259 -84zM334 97q101 0 158 58t82 179l14 65q11 55 11 99q0 83 -39 119t-120 36q-101 0 -156.5 -58t-82.5 -179l-14 -65
q-10 -43 -10 -99q0 -83 38 -119t119 -36zM455 869l-102 84q-18 15 -18 25q0 11 22 11h71q34 0 59 -36l62 -84q11 -16 11 -21q0 -15 -24 -15h-13q-11 0 -23 5t-19 10.5t-26 20.5z" />
    <glyph glyph-name="Oacute" unicode="&#xd3;" horiz-adv-x="747" 
d="M315 -8q-131 0 -201 62.5t-70 183.5q0 50 12 110l15 74q70 336 388 336q131 0 201.5 -63t70.5 -183q0 -61 -11 -110l-16 -74q-35 -168 -130 -252t-259 -84zM334 97q101 0 158 58t82 179l14 65q11 55 11 99q0 83 -39 119t-120 36q-101 0 -156.5 -58t-82.5 -179l-14 -65
q-10 -43 -10 -99q0 -83 38 -119t119 -36zM586 953l-102 -84q-17 -14 -25.5 -20t-19.5 -11t-22 -5h-29q-23 0 -23 15q0 8 10 21l78 84q31 36 59 36h71q21 0 21 -11q0 -10 -18 -25z" />
    <glyph glyph-name="Ocircumflex" unicode="&#xd4;" horiz-adv-x="747" 
d="M315 -8q-131 0 -201 62.5t-70 183.5q0 50 12 110l15 74q70 336 388 336q131 0 201.5 -63t70.5 -183q0 -61 -11 -110l-16 -74q-35 -168 -130 -252t-259 -84zM334 97q101 0 158 58t82 179l14 65q11 55 11 99q0 83 -39 119t-120 36q-101 0 -156.5 -58t-82.5 -179l-14 -65
q-10 -43 -10 -99q0 -83 38 -119t119 -36zM561 869l-59 68l-88 -68q-45 -36 -72 -36h-14q-23 0 -23 13q0 9 15 23l101 93q38 36 64 36h54q24 0 47 -36l59 -93q6 -11 6 -17q0 -19 -27 -19h-11q-4 0 -8 1t-6.5 1.5t-6.5 3t-6 4t-6 5.5t-5.5 6t-6.5 7.5t-7 7.5z" />
    <glyph glyph-name="Otilde" unicode="&#xd5;" horiz-adv-x="747" 
d="M315 -8q-131 0 -201 62.5t-70 183.5q0 50 12 110l15 74q70 336 388 336q131 0 201.5 -63t70.5 -183q0 -61 -11 -110l-16 -74q-35 -168 -130 -252t-259 -84zM334 97q101 0 158 58t82 179l14 65q11 55 11 99q0 83 -39 119t-120 36q-101 0 -156.5 -58t-82.5 -179l-14 -65
q-10 -43 -10 -99q0 -83 38 -119t119 -36zM617 862q-41 -29 -72 -29q-27 0 -69.5 38t-59.5 38q-31 0 -69 -38q-18 -17 -28 -17q-8 0 -8 11q0 7 5 28q5 26 49 60q31 26 66 26q30 0 72 -37.5t58 -37.5q30 0 73 39q19 18 29 18q7 0 7 -13q0 -6 -4 -25q-5 -25 -49 -61z" />
    <glyph glyph-name="Odieresis" unicode="&#xd6;" horiz-adv-x="747" 
d="M315 -8q-131 0 -201 62.5t-70 183.5q0 50 12 110l15 74q70 336 388 336q131 0 201.5 -63t70.5 -183q0 -61 -11 -110l-16 -74q-35 -168 -130 -252t-259 -84zM334 97q101 0 158 58t82 179l14 65q11 55 11 99q0 83 -39 119t-120 36q-101 0 -156.5 -58t-82.5 -179l-14 -65
q-10 -43 -10 -99q0 -83 38 -119t119 -36zM406 851q-8 -37 -44 -37h-52q-29 0 -29 26q0 7 10 51q8 36 44 36h52q29 0 29 -27q0 -5 -10 -49zM666 851q-8 -37 -44 -37h-52q-29 0 -29 26q0 7 10 51q8 36 44 36h51q30 0 30 -27q0 -5 -10 -49z" />
    <glyph glyph-name="multiply" unicode="&#xd7;" 
d="M138 274l112 93l-73 93q-8 10 -8 19q0 15 19 32l27 22q15 12 28 12q15 0 25 -12l71 -92l111 92q15 12 29 12q13 0 23 -12l19 -22q7 -10 7 -20q0 -15 -18 -31l-112 -93l73 -93q8 -8 8 -18q0 -17 -20 -32l-26 -23q-15 -12 -29 -12t-24 12l-72 92l-111 -92q-15 -12 -28 -12
q-14 0 -23 12l-19 23q-8 8 -8 19q0 17 19 31z" />
    <glyph glyph-name="Oslash" unicode="&#xd8;" horiz-adv-x="748" 
d="M748 719l-56 -60q40 -58 40 -147q0 -61 -11 -110l-16 -74q-35 -168 -130 -252t-259 -84q-126 0 -194 56l-16 -17q-29 -31 -48 -31h-14q-22 0 -22 16q0 7 7 15l55 59q-40 58 -40 148q0 50 12 110l15 74q70 336 389 336q123 0 193 -56l16 17q29 31 51 31h15q20 0 20 -16
q0 -8 -7 -15zM335 97q101 0 158 58.5t82 178.5l14 65q10 50 10 99q0 31 -6 55l-385 -412q37 -44 127 -44zM178 252q0 -36 5 -56l384 413q-37 44 -126 44q-101 0 -156.5 -58t-82.5 -179l-15 -65q-9 -45 -9 -99z" />
    <glyph glyph-name="Ugrave" unicode="&#xd9;" horiz-adv-x="738" 
d="M742 709l-94 -438q-59 -279 -345 -279q-108 0 -173.5 48.5t-65.5 146.5q0 43 15 111l89 416q8 36 44 36h56q30 0 30 -26q0 -7 -2 -15l-89 -415q-13 -60 -13 -87q0 -108 131 -108q76 0 127 46.5t69 127.5l93 441q8 36 44 36h56q30 0 30 -26q0 -7 -2 -15zM471 869l-102 84
q-18 15 -18 25q0 11 22 11h71q34 0 59 -36l62 -84q11 -16 11 -21q0 -15 -24 -15h-13q-11 0 -23 5t-19 10.5t-26 20.5z" />
    <glyph glyph-name="Uacute" unicode="&#xda;" horiz-adv-x="738" 
d="M742 709l-94 -438q-59 -279 -345 -279q-108 0 -173.5 48.5t-65.5 146.5q0 43 15 111l89 416q8 36 44 36h56q30 0 30 -26q0 -7 -2 -15l-89 -415q-13 -60 -13 -87q0 -108 131 -108q76 0 127 46.5t69 127.5l93 441q8 36 44 36h56q30 0 30 -26q0 -7 -2 -15zM597 953l-102 -84
q-17 -14 -25.5 -20t-19.5 -11t-22 -5h-29q-23 0 -23 15q0 8 10 21l78 84q32 36 59 36h71q21 0 21 -11q0 -10 -18 -25z" />
    <glyph glyph-name="Ucircumflex" unicode="&#xdb;" horiz-adv-x="738" 
d="M742 709l-94 -438q-59 -279 -345 -279q-108 0 -173.5 48.5t-65.5 146.5q0 43 15 111l89 416q8 36 44 36h56q30 0 30 -26q0 -7 -2 -15l-89 -415q-13 -60 -13 -87q0 -108 131 -108q76 0 127 46.5t69 127.5l93 441q8 36 44 36h56q30 0 30 -26q0 -7 -2 -15zM554 869l-59 68
l-88 -68q-45 -36 -72 -36h-14q-23 0 -23 13q0 9 15 23l101 93q38 36 64 36h54q24 0 47 -36l59 -93q6 -11 6 -17q0 -19 -27 -19h-11q-4 0 -8 1t-6.5 1.5t-6.5 3t-6 4t-6 5.5t-5.5 6t-6.5 7.5t-7 7.5z" />
    <glyph glyph-name="Udieresis" unicode="&#xdc;" horiz-adv-x="738" 
d="M742 709l-94 -438q-59 -279 -345 -279q-108 0 -173.5 48.5t-65.5 146.5q0 43 15 111l89 416q8 36 44 36h56q30 0 30 -26q0 -7 -2 -15l-89 -415q-13 -60 -13 -87q0 -108 131 -108q76 0 127 46.5t69 127.5l93 441q8 36 44 36h56q30 0 30 -26q0 -7 -2 -15zM414 851
q-8 -37 -44 -37h-52q-29 0 -29 26q0 7 10 51q8 36 44 36h52q29 0 29 -27q0 -5 -10 -49zM674 851q-8 -37 -44 -37h-52q-29 0 -29 26q0 7 10 51q8 36 44 36h51q30 0 30 -27q0 -5 -10 -49z" />
    <glyph glyph-name="Yacute" unicode="&#xdd;" horiz-adv-x="649" 
d="M203 41l56 258l-126 381q-13 38 -13 46q0 24 31 24h58q32 0 43 -36l99 -306l227 306q28 36 55 36h56q26 0 26 -17q0 -7 -9 -19l-318 -412l-57 -266q-8 -36 -44 -36h-56q-30 0 -30 26q0 7 2 15zM560 953l-102 -84q-17 -14 -25.5 -20t-19.5 -11t-22 -5h-29q-23 0 -23 15
q0 8 10 21l78 84q31 36 59 36h71q21 0 21 -11q0 -10 -18 -25z" />
    <glyph glyph-name="Thorn" unicode="&#xde;" horiz-adv-x="637" 
d="M379 532h-118l-65 -303h117q90 0 136 52.5t46 146.5q0 104 -116 104zM28 41l144 673q8 36 44 36h54q30 0 30 -26q0 -7 -2 -15l-15 -72h137q96 0 152 -50t56 -142q0 -148 -89.5 -234.5t-240.5 -86.5h-123l-19 -88q-8 -36 -44 -36h-55q-31 0 -31 26q0 7 2 15z" />
    <glyph glyph-name="germandbls" unicode="&#xdf;" horiz-adv-x="715" 
d="M302 106q2 0 7.5 -1t14.5 -3t16 -3q33 -6 68 -6q51 0 81.5 20t30.5 57q0 27 -15 41.5t-46 27.5l-44 20q-74 33 -74 105q0 20 8 40t16 32t28.5 30t27.5 23t32 23q33 24 46 41.5t13 42.5q0 59 -86 59q-60 0 -95 -24.5t-49 -87.5l-108 -507q-8 -36 -43 -36h-52q-29 0 -29 27
q0 6 2 12l86 404h-50q-30 0 -30 27q0 6 1 9l6 32q8 36 45 36h49l5 19q21 97 98 140.5t177 43.5q84 0 141.5 -32.5t57.5 -91.5q0 -47 -20.5 -81t-69.5 -69q-4 -3 -20 -14t-22.5 -16.5t-17 -15.5t-14.5 -20t-4 -21q0 -18 8.5 -28.5t30.5 -20.5l40 -18q99 -43 99 -134
q0 -95 -66.5 -145.5t-172.5 -50.5q-82 0 -119 9q-29 8 -29 30q0 7 1 11l7 34q5 30 33 30z" />
    <glyph glyph-name="agrave" unicode="&#xe0;" horiz-adv-x="615" 
d="M579 507l-100 -471q-8 -36 -44 -36h-51q-30 0 -30 26q0 12 1 15l12 55l-47 -36q-87 -68 -166 -68q-62 0 -98 32.5t-36 93.5q0 30 12 85l15 70q28 136 114.5 205t221.5 69h168q30 0 30 -26q0 -6 -2 -14zM199 99q49 0 138 66l53 39l51 239h-74q-81 0 -127.5 -39.5
t-67.5 -127.5l-15 -60q-10 -45 -10 -67q0 -27 12.5 -38.5t39.5 -11.5zM358 661l-102 84q-18 15 -18 25q0 11 22 11h71q34 0 59 -36l62 -84q11 -16 11 -21q0 -15 -24 -15h-13q-11 0 -23 5t-19 10.5t-26 20.5z" />
    <glyph glyph-name="aacute" unicode="&#xe1;" horiz-adv-x="615" 
d="M579 507l-100 -471q-8 -36 -44 -36h-51q-30 0 -30 26q0 12 1 15l12 55l-47 -36q-87 -68 -166 -68q-62 0 -98 32.5t-36 93.5q0 30 12 85l15 70q28 136 114.5 205t221.5 69h168q30 0 30 -26q0 -6 -2 -14zM199 99q49 0 138 66l53 39l51 239h-74q-81 0 -127.5 -39.5
t-67.5 -127.5l-15 -60q-10 -45 -10 -67q0 -27 12.5 -38.5t39.5 -11.5zM501 745l-102 -84q-17 -14 -25.5 -20t-19.5 -11t-22 -5h-29q-23 0 -23 15q0 8 10 21l78 84q32 36 59 36h71q21 0 21 -11q0 -10 -18 -25z" />
    <glyph glyph-name="acircumflex" unicode="&#xe2;" horiz-adv-x="615" 
d="M579 507l-100 -471q-8 -36 -44 -36h-51q-30 0 -30 26q0 12 1 15l12 55l-47 -36q-87 -68 -166 -68q-62 0 -98 32.5t-36 93.5q0 30 12 85l15 70q28 136 114.5 205t221.5 69h168q30 0 30 -26q0 -6 -2 -14zM199 99q49 0 138 66l53 39l51 239h-74q-81 0 -127.5 -39.5
t-67.5 -127.5l-15 -60q-10 -45 -10 -67q0 -27 12.5 -38.5t39.5 -11.5zM457 661l-59 68l-88 -68q-45 -36 -72 -36h-14q-23 0 -23 13q0 9 15 23l101 93q38 36 64 36h54q24 0 47 -36l59 -93q6 -11 6 -17q0 -19 -27 -19h-11q-4 0 -8 1t-6.5 1.5t-6.5 3t-6 4t-6 5.5t-5.5 6
t-6.5 7.5t-7 7.5z" />
    <glyph glyph-name="atilde" unicode="&#xe3;" horiz-adv-x="615" 
d="M579 507l-100 -471q-8 -36 -44 -36h-51q-30 0 -30 26q0 12 1 15l12 55l-47 -36q-87 -68 -166 -68q-62 0 -98 32.5t-36 93.5q0 30 12 85l15 70q28 136 114.5 205t221.5 69h168q30 0 30 -26q0 -6 -2 -14zM199 99q49 0 138 66l53 39l51 239h-74q-81 0 -127.5 -39.5
t-67.5 -127.5l-15 -60q-10 -45 -10 -67q0 -27 12.5 -38.5t39.5 -11.5zM504 654q-41 -29 -72 -29q-27 0 -69.5 38t-59.5 38q-31 0 -69 -38q-18 -17 -28 -17q-8 0 -8 11q0 7 5 28q5 26 49 60q31 26 66 26q30 0 72 -37.5t58 -37.5q30 0 73 39q19 18 29 18q7 0 7 -13
q0 -6 -4 -25q-5 -25 -49 -61z" />
    <glyph glyph-name="adieresis" unicode="&#xe4;" horiz-adv-x="615" 
d="M579 507l-100 -471q-8 -36 -44 -36h-51q-30 0 -30 26q0 12 1 15l12 55l-47 -36q-87 -68 -166 -68q-62 0 -98 32.5t-36 93.5q0 30 12 85l15 70q28 136 114.5 205t221.5 69h168q30 0 30 -26q0 -6 -2 -14zM199 99q49 0 138 66l53 39l51 239h-74q-81 0 -127.5 -39.5
t-67.5 -127.5l-15 -60q-10 -45 -10 -67q0 -27 12.5 -38.5t39.5 -11.5zM313 643q-8 -37 -44 -37h-52q-29 0 -29 26q0 7 10 51q8 36 44 36h52q29 0 29 -27q0 -5 -10 -49zM573 643q-8 -37 -44 -37h-52q-29 0 -29 26q0 7 10 51q8 36 44 36h51q30 0 30 -27q0 -5 -10 -49z" />
    <glyph glyph-name="aring" unicode="&#xe5;" horiz-adv-x="615" 
d="M579 507l-100 -471q-8 -36 -44 -36h-51q-30 0 -30 26q0 12 1 15l12 55l-47 -36q-87 -68 -166 -68q-62 0 -98 32.5t-36 93.5q0 30 12 85l15 70q28 136 114.5 205t221.5 69h168q30 0 30 -26q0 -6 -2 -14zM199 99q49 0 138 66l53 39l51 239h-74q-81 0 -127.5 -39.5
t-67.5 -127.5l-15 -60q-10 -45 -10 -67q0 -27 12.5 -38.5t39.5 -11.5zM383 625q-47 0 -74.5 21t-27.5 61q0 53 39 87t99 34q47 0 74.5 -21t27.5 -61q0 -47 -38 -84t-100 -37zM387 664q36 0 57.5 19.5t21.5 54.5q0 24 -14 37.5t-37 13.5q-36 0 -57 -19.5t-21 -54.5
q0 -23 13.5 -37t36.5 -14z" />
    <glyph glyph-name="ae" unicode="&#xe6;" horiz-adv-x="928" 
d="M746 17q-75 -25 -159 -25q-177 0 -199 121l-16 -13l-52 -40q-87 -68 -166 -68q-62 0 -98 32.5t-36 93.5q0 30 12 85l15 70q28 136 114.5 205t221.5 69h331q80 0 131 -34.5t51 -103.5q0 -92 -63 -135t-168 -43h-144q-9 -42 -9 -62q0 -44 26 -59t78 -15q79 0 145 22
q11 3 16 3q16 0 16 -16q0 -10 -2 -16l-6 -30q-5 -31 -39 -41zM199 99q49 0 138 66l55 41l26 106q20 81 57 131h-108q-81 0 -127.5 -39.5t-67.5 -127.5l-15 -60q-10 -45 -10 -67q0 -27 12.5 -38.5t39.5 -11.5zM541 314l-1 -3h131q106 0 106 82q0 54 -85 54q-61 0 -98.5 -30.5
t-52.5 -102.5z" />
    <glyph glyph-name="ccedilla" unicode="&#xe7;" horiz-adv-x="531" 
d="M385 397l8 40q-30 15 -69 15q-61 0 -96 -31t-50 -104l-18 -82q-10 -50 -10 -65q0 -45 25.5 -60t79.5 -15q73 0 127 23q9 4 17 4q16 0 16 -16q0 -6 -3 -15l-7 -32q-4 -17 -12.5 -26t-26.5 -15q-70 -26 -137 -26q-205 0 -205 153q0 33 13 85l20 90q50 235 290 235
q45 0 92.5 -11t76.5 -28l-28 -123q-8 -37 -44 -37h-31q-30 0 -30 27q0 10 2 14zM166 -188h-88q-25 0 -25 16q0 2 3 19q6 26 35 26h65q62 0 62 42q0 27 -39 50l3 12h66q20 -11 33 -30t13 -40q0 -45 -38.5 -69t-89.5 -26z" />
    <glyph glyph-name="egrave" unicode="&#xe8;" horiz-adv-x="566" 
d="M385 17q-75 -25 -159 -25q-202 0 -202 155q0 30 11 78l22 95q26 118 103 176.5t193 58.5q79 0 130 -34.5t51 -103.5q0 -92 -62.5 -135t-167.5 -43h-143l-1 -6q-10 -40 -10 -64q0 -44 26.5 -59t78.5 -15q78 0 144 22q11 3 17 3q16 0 16 -16q0 -10 -2 -16l-6 -30
q-5 -31 -39 -41zM180 322l-1 -4h131q106 0 106 82q0 55 -85 55q-61 0 -98.5 -30.5t-52.5 -102.5zM349 661l-102 84q-18 15 -18 25q0 11 22 11h71q34 0 59 -36l62 -84q11 -16 11 -21q0 -15 -24 -15h-13q-11 0 -23 5t-19 10.5t-26 20.5z" />
    <glyph glyph-name="eacute" unicode="&#xe9;" horiz-adv-x="566" 
d="M385 17q-75 -25 -159 -25q-202 0 -202 155q0 30 11 78l22 95q26 118 103 176.5t193 58.5q79 0 130 -34.5t51 -103.5q0 -92 -62.5 -135t-167.5 -43h-143l-1 -6q-10 -40 -10 -64q0 -44 26.5 -59t78.5 -15q78 0 144 22q11 3 17 3q16 0 16 -16q0 -10 -2 -16l-6 -30
q-5 -31 -39 -41zM180 322l-1 -4h131q106 0 106 82q0 55 -85 55q-61 0 -98.5 -30.5t-52.5 -102.5zM472 745l-102 -84q-17 -14 -25.5 -20t-19.5 -11t-22 -5h-29q-23 0 -23 15q0 8 10 21l78 84q31 36 59 36h71q21 0 21 -11q0 -10 -18 -25z" />
    <glyph glyph-name="ecircumflex" unicode="&#xea;" horiz-adv-x="566" 
d="M385 17q-75 -25 -159 -25q-202 0 -202 155q0 30 11 78l22 95q26 118 103 176.5t193 58.5q79 0 130 -34.5t51 -103.5q0 -92 -62.5 -135t-167.5 -43h-143l-1 -6q-10 -40 -10 -64q0 -44 26.5 -59t78.5 -15q78 0 144 22q11 3 17 3q16 0 16 -16q0 -10 -2 -16l-6 -30
q-5 -31 -39 -41zM180 322l-1 -4h131q106 0 106 82q0 55 -85 55q-61 0 -98.5 -30.5t-52.5 -102.5zM436 661l-59 68l-88 -68q-45 -36 -72 -36h-14q-23 0 -23 13q0 9 15 23l101 93q38 36 64 36h54q24 0 47 -36l59 -93q6 -11 6 -17q0 -19 -27 -19h-11q-4 0 -8 1t-6.5 1.5t-6.5 3
t-6 4t-6 5.5t-5.5 6t-6.5 7.5t-7 7.5z" />
    <glyph glyph-name="edieresis" unicode="&#xeb;" horiz-adv-x="566" 
d="M385 17q-75 -25 -159 -25q-202 0 -202 155q0 30 11 78l22 95q26 118 103 176.5t193 58.5q79 0 130 -34.5t51 -103.5q0 -92 -62.5 -135t-167.5 -43h-143l-1 -6q-10 -40 -10 -64q0 -44 26.5 -59t78.5 -15q78 0 144 22q11 3 17 3q16 0 16 -16q0 -10 -2 -16l-6 -30
q-5 -31 -39 -41zM180 322l-1 -4h131q106 0 106 82q0 55 -85 55q-61 0 -98.5 -30.5t-52.5 -102.5zM293 643q-8 -37 -44 -37h-52q-29 0 -29 26q0 7 10 51q8 36 44 36h52q29 0 29 -27q0 -5 -10 -49zM553 643q-8 -37 -44 -37h-52q-29 0 -29 26q0 7 10 51q8 36 44 36h51
q30 0 30 -27q0 -5 -10 -49z" />
    <glyph glyph-name="igrave" unicode="&#xec;" horiz-adv-x="296" 
d="M260 507l-101 -471q-8 -36 -44 -36h-51q-30 0 -30 26q0 9 2 15l86 402h-51q-29 0 -29 27q0 2 3 17l4 24q7 36 45 36h137q31 0 31 -26q0 -6 -2 -14zM182 661l-102 84q-18 15 -18 25q0 11 22 11h71q34 0 59 -36l62 -84q11 -16 11 -21q0 -15 -24 -15h-13q-11 0 -23 5
t-19 10.5t-26 20.5z" />
    <glyph glyph-name="iacute" unicode="&#xed;" horiz-adv-x="296" 
d="M260 507l-101 -471q-8 -36 -44 -36h-51q-30 0 -30 26q0 9 2 15l86 402h-51q-29 0 -29 27q0 2 3 17l4 24q7 36 45 36h137q31 0 31 -26q0 -6 -2 -14zM325 745l-102 -84q-17 -14 -25.5 -20t-19.5 -11t-22 -5h-29q-23 0 -23 15q0 8 10 21l78 84q32 36 59 36h71q21 0 21 -11
q0 -10 -18 -25z" />
    <glyph glyph-name="icircumflex" unicode="&#xee;" horiz-adv-x="296" 
d="M260 507l-101 -471q-8 -36 -44 -36h-51q-30 0 -30 26q0 9 2 15l86 402h-51q-29 0 -29 27q0 2 3 17l4 24q7 36 45 36h137q31 0 31 -26q0 -6 -2 -14zM269 661l-59 68l-88 -68q-45 -36 -72 -36h-14q-23 0 -23 13q0 9 15 23l101 93q38 36 64 36h54q24 0 47 -36l59 -93
q6 -11 6 -17q0 -19 -27 -19h-11q-4 0 -8 1t-6.5 1.5t-6.5 3t-6 4t-6 5.5t-5.5 6t-6.5 7.5t-7 7.5z" />
    <glyph glyph-name="idieresis" unicode="&#xef;" horiz-adv-x="296" 
d="M260 507l-101 -471q-8 -36 -44 -36h-51q-30 0 -30 26q0 9 2 15l86 402h-51q-29 0 -29 27q0 2 3 17l4 24q7 36 45 36h137q31 0 31 -26q0 -6 -2 -14zM130 643q-8 -37 -44 -37h-52q-29 0 -29 26q0 7 10 51q8 36 44 36h52q29 0 29 -27q0 -5 -10 -49zM390 643q-8 -37 -44 -37
h-52q-29 0 -29 26q0 7 10 51q8 36 44 36h51q30 0 30 -27q0 -5 -10 -49z" />
    <glyph glyph-name="eth" unicode="&#xf0;" horiz-adv-x="616" 
d="M623 710l-3 -15h33q31 0 31 -26q0 -6 -2 -14l-4 -15q-9 -36 -45 -36h-33l-121 -568q-7 -36 -43 -36h-51q-31 0 -31 26q0 9 2 15l12 56l-48 -37q-87 -68 -166 -68q-62 0 -98 32.5t-36 93.5q0 30 12 85l15 70q28 136 114.5 205t221.5 69h81l12 57h-93q-30 0 -30 26
q0 1 0.5 7t0.5 8l4 14q8 36 45 36h93l4 19q8 36 44 36h51q30 0 30 -26q0 -6 -2 -14zM199 99q49 0 138 66l54 40l51 238h-75q-81 0 -127.5 -39.5t-67.5 -127.5l-15 -60q-10 -45 -10 -67q0 -27 12.5 -38.5t39.5 -11.5z" />
    <glyph glyph-name="ntilde" unicode="&#xf1;" horiz-adv-x="645" 
d="M380 41l64 305q8 34 8 53q0 27 -11.5 38t-37.5 11q-43 0 -144 -75l-42 -31l-65 -306q-8 -36 -44 -36h-50q-31 0 -31 26q0 9 2 15l101 470q8 36 44 36h51q30 0 30 -26q0 -6 -2 -14l-12 -56l39 30q97 74 176 74q58 0 91.5 -29.5t33.5 -85.5q0 -33 -8 -71l-70 -333
q-8 -36 -44 -36h-51q-30 0 -30 26q0 9 2 15zM523 654q-41 -29 -72 -29q-27 0 -69.5 38t-59.5 38q-31 0 -69 -38q-18 -17 -28 -17q-8 0 -8 11q0 7 5 28q5 26 49 60q31 26 66 26q30 0 72 -37.5t58 -37.5q30 0 73 39q19 18 29 18q7 0 7 -13q0 -6 -4 -25q-5 -25 -49 -61z" />
    <glyph glyph-name="ograve" unicode="&#xf2;" horiz-adv-x="612" 
d="M238 -8q-95 0 -152.5 50t-57.5 142q0 158 91.5 264.5t238.5 106.5q99 0 154.5 -48.5t55.5 -143.5q0 -159 -88.5 -265t-241.5 -106zM260 95q80 0 131.5 76t51.5 172q0 58 -25 83.5t-81 25.5q-82 0 -133 -75t-51 -173q0 -56 26 -82.5t81 -26.5zM364 661l-102 84
q-18 15 -18 25q0 11 22 11h71q34 0 59 -36l62 -84q11 -16 11 -21q0 -15 -24 -15h-13q-11 0 -23 5t-19 10.5t-26 20.5z" />
    <glyph glyph-name="oacute" unicode="&#xf3;" horiz-adv-x="612" 
d="M238 -8q-95 0 -152.5 50t-57.5 142q0 158 91.5 264.5t238.5 106.5q99 0 154.5 -48.5t55.5 -143.5q0 -159 -88.5 -265t-241.5 -106zM260 95q80 0 131.5 76t51.5 172q0 58 -25 83.5t-81 25.5q-82 0 -133 -75t-51 -173q0 -56 26 -82.5t81 -26.5zM483 745l-102 -84
q-17 -14 -25.5 -20t-19.5 -11t-22 -5h-29q-23 0 -23 15q0 8 10 21l78 84q32 36 59 36h71q21 0 21 -11q0 -10 -18 -25z" />
    <glyph glyph-name="ocircumflex" unicode="&#xf4;" horiz-adv-x="612" 
d="M238 -8q-95 0 -152.5 50t-57.5 142q0 158 91.5 264.5t238.5 106.5q99 0 154.5 -48.5t55.5 -143.5q0 -159 -88.5 -265t-241.5 -106zM260 95q80 0 131.5 76t51.5 172q0 58 -25 83.5t-81 25.5q-82 0 -133 -75t-51 -173q0 -56 26 -82.5t81 -26.5zM451 661l-59 68l-88 -68
q-45 -36 -72 -36h-14q-23 0 -23 13q0 9 15 23l101 93q38 36 64 36h54q24 0 47 -36l59 -93q6 -11 6 -17q0 -19 -27 -19h-11q-4 0 -8 1t-6.5 1.5t-6.5 3t-6 4t-6 5.5t-5.5 6t-6.5 7.5t-7 7.5z" />
    <glyph glyph-name="otilde" unicode="&#xf5;" horiz-adv-x="612" 
d="M238 -8q-95 0 -152.5 50t-57.5 142q0 158 91.5 264.5t238.5 106.5q99 0 154.5 -48.5t55.5 -143.5q0 -159 -88.5 -265t-241.5 -106zM260 95q80 0 131.5 76t51.5 172q0 58 -25 83.5t-81 25.5q-82 0 -133 -75t-51 -173q0 -56 26 -82.5t81 -26.5zM514 654q-41 -29 -72 -29
q-27 0 -69.5 38t-59.5 38q-31 0 -69 -38q-18 -17 -28 -17q-8 0 -8 11q0 7 5 28q5 26 49 60q31 26 66 26q30 0 72 -37.5t58 -37.5q30 0 73 39q19 18 29 18q7 0 7 -13q0 -6 -4 -25q-5 -25 -49 -61z" />
    <glyph glyph-name="odieresis" unicode="&#xf6;" horiz-adv-x="612" 
d="M238 -8q-95 0 -152.5 50t-57.5 142q0 158 91.5 264.5t238.5 106.5q99 0 154.5 -48.5t55.5 -143.5q0 -159 -88.5 -265t-241.5 -106zM260 95q80 0 131.5 76t51.5 172q0 58 -25 83.5t-81 25.5q-82 0 -133 -75t-51 -173q0 -56 26 -82.5t81 -26.5zM307 643q-8 -37 -44 -37h-52
q-29 0 -29 26q0 7 10 51q8 36 44 36h52q29 0 29 -27q0 -5 -10 -49zM567 643q-8 -37 -44 -37h-52q-29 0 -29 26q0 7 10 51q8 36 44 36h51q30 0 30 -27q0 -5 -10 -49z" />
    <glyph glyph-name="divide" unicode="&#xf7;" 
d="M499 315h-364q-31 0 -31 27q0 6 1 10l7 31q8 36 44 36h365q30 0 30 -25q0 -7 -1 -11l-7 -31q-8 -37 -44 -37zM420 549l-7 -31q-8 -37 -44 -37h-33q-29 0 -29 26q0 7 1 11l6 31q8 35 44 35h34q29 0 29 -24q0 -7 -1 -11zM349 217l-7 -31q-8 -36 -44 -36h-33q-30 0 -30 26
q0 6 1 10l7 31q8 36 45 36h32q30 0 30 -25q0 -7 -1 -11z" />
    <glyph glyph-name="oslash" unicode="&#xf8;" horiz-adv-x="612" 
d="M20 31l39 41q-31 45 -31 112q0 158 91.5 264.5t238.5 106.5q84 0 137 -35q29 27 48 27h16q21 0 21 -13q0 -8 -10 -18l-35 -36q33 -47 33 -117q0 -159 -88.5 -265t-241.5 -106q-85 0 -139 39q-33 -31 -52 -31h-16q-21 0 -21 13q0 6 10 18zM260 95q80 0 131.5 76t51.5 172
q0 23 -4 38l-256 -264q25 -22 77 -22zM153 204q0 -23 2 -33l255 262q-25 19 -73 19q-82 0 -133 -75t-51 -173z" />
    <glyph glyph-name="ugrave" unicode="&#xf9;" horiz-adv-x="633" 
d="M247 506l-64 -305q-8 -34 -8 -54q0 -26 11.5 -37t37.5 -11q43 0 144 75l41 30l66 307q7 36 44 36h50q31 0 31 -26q0 -9 -2 -15l-101 -470q-8 -36 -44 -36h-51q-30 0 -30 26q0 6 2 14l12 55l-39 -30q-98 -73 -176 -73q-58 0 -91.5 29.5t-33.5 84.5q0 34 8 72l70 333
q8 36 44 36h51q30 0 30 -26q0 -9 -2 -15zM358 661l-102 84q-18 15 -18 25q0 11 22 11h71q34 0 59 -36l62 -84q11 -16 11 -21q0 -15 -24 -15h-13q-11 0 -23 5t-19 10.5t-26 20.5z" />
    <glyph glyph-name="uacute" unicode="&#xfa;" horiz-adv-x="633" 
d="M247 506l-64 -305q-8 -34 -8 -54q0 -26 11.5 -37t37.5 -11q43 0 144 75l41 30l66 307q7 36 44 36h50q31 0 31 -26q0 -9 -2 -15l-101 -470q-8 -36 -44 -36h-51q-30 0 -30 26q0 6 2 14l12 55l-39 -30q-98 -73 -176 -73q-58 0 -91.5 29.5t-33.5 84.5q0 34 8 72l70 333
q8 36 44 36h51q30 0 30 -26q0 -9 -2 -15zM497 745l-102 -84q-17 -14 -25.5 -20t-19.5 -11t-22 -5h-29q-23 0 -23 15q0 8 10 21l78 84q32 36 59 36h71q21 0 21 -11q0 -10 -18 -25z" />
    <glyph glyph-name="ucircumflex" unicode="&#xfb;" horiz-adv-x="633" 
d="M247 506l-64 -305q-8 -34 -8 -54q0 -26 11.5 -37t37.5 -11q43 0 144 75l41 30l66 307q7 36 44 36h50q31 0 31 -26q0 -9 -2 -15l-101 -470q-8 -36 -44 -36h-51q-30 0 -30 26q0 6 2 14l12 55l-39 -30q-98 -73 -176 -73q-58 0 -91.5 29.5t-33.5 84.5q0 34 8 72l70 333
q8 36 44 36h51q30 0 30 -26q0 -9 -2 -15zM453 661l-59 68l-88 -68q-45 -36 -72 -36h-14q-23 0 -23 13q0 9 15 23l101 93q38 36 64 36h54q24 0 47 -36l59 -93q6 -11 6 -17q0 -19 -27 -19h-11q-4 0 -8 1t-6.5 1.5t-6.5 3t-6 4t-6 5.5t-5.5 6t-6.5 7.5t-7 7.5z" />
    <glyph glyph-name="udieresis" unicode="&#xfc;" horiz-adv-x="633" 
d="M247 506l-64 -305q-8 -34 -8 -54q0 -26 11.5 -37t37.5 -11q43 0 144 75l41 30l66 307q7 36 44 36h50q31 0 31 -26q0 -9 -2 -15l-101 -470q-8 -36 -44 -36h-51q-30 0 -30 26q0 6 2 14l12 55l-39 -30q-98 -73 -176 -73q-58 0 -91.5 29.5t-33.5 84.5q0 34 8 72l70 333
q8 36 44 36h51q30 0 30 -26q0 -9 -2 -15zM309 643q-8 -37 -44 -37h-52q-29 0 -29 26q0 7 10 51q8 36 44 36h52q29 0 29 -27q0 -5 -10 -49zM569 643q-8 -37 -44 -37h-52q-29 0 -29 26q0 7 10 51q8 36 44 36h51q30 0 30 -27q0 -5 -10 -49z" />
    <glyph glyph-name="yacute" unicode="&#xfd;" horiz-adv-x="632" 
d="M245 506l-44 -204q-14 -63 -14 -80q0 -31 14 -42t48 -11q64 0 161 50l63 292q8 36 44 36h50q31 0 31 -26q0 -9 -2 -15l-93 -432q-29 -134 -111 -198t-234 -64h-86q-30 0 -30 27q0 7 2 15l5 23q8 36 45 36h64q105 0 154.5 38t66.5 119l11 55q-117 -62 -191 -62
q-139 0 -139 132q0 27 12 84l50 232q8 36 44 36h51q30 0 30 -26q0 -9 -2 -15zM491 745l-102 -84q-17 -14 -25.5 -20t-19.5 -11t-22 -5h-29q-23 0 -23 15q0 8 10 21l78 84q32 36 59 36h71q21 0 21 -11q0 -10 -18 -25z" />
    <glyph glyph-name="thorn" unicode="&#xfe;" horiz-adv-x="628" 
d="M296 710l-55 -259l47 36q92 68 166 68q62 0 98 -32.5t36 -93.5q0 -30 -12 -85l-15 -71q-29 -136 -115.5 -204.5t-220.5 -68.5h-81l-32 -151q-8 -37 -44 -37h-50q-31 0 -31 27q0 9 2 15l184 860q8 36 44 36h51q30 0 30 -26q0 -6 -2 -14zM271 382l-54 -40l-51 -238h74
q83 0 130 39.5t67 127.5l13 60q11 49 11 66q0 28 -12 39.5t-40 11.5q-22 0 -50 -12t-43.5 -22.5t-44.5 -31.5z" />
    <glyph glyph-name="ydieresis" unicode="&#xff;" horiz-adv-x="632" 
d="M245 506l-44 -204q-14 -63 -14 -80q0 -31 14 -42t48 -11q64 0 161 50l63 292q8 36 44 36h50q31 0 31 -26q0 -9 -2 -15l-93 -432q-29 -134 -111 -198t-234 -64h-86q-30 0 -30 27q0 7 2 15l5 23q8 36 45 36h64q105 0 154.5 38t66.5 119l11 55q-117 -62 -191 -62
q-139 0 -139 132q0 27 12 84l50 232q8 36 44 36h51q30 0 30 -26q0 -9 -2 -15zM307 643q-8 -37 -44 -37h-52q-29 0 -29 26q0 7 10 51q8 36 44 36h52q29 0 29 -27q0 -5 -10 -49zM567 643q-8 -37 -44 -37h-52q-29 0 -29 26q0 7 10 51q8 36 44 36h51q30 0 30 -27q0 -5 -10 -49z
" />
    <glyph glyph-name="Amacron" unicode="&#x100;" horiz-adv-x="700" 
d="M472 36q0 71 -5 159h-301q-29 -65 -66 -159q-15 -36 -48 -36h-58q-27 0 -27 21q0 6 3 15q81 207 195 415.5t191 298.5h157q33 -118 62 -321t31 -393q0 -36 -34 -36h-64q-36 0 -36 36zM410 648q-94 -133 -197 -348h246q-18 203 -49 348zM602 869q-10 -36 -44 -36h-231
q-30 0 -30 24q0 4 5 24q10 36 44 36h230q31 0 31 -25q0 -3 -5 -23z" />
    <glyph glyph-name="amacron" unicode="&#x101;" horiz-adv-x="615" 
d="M579 507l-100 -471q-8 -36 -44 -36h-51q-30 0 -30 26q0 12 1 15l12 55l-47 -36q-87 -68 -166 -68q-62 0 -98 32.5t-36 93.5q0 30 12 85l15 70q28 136 114.5 205t221.5 69h168q30 0 30 -26q0 -6 -2 -14zM199 99q49 0 138 66l53 39l51 239h-74q-81 0 -127.5 -39.5
t-67.5 -127.5l-15 -60q-10 -45 -10 -67q0 -27 12.5 -38.5t39.5 -11.5zM539 661q-10 -36 -44 -36h-231q-30 0 -30 24q0 4 5 24q10 36 44 36h230q31 0 31 -25q0 -3 -5 -23z" />
    <glyph glyph-name="Abreve" unicode="&#x102;" horiz-adv-x="700" 
d="M472 36q0 71 -5 159h-301q-29 -65 -66 -159q-15 -36 -48 -36h-58q-27 0 -27 21q0 6 3 15q81 207 195 415.5t191 298.5h157q33 -118 62 -321t31 -393q0 -36 -34 -36h-64q-36 0 -36 36zM410 648q-94 -133 -197 -348h246q-18 203 -49 348zM565 953q7 11 11 16t10.5 8.5
t14.5 3.5h11q18 0 18 -13q0 -6 -3 -15q-21 -53 -69.5 -86.5t-119.5 -33.5q-68 0 -101 31t-33 82v7q1 28 28 28h11q8 0 12 -3t5.5 -7.5t3.5 -13.5q0 -1 0.5 -2t0.5 -2q6 -25 30.5 -39t59.5 -14q34 0 64 14t46 39z" />
    <glyph glyph-name="abreve" unicode="&#x103;" horiz-adv-x="615" 
d="M579 507l-100 -471q-8 -36 -44 -36h-51q-30 0 -30 26q0 12 1 15l12 55l-47 -36q-87 -68 -166 -68q-62 0 -98 32.5t-36 93.5q0 30 12 85l15 70q28 136 114.5 205t221.5 69h168q30 0 30 -26q0 -6 -2 -14zM199 99q49 0 138 66l53 39l51 239h-74q-81 0 -127.5 -39.5
t-67.5 -127.5l-15 -60q-10 -45 -10 -67q0 -27 12.5 -38.5t39.5 -11.5zM511 745q7 11 11 16t10.5 8.5t14.5 3.5h11q18 0 18 -13q0 -6 -3 -15q-21 -53 -69.5 -86.5t-119.5 -33.5q-68 0 -101 31t-33 82v7q1 28 28 28h11q8 0 12 -3t5.5 -7.5t3.5 -13.5q0 -1 0.5 -2t0.5 -2
q6 -25 30.5 -39t59.5 -14q34 0 64 14t46 39z" />
    <glyph glyph-name="Aogonek" unicode="&#x104;" horiz-adv-x="700" 
d="M472 36q0 71 -5 159h-301q-29 -65 -66 -159q-15 -36 -48 -36h-58q-27 0 -27 21q0 6 3 15q81 207 195 415.5t191 298.5h157q33 -118 62 -321t31 -393q0 -36 -34 -36h-64q-36 0 -36 36zM410 648q-94 -133 -197 -348h246q-18 203 -49 348zM633 -188h-105q-42 0 -68 16.5
t-26 50.5q0 31 23 57t59 41h51v-12q-25 -11 -46 -30t-21 -40q0 -28 51 -28h94q24 0 24 -17q0 -2 -2 -12q-6 -26 -34 -26z" />
    <glyph glyph-name="aogonek" unicode="&#x105;" horiz-adv-x="615" 
d="M579 507l-100 -471q-8 -36 -44 -36h-51q-30 0 -30 26q0 12 1 15l12 55l-47 -36q-87 -68 -166 -68q-62 0 -98 32.5t-36 93.5q0 30 12 85l15 70q28 136 114.5 205t221.5 69h168q30 0 30 -26q0 -6 -2 -14zM199 99q49 0 138 66l53 39l51 239h-74q-81 0 -127.5 -39.5
t-67.5 -127.5l-15 -60q-10 -45 -10 -67q0 -27 12.5 -38.5t39.5 -11.5zM494 -188h-105q-42 0 -68 16.5t-26 50.5q0 31 23 57t59 41h51v-12q-25 -11 -46 -30t-21 -40q0 -28 51 -28h94q24 0 24 -17q0 -2 -2 -12q-6 -26 -34 -26z" />
    <glyph glyph-name="Cacute" unicode="&#x106;" horiz-adv-x="652" 
d="M506 13q-74 -21 -137 -21h-44q-132 0 -206.5 61t-74.5 184q0 45 11 94l18 88q71 339 422 339q112 0 198 -41l-32 -145q-8 -36 -43 -36h-45q-29 0 -29 26q0 6 1 10l14 69q-30 12 -90 12q-210 0 -262 -231l-20 -91q-10 -40 -10 -83q0 -77 42 -114t127 -37h47q61 0 137 24
q8 2 12 2q19 0 19 -20q0 -6 -9 -47q-7 -32 -46 -43zM623 953l-102 -84q-17 -14 -25.5 -20t-19.5 -11t-22 -5h-29q-23 0 -23 15q0 8 10 21l78 84q32 36 59 36h71q21 0 21 -11q0 -10 -18 -25z" />
    <glyph glyph-name="cacute" unicode="&#x107;" horiz-adv-x="531" 
d="M385 397l8 40q-30 15 -69 15q-61 0 -96 -31t-50 -104l-18 -82q-10 -50 -10 -65q0 -45 25.5 -60t79.5 -15q73 0 127 23q9 4 17 4q16 0 16 -16q0 -6 -3 -15l-7 -32q-4 -17 -12.5 -26t-26.5 -15q-70 -26 -137 -26q-205 0 -205 153q0 33 13 85l20 90q50 235 290 235
q45 0 92.5 -11t76.5 -28l-28 -123q-8 -37 -44 -37h-31q-30 0 -30 27q0 10 2 14zM480 745l-102 -84q-17 -14 -25.5 -20t-19.5 -11t-22 -5h-29q-23 0 -23 15q0 8 10 21l78 84q31 36 59 36h71q21 0 21 -11q0 -10 -18 -25z" />
    <glyph glyph-name="Ccircumflex" unicode="&#x108;" horiz-adv-x="652" 
d="M506 13q-74 -21 -137 -21h-44q-132 0 -206.5 61t-74.5 184q0 45 11 94l18 88q71 339 422 339q112 0 198 -41l-32 -145q-8 -36 -43 -36h-45q-29 0 -29 26q0 6 1 10l14 69q-30 12 -90 12q-210 0 -262 -231l-20 -91q-10 -40 -10 -83q0 -77 42 -114t127 -37h47q61 0 137 24
q8 2 12 2q19 0 19 -20q0 -6 -9 -47q-7 -32 -46 -43zM544 869l-59 68l-88 -68q-45 -36 -72 -36h-14q-23 0 -23 13q0 9 15 23l101 93q38 36 64 36h54q24 0 47 -36l59 -93q6 -11 6 -17q0 -19 -27 -19h-11q-4 0 -8 1t-6.5 1.5t-6.5 3t-6 4t-6 5.5t-5.5 6t-6.5 7.5t-7 7.5z" />
    <glyph glyph-name="ccircumflex" unicode="&#x109;" horiz-adv-x="531" 
d="M385 397l8 40q-30 15 -69 15q-61 0 -96 -31t-50 -104l-18 -82q-10 -50 -10 -65q0 -45 25.5 -60t79.5 -15q73 0 127 23q9 4 17 4q16 0 16 -16q0 -6 -3 -15l-7 -32q-4 -17 -12.5 -26t-26.5 -15q-70 -26 -137 -26q-205 0 -205 153q0 33 13 85l20 90q50 235 290 235
q45 0 92.5 -11t76.5 -28l-28 -123q-8 -37 -44 -37h-31q-30 0 -30 27q0 10 2 14zM433 661l-59 68l-88 -68q-45 -36 -72 -36h-14q-23 0 -23 13q0 9 15 23l101 93q38 36 64 36h54q24 0 47 -36l59 -93q6 -11 6 -17q0 -19 -27 -19h-11q-4 0 -8 1t-6.5 1.5t-6.5 3t-6 4t-6 5.5
t-5.5 6t-6.5 7.5t-7 7.5z" />
    <glyph glyph-name="Cdotaccent" unicode="&#x10a;" horiz-adv-x="652" 
d="M506 13q-74 -21 -137 -21h-44q-132 0 -206.5 61t-74.5 184q0 45 11 94l18 88q71 339 422 339q112 0 198 -41l-32 -145q-8 -36 -43 -36h-45q-29 0 -29 26q0 6 1 10l14 69q-30 12 -90 12q-210 0 -262 -231l-20 -91q-10 -40 -10 -83q0 -77 42 -114t127 -37h47q61 0 137 24
q8 2 12 2q19 0 19 -20q0 -6 -9 -47q-7 -32 -46 -43zM550 869q-8 -36 -44 -36h-52q-29 0 -29 25q0 7 10 51q8 36 44 36h51q30 0 30 -26q0 -6 -10 -50z" />
    <glyph glyph-name="cdotaccent" unicode="&#x10b;" horiz-adv-x="531" 
d="M385 397l8 40q-30 15 -69 15q-61 0 -96 -31t-50 -104l-18 -82q-10 -50 -10 -65q0 -45 25.5 -60t79.5 -15q73 0 127 23q9 4 17 4q16 0 16 -16q0 -6 -3 -15l-7 -32q-4 -17 -12.5 -26t-26.5 -15q-70 -26 -137 -26q-205 0 -205 153q0 33 13 85l20 90q50 235 290 235
q45 0 92.5 -11t76.5 -28l-28 -123q-8 -37 -44 -37h-31q-30 0 -30 27q0 10 2 14zM419 661q-8 -36 -44 -36h-52q-29 0 -29 25q0 7 10 51q8 36 44 36h51q30 0 30 -26q0 -6 -10 -50z" />
    <glyph glyph-name="Ccaron" unicode="&#x10c;" horiz-adv-x="652" 
d="M506 13q-74 -21 -137 -21h-44q-132 0 -206.5 61t-74.5 184q0 45 11 94l18 88q71 339 422 339q112 0 198 -41l-32 -145q-8 -36 -43 -36h-45q-29 0 -29 26q0 6 1 10l14 69q-30 12 -90 12q-210 0 -262 -231l-20 -91q-10 -40 -10 -83q0 -77 42 -114t127 -37h47q61 0 137 24
q8 2 12 2q19 0 19 -20q0 -6 -9 -47q-7 -32 -46 -43zM444 955l59 -71l89 71q44 36 67 36h19q22 0 22 -12q0 -10 -14 -24l-102 -93q-39 -36 -63 -36h-54q-16 0 -25.5 8t-22.5 28l-59 93q-6 11 -6 18q0 18 28 18h11q23 0 51 -36z" />
    <glyph glyph-name="ccaron" unicode="&#x10d;" horiz-adv-x="531" 
d="M385 397l8 40q-30 15 -69 15q-61 0 -96 -31t-50 -104l-18 -82q-10 -50 -10 -65q0 -45 25.5 -60t79.5 -15q73 0 127 23q9 4 17 4q16 0 16 -16q0 -6 -3 -15l-7 -32q-4 -17 -12.5 -26t-26.5 -15q-70 -26 -137 -26q-205 0 -205 153q0 33 13 85l20 90q50 235 290 235
q45 0 92.5 -11t76.5 -28l-28 -123q-8 -37 -44 -37h-31q-30 0 -30 27q0 10 2 14zM298 747l59 -71l89 71q44 36 67 36h19q22 0 22 -12q0 -10 -14 -24l-102 -93q-39 -36 -63 -36h-54q-16 0 -25.5 8t-22.5 28l-59 93q-6 11 -6 18q0 18 28 18h11q23 0 51 -36z" />
    <glyph glyph-name="Dcaron" unicode="&#x10e;" horiz-adv-x="727" 
d="M299 0h-242q-31 0 -31 26q0 7 2 15l144 673q8 36 44 36h224q131 0 202.5 -55t71.5 -168q0 -59 -11 -109l-20 -92q-72 -326 -384 -326zM406 646h-121l-114 -542h127q108 0 169 59t87 175l17 78q10 46 10 90q0 79 -42 109.5t-133 30.5zM376 955l59 -71l89 71q44 36 67 36
h19q22 0 22 -12q0 -10 -14 -24l-102 -93q-39 -36 -63 -36h-54q-16 0 -25.5 8t-22.5 28l-59 93q-6 11 -6 18q0 18 28 18h11q23 0 51 -36z" />
    <glyph glyph-name="dcaron" unicode="&#x10f;" horiz-adv-x="616" 
d="M623 710l-144 -674q-7 -36 -43 -36h-51q-31 0 -31 26q0 9 2 15l12 56l-48 -37q-87 -68 -166 -68q-62 0 -98 32.5t-36 93.5q0 30 12 85l15 70q28 136 114.5 205t221.5 69h81l36 167q8 36 44 36h51q30 0 30 -26q0 -6 -2 -14zM199 99q49 0 138 66l54 40l51 238h-75
q-81 0 -127.5 -39.5t-67.5 -127.5l-15 -60q-10 -45 -10 -67q0 -27 12.5 -38.5t39.5 -11.5zM655 634l35 70q13 26 29.5 36t42.5 10h15q24 0 24 -25t-16 -43l-43 -49q-13 -15 -18 -20.5t-15 -12t-20 -6.5h-20q-22 0 -22 14q0 10 8 26z" />
    <glyph glyph-name="Dcroat" unicode="&#x110;" horiz-adv-x="727" 
d="M299 0h-242q-31 0 -31 26q0 7 2 15l64 299h-37q-30 0 -30 26q0 2 7 35q8 36 45 36h35l60 277q8 36 44 36h224q131 0 202.5 -55t71.5 -168q0 -59 -11 -109l-20 -92q-72 -326 -384 -326zM278 340h-58l-49 -236h127q108 0 169 59t87 175l17 78q10 46 10 90q0 79 -42 109.5
t-133 30.5h-121l-44 -209h60q29 0 29 -26q0 -2 -7 -35q-8 -36 -45 -36z" />
    <glyph glyph-name="dcroat" unicode="&#x111;" horiz-adv-x="616" 
d="M623 710l-3 -15h33q31 0 31 -26q0 -6 -2 -14l-4 -15q-9 -36 -45 -36h-33l-121 -568q-7 -36 -43 -36h-51q-31 0 -31 26q0 9 2 15l12 56l-48 -37q-87 -68 -166 -68q-62 0 -98 32.5t-36 93.5q0 30 12 85l15 70q28 136 114.5 205t221.5 69h81l12 57h-93q-30 0 -30 26
q0 1 0.5 7t0.5 8l4 14q8 36 45 36h93l4 19q8 36 44 36h51q30 0 30 -26q0 -6 -2 -14zM199 99q49 0 138 66l54 40l51 238h-75q-81 0 -127.5 -39.5t-67.5 -127.5l-15 -60q-10 -45 -10 -67q0 -27 12.5 -38.5t39.5 -11.5z" />
    <glyph glyph-name="Emacron" unicode="&#x112;" horiz-adv-x="588" 
d="M437 0h-221q-76 0 -120.5 34t-44.5 103q0 34 8 66l108 511q8 36 44 36h365q29 0 29 -26q0 -6 -7 -42q-8 -36 -46 -36h-272l-42 -203h254q29 0 29 -26q0 -6 -7 -42q-8 -36 -46 -36h-253l-26 -123q-7 -49 -7 -54q0 -33 17.5 -45.5t57.5 -12.5h205q29 0 29 -26q0 -6 -8 -42
q-6 -36 -46 -36zM555 869q-10 -36 -44 -36h-231q-30 0 -30 24q0 4 5 24q10 36 44 36h230q31 0 31 -25q0 -3 -5 -23z" />
    <glyph glyph-name="emacron" unicode="&#x113;" horiz-adv-x="566" 
d="M385 17q-75 -25 -159 -25q-202 0 -202 155q0 30 11 78l22 95q26 118 103 176.5t193 58.5q79 0 130 -34.5t51 -103.5q0 -92 -62.5 -135t-167.5 -43h-143l-1 -6q-10 -40 -10 -64q0 -44 26.5 -59t78.5 -15q78 0 144 22q11 3 17 3q16 0 16 -16q0 -10 -2 -16l-6 -30
q-5 -31 -39 -41zM180 322l-1 -4h131q106 0 106 82q0 55 -85 55q-61 0 -98.5 -30.5t-52.5 -102.5zM511 661q-10 -36 -44 -36h-231q-30 0 -30 24q0 4 5 24q10 36 44 36h230q31 0 31 -25q0 -3 -5 -23z" />
    <glyph glyph-name="Ebreve" unicode="&#x114;" horiz-adv-x="588" 
d="M437 0h-221q-76 0 -120.5 34t-44.5 103q0 34 8 66l108 511q8 36 44 36h365q29 0 29 -26q0 -6 -7 -42q-8 -36 -46 -36h-272l-42 -203h254q29 0 29 -26q0 -6 -7 -42q-8 -36 -46 -36h-253l-26 -123q-7 -49 -7 -54q0 -33 17.5 -45.5t57.5 -12.5h205q29 0 29 -26q0 -6 -8 -42
q-6 -36 -46 -36zM534 953q7 11 11 16t10.5 8.5t14.5 3.5h11q18 0 18 -13q0 -6 -3 -15q-21 -53 -69.5 -86.5t-119.5 -33.5q-68 0 -101 31t-33 82v7q1 28 28 28h11q8 0 12 -3t5.5 -7.5t3.5 -13.5q0 -1 0.5 -2t0.5 -2q6 -25 30.5 -39t59.5 -14q34 0 64 14t46 39z" />
    <glyph glyph-name="ebreve" unicode="&#x115;" horiz-adv-x="566" 
d="M385 17q-75 -25 -159 -25q-202 0 -202 155q0 30 11 78l22 95q26 118 103 176.5t193 58.5q79 0 130 -34.5t51 -103.5q0 -92 -62.5 -135t-167.5 -43h-143l-1 -6q-10 -40 -10 -64q0 -44 26.5 -59t78.5 -15q78 0 144 22q11 3 17 3q16 0 16 -16q0 -10 -2 -16l-6 -30
q-5 -31 -39 -41zM180 322l-1 -4h131q106 0 106 82q0 55 -85 55q-61 0 -98.5 -30.5t-52.5 -102.5zM475 745q7 11 11 16t10.5 8.5t14.5 3.5h11q18 0 18 -13q0 -6 -3 -15q-21 -53 -69.5 -86.5t-119.5 -33.5q-68 0 -101 31t-33 82v7q1 28 28 28h11q8 0 12 -3t5.5 -7.5t3.5 -13.5
q0 -1 0.5 -2t0.5 -2q6 -25 30.5 -39t59.5 -14q34 0 64 14t46 39z" />
    <glyph glyph-name="Edotaccent" unicode="&#x116;" horiz-adv-x="588" 
d="M437 0h-221q-76 0 -120.5 34t-44.5 103q0 34 8 66l108 511q8 36 44 36h365q29 0 29 -26q0 -6 -7 -42q-8 -36 -46 -36h-272l-42 -203h254q29 0 29 -26q0 -6 -7 -42q-8 -36 -46 -36h-253l-26 -123q-7 -49 -7 -54q0 -33 17.5 -45.5t57.5 -12.5h205q29 0 29 -26q0 -6 -8 -42
q-6 -36 -46 -36zM478 869q-8 -36 -44 -36h-52q-29 0 -29 25q0 7 10 51q8 36 44 36h51q30 0 30 -26q0 -6 -10 -50z" />
    <glyph glyph-name="edotaccent" unicode="&#x117;" horiz-adv-x="566" 
d="M385 17q-75 -25 -159 -25q-202 0 -202 155q0 30 11 78l22 95q26 118 103 176.5t193 58.5q79 0 130 -34.5t51 -103.5q0 -92 -62.5 -135t-167.5 -43h-143l-1 -6q-10 -40 -10 -64q0 -44 26.5 -59t78.5 -15q78 0 144 22q11 3 17 3q16 0 16 -16q0 -10 -2 -16l-6 -30
q-5 -31 -39 -41zM180 322l-1 -4h131q106 0 106 82q0 55 -85 55q-61 0 -98.5 -30.5t-52.5 -102.5zM427 661q-8 -36 -44 -36h-52q-29 0 -29 25q0 7 10 51q8 36 44 36h51q30 0 30 -26q0 -6 -10 -50z" />
    <glyph glyph-name="Eogonek" unicode="&#x118;" horiz-adv-x="588" 
d="M437 0h-221q-76 0 -120.5 34t-44.5 103q0 34 8 66l108 511q8 36 44 36h365q29 0 29 -26q0 -6 -7 -42q-8 -36 -46 -36h-272l-42 -203h254q29 0 29 -26q0 -6 -7 -42q-8 -36 -46 -36h-253l-26 -123q-7 -49 -7 -54q0 -33 17.5 -45.5t57.5 -12.5h205q29 0 29 -26q0 -6 -8 -42
q-6 -36 -46 -36zM464 -188h-105q-42 0 -68 16.5t-26 50.5q0 31 23 57t59 41h51v-12q-25 -11 -46 -30t-21 -40q0 -28 51 -28h94q24 0 24 -17q0 -2 -2 -12q-6 -26 -34 -26z" />
    <glyph glyph-name="eogonek" unicode="&#x119;" horiz-adv-x="566" 
d="M385 17q-75 -25 -159 -25q-202 0 -202 155q0 30 11 78l22 95q26 118 103 176.5t193 58.5q79 0 130 -34.5t51 -103.5q0 -92 -62.5 -135t-167.5 -43h-143l-1 -6q-10 -40 -10 -64q0 -44 26.5 -59t78.5 -15q78 0 144 22q11 3 17 3q16 0 16 -16q0 -10 -2 -16l-6 -30
q-5 -31 -39 -41zM180 322l-1 -4h131q106 0 106 82q0 55 -85 55q-61 0 -98.5 -30.5t-52.5 -102.5zM326 -188h-105q-42 0 -68 16.5t-26 50.5q0 31 23 57t59 41h51v-12q-25 -11 -46 -30t-21 -40q0 -28 51 -28h94q24 0 24 -17q0 -2 -2 -12q-6 -26 -34 -26z" />
    <glyph glyph-name="Ecaron" unicode="&#x11a;" horiz-adv-x="588" 
d="M437 0h-221q-76 0 -120.5 34t-44.5 103q0 34 8 66l108 511q8 36 44 36h365q29 0 29 -26q0 -6 -7 -42q-8 -36 -46 -36h-272l-42 -203h254q29 0 29 -26q0 -6 -7 -42q-8 -36 -46 -36h-253l-26 -123q-7 -49 -7 -54q0 -33 17.5 -45.5t57.5 -12.5h205q29 0 29 -26q0 -6 -8 -42
q-6 -36 -46 -36zM348 955l59 -71l89 71q44 36 67 36h19q22 0 22 -12q0 -10 -14 -24l-102 -93q-39 -36 -63 -36h-54q-16 0 -25.5 8t-22.5 28l-59 93q-6 11 -6 18q0 18 28 18h11q23 0 51 -36z" />
    <glyph glyph-name="ecaron" unicode="&#x11b;" horiz-adv-x="566" 
d="M385 17q-75 -25 -159 -25q-202 0 -202 155q0 30 11 78l22 95q26 118 103 176.5t193 58.5q79 0 130 -34.5t51 -103.5q0 -92 -62.5 -135t-167.5 -43h-143l-1 -6q-10 -40 -10 -64q0 -44 26.5 -59t78.5 -15q78 0 144 22q11 3 17 3q16 0 16 -16q0 -10 -2 -16l-6 -30
q-5 -31 -39 -41zM180 322l-1 -4h131q106 0 106 82q0 55 -85 55q-61 0 -98.5 -30.5t-52.5 -102.5zM305 747l59 -71l89 71q44 36 67 36h19q22 0 22 -12q0 -10 -14 -24l-102 -93q-39 -36 -63 -36h-54q-16 0 -25.5 8t-22.5 28l-59 93q-6 11 -6 18q0 18 28 18h11q23 0 51 -36z
" />
    <glyph glyph-name="Gcircumflex" unicode="&#x11c;" horiz-adv-x="703" 
d="M426 281q-30 0 -30 27q0 5 8 42q8 36 45 36h181q29 0 29 -26q0 -2 -3 -17l-65 -308q-39 -16 -104 -29.5t-116 -13.5h-57q-127 0 -197.5 60.5t-70.5 181.5q0 45 11 94l19 96q34 169 143 251.5t280 82.5q95 0 179 -29q29 -10 29 -34q0 -6 -9 -47q-6 -29 -30 -29q-8 0 -15 3
q-78 31 -172 31q-225 0 -274 -231l-19 -88q-9 -49 -9 -82q0 -80 41.5 -117.5t127.5 -37.5h41q48 0 99 17l35 167h-97zM556 869l-59 68l-88 -68q-45 -36 -72 -36h-14q-23 0 -23 13q0 9 15 23l101 93q38 36 64 36h54q24 0 47 -36l59 -93q6 -11 6 -17q0 -19 -27 -19h-11
q-4 0 -8 1t-6.5 1.5t-6.5 3t-6 4t-6 5.5t-5.5 6t-6.5 7.5t-7 7.5z" />
    <glyph glyph-name="gcircumflex" unicode="&#x11d;" horiz-adv-x="611" 
d="M575 507l-92 -433q-29 -137 -113 -199.5t-233 -62.5h-90q-30 0 -30 27q0 7 2 15l5 26q8 36 45 36h67q103 0 154.5 36t68.5 116l6 32q-116 -69 -198 -69q-139 0 -139 137q0 35 8 65l14 60q58 254 311 254h186q30 0 30 -26q0 -6 -2 -14zM214 138q61 0 172 60l52 245h-94
q-76 0 -117 -39t-57 -119l-10 -47q-7 -26 -7 -41q0 -33 14 -46t47 -13zM459 661l-59 68l-88 -68q-45 -36 -72 -36h-14q-23 0 -23 13q0 9 15 23l101 93q38 36 64 36h54q24 0 47 -36l59 -93q6 -11 6 -17q0 -19 -27 -19h-11q-4 0 -8 1t-6.5 1.5t-6.5 3t-6 4t-6 5.5t-5.5 6
t-6.5 7.5t-7 7.5z" />
    <glyph glyph-name="Gbreve" unicode="&#x11e;" horiz-adv-x="703" 
d="M426 281q-30 0 -30 27q0 5 8 42q8 36 45 36h181q29 0 29 -26q0 -2 -3 -17l-65 -308q-39 -16 -104 -29.5t-116 -13.5h-57q-127 0 -197.5 60.5t-70.5 181.5q0 45 11 94l19 96q34 169 143 251.5t280 82.5q95 0 179 -29q29 -10 29 -34q0 -6 -9 -47q-6 -29 -30 -29q-8 0 -15 3
q-78 31 -172 31q-225 0 -274 -231l-19 -88q-9 -49 -9 -82q0 -80 41.5 -117.5t127.5 -37.5h41q48 0 99 17l35 167h-97zM606 953q7 11 11 16t10.5 8.5t14.5 3.5h11q18 0 18 -13q0 -6 -3 -15q-21 -53 -69.5 -86.5t-119.5 -33.5q-68 0 -101 31t-33 82v7q1 28 28 28h11q8 0 12 -3
t5.5 -7.5t3.5 -13.5q0 -1 0.5 -2t0.5 -2q6 -25 30.5 -39t59.5 -14q34 0 64 14t46 39z" />
    <glyph glyph-name="gbreve" unicode="&#x11f;" horiz-adv-x="611" 
d="M575 507l-92 -433q-29 -137 -113 -199.5t-233 -62.5h-90q-30 0 -30 27q0 7 2 15l5 26q8 36 45 36h67q103 0 154.5 36t68.5 116l6 32q-116 -69 -198 -69q-139 0 -139 137q0 35 8 65l14 60q58 254 311 254h186q30 0 30 -26q0 -6 -2 -14zM214 138q61 0 172 60l52 245h-94
q-76 0 -117 -39t-57 -119l-10 -47q-7 -26 -7 -41q0 -33 14 -46t47 -13zM506 745q7 11 11 16t10.5 8.5t14.5 3.5h11q18 0 18 -13q0 -6 -3 -15q-21 -53 -69.5 -86.5t-119.5 -33.5q-68 0 -101 31t-33 82v7q1 28 28 28h11q8 0 12 -3t5.5 -7.5t3.5 -13.5q0 -1 0.5 -2t0.5 -2
q6 -25 30.5 -39t59.5 -14q34 0 64 14t46 39z" />
    <glyph glyph-name="Gdotaccent" unicode="&#x120;" horiz-adv-x="703" 
d="M426 281q-30 0 -30 27q0 5 8 42q8 36 45 36h181q29 0 29 -26q0 -2 -3 -17l-65 -308q-39 -16 -104 -29.5t-116 -13.5h-57q-127 0 -197.5 60.5t-70.5 181.5q0 45 11 94l19 96q34 169 143 251.5t280 82.5q95 0 179 -29q29 -10 29 -34q0 -6 -9 -47q-6 -29 -30 -29q-8 0 -15 3
q-78 31 -172 31q-225 0 -274 -231l-19 -88q-9 -49 -9 -82q0 -80 41.5 -117.5t127.5 -37.5h41q48 0 99 17l35 167h-97zM554 869q-8 -36 -44 -36h-52q-29 0 -29 25q0 7 10 51q8 36 44 36h51q30 0 30 -26q0 -6 -10 -50z" />
    <glyph glyph-name="gdotaccent" unicode="&#x121;" horiz-adv-x="620" 
d="M575 507l-92 -433q-29 -137 -113 -199.5t-233 -62.5h-90q-30 0 -30 27q0 7 2 15l5 26q8 36 45 36h67q103 0 154.5 36t68.5 116l6 32q-116 -69 -198 -69q-139 0 -139 137q0 35 8 65l14 60q58 254 311 254h186q30 0 30 -26q0 -6 -2 -14zM214 138q61 0 172 60l52 245h-94
q-76 0 -117 -39t-57 -119l-10 -47q-7 -26 -7 -41q0 -33 14 -46t47 -13zM449 661q-8 -36 -44 -36h-52q-29 0 -29 25q0 7 10 51q8 36 44 36h51q30 0 30 -26q0 -6 -10 -50z" />
    <glyph glyph-name="Gcommaaccent" unicode="&#x122;" horiz-adv-x="703" 
d="M426 281q-30 0 -30 27q0 5 8 42q8 36 45 36h181q29 0 29 -26q0 -2 -3 -17l-65 -308q-39 -16 -104 -29.5t-116 -13.5h-57q-127 0 -197.5 60.5t-70.5 181.5q0 45 11 94l19 96q34 169 143 251.5t280 82.5q95 0 179 -29q29 -10 29 -34q0 -6 -9 -47q-6 -29 -30 -29q-8 0 -15 3
q-78 31 -172 31q-225 0 -274 -231l-19 -88q-9 -49 -9 -82q0 -80 41.5 -117.5t127.5 -37.5h41q48 0 99 17l35 167h-97zM228 -155l35 70q13 26 29 36t42 10h16q23 0 23 -25q0 -26 -15 -43l-43 -49q-2 -2 -7.5 -8.5t-7.5 -8.5l-7 -7t-7.5 -6.5t-7 -4t-8.5 -3.5t-8 -1h-20
q-22 0 -22 14q0 10 8 26z" />
    <glyph glyph-name="gcommaaccent" unicode="&#x123;" horiz-adv-x="611" 
d="M575 507l-92 -433q-29 -137 -113 -199.5t-233 -62.5h-90q-30 0 -30 27q0 7 2 15l5 26q8 36 45 36h67q103 0 154.5 36t68.5 116l6 32q-116 -69 -198 -69q-139 0 -139 137q0 35 8 65l14 60q58 254 311 254h186q30 0 30 -26q0 -6 -2 -14zM214 138q61 0 172 60l52 245h-94
q-76 0 -117 -39t-57 -119l-10 -47q-7 -26 -7 -41q0 -33 14 -46t47 -13zM464 710l-35 -70q-12 -26 -28.5 -36t-42.5 -10h-16q-23 0 -23 25q0 23 16 43l43 49q2 2 7.5 8t7.5 8.5t6.5 7t7.5 6.5t7 4.5t8 3.5t8 1h21q21 0 21 -15q0 -9 -8 -25z" />
    <glyph glyph-name="Hcircumflex" unicode="&#x124;" horiz-adv-x="752" 
d="M481 41l64 300h-324l-65 -305q-8 -36 -44 -36h-55q-31 0 -31 26q0 7 2 15l144 673q8 36 44 36h55q31 0 31 -26q0 -7 -2 -15l-56 -262h323l58 267q8 36 44 36h56q30 0 30 -26q0 -7 -2 -15l-144 -673q-8 -36 -44 -36h-55q-31 0 -31 26q0 7 2 15zM557 869l-59 68l-88 -68
q-45 -36 -72 -36h-14q-23 0 -23 13q0 9 15 23l101 93q38 36 64 36h54q24 0 47 -36l59 -93q6 -11 6 -17q0 -19 -27 -19h-11q-4 0 -8 1t-6.5 1.5t-6.5 3t-6 4t-6 5.5t-5.5 6t-6.5 7.5t-7 7.5z" />
    <glyph glyph-name="hcircumflex" unicode="&#x125;" horiz-adv-x="646" 
d="M382 41l64 305q8 34 8 53q0 27 -11.5 38t-37.5 11q-43 0 -144 -75l-42 -31h-2l-65 -306q-8 -36 -44 -36h-50q-31 0 -31 26q0 9 2 15l144 673q8 36 44 36h51q30 0 30 -26q0 -6 -2 -14l-56 -261l42 32q97 74 176 74q58 0 91.5 -29.5t33.5 -85.5q0 -33 -8 -71l-70 -333
q-8 -36 -44 -36h-51q-30 0 -30 26q0 9 2 15zM338 864l-59 68l-88 -68q-45 -36 -72 -36h-14q-23 0 -23 13q0 9 15 23l101 93q38 36 64 36h54q24 0 47 -36l59 -93q6 -10 6 -17q0 -19 -27 -19h-11q-4 0 -8 1t-6.5 1.5t-6.5 3t-6 4t-6 5.5t-5.5 6t-6.5 7.5t-7 7.5z" />
    <glyph glyph-name="Hbar" unicode="&#x126;" horiz-adv-x="752" 
d="M481 41l64 300h-324l-65 -305q-8 -36 -44 -36h-55q-31 0 -31 26q0 7 2 15l105 493h-35q-30 0 -30 27q0 5 8 42q4 17 16 27.5t29 10.5h35l16 73q8 36 44 36h55q31 0 31 -26q0 -7 -2 -15l-15 -68h324l16 73q8 36 44 36h56q30 0 30 -26q0 -7 -2 -15l-15 -68h30q29 0 29 -27
q0 -6 -8 -42q-8 -38 -45 -38h-29l-106 -498q-8 -36 -44 -36h-55q-31 0 -31 26q0 7 2 15zM262 534l-18 -87h323l19 87h-324z" />
    <glyph glyph-name="hbar" unicode="&#x127;" horiz-adv-x="646" 
d="M382 41l64 305q8 34 8 53q0 27 -11.5 38t-37.5 11q-43 0 -144 -75l-42 -31h-2l-65 -306q-8 -36 -44 -36h-50q-31 0 -31 26q0 9 2 15l120 563h-34q-30 0 -30 26q0 7 2 15l4 14q8 36 45 36h33l4 19q8 36 44 36h51q30 0 30 -26q0 -6 -2 -14l-3 -15h93q30 0 30 -26
q0 -6 -2 -14l-4 -15q-9 -36 -45 -36h-92l-33 -155l42 32q97 74 176 74q58 0 91.5 -29.5t33.5 -85.5q0 -33 -8 -71l-70 -333q-8 -36 -44 -36h-51q-30 0 -30 26q0 9 2 15z" />
    <glyph glyph-name="Itilde" unicode="&#x128;" horiz-adv-x="300" 
d="M28 41l144 673q8 36 44 36h55q31 0 31 -26q0 -7 -2 -15l-144 -673q-8 -36 -44 -36h-55q-31 0 -31 26q0 7 2 15zM406 862q-41 -29 -72 -29q-27 0 -69.5 38t-59.5 38q-31 0 -69 -38q-18 -17 -28 -17q-8 0 -8 11q0 7 5 28q5 26 49 60q31 26 66 26q30 0 72 -37.5t58 -37.5
q30 0 73 39q19 18 29 18q7 0 7 -13q0 -6 -4 -25q-5 -25 -49 -61z" />
    <glyph glyph-name="itilde" unicode="&#x129;" horiz-adv-x="296" 
d="M260 507l-101 -471q-8 -36 -44 -36h-51q-30 0 -30 26q0 9 2 15l86 402h-51q-29 0 -29 27q0 2 3 17l4 24q7 36 45 36h137q31 0 31 -26q0 -6 -2 -14zM336 654q-41 -29 -72 -29q-27 0 -69.5 38t-59.5 38q-31 0 -69 -38q-18 -17 -28 -17q-8 0 -8 11q0 7 5 28q5 26 49 60
q31 26 66 26q30 0 72 -37.5t58 -37.5q30 0 73 39q19 18 29 18q7 0 7 -13q0 -6 -4 -25q-5 -25 -49 -61z" />
    <glyph glyph-name="Imacron" unicode="&#x12a;" horiz-adv-x="300" 
d="M28 41l144 673q8 36 44 36h55q31 0 31 -26q0 -7 -2 -15l-144 -673q-8 -36 -44 -36h-55q-31 0 -31 26q0 7 2 15zM417 869q-10 -36 -44 -36h-231q-30 0 -30 24q0 4 5 24q10 36 44 36h230q31 0 31 -25q0 -3 -5 -23z" />
    <glyph glyph-name="imacron" unicode="&#x12b;" horiz-adv-x="296" 
d="M260 507l-101 -471q-8 -36 -44 -36h-51q-30 0 -30 26q0 9 2 15l86 402h-51q-29 0 -29 27q0 2 3 17l4 24q7 36 45 36h137q31 0 31 -26q0 -6 -2 -14zM336 661q-10 -36 -44 -36h-231q-30 0 -30 24q0 4 5 24q10 36 44 36h230q31 0 31 -25q0 -3 -5 -23z" />
    <glyph glyph-name="Ibreve" unicode="&#x12c;" horiz-adv-x="300" 
d="M28 41l144 673q8 36 44 36h55q31 0 31 -26q0 -7 -2 -15l-144 -673q-8 -36 -44 -36h-55q-31 0 -31 26q0 7 2 15zM382 953q7 11 11 16t10.5 8.5t14.5 3.5h11q18 0 18 -13q0 -6 -3 -15q-21 -53 -69.5 -86.5t-119.5 -33.5q-68 0 -101 31t-33 82v7q1 28 28 28h11q8 0 12 -3
t5.5 -7.5t3.5 -13.5q0 -1 0.5 -2t0.5 -2q6 -25 30.5 -39t59.5 -14q34 0 64 14t46 39z" />
    <glyph glyph-name="ibreve" unicode="&#x12d;" horiz-adv-x="296" 
d="M260 507l-101 -471q-8 -36 -44 -36h-51q-30 0 -30 26q0 9 2 15l86 402h-51q-29 0 -29 27q0 2 3 17l4 24q7 36 45 36h137q31 0 31 -26q0 -6 -2 -14zM308 745q7 11 11 16t10.5 8.5t14.5 3.5h11q18 0 18 -13q0 -6 -3 -15q-21 -53 -69.5 -86.5t-119.5 -33.5q-68 0 -101 31
t-33 82v7q1 28 28 28h11q8 0 12 -3t5.5 -7.5t3.5 -13.5q0 -1 0.5 -2t0.5 -2q6 -25 30.5 -39t59.5 -14q34 0 64 14t46 39z" />
    <glyph glyph-name="Iogonek" unicode="&#x12e;" horiz-adv-x="300" 
d="M28 41l144 673q8 36 44 36h55q31 0 31 -26q0 -7 -2 -15l-144 -673q-8 -36 -44 -36h-55q-31 0 -31 26q0 7 2 15zM168 -188h-105q-42 0 -68 16.5t-26 50.5q0 31 23 57t59 41h51v-12q-25 -11 -46 -30t-21 -40q0 -28 51 -28h94q24 0 24 -17q0 -2 -2 -12q-6 -26 -34 -26z" />
    <glyph glyph-name="iogonek" unicode="&#x12f;" horiz-adv-x="296" 
d="M260 507l-101 -471q-8 -36 -44 -36h-51q-30 0 -30 26q0 9 2 15l86 402h-51q-29 0 -29 27q0 2 3 17l4 24q7 36 45 36h137q31 0 31 -26q0 -6 -2 -14zM302 709l-7 -35q-6 -36 -44 -36h-51q-30 0 -30 26q0 9 2 15l7 35q8 36 44 36h50q31 0 31 -26q0 -9 -2 -15zM172 -188h-105
q-42 0 -68 16.5t-26 50.5q0 31 23 57t59 41h51v-12q-25 -11 -46 -30t-21 -40q0 -28 51 -28h94q24 0 24 -17q0 -2 -2 -12q-6 -26 -34 -26z" />
    <glyph glyph-name="Idotaccent" unicode="&#x130;" horiz-adv-x="300" 
d="M28 41l144 673q8 36 44 36h55q31 0 31 -26q0 -7 -2 -15l-144 -673q-8 -36 -44 -36h-55q-31 0 -31 26q0 7 2 15zM333 869q-8 -36 -44 -36h-52q-29 0 -29 25q0 7 10 51q8 36 44 36h51q30 0 30 -26q0 -6 -10 -50z" />
    <glyph glyph-name="dotlessi" unicode="&#x131;" horiz-adv-x="296" 
d="M260 507l-101 -471q-8 -36 -44 -36h-51q-30 0 -30 26q0 9 2 15l86 402h-51q-29 0 -29 27q0 2 3 17l4 24q7 36 45 36h137q31 0 31 -26q0 -6 -2 -14z" />
    <glyph glyph-name="IJ" unicode="&#x132;" horiz-adv-x="754" 
d="M28 41l144 673q8 36 44 36h55q31 0 31 -26q0 -7 -2 -15l-144 -673q-8 -36 -44 -36h-55q-31 0 -31 26q0 7 2 15zM301 0q-30 0 -30 26q0 6 8 42q7 36 45 36h59q115 0 141 128l87 414h-145q-29 0 -29 26q0 6 7 42q8 36 45 36h237q29 0 29 -25q0 -10 -2 -17l-101 -476
q-49 -232 -279 -232h-72z" />
    <glyph glyph-name="ij" unicode="&#x133;" horiz-adv-x="606" 
d="M195 -188h-10q-30 0 -30 27q0 5 3 17l4 24q7 36 45 36q62 0 95.5 33.5t47.5 100.5l83 393h-50q-29 0 -29 27q0 7 2 17l4 24q7 36 45 36h138q29 0 29 -26q0 -6 -1 -10l-97 -459q-52 -240 -279 -240zM260 507l-101 -471q-8 -36 -44 -36h-51q-30 0 -30 26q0 9 2 15l86 402
h-51q-29 0 -29 27q0 2 3 17l4 24q7 36 45 36h137q31 0 31 -26q0 -6 -2 -14zM613 709l-7 -35q-5 -36 -44 -36h-50q-31 0 -31 26q0 9 2 15l7 35q8 36 44 36h51q30 0 30 -26q0 -9 -2 -15zM302 709l-7 -35q-6 -36 -44 -36h-51q-30 0 -30 26q0 9 2 15l7 35q8 36 44 36h50
q31 0 31 -26q0 -9 -2 -15z" />
    <glyph glyph-name="Jcircumflex" unicode="&#x134;" horiz-adv-x="461" 
d="M8 0q-29 0 -29 26q0 6 7 42t45 36h59q115 0 141 128l87 414h-145q-29 0 -29 26q0 6 7 42q8 36 45 36h237q29 0 29 -25q0 -10 -2 -17l-101 -476q-49 -232 -279 -232h-72zM407 869l-59 68l-88 -68q-45 -36 -72 -36h-14q-23 0 -23 13q0 9 15 23l101 93q38 36 64 36h54
q24 0 47 -36l59 -93q6 -11 6 -17q0 -19 -27 -19h-11q-4 0 -8 1t-6.5 1.5t-6.5 3t-6 4t-6 5.5t-5.5 6t-6.5 7.5t-7 7.5z" />
    <glyph glyph-name="jcircumflex" unicode="&#x135;" horiz-adv-x="302" 
d="M-109 -188h-11q-29 0 -29 27q0 5 3 17l3 24q7 36 45 36q62 0 95.5 33.5t47.5 100.5l84 393h-51q-29 0 -29 27q0 2 3 17l4 24q7 36 45 36h137q30 0 30 -26q0 -6 -1 -10l-98 -459q-51 -240 -278 -240zM275 661l-59 68l-88 -68q-45 -36 -72 -36h-14q-23 0 -23 13q0 9 15 23
l101 93q38 36 64 36h54q24 0 47 -36l59 -93q6 -11 6 -17q0 -19 -27 -19h-11q-4 0 -8 1t-6.5 1.5t-6.5 3t-6 4t-6 5.5t-5.5 6t-6.5 7.5t-7 7.5z" />
    <glyph glyph-name="Kcommaaccent" unicode="&#x136;" horiz-adv-x="681" 
d="M28 41l144 673q8 36 44 36h55q31 0 31 -26q0 -7 -2 -15l-57 -266h44l283 271q39 36 63 36h83q19 0 19 -14q0 -8 -14 -22l-342 -318l215 -360q6 -11 6 -18q0 -18 -26 -18h-73q-30 0 -53 36l-179 302h-49l-64 -302q-8 -36 -44 -36h-55q-31 0 -31 26q0 7 2 15zM178 -155
l35 70q13 26 29 36t42 10h16q23 0 23 -25q0 -26 -15 -43l-43 -49q-2 -2 -7.5 -8.5t-7.5 -8.5l-7 -7t-7.5 -6.5t-7 -4t-8.5 -3.5t-8 -1h-20q-22 0 -22 14q0 10 8 26z" />
    <glyph glyph-name="kcommaaccent" unicode="&#x137;" horiz-adv-x="571" 
d="M296 710l-78 -364h48l173 165q39 36 63 36h71q24 0 24 -14q0 -9 -14 -22l-226 -210l133 -265q4 -7 4 -15q0 -21 -29 -21h-70q-29 0 -47 36l-104 206h-48l-44 -206q-8 -36 -44 -36h-50q-31 0 -31 26q0 9 2 15l144 673q8 36 44 36h51q30 0 30 -26q0 -6 -2 -14zM135 -155
l35 70q13 26 29 36t42 10h16q23 0 23 -25q0 -26 -15 -43l-43 -49q-2 -2 -7.5 -8.5t-7.5 -8.5l-7 -7t-7.5 -6.5t-7 -4t-8.5 -3.5t-8 -1h-20q-22 0 -22 14q0 10 8 26z" />
    <glyph glyph-name="Lacute" unicode="&#x139;" horiz-adv-x="551" 
d="M423 0h-202q-76 0 -120.5 34t-44.5 103q0 34 8 66l109 511q8 36 44 36h56q30 0 30 -26q0 -7 -2 -15l-107 -493q-7 -49 -7 -54q0 -33 17.5 -45.5t57.5 -12.5h184q30 0 30 -26q0 -6 -8 -42t-45 -36zM453 953l-102 -84q-17 -14 -25.5 -20t-19.5 -11t-22 -5h-29q-23 0 -23 15
q0 8 10 21l78 84q32 36 59 36h71q21 0 21 -11q0 -10 -18 -25z" />
    <glyph glyph-name="lacute" unicode="&#x13a;" horiz-adv-x="295" 
d="M302 710l-144 -674q-8 -36 -44 -36h-51q-30 0 -30 26q0 9 2 15l129 605h-50q-30 0 -30 27q0 8 2 14l6 27q8 36 45 36h136q31 0 31 -26q0 -6 -2 -14zM419 960l-102 -84q-17 -14 -25.5 -20t-19.5 -11t-22 -5h-29q-23 0 -23 15q0 8 10 21l78 84q32 36 59 36h71q21 0 21 -11
q0 -10 -18 -25z" />
    <glyph glyph-name="Lcommaaccent" unicode="&#x13b;" horiz-adv-x="551" 
d="M423 0h-202q-76 0 -120.5 34t-44.5 103q0 34 8 66l109 511q8 36 44 36h56q30 0 30 -26q0 -7 -2 -15l-107 -493q-7 -49 -7 -54q0 -33 17.5 -45.5t57.5 -12.5h184q30 0 30 -26q0 -6 -8 -42t-45 -36zM144 -155l35 70q13 26 29 36t42 10h16q23 0 23 -25q0 -26 -15 -43
l-43 -49q-2 -2 -7.5 -8.5t-7.5 -8.5l-7 -7t-7.5 -6.5t-7 -4t-8.5 -3.5t-8 -1h-20q-22 0 -22 14q0 10 8 26z" />
    <glyph glyph-name="lcommaaccent" unicode="&#x13c;" horiz-adv-x="295" 
d="M302 710l-144 -674q-8 -36 -44 -36h-51q-30 0 -30 26q0 9 2 15l129 605h-50q-30 0 -30 27q0 8 2 14l6 27q8 36 45 36h136q31 0 31 -26q0 -6 -2 -14zM-31 -155l35 70q13 26 29 36t42 10h16q23 0 23 -25q0 -26 -15 -43l-43 -49q-2 -2 -7.5 -8.5t-7.5 -8.5l-7 -7t-7.5 -6.5
t-7 -4t-8.5 -3.5t-8 -1h-20q-22 0 -22 14q0 10 8 26z" />
    <glyph glyph-name="Lcaron" unicode="&#x13d;" horiz-adv-x="546" 
d="M418 0h-202q-76 0 -120.5 34t-44.5 103q0 34 8 66l109 511q8 36 44 36h56q30 0 30 -26q0 -7 -2 -15l-107 -493q-7 -49 -7 -54q0 -33 17.5 -45.5t57.5 -12.5h184q30 0 30 -26q0 -6 -8 -42t-45 -36zM361 634l35 70q13 26 29.5 36t42.5 10h15q24 0 24 -25t-16 -43l-43 -49
q-28 -33 -42 -37q-5 -2 -10 -2h-21q-21 0 -21 14q0 10 7 26z" />
    <glyph glyph-name="lcaron" unicode="&#x13e;" horiz-adv-x="295" 
d="M302 710l-144 -674q-8 -36 -44 -36h-51q-30 0 -30 26q0 9 2 15l129 605h-50q-30 0 -30 27q0 8 2 14l6 27q8 36 45 36h136q31 0 31 -26q0 -6 -2 -14zM339 634l35 70q13 26 29 36t42 10h16q23 0 23 -25q0 -26 -15 -43l-43 -49q-2 -2 -7.5 -8.5t-7.5 -8.5l-7 -7t-7.5 -6.5
t-7 -4t-8.5 -3.5t-8 -1h-20q-22 0 -22 14q0 10 8 26z" />
    <glyph glyph-name="Ldot" unicode="&#x13f;" horiz-adv-x="546" 
d="M418 0h-202q-76 0 -120.5 34t-44.5 103q0 34 8 66l109 511q8 36 44 36h56q30 0 30 -26q0 -7 -2 -15l-107 -493q-7 -49 -7 -54q0 -33 17.5 -45.5t57.5 -12.5h184q30 0 30 -26q0 -6 -8 -42t-45 -36zM453 400q-8 -36 -44 -36h-52q-29 0 -29 26q0 6 10 50q8 37 44 37h52
q29 0 29 -27q0 -6 -10 -50z" />
    <glyph glyph-name="ldot" unicode="&#x140;" horiz-adv-x="373" 
d="M302 710l-144 -674q-8 -36 -44 -36h-51q-30 0 -30 26q0 9 2 15l129 605h-50q-30 0 -30 27q0 8 2 14l6 27q8 36 45 36h136q31 0 31 -26q0 -6 -2 -14zM411 400q-8 -36 -44 -36h-52q-29 0 -29 26q0 6 10 50q8 37 44 37h52q29 0 29 -27q0 -6 -10 -50z" />
    <glyph glyph-name="Lslash" unicode="&#x141;" horiz-adv-x="546" 
d="M418 0h-202q-76 0 -120.5 34t-44.5 103q0 34 8 66l23 107l-53 -26q-12 -5 -17 -5q-15 0 -15 20q0 6 6 31q6 28 46 48l53 26l66 310q8 36 44 36h56q30 0 30 -26q0 -7 -2 -15l-51 -234l151 75q10 5 16 5q16 0 16 -20q0 -6 -6 -31q-6 -27 -46 -48l-151 -75l-36 -165
q-7 -49 -7 -54q0 -33 17.5 -45.5t57.5 -12.5h184q30 0 30 -26q0 -6 -8 -42t-45 -36z" />
    <glyph glyph-name="lslash" unicode="&#x142;" horiz-adv-x="295" 
d="M284 454l-43 -29l-83 -389q-8 -36 -44 -36h-51q-30 0 -30 26q0 9 2 15l61 287l-51 -34q-13 -9 -22 -9q-12 0 -12 11q0 5 7 34q5 27 46 56l52 35l48 225h-50q-30 0 -30 27q0 8 2 14l6 27q8 36 45 36h136q31 0 31 -26q0 -6 -2 -14l-42 -193l44 29q12 9 21 9q14 0 14 -12
q0 -4 -7 -33q-6 -27 -48 -56z" />
    <glyph glyph-name="Nacute" unicode="&#x143;" horiz-adv-x="756" 
d="M756 709l-145 -673q-8 -36 -44 -36h-42q-28 0 -37 20l-230 498l-102 -482q-8 -36 -44 -36h-55q-31 0 -31 26q0 7 2 15l145 673q8 36 43 36h44q27 0 36 -20l229 -498l103 482q8 36 44 36h56q30 0 30 -26q0 -7 -2 -15zM610 953l-102 -84q-17 -14 -25.5 -20t-19.5 -11
t-22 -5h-29q-23 0 -23 15q0 8 10 21l78 84q31 36 59 36h71q21 0 21 -11q0 -10 -18 -25z" />
    <glyph glyph-name="nacute" unicode="&#x144;" horiz-adv-x="645" 
d="M380 41l64 305q8 34 8 53q0 27 -11.5 38t-37.5 11q-43 0 -144 -75l-42 -31l-65 -306q-8 -36 -44 -36h-50q-31 0 -31 26q0 9 2 15l101 470q8 36 44 36h51q30 0 30 -26q0 -6 -2 -14l-12 -56l39 30q97 74 176 74q58 0 91.5 -29.5t33.5 -85.5q0 -33 -8 -71l-70 -333
q-8 -36 -44 -36h-51q-30 0 -30 26q0 9 2 15zM503 745l-102 -84q-17 -14 -25.5 -20t-19.5 -11t-22 -5h-29q-23 0 -23 15q0 8 10 21l78 84q32 36 59 36h71q21 0 21 -11q0 -10 -18 -25z" />
    <glyph glyph-name="Ncommaaccent" unicode="&#x145;" horiz-adv-x="756" 
d="M756 709l-145 -673q-8 -36 -44 -36h-42q-28 0 -37 20l-230 498l-102 -482q-8 -36 -44 -36h-55q-31 0 -31 26q0 7 2 15l145 673q8 36 43 36h44q27 0 36 -20l229 -498l103 482q8 36 44 36h56q30 0 30 -26q0 -7 -2 -15zM207 -155l35 70q13 26 29 36t42 10h16q23 0 23 -25
q0 -26 -15 -43l-43 -49q-2 -2 -7.5 -8.5t-7.5 -8.5l-7 -7t-7.5 -6.5t-7 -4t-8.5 -3.5t-8 -1h-20q-22 0 -22 14q0 10 8 26z" />
    <glyph glyph-name="ncommaaccent" unicode="&#x146;" horiz-adv-x="645" 
d="M380 41l64 305q8 34 8 53q0 27 -11.5 38t-37.5 11q-43 0 -144 -75l-42 -31l-65 -306q-8 -36 -44 -36h-50q-31 0 -31 26q0 9 2 15l101 470q8 36 44 36h51q30 0 30 -26q0 -6 -2 -14l-12 -56l39 30q97 74 176 74q58 0 91.5 -29.5t33.5 -85.5q0 -33 -8 -71l-70 -333
q-8 -36 -44 -36h-51q-30 0 -30 26q0 9 2 15zM147 -155l35 70q13 26 29 36t42 10h16q23 0 23 -25q0 -26 -15 -43l-43 -49q-2 -2 -7.5 -8.5t-7.5 -8.5l-7 -7t-7.5 -6.5t-7 -4t-8.5 -3.5t-8 -1h-20q-22 0 -22 14q0 10 8 26z" />
    <glyph glyph-name="Ncaron" unicode="&#x147;" horiz-adv-x="756" 
d="M756 709l-145 -673q-8 -36 -44 -36h-42q-28 0 -37 20l-230 498l-102 -482q-8 -36 -44 -36h-55q-31 0 -31 26q0 7 2 15l145 673q8 36 43 36h44q27 0 36 -20l229 -498l103 482q8 36 44 36h56q30 0 30 -26q0 -7 -2 -15zM431 955l59 -71l89 71q44 36 67 36h19q22 0 22 -12
q0 -10 -14 -24l-102 -93q-39 -36 -63 -36h-54q-16 0 -25.5 8t-22.5 28l-59 93q-6 11 -6 18q0 18 28 18h11q23 0 51 -36z" />
    <glyph glyph-name="ncaron" unicode="&#x148;" horiz-adv-x="645" 
d="M380 41l64 305q8 34 8 53q0 27 -11.5 38t-37.5 11q-43 0 -144 -75l-42 -31l-65 -306q-8 -36 -44 -36h-50q-31 0 -31 26q0 9 2 15l101 470q8 36 44 36h51q30 0 30 -26q0 -6 -2 -14l-12 -56l39 30q97 74 176 74q58 0 91.5 -29.5t33.5 -85.5q0 -33 -8 -71l-70 -333
q-8 -36 -44 -36h-51q-30 0 -30 26q0 9 2 15zM333 747l59 -71l89 71q44 36 67 36h19q22 0 22 -12q0 -10 -14 -24l-102 -93q-39 -36 -63 -36h-54q-16 0 -25.5 8t-22.5 28l-59 93q-6 11 -6 18q0 18 28 18h11q23 0 51 -36z" />
    <glyph glyph-name="napostrophe" unicode="&#x149;" horiz-adv-x="645" 
d="M380 41l64 305q8 34 8 53q0 27 -11.5 38t-37.5 11q-43 0 -144 -75l-42 -31l-65 -306q-8 -36 -44 -36h-50q-31 0 -31 26q0 9 2 15l101 470q8 36 44 36h51q30 0 30 -26q0 -6 -2 -14l-12 -56l39 30q97 74 176 74q58 0 91.5 -29.5t33.5 -85.5q0 -33 -8 -71l-70 -333
q-8 -36 -44 -36h-51q-30 0 -30 26q0 9 2 15zM97 634l35 70q13 26 29 36t42 10h16q23 0 23 -25q0 -26 -15 -43l-43 -49q-2 -2 -7.5 -8.5t-7.5 -8.5l-7 -7t-7.5 -6.5t-7 -4t-8.5 -3.5t-8 -1h-20q-22 0 -22 14q0 10 8 26z" />
    <glyph glyph-name="Eng" unicode="&#x14a;" horiz-adv-x="756" 
d="M256 -215q-29 0 -29 27q0 5 7 42q8 36 45 36h59q115 0 141 128l3 13l-224 487l-102 -482q-8 -36 -44 -36h-55q-31 0 -31 26q0 7 2 15l145 673q8 36 43 36h44q27 0 36 -20l229 -498l103 482q8 36 44 36h56q30 0 30 -26q0 -7 -2 -15l-149 -691q-49 -233 -279 -233h-72z" />
    <glyph glyph-name="eng" unicode="&#x14b;" horiz-adv-x="645" 
d="M226 -188h-11q-29 0 -29 27q0 9 2 17l4 24q7 36 45 36q112 0 139 118l68 312q8 34 8 53q0 27 -11.5 38t-37.5 11q-43 0 -144 -75l-42 -31l-65 -306q-8 -36 -44 -36h-50q-31 0 -31 26q0 9 2 15l101 470q8 36 44 36h51q30 0 30 -26q0 -6 -2 -14l-12 -56l39 30q97 74 176 74
q58 0 91.5 -29.5t33.5 -85.5q0 -33 -8 -71l-76 -344q-23 -105 -92 -159t-179 -54z" />
    <glyph glyph-name="Omacron" unicode="&#x14c;" horiz-adv-x="747" 
d="M315 -8q-131 0 -201 62.5t-70 183.5q0 50 12 110l15 74q70 336 388 336q131 0 201.5 -63t70.5 -183q0 -61 -11 -110l-16 -74q-35 -168 -130 -252t-259 -84zM334 97q101 0 158 58t82 179l14 65q11 55 11 99q0 83 -39 119t-120 36q-101 0 -156.5 -58t-82.5 -179l-14 -65
q-10 -43 -10 -99q0 -83 38 -119t119 -36zM625 869q-10 -36 -44 -36h-231q-30 0 -30 24q0 4 5 24q10 36 44 36h230q31 0 31 -25q0 -3 -5 -23z" />
    <glyph glyph-name="omacron" unicode="&#x14d;" horiz-adv-x="612" 
d="M238 -8q-95 0 -152.5 50t-57.5 142q0 158 91.5 264.5t238.5 106.5q99 0 154.5 -48.5t55.5 -143.5q0 -159 -88.5 -265t-241.5 -106zM260 95q80 0 131.5 76t51.5 172q0 58 -25 83.5t-81 25.5q-82 0 -133 -75t-51 -173q0 -56 26 -82.5t81 -26.5zM527 661q-10 -36 -44 -36
h-231q-30 0 -30 24q0 4 5 24q10 36 44 36h230q31 0 31 -25q0 -3 -5 -23z" />
    <glyph glyph-name="Obreve" unicode="&#x14e;" horiz-adv-x="747" 
d="M315 -8q-131 0 -201 62.5t-70 183.5q0 50 12 110l15 74q70 336 388 336q131 0 201.5 -63t70.5 -183q0 -61 -11 -110l-16 -74q-35 -168 -130 -252t-259 -84zM334 97q101 0 158 58t82 179l14 65q11 55 11 99q0 83 -39 119t-120 36q-101 0 -156.5 -58t-82.5 -179l-14 -65
q-10 -43 -10 -99q0 -83 38 -119t119 -36zM604 953q7 11 11 16t10.5 8.5t14.5 3.5h11q18 0 18 -13q0 -6 -3 -15q-21 -53 -69.5 -86.5t-119.5 -33.5q-68 0 -101 31t-33 82v7q1 28 28 28h11q8 0 12 -3t5.5 -7.5t3.5 -13.5q0 -1 0.5 -2t0.5 -2q6 -25 30.5 -39t59.5 -14
q34 0 64 14t46 39z" />
    <glyph glyph-name="obreve" unicode="&#x14f;" horiz-adv-x="612" 
d="M238 -8q-95 0 -152.5 50t-57.5 142q0 158 91.5 264.5t238.5 106.5q99 0 154.5 -48.5t55.5 -143.5q0 -159 -88.5 -265t-241.5 -106zM260 95q80 0 131.5 76t51.5 172q0 58 -25 83.5t-81 25.5q-82 0 -133 -75t-51 -173q0 -56 26 -82.5t81 -26.5zM494 745q7 11 11 16
t10.5 8.5t14.5 3.5h11q18 0 18 -13q0 -6 -3 -15q-21 -53 -69.5 -86.5t-119.5 -33.5q-68 0 -101 31t-33 82v7q1 28 28 28h11q8 0 12 -3t5.5 -7.5t3.5 -13.5q0 -1 0.5 -2t0.5 -2q6 -25 30.5 -39t59.5 -14q34 0 64 14t46 39z" />
    <glyph glyph-name="Ohungarumlaut" unicode="&#x150;" horiz-adv-x="747" 
d="M315 -8q-131 0 -201 62.5t-70 183.5q0 50 12 110l15 74q70 336 388 336q131 0 201.5 -63t70.5 -183q0 -61 -11 -110l-16 -74q-35 -168 -130 -252t-259 -84zM334 97q101 0 158 58t82 179l14 65q11 55 11 99q0 83 -39 119t-120 36q-101 0 -156.5 -58t-82.5 -179l-14 -65
q-10 -43 -10 -99q0 -83 38 -119t119 -36zM501 953l-103 -84q-17 -14 -25.5 -20t-19.5 -11t-22 -5h-2q-24 0 -24 15q0 9 11 21l77 84q33 36 60 36h44q21 0 21 -11q0 -9 -17 -25zM689 953l-102 -84q-19 -15 -26 -20.5t-19 -10.5t-23 -5h-2q-23 0 -23 15q0 9 11 21l77 84
q32 36 59 36h44q22 0 22 -11q0 -10 -18 -25z" />
    <glyph glyph-name="ohungarumlaut" unicode="&#x151;" horiz-adv-x="612" 
d="M238 -8q-95 0 -152.5 50t-57.5 142q0 158 91.5 264.5t238.5 106.5q99 0 154.5 -48.5t55.5 -143.5q0 -159 -88.5 -265t-241.5 -106zM260 95q80 0 131.5 76t51.5 172q0 58 -25 83.5t-81 25.5q-82 0 -133 -75t-51 -173q0 -56 26 -82.5t81 -26.5zM391 745l-103 -84
q-17 -14 -25.5 -20t-19.5 -11t-22 -5h-2q-24 0 -24 15q0 9 11 21l77 84q33 36 60 36h44q21 0 21 -11q0 -9 -17 -25zM579 745l-102 -84q-19 -15 -26 -20.5t-19 -10.5t-23 -5h-2q-23 0 -23 15q0 9 11 21l77 84q32 36 59 36h44q22 0 22 -11q0 -10 -18 -25z" />
    <glyph glyph-name="OE" unicode="&#x152;" horiz-adv-x="1003" 
d="M569 645h-120q-130 0 -200.5 -104t-70.5 -292q0 -79 36.5 -112t121.5 -33h118zM845 0h-528q-272 0 -272 238q0 135 32.5 235t93 160t140.5 88.5t182 28.5h488q30 0 30 -26q0 -6 -8 -42q-8 -37 -45 -37h-261l-43 -202h243q30 0 30 -26q0 -6 -8 -42t-45 -36h-242l-49 -235
h286q29 0 29 -26q0 -6 -7 -42q-8 -36 -46 -36z" />
    <glyph glyph-name="oe" unicode="&#x153;" horiz-adv-x="951" 
d="M238 -8q-95 0 -152.5 50t-57.5 142q0 158 91.5 264.5t238.5 106.5q123 0 171 -76q76 76 208 76q80 0 131 -34.5t51 -103.5q0 -92 -63 -135t-168 -43h-142l-1 -6q-10 -40 -10 -64q0 -44 26.5 -59t78.5 -15q78 0 144 22q10 3 17 3q15 0 15 -16q0 -10 -2 -16l-5 -30
q-5 -31 -39 -41q-75 -25 -160 -25q-130 0 -170 71q-80 -71 -202 -71zM260 95q80 0 131.5 76t51.5 172q0 58 -25 83.5t-81 25.5q-82 0 -133 -75t-51 -173q0 -56 26 -82.5t81 -26.5zM564 322l-1 -4h131q107 0 107 82q0 55 -85 55q-61 0 -98.5 -30.5t-53.5 -102.5z" />
    <glyph glyph-name="Racute" unicode="&#x154;" horiz-adv-x="667" 
d="M28 41l144 673q8 36 44 36h210q100 0 159 -48t59 -137q0 -95 -47.5 -163.5t-134.5 -105.5q31 -37 59 -102t41 -130q6 -33 6 -36q0 -28 -31 -28h-59q-38 0 -43 36q-13 67 -39 130t-57 94h-135l-48 -224q-8 -36 -44 -36h-55q-31 0 -31 26q0 7 2 15zM393 646h-107l-59 -281
h98q83 0 133.5 49.5t50.5 135.5q0 96 -116 96zM557 953l-102 -84q-17 -14 -25.5 -20t-19.5 -11t-22 -5h-29q-23 0 -23 15q0 8 10 21l78 84q31 36 59 36h71q21 0 21 -11q0 -10 -18 -25z" />
    <glyph glyph-name="racute" unicode="&#x155;" horiz-adv-x="420" 
d="M418 550h4q29 0 29 -27q0 -6 -1 -9l-9 -44q-6 -36 -45 -36h-9q-35 0 -68.5 -14.5t-50 -27t-48.5 -40.5l-64 -299q-6 -27 -16 -40t-31 -13h-51q-31 0 -31 25q0 3 5 28l95 440q6 27 16 40.5t32 13.5h51q29 0 29 -26q0 -9 -14 -73q37 44 85 73t92 29zM397 745l-102 -84
q-17 -14 -25.5 -20t-19.5 -11t-22 -5h-29q-23 0 -23 15q0 8 10 21l78 84q32 36 59 36h71q21 0 21 -11q0 -10 -18 -25z" />
    <glyph glyph-name="Rcommaaccent" unicode="&#x156;" horiz-adv-x="667" 
d="M28 41l144 673q8 36 44 36h210q100 0 159 -48t59 -137q0 -95 -47.5 -163.5t-134.5 -105.5q31 -37 59 -102t41 -130q6 -33 6 -36q0 -28 -31 -28h-59q-38 0 -43 36q-13 67 -39 130t-57 94h-135l-48 -224q-8 -36 -44 -36h-55q-31 0 -31 26q0 7 2 15zM393 646h-107l-59 -281
h98q83 0 133.5 49.5t50.5 135.5q0 96 -116 96zM179 -155l35 70q13 26 29 36t42 10h16q23 0 23 -25q0 -26 -15 -43l-43 -49q-2 -2 -7.5 -8.5t-7.5 -8.5l-7 -7t-7.5 -6.5t-7 -4t-8.5 -3.5t-8 -1h-20q-22 0 -22 14q0 10 8 26z" />
    <glyph glyph-name="rcommaaccent" unicode="&#x157;" horiz-adv-x="420" 
d="M418 550h4q29 0 29 -27q0 -6 -1 -9l-9 -44q-6 -36 -45 -36h-9q-35 0 -68.5 -14.5t-50 -27t-48.5 -40.5l-64 -299q-6 -27 -16 -40t-31 -13h-51q-31 0 -31 25q0 3 5 28l95 440q6 27 16 40.5t32 13.5h51q29 0 29 -26q0 -9 -14 -73q37 44 85 73t92 29zM-41 -155l35 70
q13 26 29 36t42 10h16q23 0 23 -25q0 -26 -15 -43l-43 -49q-2 -2 -7.5 -8.5t-7.5 -8.5l-7 -7t-7.5 -6.5t-7 -4t-8.5 -3.5t-8 -1h-20q-22 0 -22 14q0 10 8 26z" />
    <glyph glyph-name="Rcaron" unicode="&#x158;" horiz-adv-x="667" 
d="M28 41l144 673q8 36 44 36h210q100 0 159 -48t59 -137q0 -95 -47.5 -163.5t-134.5 -105.5q31 -37 59 -102t41 -130q6 -33 6 -36q0 -28 -31 -28h-59q-38 0 -43 36q-13 67 -39 130t-57 94h-135l-48 -224q-8 -36 -44 -36h-55q-31 0 -31 26q0 7 2 15zM393 646h-107l-59 -281
h98q83 0 133.5 49.5t50.5 135.5q0 96 -116 96zM355 955l59 -71l89 71q44 36 67 36h19q22 0 22 -12q0 -10 -14 -24l-102 -93q-39 -36 -63 -36h-54q-16 0 -25.5 8t-22.5 28l-59 93q-6 11 -6 18q0 18 28 18h11q23 0 51 -36z" />
    <glyph glyph-name="rcaron" unicode="&#x159;" horiz-adv-x="420" 
d="M418 550h4q29 0 29 -27q0 -6 -1 -9l-9 -44q-6 -36 -45 -36h-9q-35 0 -68.5 -14.5t-50 -27t-48.5 -40.5l-64 -299q-6 -27 -16 -40t-31 -13h-51q-31 0 -31 25q0 3 5 28l95 440q6 27 16 40.5t32 13.5h51q29 0 29 -26q0 -9 -14 -73q37 44 85 73t92 29zM250 747l59 -71l89 71
q44 36 67 36h19q22 0 22 -12q0 -10 -14 -24l-102 -93q-39 -36 -63 -36h-54q-16 0 -25.5 8t-22.5 28l-59 93q-6 11 -6 18q0 18 28 18h11q23 0 51 -36z" />
    <glyph glyph-name="Sacute" unicode="&#x15a;" horiz-adv-x="559" 
d="M514 628q-65 25 -132 25h-28q-66 0 -107.5 -27.5t-41.5 -80.5q0 -33 19 -52t55 -35l92 -40q141 -61 141 -189q0 -112 -78.5 -174.5t-214.5 -62.5h-33q-75 0 -160 27q-28 8 -28 33q0 7 9 49q7 28 28 28q8 0 13 -2q78 -30 157 -30h26q65 0 105.5 31.5t40.5 88.5
q0 38 -22.5 60t-67.5 41l-87 38q-53 24 -90.5 68.5t-37.5 111.5q0 106 83.5 164t212.5 58h23q73 0 145 -25q29 -9 29 -33q0 -6 -8 -45q-7 -30 -31 -30q-4 0 -12 3zM503 953l-102 -84q-17 -14 -25.5 -20t-19.5 -11t-22 -5h-29q-23 0 -23 15q0 8 10 21l78 84q32 36 59 36h71
q21 0 21 -11q0 -10 -18 -25z" />
    <glyph glyph-name="sacute" unicode="&#x15b;" horiz-adv-x="505" 
d="M442 545q28 -3 28 -27q0 -4 -2 -18l-5 -25q-6 -33 -35 -33q-4 0 -12.5 1.5t-20 3t-16.5 2.5q-38 5 -75 5q-115 0 -115 -64q0 -22 13.5 -33t40.5 -19l76 -24q60 -18 93.5 -49t33.5 -93q0 -50 -23.5 -86t-65 -56t-89 -29t-103.5 -9q-64 0 -133 12q-28 5 -28 30q0 10 3 20
l5 22q6 31 34 31q5 0 32 -5q49 -9 105 -9q134 0 134 70q0 17 -10 28.5t-19.5 15.5t-28.5 10l-82 26q-55 18 -85.5 48t-30.5 89q0 60 38.5 101t94 57.5t124.5 16.5q48 0 124 -10zM455 745l-102 -84q-17 -14 -25.5 -20t-19.5 -11t-22 -5h-29q-23 0 -23 15q0 8 10 21l78 84
q32 36 59 36h71q21 0 21 -11q0 -10 -18 -25z" />
    <glyph glyph-name="Scircumflex" unicode="&#x15c;" horiz-adv-x="559" 
d="M514 628q-65 25 -132 25h-28q-66 0 -107.5 -27.5t-41.5 -80.5q0 -33 19 -52t55 -35l92 -40q141 -61 141 -189q0 -112 -78.5 -174.5t-214.5 -62.5h-33q-75 0 -160 27q-28 8 -28 33q0 7 9 49q7 28 28 28q8 0 13 -2q78 -30 157 -30h26q65 0 105.5 31.5t40.5 88.5
q0 38 -22.5 60t-67.5 41l-87 38q-53 24 -90.5 68.5t-37.5 111.5q0 106 83.5 164t212.5 58h23q73 0 145 -25q29 -9 29 -33q0 -6 -8 -45q-7 -30 -31 -30q-4 0 -12 3zM440 869l-59 68l-88 -68q-45 -36 -72 -36h-14q-23 0 -23 13q0 9 15 23l101 93q38 36 64 36h54q24 0 47 -36
l59 -93q6 -11 6 -17q0 -19 -27 -19h-11q-4 0 -8 1t-6.5 1.5t-6.5 3t-6 4t-6 5.5t-5.5 6t-6.5 7.5t-7 7.5z" />
    <glyph glyph-name="scircumflex" unicode="&#x15d;" horiz-adv-x="505" 
d="M442 545q28 -3 28 -27q0 -4 -2 -18l-5 -25q-6 -33 -35 -33q-4 0 -12.5 1.5t-20 3t-16.5 2.5q-38 5 -75 5q-115 0 -115 -64q0 -22 13.5 -33t40.5 -19l76 -24q60 -18 93.5 -49t33.5 -93q0 -50 -23.5 -86t-65 -56t-89 -29t-103.5 -9q-64 0 -133 12q-28 5 -28 30q0 10 3 20
l5 22q6 31 34 31q5 0 32 -5q49 -9 105 -9q134 0 134 70q0 17 -10 28.5t-19.5 15.5t-28.5 10l-82 26q-55 18 -85.5 48t-30.5 89q0 60 38.5 101t94 57.5t124.5 16.5q48 0 124 -10zM399 661l-59 68l-88 -68q-45 -36 -72 -36h-14q-23 0 -23 13q0 9 15 23l101 93q38 36 64 36h54
q24 0 47 -36l59 -93q6 -11 6 -17q0 -19 -27 -19h-11q-4 0 -8 1t-6.5 1.5t-6.5 3t-6 4t-6 5.5t-5.5 6t-6.5 7.5t-7 7.5z" />
    <glyph glyph-name="Scedilla" unicode="&#x15e;" horiz-adv-x="559" 
d="M514 628q-65 25 -132 25h-28q-66 0 -107.5 -27.5t-41.5 -80.5q0 -33 19 -52t55 -35l92 -40q141 -61 141 -189q0 -112 -78.5 -174.5t-214.5 -62.5h-33q-75 0 -160 27q-28 8 -28 33q0 7 9 49q7 28 28 28q8 0 13 -2q78 -30 157 -30h26q65 0 105.5 31.5t40.5 88.5
q0 38 -22.5 60t-67.5 41l-87 38q-53 24 -90.5 68.5t-37.5 111.5q0 106 83.5 164t212.5 58h23q73 0 145 -25q29 -9 29 -33q0 -6 -8 -45q-7 -30 -31 -30q-4 0 -12 3zM166 -188h-88q-25 0 -25 16q0 2 3 19q6 26 35 26h65q62 0 62 42q0 27 -39 50l3 12h66q20 -11 33 -30t13 -40
q0 -45 -38.5 -69t-89.5 -26z" />
    <glyph glyph-name="Scedilla" unicode="&#xf6c1;" horiz-adv-x="559" 
d="M514 628q-65 25 -132 25h-28q-66 0 -107.5 -27.5t-41.5 -80.5q0 -33 19 -52t55 -35l92 -40q141 -61 141 -189q0 -112 -78.5 -174.5t-214.5 -62.5h-33q-75 0 -160 27q-28 8 -28 33q0 7 9 49q7 28 28 28q8 0 13 -2q78 -30 157 -30h26q65 0 105.5 31.5t40.5 88.5
q0 38 -22.5 60t-67.5 41l-87 38q-53 24 -90.5 68.5t-37.5 111.5q0 106 83.5 164t212.5 58h23q73 0 145 -25q29 -9 29 -33q0 -6 -8 -45q-7 -30 -31 -30q-4 0 -12 3zM166 -188h-88q-25 0 -25 16q0 2 3 19q6 26 35 26h65q62 0 62 42q0 27 -39 50l3 12h66q20 -11 33 -30t13 -40
q0 -45 -38.5 -69t-89.5 -26z" />
    <glyph glyph-name="scedilla" unicode="&#x15f;" horiz-adv-x="505" 
d="M442 545q28 -3 28 -27q0 -4 -2 -18l-5 -25q-6 -33 -35 -33q-4 0 -12.5 1.5t-20 3t-16.5 2.5q-38 5 -75 5q-115 0 -115 -64q0 -22 13.5 -33t40.5 -19l76 -24q60 -18 93.5 -49t33.5 -93q0 -50 -23.5 -86t-65 -56t-89 -29t-103.5 -9q-64 0 -133 12q-28 5 -28 30q0 10 3 20
l5 22q6 31 34 31q5 0 32 -5q49 -9 105 -9q134 0 134 70q0 17 -10 28.5t-19.5 15.5t-28.5 10l-82 26q-55 18 -85.5 48t-30.5 89q0 60 38.5 101t94 57.5t124.5 16.5q48 0 124 -10zM145 -188h-88q-25 0 -25 16q0 2 3 19q6 26 35 26h65q62 0 62 42q0 27 -39 50l3 12h66
q20 -11 33 -30t13 -40q0 -45 -38.5 -69t-89.5 -26z" />
    <glyph glyph-name="scedilla" unicode="&#xf6c2;" horiz-adv-x="505" 
d="M442 545q28 -3 28 -27q0 -4 -2 -18l-5 -25q-6 -33 -35 -33q-4 0 -12.5 1.5t-20 3t-16.5 2.5q-38 5 -75 5q-115 0 -115 -64q0 -22 13.5 -33t40.5 -19l76 -24q60 -18 93.5 -49t33.5 -93q0 -50 -23.5 -86t-65 -56t-89 -29t-103.5 -9q-64 0 -133 12q-28 5 -28 30q0 10 3 20
l5 22q6 31 34 31q5 0 32 -5q49 -9 105 -9q134 0 134 70q0 17 -10 28.5t-19.5 15.5t-28.5 10l-82 26q-55 18 -85.5 48t-30.5 89q0 60 38.5 101t94 57.5t124.5 16.5q48 0 124 -10zM145 -188h-88q-25 0 -25 16q0 2 3 19q6 26 35 26h65q62 0 62 42q0 27 -39 50l3 12h66
q20 -11 33 -30t13 -40q0 -45 -38.5 -69t-89.5 -26z" />
    <glyph glyph-name="Scaron" unicode="&#x160;" horiz-adv-x="559" 
d="M514 628q-65 25 -132 25h-28q-66 0 -107.5 -27.5t-41.5 -80.5q0 -33 19 -52t55 -35l92 -40q141 -61 141 -189q0 -112 -78.5 -174.5t-214.5 -62.5h-33q-75 0 -160 27q-28 8 -28 33q0 7 9 49q7 28 28 28q8 0 13 -2q78 -30 157 -30h26q65 0 105.5 31.5t40.5 88.5
q0 38 -22.5 60t-67.5 41l-87 38q-53 24 -90.5 68.5t-37.5 111.5q0 106 83.5 164t212.5 58h23q73 0 145 -25q29 -9 29 -33q0 -6 -8 -45q-7 -30 -31 -30q-4 0 -12 3zM313 955l59 -71l89 71q44 36 67 36h19q22 0 22 -12q0 -10 -14 -24l-102 -93q-39 -36 -63 -36h-54
q-16 0 -25.5 8t-22.5 28l-59 93q-6 11 -6 18q0 18 28 18h11q23 0 51 -36z" />
    <glyph glyph-name="scaron" unicode="&#x161;" horiz-adv-x="545" 
d="M442 545q28 -3 28 -27q0 -4 -2 -18l-5 -25q-6 -33 -35 -33q-4 0 -12.5 1.5t-20 3t-16.5 2.5q-38 5 -75 5q-115 0 -115 -64q0 -22 13.5 -33t40.5 -19l76 -24q60 -18 93.5 -49t33.5 -93q0 -50 -23.5 -86t-65 -56t-89 -29t-103.5 -9q-64 0 -133 12q-28 5 -28 30q0 10 3 20
l5 22q6 31 34 31q5 0 32 -5q49 -9 105 -9q134 0 134 70q0 17 -10 28.5t-19.5 15.5t-28.5 10l-82 26q-55 18 -85.5 48t-30.5 89q0 60 38.5 101t94 57.5t124.5 16.5q48 0 124 -10zM254 747l59 -71l89 71q44 36 67 36h19q22 0 22 -12q0 -10 -14 -24l-102 -93q-39 -36 -63 -36
h-54q-16 0 -25.5 8t-22.5 28l-59 93q-6 11 -6 18q0 18 28 18h11q23 0 51 -36z" />
    <glyph glyph-name="Tcommaaccent" unicode="&#x162;" horiz-adv-x="581" 
d="M115 644q-29 0 -29 26q0 6 8 42q8 35 45 38h496q29 0 29 -26q0 -6 -8 -42q-7 -35 -45 -38h-179l-129 -608q-8 -36 -44 -36h-56q-30 0 -30 26q0 7 2 15l128 603h-188zM177 -188h-88q-25 0 -25 16q0 2 3 19q6 26 35 26h65q62 0 62 42q0 27 -39 50l3 12h66q20 -11 33 -30
t13 -40q0 -45 -38.5 -69t-89.5 -26z" />
    <glyph glyph-name="tcommaaccent" unicode="&#x163;" horiz-adv-x="405" 
d="M292 0h-49q-76 0 -121.5 37t-45.5 109q0 29 8 63l50 234h-51q-30 0 -30 27q0 6 2 14l6 27q7 36 44 36h52l21 96q8 36 43 36h50q31 0 31 -27q0 -7 -2 -15l-20 -90h103q30 0 30 -26q0 -6 -2 -14l-6 -28q-10 -36 -45 -36h-102l-46 -219q-10 -42 -10 -58q0 -38 20 -51.5
t69 -13.5h23q31 0 31 -27q0 -7 -2 -13l-6 -25q-10 -36 -45 -36zM183 -188h-88q-25 0 -25 16q0 2 3 19q6 26 35 26h65q62 0 62 42q0 27 -39 50l3 12h66q20 -11 33 -30t13 -40q0 -45 -38.5 -69t-89.5 -26z" />
    <glyph glyph-name="Tcaron" unicode="&#x164;" horiz-adv-x="581" 
d="M115 644q-29 0 -29 26q0 6 8 42q8 35 45 38h496q29 0 29 -26q0 -6 -8 -42q-7 -35 -45 -38h-179l-129 -608q-8 -36 -44 -36h-56q-30 0 -30 26q0 7 2 15l128 603h-188zM351 955l59 -71l89 71q44 36 67 36h19q22 0 22 -12q0 -10 -14 -24l-102 -93q-39 -36 -63 -36h-54
q-16 0 -25.5 8t-22.5 28l-59 93q-6 11 -6 18q0 18 28 18h11q23 0 51 -36z" />
    <glyph glyph-name="tcaron" unicode="&#x165;" horiz-adv-x="405" 
d="M292 0h-49q-76 0 -121.5 37t-45.5 109q0 29 8 63l50 234h-51q-30 0 -30 27q0 6 2 14l6 27q7 36 44 36h52l21 96q8 36 43 36h50q31 0 31 -27q0 -7 -2 -15l-20 -90h103q30 0 30 -26q0 -6 -2 -14l-6 -28q-10 -36 -45 -36h-102l-46 -219q-10 -42 -10 -58q0 -38 20 -51.5
t69 -13.5h23q31 0 31 -27q0 -7 -2 -13l-6 -25q-10 -36 -45 -36zM347 634l35 70q22 46 71 46h16q10 0 16.5 -7t6.5 -18q0 -24 -15 -43l-43 -49q-2 -2 -6 -7t-6 -6.5t-5.5 -5.5t-5.5 -6t-5.5 -4.5t-6 -4t-6 -3t-6.5 -2t-6 -0.5h-21q-21 0 -21 14q0 10 8 26z" />
    <glyph glyph-name="Tbar" unicode="&#x166;" horiz-adv-x="581" 
d="M115 644q-29 0 -29 26q0 6 8 42q8 38 45 38h496q29 0 29 -26q0 -6 -8 -42q-8 -38 -45 -38h-179l-41 -191h130q30 0 30 -26q0 -6 -8 -42q-8 -38 -45 -38h-129l-66 -311q-8 -36 -44 -36h-56q-30 0 -30 26q0 7 2 15l65 306h-129q-29 0 -29 26q0 6 8 42q8 38 45 38h127
l41 191h-188z" />
    <glyph glyph-name="tbar" unicode="&#x167;" horiz-adv-x="406" 
d="M292 0h-49q-76 0 -121.5 37t-45.5 109q0 29 8 63l5 23h-45q-30 0 -30 27q0 8 2 14l5 27q8 36 45 36h45l23 107h-51q-30 0 -30 27q0 6 2 14l6 27q7 36 44 36h52l21 96q8 36 43 36h50q31 0 31 -27q0 -7 -2 -15l-20 -90h103q30 0 30 -26q0 -6 -2 -14l-6 -28q-10 -36 -45 -36
h-102l-23 -107h109q30 0 30 -26q0 -6 -2 -14l-6 -27q-10 -37 -45 -37h-108l-1 -8q-10 -42 -10 -58q0 -38 20 -51.5t69 -13.5h23q31 0 31 -27q0 -7 -2 -13l-6 -25q-10 -36 -45 -36z" />
    <glyph glyph-name="Utilde" unicode="&#x168;" horiz-adv-x="738" 
d="M742 709l-94 -438q-59 -279 -345 -279q-108 0 -173.5 48.5t-65.5 146.5q0 43 15 111l89 416q8 36 44 36h56q30 0 30 -26q0 -7 -2 -15l-89 -415q-13 -60 -13 -87q0 -108 131 -108q76 0 127 46.5t69 127.5l93 441q8 36 44 36h56q30 0 30 -26q0 -7 -2 -15zM620 862
q-41 -29 -72 -29q-27 0 -69.5 38t-59.5 38q-31 0 -69 -38q-18 -17 -28 -17q-8 0 -8 11q0 7 5 28q5 26 49 60q31 26 66 26q30 0 72 -37.5t58 -37.5q30 0 73 39q19 18 29 18q7 0 7 -13q0 -6 -4 -25q-5 -25 -49 -61z" />
    <glyph glyph-name="utilde" unicode="&#x169;" horiz-adv-x="633" 
d="M247 506l-64 -305q-8 -34 -8 -54q0 -26 11.5 -37t37.5 -11q43 0 144 75l41 30l66 307q7 36 44 36h50q31 0 31 -26q0 -9 -2 -15l-101 -470q-8 -36 -44 -36h-51q-30 0 -30 26q0 6 2 14l12 55l-39 -30q-98 -73 -176 -73q-58 0 -91.5 29.5t-33.5 84.5q0 34 8 72l70 333
q8 36 44 36h51q30 0 30 -26q0 -9 -2 -15zM524 654q-41 -29 -72 -29q-27 0 -69.5 38t-59.5 38q-31 0 -69 -38q-18 -17 -28 -17q-8 0 -8 11q0 7 5 28q5 26 49 60q31 26 66 26q30 0 72 -37.5t58 -37.5q30 0 73 39q19 18 29 18q7 0 7 -13q0 -6 -4 -25q-5 -25 -49 -61z" />
    <glyph glyph-name="Umacron" unicode="&#x16a;" horiz-adv-x="738" 
d="M742 709l-94 -438q-59 -279 -345 -279q-108 0 -173.5 48.5t-65.5 146.5q0 43 15 111l89 416q8 36 44 36h56q30 0 30 -26q0 -7 -2 -15l-89 -415q-13 -60 -13 -87q0 -108 131 -108q76 0 127 46.5t69 127.5l93 441q8 36 44 36h56q30 0 30 -26q0 -7 -2 -15zM624 869
q-10 -36 -44 -36h-231q-30 0 -30 24q0 4 5 24q10 36 44 36h230q31 0 31 -25q0 -3 -5 -23z" />
    <glyph glyph-name="umacron" unicode="&#x16b;" horiz-adv-x="633" 
d="M247 506l-64 -305q-8 -34 -8 -54q0 -26 11.5 -37t37.5 -11q43 0 144 75l41 30l66 307q7 36 44 36h50q31 0 31 -26q0 -9 -2 -15l-101 -470q-8 -36 -44 -36h-51q-30 0 -30 26q0 6 2 14l12 55l-39 -30q-98 -73 -176 -73q-58 0 -91.5 29.5t-33.5 84.5q0 34 8 72l70 333
q8 36 44 36h51q30 0 30 -26q0 -9 -2 -15zM543 661q-10 -36 -44 -36h-231q-30 0 -30 24q0 4 5 24q10 36 44 36h230q31 0 31 -25q0 -3 -5 -23z" />
    <glyph glyph-name="Ubreve" unicode="&#x16c;" horiz-adv-x="738" 
d="M742 709l-94 -438q-59 -279 -345 -279q-108 0 -173.5 48.5t-65.5 146.5q0 43 15 111l89 416q8 36 44 36h56q30 0 30 -26q0 -7 -2 -15l-89 -415q-13 -60 -13 -87q0 -108 131 -108q76 0 127 46.5t69 127.5l93 441q8 36 44 36h56q30 0 30 -26q0 -7 -2 -15zM600 953
q7 11 11 16t10.5 8.5t14.5 3.5h11q18 0 18 -13q0 -6 -3 -15q-21 -53 -69.5 -86.5t-119.5 -33.5q-68 0 -101 31t-33 82v7q1 28 28 28h11q8 0 12 -3t5.5 -7.5t3.5 -13.5q0 -1 0.5 -2t0.5 -2q6 -25 30.5 -39t59.5 -14q34 0 64 14t46 39z" />
    <glyph glyph-name="ubreve" unicode="&#x16d;" horiz-adv-x="633" 
d="M247 506l-64 -305q-8 -34 -8 -54q0 -26 11.5 -37t37.5 -11q43 0 144 75l41 30l66 307q7 36 44 36h50q31 0 31 -26q0 -9 -2 -15l-101 -470q-8 -36 -44 -36h-51q-30 0 -30 26q0 6 2 14l12 55l-39 -30q-98 -73 -176 -73q-58 0 -91.5 29.5t-33.5 84.5q0 34 8 72l70 333
q8 36 44 36h51q30 0 30 -26q0 -9 -2 -15zM504 745q7 11 11 16t10.5 8.5t14.5 3.5h11q18 0 18 -13q0 -6 -3 -15q-21 -53 -69.5 -86.5t-119.5 -33.5q-68 0 -101 31t-33 82v7q1 28 28 28h11q8 0 12 -3t5.5 -7.5t3.5 -13.5q0 -1 0.5 -2t0.5 -2q6 -25 30.5 -39t59.5 -14
q34 0 64 14t46 39z" />
    <glyph glyph-name="Uring" unicode="&#x16e;" horiz-adv-x="738" 
d="M742 709l-94 -438q-59 -279 -345 -279q-108 0 -173.5 48.5t-65.5 146.5q0 43 15 111l89 416q8 36 44 36h56q30 0 30 -26q0 -7 -2 -15l-89 -415q-13 -60 -13 -87q0 -108 131 -108q76 0 127 46.5t69 127.5l93 441q8 36 44 36h56q30 0 30 -26q0 -7 -2 -15zM476 833
q-47 0 -74.5 21t-27.5 61q0 53 39 87t99 34q47 0 74.5 -21t27.5 -61q0 -47 -38 -84t-100 -37zM480 872q36 0 57.5 19.5t21.5 54.5q0 24 -14 37.5t-37 13.5q-36 0 -57 -19.5t-21 -54.5q0 -23 13.5 -37t36.5 -14z" />
    <glyph glyph-name="uring" unicode="&#x16f;" horiz-adv-x="633" 
d="M247 506l-64 -305q-8 -34 -8 -54q0 -26 11.5 -37t37.5 -11q43 0 144 75l41 30l66 307q7 36 44 36h50q31 0 31 -26q0 -9 -2 -15l-101 -470q-8 -36 -44 -36h-51q-30 0 -30 26q0 6 2 14l12 55l-39 -30q-98 -73 -176 -73q-58 0 -91.5 29.5t-33.5 84.5q0 34 8 72l70 333
q8 36 44 36h51q30 0 30 -26q0 -9 -2 -15zM391 625q-47 0 -74.5 21t-27.5 61q0 53 39 87t99 34q47 0 74.5 -21t27.5 -61q0 -47 -38 -84t-100 -37zM395 664q36 0 57.5 19.5t21.5 54.5q0 24 -14 37.5t-37 13.5q-36 0 -57 -19.5t-21 -54.5q0 -23 13.5 -37t36.5 -14z" />
    <glyph glyph-name="Uhungarumlaut" unicode="&#x170;" horiz-adv-x="738" 
d="M742 709l-94 -438q-59 -279 -345 -279q-108 0 -173.5 48.5t-65.5 146.5q0 43 15 111l89 416q8 36 44 36h56q30 0 30 -26q0 -7 -2 -15l-89 -415q-13 -60 -13 -87q0 -108 131 -108q76 0 127 46.5t69 127.5l93 441q8 36 44 36h56q30 0 30 -26q0 -7 -2 -15zM500 953l-103 -84
q-17 -14 -25.5 -20t-19.5 -11t-22 -5h-2q-24 0 -24 15q0 9 11 21l77 84q33 36 60 36h44q21 0 21 -11q0 -9 -17 -25zM688 953l-102 -84q-19 -15 -26 -20.5t-19 -10.5t-23 -5h-2q-23 0 -23 15q0 9 11 21l77 84q31 36 59 36h44q22 0 22 -11q0 -10 -18 -25z" />
    <glyph glyph-name="uhungarumlaut" unicode="&#x171;" horiz-adv-x="633" 
d="M247 506l-64 -305q-8 -34 -8 -54q0 -26 11.5 -37t37.5 -11q43 0 144 75l41 30l66 307q7 36 44 36h50q31 0 31 -26q0 -9 -2 -15l-101 -470q-8 -36 -44 -36h-51q-30 0 -30 26q0 6 2 14l12 55l-39 -30q-98 -73 -176 -73q-58 0 -91.5 29.5t-33.5 84.5q0 34 8 72l70 333
q8 36 44 36h51q30 0 30 -26q0 -9 -2 -15zM400 745l-103 -84q-17 -14 -25.5 -20t-19.5 -11t-22 -5h-2q-24 0 -24 15q0 9 11 21l77 84q33 36 60 36h44q21 0 21 -11q0 -9 -17 -25zM588 745l-102 -84q-19 -15 -26 -20.5t-19 -10.5t-23 -5h-2q-23 0 -23 15q0 9 11 21l77 84
q31 36 59 36h44q22 0 22 -11q0 -10 -18 -25z" />
    <glyph glyph-name="Uogonek" unicode="&#x172;" horiz-adv-x="738" 
d="M742 709l-94 -438q-59 -279 -345 -279q-108 0 -173.5 48.5t-65.5 146.5q0 43 15 111l89 416q8 36 44 36h56q30 0 30 -26q0 -7 -2 -15l-89 -415q-13 -60 -13 -87q0 -108 131 -108q76 0 127 46.5t69 127.5l93 441q8 36 44 36h56q30 0 30 -26q0 -7 -2 -15zM396 -188h-105
q-42 0 -68 16.5t-26 50.5q0 31 23 57t59 41h51v-12q-25 -11 -46 -30t-21 -40q0 -28 51 -28h94q24 0 24 -17q0 -2 -2 -12q-6 -26 -34 -26z" />
    <glyph glyph-name="uogonek" unicode="&#x173;" horiz-adv-x="633" 
d="M247 506l-64 -305q-8 -34 -8 -54q0 -26 11.5 -37t37.5 -11q43 0 144 75l41 30l66 307q7 36 44 36h50q31 0 31 -26q0 -9 -2 -15l-101 -470q-8 -36 -44 -36h-51q-30 0 -30 26q0 6 2 14l12 55l-39 -30q-98 -73 -176 -73q-58 0 -91.5 29.5t-33.5 84.5q0 34 8 72l70 333
q8 36 44 36h51q30 0 30 -26q0 -9 -2 -15zM513 -188h-105q-42 0 -68 16.5t-26 50.5q0 31 23 57t59 41h51v-12q-25 -11 -46 -30t-21 -40q0 -28 51 -28h94q24 0 24 -17q0 -2 -2 -12q-6 -26 -34 -26z" />
    <glyph glyph-name="Wcircumflex" unicode="&#x174;" horiz-adv-x="1064" 
d="M984 714q13 36 46 36h56q28 0 28 -23q0 -2 -9 -32q-75 -204 -169 -393t-170 -302h-164q-42 205 -42 444q-50 -125 -116 -248t-116 -196h-165q-21 83 -36 224t-15 275q0 130 4 215q2 36 36 36h62q17 0 27 -8.5t10 -23.5q0 -10 -0.5 -22t-1.5 -27t-1 -24q-3 -73 -3 -146
q0 -225 29 -392q66 101 143.5 266t143.5 341q13 36 45 36h40q34 0 34 -34q0 -12 -2 -36q-6 -126 -6 -182q0 -215 31 -391q68 110 146.5 277t134.5 330zM721 869l-59 68l-88 -68q-45 -36 -72 -36h-14q-23 0 -23 13q0 9 15 23l101 93q38 36 64 36h54q24 0 47 -36l59 -93
q6 -11 6 -17q0 -19 -27 -19h-11q-4 0 -8 1t-6.5 1.5t-6.5 3t-6 4t-6 5.5t-5.5 6t-6.5 7.5t-7 7.5z" />
    <glyph glyph-name="wcircumflex" unicode="&#x175;" horiz-adv-x="810" 
d="M804 506l-23 -100q-29 -126 -93 -237t-134 -169h-132q-18 28 -34.5 76.5t-18.5 86.5q-15 -35 -56 -86t-69 -77h-136q-61 99 -61 258q0 63 15 148l20 105q8 36 44 36h51q30 0 30 -26q0 -9 -2 -15l-19 -100q-16 -76 -16 -148q0 -113 36 -173q51 51 93.5 138t60.5 183
l21 105q8 36 44 36h51q30 0 30 -26q0 -9 -2 -15l-20 -100q-15 -87 -15 -148q0 -121 34 -173q49 49 90.5 135.5t63.5 185.5l24 105q8 36 44 36h50q31 0 31 -26q0 -9 -2 -15zM546 661l-59 68l-88 -68q-45 -36 -72 -36h-14q-23 0 -23 13q0 9 15 23l101 93q38 36 64 36h54
q24 0 47 -36l59 -93q6 -11 6 -17q0 -19 -27 -19h-11q-4 0 -8 1t-6.5 1.5t-6.5 3t-6 4t-6 5.5t-5.5 6t-6.5 7.5t-7 7.5z" />
    <glyph glyph-name="Ycircumflex" unicode="&#x176;" horiz-adv-x="649" 
d="M203 41l56 258l-126 381q-13 38 -13 46q0 24 31 24h58q32 0 43 -36l99 -306l227 306q28 36 55 36h56q26 0 26 -17q0 -7 -9 -19l-318 -412l-57 -266q-8 -36 -44 -36h-56q-30 0 -30 26q0 7 2 15zM513 869l-59 68l-88 -68q-45 -36 -72 -36h-14q-23 0 -23 13q0 9 15 23
l101 93q38 36 64 36h54q24 0 47 -36l59 -93q6 -11 6 -17q0 -19 -27 -19h-11q-4 0 -8 1t-6.5 1.5t-6.5 3t-6 4t-6 5.5t-5.5 6t-6.5 7.5t-7 7.5z" />
    <glyph glyph-name="ycircumflex" unicode="&#x177;" horiz-adv-x="632" 
d="M245 506l-44 -204q-14 -63 -14 -80q0 -31 14 -42t48 -11q64 0 161 50l63 292q8 36 44 36h50q31 0 31 -26q0 -9 -2 -15l-93 -432q-29 -134 -111 -198t-234 -64h-86q-30 0 -30 27q0 7 2 15l5 23q8 36 45 36h64q105 0 154.5 38t66.5 119l11 55q-117 -62 -191 -62
q-139 0 -139 132q0 27 12 84l50 232q8 36 44 36h51q30 0 30 -26q0 -9 -2 -15zM459 661l-59 68l-88 -68q-45 -36 -72 -36h-14q-23 0 -23 13q0 9 15 23l101 93q38 36 64 36h54q24 0 47 -36l59 -93q6 -11 6 -17q0 -19 -27 -19h-11q-4 0 -8 1t-6.5 1.5t-6.5 3t-6 4t-6 5.5
t-5.5 6t-6.5 7.5t-7 7.5z" />
    <glyph glyph-name="Ydieresis" unicode="&#x178;" horiz-adv-x="649" 
d="M203 41l56 258l-126 381q-13 38 -13 46q0 24 31 24h58q32 0 43 -36l99 -306l227 306q28 36 55 36h56q26 0 26 -17q0 -7 -9 -19l-318 -412l-57 -266q-8 -36 -44 -36h-56q-30 0 -30 26q0 7 2 15zM357 851q-8 -37 -44 -37h-52q-29 0 -29 26q0 7 10 51q8 36 44 36h52
q29 0 29 -27q0 -5 -10 -49zM617 851q-8 -37 -44 -37h-52q-29 0 -29 26q0 7 10 51q8 36 44 36h51q30 0 30 -27q0 -5 -10 -49z" />
    <glyph glyph-name="Zacute" unicode="&#x179;" horiz-adv-x="600" 
d="M460 642h-314q-30 0 -30 26q0 14 7 46q8 36 45 36h444q30 0 30 -27q0 -11 -3 -20q-2 -10 -12 -25q-99 -151 -228 -315.5t-217 -254.5h318q29 0 29 -26q0 -14 -7 -46q-6 -36 -44 -36h-464q-30 0 -30 26q0 6 4 25q4 17 19 34q336 369 453 557zM508 953l-102 -84
q-17 -14 -25.5 -20t-19.5 -11t-22 -5h-29q-23 0 -23 15q0 8 10 21l78 84q31 36 59 36h71q21 0 21 -11q0 -10 -18 -25z" />
    <glyph glyph-name="zacute" unicode="&#x17a;" horiz-adv-x="511" 
d="M372 0h-364q-29 0 -29 27q0 11 1 14l3 16q4 21 30 44q84 73 179.5 168.5t157.5 173.5h-236q-30 0 -30 27q0 6 2 14l6 27q8 36 45 36h343q31 0 31 -26q0 -7 -2 -15l-3 -13q-6 -27 -24 -53q-50 -72 -152.5 -177.5t-171.5 -158.5h237q30 0 30 -27q0 -7 -2 -15l-6 -26
q-8 -36 -45 -36zM440 745l-102 -84q-17 -14 -25.5 -20t-19.5 -11t-22 -5h-29q-23 0 -23 15q0 8 10 21l78 84q31 36 59 36h71q21 0 21 -11q0 -10 -18 -25z" />
    <glyph glyph-name="Zdotaccent" unicode="&#x17b;" horiz-adv-x="600" 
d="M460 642h-314q-30 0 -30 26q0 14 7 46q8 36 45 36h444q30 0 30 -27q0 -11 -3 -20q-2 -10 -12 -25q-99 -151 -228 -315.5t-217 -254.5h318q29 0 29 -26q0 -14 -7 -46q-6 -36 -44 -36h-464q-30 0 -30 26q0 6 4 25q4 17 19 34q336 369 453 557zM447 869q-8 -36 -44 -36h-52
q-29 0 -29 25q0 7 10 51q8 36 44 36h51q30 0 30 -26q0 -6 -10 -50z" />
    <glyph glyph-name="zdotaccent" unicode="&#x17c;" horiz-adv-x="511" 
d="M372 0h-364q-29 0 -29 27q0 11 1 14l3 16q4 21 30 44q84 73 179.5 168.5t157.5 173.5h-236q-30 0 -30 27q0 6 2 14l6 27q8 36 45 36h343q31 0 31 -26q0 -7 -2 -15l-3 -13q-6 -27 -24 -53q-50 -72 -152.5 -177.5t-171.5 -158.5h237q30 0 30 -27q0 -7 -2 -15l-6 -26
q-8 -36 -45 -36zM391 661q-8 -36 -44 -36h-52q-29 0 -29 25q0 7 10 51q8 36 44 36h51q30 0 30 -26q0 -6 -10 -50z" />
    <glyph glyph-name="Zcaron" unicode="&#x17d;" horiz-adv-x="600" 
d="M460 642h-314q-30 0 -30 26q0 14 7 46q8 36 45 36h444q30 0 30 -27q0 -11 -3 -20q-2 -10 -12 -25q-99 -151 -228 -315.5t-217 -254.5h318q29 0 29 -26q0 -14 -7 -46q-6 -36 -44 -36h-464q-30 0 -30 26q0 6 4 25q4 17 19 34q336 369 453 557zM330 955l59 -71l89 71
q44 36 67 36h19q22 0 22 -12q0 -10 -14 -24l-102 -93q-39 -36 -63 -36h-54q-16 0 -25.5 8t-22.5 28l-59 93q-6 11 -6 18q0 18 28 18h11q23 0 51 -36z" />
    <glyph glyph-name="zcaron" unicode="&#x17e;" horiz-adv-x="511" 
d="M372 0h-364q-29 0 -29 27q0 11 1 14l3 16q4 21 30 44q84 73 179.5 168.5t157.5 173.5h-236q-30 0 -30 27q0 6 2 14l6 27q8 36 45 36h343q31 0 31 -26q0 -7 -2 -15l-3 -13q-6 -27 -24 -53q-50 -72 -152.5 -177.5t-171.5 -158.5h237q30 0 30 -27q0 -7 -2 -15l-6 -26
q-8 -36 -45 -36zM262 747l59 -71l89 71q44 36 67 36h19q22 0 22 -12q0 -10 -14 -24l-102 -93q-39 -36 -63 -36h-54q-16 0 -25.5 8t-22.5 28l-59 93q-6 11 -6 18q0 18 28 18h11q23 0 51 -36z" />
    <glyph glyph-name="longs" unicode="&#x17f;" horiz-adv-x="265" 
d="M0 41l86 402h-50q-30 0 -30 27q0 6 2 14l6 27q8 36 45 36h50l4 19q19 90 77.5 137t148.5 47h47q29 0 29 -26q0 -5 -2 -13l-5 -22q-8 -36 -44 -36h-22q-87 0 -107 -91l-112 -526q-8 -36 -44 -36h-51q-30 0 -30 26q0 9 2 15z" />
    <glyph glyph-name="florin" unicode="&#x192;" horiz-adv-x="623" 
d="M10 -188h-52q-29 0 -29 27q0 6 8 46q8 36 45 36h50q69 0 98.5 27.5t44.5 100.5l59 286h-85q-30 0 -30 26q0 6 10 47q8 35 44 35h85l14 71q27 125 95 180.5t190 55.5h59q30 0 30 -26q0 -6 -9 -46q-7 -36 -45 -36h-49q-67 0 -97 -28t-45 -100l-14 -71h134q29 0 29 -25
q0 -6 -9 -47q-8 -36 -45 -36h-134l-59 -286q-27 -131 -95 -184t-198 -53z" />
    <glyph glyph-name="Scommaaccent" unicode="&#x218;" horiz-adv-x="559" 
d="M514 628q-65 25 -132 25h-28q-66 0 -107.5 -27.5t-41.5 -80.5q0 -33 19 -52t55 -35l92 -40q141 -61 141 -189q0 -112 -78.5 -174.5t-214.5 -62.5h-33q-75 0 -160 27q-28 8 -28 33q0 7 9 49q7 28 28 28q8 0 13 -2q78 -30 157 -30h26q65 0 105.5 31.5t40.5 88.5
q0 38 -22.5 60t-67.5 41l-87 38q-53 24 -90.5 68.5t-37.5 111.5q0 106 83.5 164t212.5 58h23q73 0 145 -25q29 -9 29 -33q0 -6 -8 -45q-7 -30 -31 -30q-4 0 -12 3zM116 -155l35 70q13 26 29 36t42 10h16q23 0 23 -25q0 -26 -15 -43l-43 -49q-2 -2 -7.5 -8.5t-7.5 -8.5l-7 -7
t-7.5 -6.5t-7 -4t-8.5 -3.5t-8 -1h-20q-22 0 -22 14q0 10 8 26z" />
    <glyph glyph-name="scommaaccent" unicode="&#x219;" horiz-adv-x="505" 
d="M442 545q28 -3 28 -27q0 -4 -2 -18l-5 -25q-6 -33 -35 -33q-4 0 -12.5 1.5t-20 3t-16.5 2.5q-38 5 -75 5q-115 0 -115 -64q0 -22 13.5 -33t40.5 -19l76 -24q60 -18 93.5 -49t33.5 -93q0 -50 -23.5 -86t-65 -56t-89 -29t-103.5 -9q-64 0 -133 12q-28 5 -28 30q0 10 3 20
l5 22q6 31 34 31q5 0 32 -5q49 -9 105 -9q134 0 134 70q0 17 -10 28.5t-19.5 15.5t-28.5 10l-82 26q-55 18 -85.5 48t-30.5 89q0 60 38.5 101t94 57.5t124.5 16.5q48 0 124 -10zM100 -155l35 70q13 26 29 36t42 10h16q23 0 23 -25q0 -26 -15 -43l-43 -49q-2 -2 -7.5 -8.5
t-7.5 -8.5l-7 -7t-7.5 -6.5t-7 -4t-8.5 -3.5t-8 -1h-20q-22 0 -22 14q0 10 8 26z" />
    <glyph glyph-name="uni021A" unicode="&#x21a;" horiz-adv-x="581" 
d="M115 644q-29 0 -29 26q0 6 8 42q8 35 45 38h496q29 0 29 -26q0 -6 -8 -42q-7 -35 -45 -38h-179l-129 -608q-8 -36 -44 -36h-56q-30 0 -30 26q0 7 2 15l128 603h-188zM111 -155l35 70q13 26 29 36t42 10h16q23 0 23 -25q0 -26 -15 -43l-43 -49q-2 -2 -7.5 -8.5t-7.5 -8.5
l-7 -7t-7.5 -6.5t-7 -4t-8.5 -3.5t-8 -1h-20q-22 0 -22 14q0 10 8 26z" />
    <glyph glyph-name="uni021B" unicode="&#x21b;" horiz-adv-x="405" 
d="M292 0h-49q-76 0 -121.5 37t-45.5 109q0 29 8 63l50 234h-51q-30 0 -30 27q0 6 2 14l6 27q7 36 44 36h52l21 96q8 36 43 36h50q31 0 31 -27q0 -7 -2 -15l-20 -90h103q30 0 30 -26q0 -6 -2 -14l-6 -28q-10 -36 -45 -36h-102l-46 -219q-10 -42 -10 -58q0 -38 20 -51.5
t69 -13.5h23q31 0 31 -27q0 -7 -2 -13l-6 -25q-10 -36 -45 -36zM134 -155l35 70q13 26 29 36t42 10h16q23 0 23 -25q0 -26 -15 -43l-43 -49q-2 -2 -7.5 -8.5t-7.5 -8.5l-7 -7t-7.5 -6.5t-7 -4t-8.5 -3.5t-8 -1h-20q-22 0 -22 14q0 10 8 26z" />
    <glyph glyph-name="circumflex" unicode="&#x2c6;" horiz-adv-x="377" 
d="M331 661l-59 68l-88 -68q-45 -36 -72 -36h-14q-23 0 -23 13q0 9 15 23l101 93q38 36 64 36h54q24 0 47 -36l59 -93q6 -11 6 -17q0 -19 -27 -19h-11q-4 0 -8 1t-6.5 1.5t-6.5 3t-6 4t-6 5.5t-5.5 6t-6.5 7.5t-7 7.5z" />
    <glyph glyph-name="caron" unicode="&#x2c7;" horiz-adv-x="381" 
d="M194 747l59 -71l89 71q44 36 67 36h19q22 0 22 -12q0 -10 -14 -24l-102 -93q-39 -36 -63 -36h-54q-16 0 -25.5 8t-22.5 28l-59 93q-6 11 -6 18q0 18 28 18h11q23 0 51 -36z" />
    <glyph glyph-name="breve" unicode="&#x2d8;" horiz-adv-x="341" 
d="M361 745q7 11 11 16t10.5 8.5t14.5 3.5h11q18 0 18 -13q0 -6 -3 -15q-21 -53 -69.5 -86.5t-119.5 -33.5q-68 0 -101 31t-33 82v7q1 28 28 28h11q8 0 12 -3t5.5 -7.5t3.5 -13.5q0 -1 0.5 -2t0.5 -2q6 -25 30.5 -39t59.5 -14q34 0 64 14t46 39z" />
    <glyph glyph-name="dotaccent" unicode="&#x2d9;" horiz-adv-x="149" 
d="M210 661q-8 -36 -44 -36h-52q-29 0 -29 25q0 7 10 51q8 36 44 36h51q30 0 30 -26q0 -6 -10 -50z" />
    <glyph glyph-name="ring" unicode="&#x2da;" horiz-adv-x="241" 
d="M187 625q-47 0 -74.5 21t-27.5 61q0 53 39 87t99 34q47 0 74.5 -21t27.5 -61q0 -47 -38 -84t-100 -37zM191 664q36 0 57.5 19.5t21.5 54.5q0 24 -14 37.5t-37 13.5q-36 0 -57 -19.5t-21 -54.5q0 -23 13.5 -37t36.5 -14z" />
    <glyph glyph-name="ogonek" unicode="&#x2db;" horiz-adv-x="211" 
d="M125 -188h-105q-42 0 -68 16.5t-26 50.5q0 31 23 57t59 41h51v-12q-25 -11 -46 -30t-21 -40q0 -28 51 -28h94q24 0 24 -17q0 -2 -2 -12q-6 -26 -34 -26z" />
    <glyph glyph-name="tilde" unicode="&#x2dc;" horiz-adv-x="375" 
d="M388 654q-41 -29 -72 -29q-27 0 -69.5 38t-59.5 38q-31 0 -69 -38q-18 -17 -28 -17q-8 0 -8 11q0 7 5 28q5 26 49 60q31 26 66 26q30 0 72 -37.5t58 -37.5q30 0 73 39q19 18 29 18q7 0 7 -13q0 -6 -4 -25q-5 -25 -49 -61z" />
    <glyph glyph-name="hungarumlaut" unicode="&#x2dd;" horiz-adv-x="448" 
d="M303 745l-103 -84q-17 -14 -25.5 -20t-19.5 -11t-22 -5h-2q-24 0 -24 15q0 9 11 21l77 84q33 36 60 36h44q21 0 21 -11q0 -9 -17 -25zM491 745l-102 -84q-19 -15 -26 -20.5t-19 -10.5t-23 -5h-2q-23 0 -23 15q0 9 11 21l77 84q32 36 59 36h44q22 0 22 -11q0 -10 -18 -25z
" />
    <glyph glyph-name="Delta" unicode="&#x394;" horiz-adv-x="678" 
d="M121 104h352l-64 527zM584 0h-616q-13 0 -13 12q0 7 5 16l394 686q20 36 52 36h58q31 0 36 -36l104 -686v-4q1 -4 1 -7q0 -17 -21 -17z" />
    <glyph glyph-name="Delta" unicode="&#x2206;" horiz-adv-x="678" 
d="M121 104h352l-64 527zM584 0h-616q-13 0 -13 12q0 7 5 16l394 686q20 36 52 36h58q31 0 36 -36l104 -686v-4q1 -4 1 -7q0 -17 -21 -17z" />
    <glyph glyph-name="Omega" unicode="&#x3a9;" horiz-adv-x="743" 
d="M238 0h-221q-30 0 -30 26q0 6 5 27q9 35 46 35h93q-80 89 -80 210q0 42 10 85q36 175 142 268.5t259 93.5q122 0 191 -65t69 -188q0 -244 -207 -404h97q30 0 30 -26q0 -6 -5 -27q-9 -35 -46 -35h-222l16 71q96 63 154 182t58 246q0 172 -152 172q-96 0 -162 -72.5
t-96 -215.5q-12 -54 -12 -105q0 -134 79 -207z" />
    <glyph glyph-name="Omega" unicode="&#x2126;" horiz-adv-x="743" 
d="M238 0h-221q-30 0 -30 26q0 6 5 27q9 35 46 35h93q-80 89 -80 210q0 42 10 85q36 175 142 268.5t259 93.5q122 0 191 -65t69 -188q0 -244 -207 -404h97q30 0 30 -26q0 -6 -5 -27q-9 -35 -46 -35h-222l16 71q96 63 154 182t58 246q0 172 -152 172q-96 0 -162 -72.5
t-96 -215.5q-12 -54 -12 -105q0 -134 79 -207z" />
    <glyph glyph-name="pi" unicode="&#x3c0;" horiz-adv-x="635" 
d="M600 511l-101 -475q-8 -36 -44 -36h-44q-30 0 -30 26q0 6 1 10l85 407h-236l-85 -407q-8 -36 -45 -36h-44q-30 0 -30 26q0 6 1 10l101 475q8 36 44 36h398q30 0 30 -26q0 -6 -1 -10z" />
    <glyph glyph-name="endash" unicode="&#x2013;" horiz-adv-x="499" 
d="M435 315h-365q-29 0 -29 27q0 7 7 41q7 36 45 36h364q29 0 29 -26q0 -7 -7 -41q-2 -17 -14.5 -27t-29.5 -10z" />
    <glyph glyph-name="emdash" unicode="&#x2014;" horiz-adv-x="999" 
d="M935 315h-865q-29 0 -29 27q0 7 7 41q7 36 45 36h864q29 0 29 -26q0 -7 -7 -41q-2 -17 -14.5 -27t-29.5 -10z" />
    <glyph glyph-name="quoteleft" unicode="&#x2018;" horiz-adv-x="272" 
d="M270 750h29q21 0 21 -15q0 -7 -8 -25l-69 -164q-18 -46 -71 -46h-46q-27 0 -27 25v7q0 21 12 36l106 143q28 39 53 39z" />
    <glyph glyph-name="quoteright" unicode="&#x2019;" horiz-adv-x="272" 
d="M137 500h-30q-21 0 -21 15q0 7 8 25l69 164q11 26 27 36t44 10h46q28 0 28 -25v-7q0 -21 -13 -36l-106 -143q-28 -39 -52 -39z" />
    <glyph glyph-name="quotesinglbase" unicode="&#x201a;" horiz-adv-x="287" 
d="M8 -125h-29q-22 0 -22 15q0 7 8 25l69 164q11 26 27 36t44 10h46q28 0 28 -25v-7q0 -21 -13 -36l-105 -143q-30 -39 -53 -39z" />
    <glyph glyph-name="quotedblleft" unicode="&#x201c;" horiz-adv-x="491" 
d="M488 750h30q21 0 21 -15q0 -7 -8 -25l-69 -164q-11 -26 -27 -36t-44 -10h-46q-28 0 -28 25v7q0 21 13 36l106 143q28 39 52 39zM270 750h29q21 0 21 -15q0 -7 -8 -25l-69 -164q-18 -46 -71 -46h-46q-27 0 -27 25v7q0 21 12 36l106 143q28 39 53 39z" />
    <glyph glyph-name="quotedblright" unicode="&#x201d;" horiz-adv-x="490" 
d="M137 500h-30q-21 0 -21 15q0 7 8 25l69 164q11 26 27 36t44 10h46q28 0 28 -25v-7q0 -21 -13 -36l-106 -143q-28 -39 -52 -39zM355 500h-29q-21 0 -21 15q0 6 7 25l70 164q18 46 71 46h46q27 0 27 -25v-7q0 -21 -12 -36l-106 -143q-28 -39 -53 -39z" />
    <glyph glyph-name="quotedblbase" unicode="&#x201e;" horiz-adv-x="506" 
d="M8 -125h-29q-22 0 -22 15q0 7 8 25l69 164q11 26 27 36t44 10h46q28 0 28 -25v-7q0 -21 -13 -36l-105 -143q-30 -39 -53 -39zM227 -125h-30q-21 0 -21 15q0 7 8 25l69 164q11 26 27 36t44 10h46q27 0 27 -25v-7q0 -23 -12 -36l-106 -143q-28 -39 -52 -39z" />
    <glyph glyph-name="dagger" unicode="&#x2020;" horiz-adv-x="558" 
d="M483 443h-115l-112 -532q-8 -36 -45 -36h-51q-29 0 -29 25q0 7 1 11l112 532h-115q-30 0 -30 27q0 6 7 41q8 36 44 36h116l36 167q8 36 44 36h50q30 0 30 -25q0 -7 -1 -11l-35 -167h116q29 0 29 -26q0 -6 -8 -42t-44 -36z" />
    <glyph glyph-name="daggerdbl" unicode="&#x2021;" horiz-adv-x="552" 
d="M409 78h-122l-35 -167q-8 -36 -45 -36h-51q-29 0 -29 25q0 7 1 11l35 167h-108q-31 0 -31 26q0 6 8 42t44 36h109l55 261h-115q-30 0 -30 27q0 1 8 41q7 36 43 36h116l36 167q8 36 44 36h51q29 0 29 -25q0 -7 -1 -11l-35 -167h116q29 0 29 -26q0 -6 -8 -42
q-7 -36 -44 -36h-115l-55 -261h123q29 0 29 -26q0 -7 -8 -42q-8 -36 -44 -36z" />
    <glyph glyph-name="bullet" unicode="&#x2022;" horiz-adv-x="491" 
d="M250 125q-76 0 -131.5 49.5t-55.5 138.5t55.5 138t131.5 49t132 -49t56 -138t-56 -138.5t-132 -49.5z" />
    <glyph glyph-name="ellipsis" unicode="&#x2026;" horiz-adv-x="877" 
d="M112 0h-54q-32 0 -32 25q0 3 2 11l13 53q8 36 44 36h55q31 0 31 -25q0 -3 -2 -11l-13 -53q-8 -36 -44 -36zM397 0h-54q-31 0 -31 25q0 7 1 11l13 53q8 36 44 36h55q31 0 31 -25q0 -3 -2 -11l-13 -53q-7 -36 -44 -36zM687 0h-55q-31 0 -31 25q0 3 2 11l12 53q8 36 44 36
h55q31 0 31 -25q0 -3 -2 -11l-13 -53q-7 -36 -43 -36z" />
    <glyph glyph-name="perthousand" unicode="&#x2030;" horiz-adv-x="1404" 
d="M204 320q-69 0 -104.5 33.5t-35.5 96.5q0 74 25.5 141.5t83 115.5t135.5 48q140 0 140 -131q0 -55 -14.5 -107.5t-43 -97.5t-77 -72t-109.5 -27zM218 391q59 0 95.5 73t36.5 158q0 62 -55 62q-59 0 -95.5 -73t-36.5 -158q0 -62 55 -62zM693 -4q-68 0 -103.5 33.5
t-35.5 96.5q0 55 15 107.5t44 97.5t77 72.5t107 27.5q140 0 140 -131q0 -55 -14.5 -107.5t-43 -97.5t-77 -72t-109.5 -27zM707 66q59 0 95.5 73.5t36.5 158.5q0 61 -55 61q-59 0 -95.5 -73t-36.5 -157q0 -63 55 -63zM1133 -4q-69 0 -104.5 33.5t-35.5 96.5q0 55 15 107.5
t44 97.5t77 72.5t107 27.5q141 0 141 -131q0 -55 -14.5 -107.5t-43 -97.5t-77 -72t-109.5 -27zM1146 66q59 0 95.5 73.5t36.5 158.5q0 61 -54 61q-59 0 -95.5 -73t-36.5 -157q0 -63 54 -63zM293 29l343 692q16 29 40 29h12q25 0 25 -18q0 -5 -3 -11l-344 -692
q-16 -29 -39 -29h-13q-25 0 -25 17q0 2 4 12z" />
    <glyph glyph-name="guilsinglleft" unicode="&#x2039;" horiz-adv-x="335" 
d="M208 146l-120 121q-26 24 -26 44q0 5 7 40q6 26 48 54l171 120q14 9 22 9q12 0 12 -16q0 -6 -10 -52q-2 -11 -9.5 -21t-14 -15t-24.5 -18l-110 -76l78 -77q26 -24 26 -43q0 -7 -10 -53q-5 -25 -22 -25q-8 0 -18 8z" />
    <glyph glyph-name="guilsinglright" unicode="&#x203a;" horiz-adv-x="336" 
d="M136 525l120 -120q26 -26 26 -44q0 -6 -8 -40q-5 -26 -47 -54l-171 -121q-14 -8 -22 -8q-13 0 -13 16q0 6 10 52q2 11 10 21t14.5 15t24.5 18l109 76l-78 77q-25 25 -25 43q0 7 10 53q5 25 22 25q9 0 18 -9z" />
    <glyph glyph-name="fraction" unicode="&#x2044;" horiz-adv-x="8" 
d="M-192 29l342 692q16 29 40 29h13q25 0 25 -18q0 -5 -3 -11l-344 -692q-16 -29 -39 -29h-13q-25 0 -25 17q0 2 4 12z" />
    <glyph glyph-name="fraction" unicode="&#x2215;" horiz-adv-x="8" 
d="M-192 29l342 692q16 29 40 29h13q25 0 25 -18q0 -5 -3 -11l-344 -692q-16 -29 -39 -29h-13q-25 0 -25 17q0 2 4 12z" />
    <glyph glyph-name="uni2070" unicode="&#x2070;" horiz-adv-x="412" 
d="M192 320q-68 0 -103.5 33.5t-35.5 96.5q0 55 15 107.5t44 97.5t77 72.5t107 27.5q141 0 141 -131q0 -75 -24.5 -142t-82 -114.5t-138.5 -47.5zM206 391q59 0 95.5 73t36.5 158q0 62 -55 62q-59 0 -95.5 -73t-36.5 -158q0 -62 55 -62z" />
    <glyph glyph-name="uni2074" unicode="&#x2074;" horiz-adv-x="412" 
d="M57 453q4 13 11 22q48 52 93.5 122.5t69.5 128.5q4 9 15 16.5t23 7.5h40q25 0 25 -18q0 -4 -3 -12q-42 -103 -161 -240h104l21 78q6 24 36 24h36q27 0 27 -20q0 -8 -3 -17l-17 -65h21q27 0 27 -20q0 -6 -6 -25q-8 -26 -37 -26h-24l-13 -59q-7 -26 -36 -26h-36
q-28 0 -28 23q0 4 1 7l14 55h-177q-28 0 -28 21q0 6 5 23z" />
    <glyph glyph-name="uni2075" unicode="&#x2075;" horiz-adv-x="412" 
d="M400 678h-170l-21 -80h42q73 0 112.5 -29t39.5 -84q0 -71 -58 -116t-158 -45h-113q-27 0 -27 23q0 5 5 23q5 26 37 26h108q49 0 78.5 23.5t29.5 60.5q0 43 -78 43h-95q-28 0 -28 23v8l44 171q7 25 37 25h230q27 0 27 -22q0 -4 -5 -26q-3 -24 -37 -24z" />
    <glyph glyph-name="uni2076" unicode="&#x2076;" horiz-adv-x="412" 
d="M392 678h-63q-48 0 -83.5 -24t-47.5 -67q39 15 82 15q63 0 96 -30t33 -81q0 -74 -54.5 -122.5t-149.5 -48.5q-67 0 -104 26.5t-37 77.5q0 15 6 43l29 116q19 77 82 122t163 45h61q29 0 29 -21q0 -5 -5 -27q-5 -24 -37 -24zM259 529q-31 0 -78 -15l-14 -52q-4 -13 -4 -28
q0 -42 54 -42q42 0 68.5 25.5t26.5 71.5q0 40 -53 40z" />
    <glyph glyph-name="uni2077" unicode="&#x2077;" horiz-adv-x="412" 
d="M329 677h-202q-27 0 -27 21q0 5 5 26q7 26 37 26h290q26 0 26 -21q0 -4 -5 -25q-3 -11 -12 -17q-179 -153 -223 -320l-5 -17q-7 -26 -37 -26h-36q-28 0 -28 20q0 4 2 10l5 13q69 194 210 310z" />
    <glyph glyph-name="uni2078" unicode="&#x2078;" horiz-adv-x="412" 
d="M187 320q-63 0 -101 25t-38 74q0 38 24.5 69.5t64.5 51.5l15 8q-45 29 -45 79q0 61 55 94.5t129 33.5h18q56 0 93.5 -25t37.5 -70q0 -58 -78 -109l-11 -8q49 -35 49 -85q0 -63 -56.5 -100.5t-138.5 -37.5h-18zM259 501l-39 18l-21 -15q-51 -38 -51 -74t57 -36h12
q36 0 61 17t25 47q0 23 -44 43zM204 629q0 -20 36 -37l40 -18l16 11q46 31 46 67q0 32 -51 32h-19q-30 0 -49 -14.5t-19 -40.5z" />
    <glyph glyph-name="uni2079" unicode="&#x2079;" horiz-adv-x="412" 
d="M154 324h-66q-28 0 -28 23q0 4 4 23q5 26 37 26h66q48 0 83 24t47 68q-36 -14 -83 -14q-62 0 -95.5 30t-33.5 79q0 75 52 123.5t148 48.5q68 0 106 -29.5t38 -80.5q0 -31 -5 -46l-28 -108q-42 -167 -242 -167zM237 545q37 0 79 17l12 43q4 16 4 32q0 46 -57 46
q-43 0 -66.5 -25.5t-23.5 -72.5q0 -40 52 -40z" />
    <glyph glyph-name="uni2080" unicode="&#x2080;" horiz-adv-x="412" 
d="M134 -4q-69 0 -104.5 33.5t-35.5 96.5q0 55 15 107.5t44 97.5t77 72.5t107 27.5q141 0 141 -131q0 -55 -14.5 -107.5t-43 -97.5t-77 -72t-109.5 -27zM147 66q59 0 95.5 73.5t36.5 158.5q0 61 -54 61q-59 0 -95.5 -73t-36.5 -157q0 -63 54 -63z" />
    <glyph glyph-name="uni2081" unicode="&#x2081;" horiz-adv-x="412" 
d="M190 332l-106 -33q-5 -2 -13 -2q-16 0 -16 16q0 6 7 33q4 23 34 32l140 44q11 4 25 4h18q27 0 27 -20q0 -7 -1 -10l-93 -371q-7 -25 -35 -25h-36q-28 0 -28 21q0 7 1 10z" />
    <glyph glyph-name="uni2082" unicode="&#x2082;" horiz-adv-x="412" 
d="M288 0h-265q-29 0 -29 21q0 5 10 44q19 83 122 130l69 33q45 20 64 39t19 47q0 40 -68 40h-107q-28 0 -28 21q0 5 5 24q7 27 36 27h118q65 0 104.5 -29t39.5 -77q0 -52 -36.5 -86t-110.5 -69l-53 -25q-35 -17 -51.5 -31.5t-22.5 -36.5h199q27 0 27 -20q0 -6 -6 -27
q-7 -25 -36 -25z" />
    <glyph glyph-name="uni2083" unicode="&#x2083;" horiz-adv-x="412" 
d="M131 0h-113q-29 0 -29 22q0 5 5 26q6 24 36 24h109q103 0 103 73q0 42 -74 42h-48q-27 0 -27 22q0 5 4 21q6 25 36 25h75q63 27 63 65q0 34 -64 34h-108q-28 0 -28 21q0 5 5 24q7 27 37 27h115q66 0 104.5 -23.5t38.5 -70.5q0 -70 -81 -103q50 -31 50 -84
q0 -69 -55.5 -107t-153.5 -38z" />
    <glyph glyph-name="uni2084" unicode="&#x2084;" horiz-adv-x="412" 
d="M-2 129q4 13 12 21q48 53 94 124t69 127q10 25 37 25h40q25 0 25 -18q0 -6 -3 -12q-43 -107 -161 -240h105l20 77q6 25 36 25h37q26 0 26 -20q0 -8 -3 -17l-17 -65h21q27 0 27 -20q0 -6 -6 -26q-7 -25 -37 -25h-23l-14 -60q-7 -25 -36 -25h-36q-27 0 -27 22q0 4 1 7
l13 56h-177q-28 0 -28 20q0 6 5 24z" />
    <glyph glyph-name="uni2085" unicode="&#x2085;" horiz-adv-x="412" 
d="M342 354h-170l-22 -81h42q73 0 113 -29t40 -83q0 -72 -58 -116.5t-159 -44.5h-112q-28 0 -28 22q0 5 5 24q6 26 37 26h109q48 0 77.5 23.5t29.5 60.5q0 43 -78 43h-95q-28 0 -28 23q0 5 1 7l44 171q7 26 36 26h230q28 0 28 -23q0 -4 -5 -25q-5 -24 -37 -24z" />
    <glyph glyph-name="uni2086" unicode="&#x2086;" horiz-adv-x="412" 
d="M333 354h-62q-48 0 -83.5 -24t-47.5 -67q39 14 82 14q63 0 96 -30t33 -80q0 -74 -55 -122.5t-150 -48.5q-66 0 -103 26.5t-37 77.5q0 15 6 43l28 116q19 77 82 122t163 45h62q28 0 28 -22q0 -5 -5 -26q-4 -24 -37 -24zM200 205q-32 0 -78 -16l-14 -51q-4 -13 -4 -29
q0 -42 54 -42q43 0 69 25.5t26 72.5q0 40 -53 40z" />
    <glyph glyph-name="uni2087" unicode="&#x2087;" horiz-adv-x="412" 
d="M271 353h-203q-27 0 -27 21q0 5 6 25q7 27 36 27h290q26 0 26 -21q0 -5 -4 -25q-3 -10 -12 -18q-179 -150 -224 -319l-5 -18q-7 -25 -37 -25h-36q-27 0 -27 20q0 3 2 9l5 14q66 190 210 310z" />
    <glyph glyph-name="uni2088" unicode="&#x2088;" horiz-adv-x="412" 
d="M128 -4q-63 0 -101 25t-38 74q0 37 24.5 68.5t64.5 52.5l16 8q-45 28 -45 79q0 61 54.5 94.5t128.5 33.5h18q56 0 94 -25.5t38 -69.5q0 -58 -78 -109l-12 -8q50 -35 50 -85q0 -63 -57 -100.5t-139 -37.5h-18zM200 177l-39 17l-20 -14q-51 -36 -51 -75q0 -36 56 -36h12
q36 0 61 17.5t25 47.5q0 24 -44 43zM146 305q0 -23 36 -37l40 -18l15 11q46 30 46 67q0 31 -51 31h-18q-30 0 -49 -14t-19 -40z" />
    <glyph glyph-name="uni2089" unicode="&#x2089;" horiz-adv-x="412" 
d="M96 0h-67q-28 0 -28 22q0 4 5 24q6 26 36 26h66q49 0 84 24t46 68q-34 -15 -83 -15q-62 0 -95.5 30t-33.5 80q0 75 52.5 123.5t148.5 48.5q68 0 105.5 -30t37.5 -81q0 -29 -5 -46l-27 -107q-43 -167 -242 -167zM179 221q33 0 79 16l12 44q3 24 3 31q0 46 -56 46
q-43 0 -67 -25t-24 -72q0 -40 53 -40z" />
    <glyph glyph-name="Euro" unicode="&#x20ac;" 
d="M104 250h-54q-27 0 -27 22q0 6 6 32q7 31 38 31h55l17 80h-54q-25 0 -25 23q0 1 0.5 3t1.5 9.5t2 18.5q5 31 39 31h54q27 128 116 193t211 65h24q57 0 115 -18q29 -9 29 -33q0 -7 -8 -46q-7 -30 -33 -30q-3 0 -11 2q-50 16 -108 16h-23q-65 0 -114.5 -36.5t-65.5 -112.5
h232q26 0 26 -22q0 -6 -6 -32q-7 -31 -38 -31h-232l-18 -80h232q26 0 26 -23q0 -1 -0.5 -3t-1.5 -9.5t-3 -18.5q-2 -14 -13 -22.5t-25 -8.5h-233q-6 -28 -6 -43q0 -60 31.5 -83t94.5 -23h30q57 0 110 20q7 3 13 3q17 0 17 -20q0 -6 -8 -49q-7 -31 -46 -44q-59 -19 -110 -19
h-31q-102 0 -167.5 49t-65.5 144q0 28 7 65z" />
    <glyph glyph-name="trademark" unicode="&#x2122;" horiz-adv-x="799" 
d="M361 679h-71l-64 -304q-6 -26 -33 -26h-34q-21 0 -21 17q0 6 1 9l64 304h-71q-23 0 -23 18q0 5 1 8l4 19q6 26 32 26h230q21 0 21 -19q0 -4 -1 -7l-3 -19q-6 -26 -32 -26zM818 724l-73 -349q-6 -26 -32 -26h-34q-22 0 -22 17q0 6 1 9l44 211l-98 -113q-9 -12 -22 -12h-12
q-9 0 -15 12l-51 105l-43 -203q-6 -26 -32 -26h-34q-22 0 -22 17q0 6 1 9l73 349q7 26 32 26h34q16 0 24 -18l68 -152l127 152q16 18 33 18h33q21 0 21 -19q0 -4 -1 -7z" />
    <glyph glyph-name="partialdiff" unicode="&#x2202;" horiz-adv-x="624" 
d="M199 678l8 36q8 36 45 36h86q126 0 193.5 -57.5t67.5 -157.5q0 -32 -8 -72l-48 -226q-25 -117 -102 -181t-195 -64q-102 0 -154 47.5t-52 131.5q0 34 7 66q51 242 277 242q67 0 135 -37l6 30q6 27 6 49q0 60 -38.5 90.5t-107.5 30.5h-96q-31 0 -31 25q0 7 1 11zM266 101
q119 0 149 136l23 107q-58 29 -123 29q-59 0 -92 -32t-48 -104q-6 -27 -6 -49q0 -87 97 -87z" />
    <glyph glyph-name="product" unicode="&#x220f;" horiz-adv-x="752" 
d="M28 41l144 673q8 36 44 36h509q30 0 30 -26q0 -7 -2 -15l-144 -673q-8 -36 -44 -36h-55q-31 0 -31 26q0 7 2 15l129 603h-324l-130 -608q-8 -36 -44 -36h-55q-31 0 -31 26q0 7 2 15z" />
    <glyph glyph-name="summation" unicode="&#x2211;" horiz-adv-x="604" 
d="M552 646h-260l109 -243l-9 -46l-223 -253h310q29 0 29 -26q0 -6 -8 -42t-45 -36h-432q-30 0 -30 25q0 7 1.5 14t5 14t6.5 12t9.5 13t9.5 11.5t11.5 13t11.5 12.5l234 265l-125 257q-22 44 -22 62q0 21 13 35.5t35 15.5h392q29 0 29 -26q0 -6 -7 -42t-45 -36z" />
    <glyph glyph-name="minus" unicode="&#x2212;" 
d="M499 315h-364q-31 0 -31 27q0 6 8 41q8 36 44 36h365q30 0 30 -25q0 -7 -8 -42q-8 -37 -44 -37z" />
    <glyph glyph-name="radical" unicode="&#x221a;" horiz-adv-x="621" 
d="M592 719h96q30 0 30 -27q0 -5 -1 -9l-1 -6q-8 -36 -44 -36h-58l-353 -605q-21 -36 -52 -36h-46q-32 0 -37 36l-62 475q0 8 1 11q5 25 36 25h35q33 0 36 -36l42 -394l326 566q21 36 52 36z" />
    <glyph glyph-name="infinity" unicode="&#x221e;" horiz-adv-x="598" 
d="M106 188q-89 0 -89 103q0 21 5 53q14 66 52.5 111t98.5 45q35 0 57.5 -18t52.5 -68l24 -39q49 50 103.5 87.5t90.5 37.5q47 0 69 -27.5t22 -73.5q0 -22 -7 -55q-14 -66 -52 -111t-98 -45q-67 0 -116 82l-26 43q-121 -125 -187 -125zM444 234q71 0 94 110q6 27 6 50
q0 59 -54 59q-25 0 -73 -31.5t-92 -73.5l28 -47q38 -67 91 -67zM115 234q60 0 160 106l-26 43q-23 38 -43 54t-43 16q-71 0 -94 -109q-5 -25 -5 -40q0 -33 14 -51.5t37 -18.5z" />
    <glyph glyph-name="integral" unicode="&#x222b;" horiz-adv-x="349" 
d="M-77 -188h-33q-30 0 -30 27q0 6 1 10l7 31q8 36 44 36h23q45 0 69.5 21.5t35.5 69.5l119 560q19 89 79 136t147 47h34q29 0 29 -26q0 -6 -1 -10l-7 -31q-3 -17 -15 -27t-29 -10h-27q-46 0 -70.5 -20.5t-34.5 -67.5l-120 -563q-19 -88 -77.5 -135.5t-143.5 -47.5z" />
    <glyph glyph-name="approxequal" unicode="&#x2248;" 
d="M515 387q-42 -29 -87 -29q-38 0 -103 33.5t-91 33.5q-44 0 -83 -30q-16 -13 -25 -13q-10 0 -10 13q0 5 1 9l8 38q6 29 49 58q41 28 87 28q37 0 101.5 -33t90.5 -33q51 0 83 27q17 14 26 14t9 -15q0 -6 -1 -9l-7 -35q-4 -27 -48 -57zM466 158q-43 -28 -87 -28
q-37 0 -102 33t-90 33q-48 0 -84 -30q-17 -13 -26 -13q-10 0 -10 13q0 6 1 10l8 38q7 30 49 57q44 29 87 29q37 0 102.5 -33.5t90.5 -33.5q50 0 83 28q15 12 25 12q9 0 9 -13q0 -6 -1 -9l-6 -35q-4 -26 -49 -58z" />
    <glyph glyph-name="notequal" unicode="&#x2260;" 
d="M470 197h-186l-45 -89q-18 -36 -52 -36h-19q-27 0 -27 20q0 8 5 16l45 89h-86q-29 0 -29 26q0 6 1 9l6 32q8 36 45 36h116l63 125h-153q-30 0 -30 26q0 6 1 10l7 31q8 36 44 36h184l45 89q19 36 52 36h21q27 0 27 -19q0 -7 -5 -17l-46 -89h87q29 0 29 -25q0 -7 -1 -11
l-7 -31q-6 -36 -43 -36h-118l-64 -125h156q29 0 29 -26q0 -6 -1 -10l-6 -32q-8 -35 -45 -35z" />
    <glyph glyph-name="lessequal" unicode="&#x2264;" 
d="M152 434l405 190q10 5 17 5q16 0 16 -19q0 -6 -1 -9l-11 -46q-7 -29 -47 -47l-308 -141l251 -139q27 -16 27 -37q0 -6 -1 -10l-10 -46q-7 -29 -27 -29q-7 0 -15 5l-324 190q-27 15 -27 38q0 6 1 10l7 37q6 29 47 48zM61 0h364q29 0 29 -25q0 -7 -1 -11l-7 -31
q-8 -37 -44 -37h-364q-30 0 -30 27q0 6 1 10l7 31q8 36 45 36z" />
    <glyph glyph-name="greaterequal" unicode="&#x2265;" 
d="M64 0h365q29 0 29 -25q0 -7 -1 -11l-7 -31q-8 -37 -44 -37h-364q-30 0 -30 27q0 6 1 10l7 31q7 36 44 36zM196 624l325 -190q27 -16 27 -38q0 -6 -1 -10l-8 -37q-7 -31 -47 -48l-405 -190q-12 -5 -17 -5q-14 0 -14 18q0 7 1 11l9 46q6 29 46 47l310 139l-251 141
q-27 14 -27 36q0 7 1 11l10 46q7 28 27 28q6 0 14 -5z" />
    <glyph glyph-name="lozenge" unicode="&#x25ca;" horiz-adv-x="705" 
d="M312 141l247 234l-146 234l-245 -234zM650 344l-329 -308q-13 -13 -34 -13q-17 0 -27 13l-198 309q-5 12 -5 21q0 25 18 40l328 308q14 13 34 13q18 0 28 -13l198 -309q7 -10 7 -21q0 -22 -20 -40z" />
    <glyph glyph-name="dotlessj" unicode="&#xf6be;" horiz-adv-x="302" 
d="M-109 -188h-11q-29 0 -29 27q0 5 3 17l3 24q7 36 45 36q62 0 95.5 33.5t47.5 100.5l84 393h-51q-29 0 -29 27q0 2 3 17l4 24q7 36 45 36h137q30 0 30 -26q0 -6 -1 -10l-98 -459q-51 -240 -278 -240z" />
    <glyph glyph-name="commaaccent" unicode="&#xf6c3;" horiz-adv-x="174" 
d="M-83 -155l35 70q13 26 29 36t42 10h16q23 0 23 -25q0 -26 -15 -43l-43 -49q-2 -2 -7.5 -8.5t-7.5 -8.5l-7 -7t-7.5 -6.5t-7 -4t-8.5 -3.5t-8 -1h-20q-22 0 -22 14q0 10 8 26z" />
    <glyph glyph-name="a.superior" horiz-adv-x="538" 
d="M551 714l-87 -363q-7 -28 -38 -28h-43q-27 0 -27 21q0 8 2 10l10 43l-40 -28q-77 -52 -142 -52q-55 0 -86 25t-31 72q0 18 11 65l13 55q24 104 98.5 157t190.5 53h144q26 0 26 -20q0 -7 -1 -10zM224 399q42 0 118 51l46 30l43 185h-63q-69 0 -109 -31t-59 -98l-13 -47
q-7 -45 -7 -51q0 -21 10 -30t34 -9z" />
    <glyph glyph-name="b.superior" horiz-adv-x="538" 
d="M304 870l-48 -200l42 28q75 52 142 52q54 0 85 -25t31 -72q0 -20 -10 -65l-14 -54q-53 -211 -289 -211h-144q-27 0 -27 21q0 8 2 10l124 519q6 27 37 27h44q27 0 27 -19q0 -5 -2 -11zM283 617l-47 -30l-44 -184h65q70 0 110.5 30t58.5 98l11 47q9 42 9 51q0 21 -10 30
t-34 9q-44 0 -119 -51z" />
    <glyph glyph-name="c.superior" horiz-adv-x="451" 
d="M385 629l7 31q-24 12 -59 12q-53 0 -82.5 -24t-43.5 -81l-15 -62q-8 -36 -8 -51q0 -34 22 -46t67 -12q63 0 110 18q9 3 14 3q14 0 14 -12q0 -5 -3 -11l-6 -26q-5 -22 -33 -31q-62 -20 -118 -20q-176 0 -176 118q0 22 11 66l17 69q43 180 250 180q85 0 145 -29l-24 -95
q-6 -28 -37 -28h-28q-25 0 -25 20q0 9 1 11z" />
    <glyph glyph-name="d.superior" horiz-adv-x="538" 
d="M588 870l-123 -519q-7 -28 -38 -28h-43q-27 0 -27 21q0 8 2 10l10 44l-41 -29q-77 -52 -142 -52q-55 0 -86 25t-31 72q0 18 11 65l13 55q24 104 98.5 157t190.5 53h69l31 129q6 27 39 27h42q27 0 27 -19q0 -5 -2 -11zM224 399q42 0 118 51l47 31l43 184h-64
q-69 0 -109 -31t-59 -98l-13 -47q-7 -45 -7 -51q0 -21 10 -30t34 -9z" />
    <glyph glyph-name="e.superior" horiz-adv-x="489" 
d="M385 336q-63 -19 -137 -19q-173 0 -173 120q0 21 9 59l19 74q23 91 88.5 135.5t165.5 44.5q68 0 112.5 -26t44.5 -79q0 -72 -54 -104.5t-145 -32.5h-122l-1 -5q-8 -27 -8 -50q0 -33 22.5 -45t66.5 -12q68 0 124 17q9 3 15 3q14 0 14 -13q0 -6 -2 -12l-5 -24
q-6 -22 -34 -31zM209 571l-1 -3h112q92 0 92 64q0 42 -73 42q-53 0 -84.5 -23.5t-45.5 -79.5z" />
    <glyph glyph-name="f.superior" horiz-adv-x="305" 
d="M90 354l74 311h-44q-25 0 -25 20q0 1 0.5 5t0.5 6l6 21q5 27 38 27h43l4 16q16 69 66 104.5t128 35.5h40q25 0 25 -19q0 -4 -2 -10l-4 -17q-5 -28 -38 -28h-18q-75 0 -92 -70l-3 -12h72q27 0 27 -20q0 -4 -2 -10l-5 -22q-8 -27 -39 -27h-72l-75 -314q-7 -28 -38 -28h-43
q-26 0 -26 21q0 8 2 10z" />
    <glyph glyph-name="g.superior" horiz-adv-x="538" 
d="M547 714l-79 -333q-25 -107 -97 -154.5t-201 -47.5h-77q-27 0 -27 20q0 5 2 11l5 20q8 29 39 29h57q89 0 133.5 27.5t58.5 89.5l5 23q-100 -51 -170 -51q-119 0 -119 104q0 30 7 51l12 46q48 195 267 195h159q27 0 27 -20q0 -4 -2 -10zM236 430q55 0 149 46l44 189h-81
q-65 0 -100 -30.5t-50 -91.5l-8 -36q-5 -15 -5 -31q0 -27 11.5 -36.5t39.5 -9.5z" />
    <glyph glyph-name="h.superior" horiz-adv-x="556" 
d="M372 354l56 236q7 23 7 41q0 37 -42 37q-7 0 -15.5 -2t-15.5 -4t-17 -7t-15.5 -8t-16.5 -9.5t-15.5 -9t-15.5 -10t-13 -8.5l-37 -24h-1l-56 -235q-7 -28 -37 -28h-44q-27 0 -27 21q0 8 2 10l123 519q6 27 38 27h44q26 0 26 -19q0 -8 -1 -11l-48 -201l36 25q84 56 150 56
q51 0 80 -22.5t29 -65.5q0 -22 -7 -55l-60 -256q-8 -28 -39 -28h-44q-25 0 -25 21q0 1 1 6v4z" />
    <glyph glyph-name="i.superior" horiz-adv-x="270" 
d="M282 714l-87 -363q-7 -28 -38 -28h-43q-26 0 -26 21q0 8 2 10l73 311h-43q-25 0 -25 20q0 5 2 13l4 19q5 27 38 27h119q25 0 25 -20q0 -1 -0.5 -4.5t-0.5 -5.5zM318 869l-6 -27q-5 -28 -38 -28h-44q-26 0 -26 21q0 7 2 11l6 27q6 27 38 27h44q25 0 25 -19q0 -2 -0.5 -6.5
t-0.5 -5.5z" />
    <glyph glyph-name="j.superior" horiz-adv-x="272" 
d="M-36 179h-9q-25 0 -25 20q0 2 3 14l3 17q5 29 39 29q53 0 81.5 25.5t40.5 76.5l73 304h-44q-25 0 -25 20q0 5 2 13l3 19q5 27 39 27h119q24 0 24 -20v-7l-84 -354q-44 -184 -240 -184zM324 869l-6 -27q-7 -28 -38 -28h-44q-26 0 -26 21q0 7 2 11l6 27q6 27 38 27h44
q25 0 25 -19q0 -2 -0.5 -6.5t-0.5 -5.5z" />
    <glyph glyph-name="k.superior" horiz-adv-x="502" 
d="M311 870l-67 -280h40l150 127q34 27 53 27h62q20 0 20 -11q0 -5 -11 -16l-195 -162l115 -204q2 -6 2 -11q0 -17 -24 -17h-60q-26 0 -42 28l-88 159h-41l-38 -159q-7 -28 -38 -28h-44q-26 0 -26 21q0 8 2 10l123 519q8 27 38 27h44q26 0 26 -19q0 -8 -1 -11z" />
    <glyph glyph-name="l.superior" horiz-adv-x="262" 
d="M309 870l-123 -519q-8 -28 -39 -28h-43q-26 0 -26 21q0 9 1 10l111 467h-43q-26 0 -26 21q0 5 2 11l5 20q6 27 39 27h117q27 0 27 -19q0 -5 -2 -11z" />
    <glyph glyph-name="m.superior" horiz-adv-x="851" 
d="M374 354l56 236q7 30 7 41q0 20 -9.5 28.5t-31.5 8.5q-37 0 -123 -58l-35 -23l-56 -236q-7 -28 -38 -28h-43q-27 0 -27 21q0 8 2 10l86 363q8 27 38 27h44q26 0 26 -20q0 -7 -1 -10l-10 -43l33 23q84 56 148 56q49 0 77.5 -21t29.5 -62h3l39 27q84 56 149 56
q50 0 78.5 -22.5t28.5 -65.5q0 -22 -7 -55l-61 -256q-7 -28 -38 -28h-43q-26 0 -26 21q0 8 2 10l55 236q6 26 6 41q0 20 -9.5 28.5t-31.5 8.5q-36 0 -122 -58l-35 -23l-56 -236q-5 -28 -37 -28h-44q-26 0 -26 21q0 8 2 10z" />
    <glyph glyph-name="n.superior" horiz-adv-x="556" 
d="M372 354l56 236q7 23 7 41q0 37 -42 37q-41 0 -124 -58l-36 -23l-56 -236q-7 -28 -38 -28h-43q-27 0 -27 21q0 8 2 10l86 363q8 27 38 27h44q26 0 26 -20q0 -1 -0.5 -4.5t-0.5 -5.5l-10 -43l33 23q84 56 150 56q51 0 80 -22.5t29 -65.5q0 -22 -7 -55l-60 -256
q-8 -28 -39 -28h-44q-25 0 -25 21q0 1 1 6v4z" />
    <glyph glyph-name="o.superior" horiz-adv-x="524" 
d="M251 317q-82 0 -131.5 38.5t-49.5 109.5q0 121 79 203t205 82q85 0 132.5 -37t47.5 -110q0 -123 -76 -204.5t-207 -81.5zM270 396q69 0 113 58.5t44 132.5q0 44 -22 64.5t-69 20.5q-71 0 -114.5 -58t-43.5 -134q0 -84 92 -84z" />
    <glyph glyph-name="p.superior" horiz-adv-x="538" 
d="M269 714l-11 -44l42 28q73 52 142 52q54 0 85 -25t31 -72q0 -22 -12 -65l-12 -54q-24 -104 -98.5 -157.5t-190.5 -53.5h-70l-27 -116q-6 -28 -38 -28h-44q-25 0 -25 20q0 1 0.5 5.5t0.5 5.5l120 507q8 27 38 27h44q26 0 26 -20q0 -7 -1 -10zM284 617l-46 -31l-44 -183h64
q71 0 111.5 30t57.5 98l11 47q10 35 10 51q0 22 -10.5 30.5t-34.5 8.5q-47 0 -119 -51z" />
    <glyph glyph-name="q.superior" horiz-adv-x="538" 
d="M552 714l-120 -507q-8 -28 -38 -28h-44q-26 0 -26 20q0 9 1 11l44 188l-41 -29q-77 -52 -142 -52q-55 0 -86 25t-31 72q0 18 11 65l13 55q24 104 98.5 157t190.5 53h145q26 0 26 -20q0 -1 -0.5 -4.5t-0.5 -5.5zM224 399q42 0 118 51l47 30l43 185h-64q-69 0 -109 -31
t-59 -98l-13 -47q-7 -45 -7 -51q0 -21 10 -30t34 -9z" />
    <glyph glyph-name="r.superior" horiz-adv-x="357" 
d="M409 747h4q24 0 24 -20v-8l-7 -34q-6 -28 -39 -28h-8q-30 0 -59 -11t-44 -21t-41 -31l-54 -230q-11 -41 -41 -41h-44q-27 0 -27 20q0 1 5 21l81 339q5 21 14 31t27 10h44q26 0 26 -20q0 -2 -12 -56q32 34 72.5 56.5t78.5 22.5z" />
    <glyph glyph-name="s.superior" horiz-adv-x="453" 
d="M443 743q24 -3 24 -21q0 -2 -2 -14l-4 -20q-6 -24 -30 -24q-4 0 -20.5 2.5t-21.5 2.5q-27 4 -65 4q-98 0 -98 -50q0 -27 45 -40l66 -18q51 -13 80 -37.5t29 -71.5q0 -73 -69.5 -106t-172.5 -33q-51 0 -114 9q-24 3 -24 24q0 9 2 14l4 18q7 24 30 24q3 0 28 -5
q34 -6 90 -6q116 0 116 54q0 13 -9 22t-16.5 11.5t-25.5 7.5l-70 21q-47 12 -74 36t-27 69q0 68 64.5 101t157.5 33q49 0 107 -7z" />
    <glyph glyph-name="t.superior" horiz-adv-x="348" 
d="M294 323h-42q-66 0 -105 28.5t-39 84.5q0 26 6 48l44 181h-44q-26 0 -26 20q0 5 2 11l5 21q7 27 38 27h44l18 74q7 28 37 28h44q26 0 26 -21q0 -6 -2 -12l-17 -69h89q25 0 25 -20q0 -1 -0.5 -4.5t-0.5 -5.5l-5 -22q-8 -27 -38 -27h-88l-40 -170q-9 -39 -9 -44
q0 -30 17.5 -40.5t59.5 -10.5h19q27 0 27 -19q0 -5 -2 -11l-5 -19q-8 -28 -38 -28z" />
    <glyph glyph-name="u.superior" horiz-adv-x="556" 
d="M259 713l-55 -234q-7 -25 -7 -42q0 -38 42 -38q37 0 124 58l35 23l57 237q7 27 37 27h44q26 0 26 -20q0 -9 -1 -11l-87 -362q-7 -28 -37 -28h-44q-27 0 -27 21q0 4 2 10l10 42l-33 -22q-83 -57 -152 -57q-50 0 -78.5 23t-28.5 65q0 23 7 55l60 257q7 27 38 27h43
q27 0 27 -20q0 -7 -2 -11z" />
    <glyph glyph-name="v.superior" horiz-adv-x="471" 
d="M516 713l-18 -69q-28 -107 -87.5 -188.5t-129.5 -132.5h-116q-30 41 -50 103t-20 129q0 47 9 91l17 71q8 27 38 27h43q26 0 26 -20q0 -9 -1 -11l-17 -71q-11 -44 -11 -87q0 -105 43 -166q42 31 86.5 103t63.5 152l17 73q8 27 38 27h44q26 0 26 -20q0 -1 -0.5 -5.5
t-0.5 -5.5z" />
    <glyph glyph-name="w.superior" horiz-adv-x="696" 
d="M744 713l-19 -77q-26 -97 -81.5 -182.5t-115.5 -130.5h-113q-16 22 -30 59t-15 67q-13 -26 -47.5 -65.5t-59.5 -60.5h-117q-53 76 -53 198q0 52 13 115l17 81q7 27 38 27h43q26 0 26 -20q0 -1 -0.5 -5.5t-0.5 -5.5l-17 -77q-14 -62 -14 -115q0 -84 31 -132
q45 39 81 105.5t52 141.5l18 81q7 27 38 27h44q25 0 25 -20q0 -1 -0.5 -5.5t-0.5 -5.5l-17 -77q-13 -63 -13 -115q0 -91 29 -132q42 38 78 104.5t55 142.5l20 81q7 27 38 27h44q25 0 25 -20q0 -1 -0.5 -5.5t-0.5 -5.5z" />
    <glyph glyph-name="x.superior" horiz-adv-x="441" 
d="M300 351l-53 106l-104 -106q-28 -28 -50 -28h-53q-21 0 -21 12q0 8 8 16l181 184l-90 182q-4 5 -4 10q0 17 26 17h47q26 0 41 -27l53 -107l105 107q27 27 51 27h51q22 0 22 -12q0 -5 -10 -15l-181 -185l90 -181q4 -5 4 -11q0 -17 -26 -17h-47q-25 0 -40 28z" />
    <glyph glyph-name="y.superior" horiz-adv-x="553" 
d="M260 713l-38 -157q-12 -56 -12 -62q0 -24 12 -32.5t42 -8.5q47 0 138 38l54 226q7 27 37 27h44q26 0 26 -20q0 -1 -0.5 -5.5t-0.5 -5.5l-81 -332q-24 -104 -94.5 -153t-200.5 -49h-75q-26 0 -26 20q0 5 2 11l4 19q8 27 39 27h56q90 0 131.5 29t57.5 92l10 43
q-99 -48 -164 -48q-120 0 -120 102q0 14 10 64l43 179q7 27 38 27h43q27 0 27 -20q0 -7 -2 -11z" />
    <glyph glyph-name="z.superior" horiz-adv-x="450" 
d="M372 323h-313q-26 0 -26 22q0 7 2 9l2 13q5 18 25 33q179 141 291 265h-203q-26 0 -26 20q0 5 2 11l5 21q7 27 38 27h296q26 0 26 -20q0 -5 -2 -11l-3 -10q-4 -19 -19 -41q-44 -56 -132.5 -137t-147.5 -122h204q26 0 26 -20q0 -6 -2 -12l-5 -20q-7 -28 -38 -28z" />
    <glyph glyph-name="zero.numerator" horiz-adv-x="508" 
d="M239 320q-139 0 -139 130q0 55 15 107.5t44 97.5t77 72.5t107 27.5q140 0 140 -131q0 -55 -14.5 -107.5t-43 -97.5t-77 -72t-109.5 -27zM253 391q59 0 95.5 73t36.5 158q0 62 -55 62q-59 0 -95.5 -73t-36.5 -158q0 -62 55 -62z" />
    <glyph glyph-name="one.numerator" horiz-adv-x="508" 
d="M296 656l-107 -33q-4 -2 -12 -2q-17 0 -17 17q0 6 7 32q5 23 34 32l141 44q11 4 24 4h19q26 0 26 -20q0 -6 -1 -9l-93 -371q-7 -26 -35 -26h-36q-27 0 -27 22q0 7 1 9z" />
    <glyph glyph-name="two.numerator" horiz-adv-x="508" 
d="M394 324h-265q-29 0 -29 22q0 5 9 44q19 82 122 130l70 32q44 20 63.5 40t19.5 47q0 39 -69 39h-107q-27 0 -27 21q0 5 5 25q5 26 36 26h118q65 0 104 -29t39 -76q0 -52 -36 -87t-110 -69l-54 -25q-34 -17 -50.5 -31.5t-22.5 -36.5h198q28 0 28 -20q0 -6 -6 -26
q-6 -26 -36 -26z" />
    <glyph glyph-name="three.numerator" horiz-adv-x="508" 
d="M236 324h-113q-28 0 -28 23q0 5 5 25q6 24 36 24h108q104 0 104 73q0 21 -21 32t-54 11h-47q-28 0 -28 21q0 5 4 22q6 24 36 24h75q64 27 64 66q0 33 -65 33h-108q-27 0 -27 21q0 5 5 25q7 26 37 26h114q66 0 105 -23t39 -71q0 -70 -81 -103q49 -30 49 -84
q0 -69 -55.5 -107t-153.5 -38z" />
    <glyph glyph-name="four.numerator" horiz-adv-x="508" 
d="M104 453q2 11 11 22q48 52 93.5 122.5t69.5 128.5q4 9 15 16.5t22 7.5h40q26 0 26 -18q0 -4 -3 -12q-42 -103 -161 -240h104l21 78q6 24 36 24h36q26 0 26 -20q0 -8 -3 -17l-16 -65h20q28 0 28 -20q0 -6 -6 -25q-8 -26 -37 -26h-24l-13 -59q-7 -26 -36 -26h-37
q-27 0 -27 23q0 4 1 7l14 55h-177q-28 0 -28 21q0 6 5 23z" />
    <glyph glyph-name="five.numerator" horiz-adv-x="508" 
d="M447 678h-170l-21 -80h42q73 0 112.5 -29t39.5 -84q0 -71 -58 -116t-159 -45h-112q-27 0 -27 23q0 5 5 23q5 26 37 26h108q49 0 78.5 23.5t29.5 60.5q0 43 -79 43h-94q-29 0 -29 23q0 5 1 8l44 171q3 11 13 18t23 7h231q27 0 27 -22q0 -4 -5 -26q-5 -24 -37 -24z" />
    <glyph glyph-name="six.numerator" horiz-adv-x="508" 
d="M438 678h-62q-48 0 -83 -24t-48 -67q39 15 82 15q63 0 96 -30t33 -81q0 -74 -54.5 -122.5t-149.5 -48.5q-67 0 -104 26.5t-37 77.5q0 15 6 43l29 116q19 77 82 122t163 45h61q28 0 28 -21q0 -5 -4 -27q-5 -24 -38 -24zM306 529q-31 0 -78 -15l-14 -52q-4 -13 -4 -28
q0 -42 54 -42q42 0 68 25t26 72q0 40 -52 40z" />
    <glyph glyph-name="seven.numerator" horiz-adv-x="508" 
d="M376 677h-202q-28 0 -28 21q0 5 6 26q7 26 36 26h291q26 0 26 -21q0 -4 -5 -25q-3 -11 -12 -17q-179 -153 -223 -320l-5 -17q-7 -26 -37 -26h-36q-28 0 -28 20q0 4 2 10l5 13q69 194 210 310z" />
    <glyph glyph-name="eight.numerator" horiz-adv-x="508" 
d="M233 320q-63 0 -100.5 25t-37.5 74q0 38 24.5 69.5t64.5 51.5l15 8q-45 29 -45 79q0 61 55 94.5t129 33.5h17q57 0 94.5 -25t37.5 -70q0 -58 -78 -109l-12 -8q50 -34 50 -85q0 -62 -56.5 -100t-138.5 -38h-19zM306 501l-39 18l-21 -15q-51 -38 -51 -74t57 -36h12
q36 0 61 17t25 47q0 23 -44 43zM251 629q0 -20 36 -37l40 -18l16 11q46 31 46 67q0 32 -51 32h-19q-30 0 -49 -14.5t-19 -40.5z" />
    <glyph glyph-name="nine.numerator" horiz-adv-x="508" 
d="M201 324h-66q-29 0 -29 23q0 4 5 23q5 26 36 26h67q48 0 83 24t47 68q-36 -14 -83 -14q-62 0 -95.5 30t-33.5 79q0 75 52 123.5t148 48.5q68 0 106 -29.5t38 -80.5q0 -31 -5 -46l-28 -108q-42 -167 -242 -167zM284 545q37 0 79 17l12 43q4 16 4 32q0 46 -57 46
q-43 0 -67 -25.5t-24 -72.5q0 -40 53 -40z" />
    <glyph glyph-name="zero.denominator" horiz-adv-x="508" 
d="M181 -4q-69 0 -104.5 33.5t-35.5 96.5q0 55 15 107.5t44 97.5t77 72.5t107 27.5q141 0 141 -131q0 -55 -14.5 -107.5t-43 -97.5t-77 -72t-109.5 -27zM194 66q59 0 95.5 73.5t36.5 158.5q0 32 -13 46.5t-42 14.5q-40 0 -71 -37.5t-45.5 -89t-14.5 -103.5q0 -63 54 -63z
" />
    <glyph glyph-name="one.denominator" horiz-adv-x="508" 
d="M237 332l-106 -33q-5 -2 -13 -2q-16 0 -16 16q0 6 6 33q6 23 35 32l140 44q11 4 25 4h18q27 0 27 -20q0 -7 -1 -10l-93 -371q-7 -25 -35 -25h-37q-27 0 -27 21q0 7 1 10z" />
    <glyph glyph-name="two.denominator" horiz-adv-x="508" 
d="M335 0h-265q-29 0 -29 21q0 5 10 44q19 83 122 130l69 33q45 20 64 39t19 47q0 40 -68 40h-108q-27 0 -27 21q0 5 5 24q7 27 36 27h118q65 0 104.5 -29t39.5 -77q0 -52 -36.5 -86t-110.5 -69l-53 -25q-35 -17 -51.5 -31.5t-22.5 -36.5h199q27 0 27 -20q0 -6 -6 -27
q-7 -25 -36 -25z" />
    <glyph glyph-name="three.denominator" horiz-adv-x="508" 
d="M178 0h-114q-28 0 -28 22q0 5 5 26q6 24 36 24h109q103 0 103 73q0 42 -74 42h-48q-27 0 -27 22q0 5 4 21q5 25 36 25h75q63 27 63 65q0 34 -64 34h-108q-28 0 -28 21q0 5 5 24q7 27 37 27h114q66 0 105 -23.5t39 -70.5q0 -70 -81 -103q50 -31 50 -84q0 -69 -55.5 -107
t-153.5 -38z" />
    <glyph glyph-name="four.denominator" horiz-adv-x="508" 
d="M45 129q4 13 12 21q47 52 93 123t70 128q10 25 37 25h40q25 0 25 -18q0 -6 -3 -12q-43 -107 -161 -240h105l20 77q6 25 36 25h36q27 0 27 -20q0 -8 -3 -17l-17 -65h21q27 0 27 -20q0 -6 -6 -26q-8 -25 -37 -25h-23l-14 -60q-7 -25 -36 -25h-36q-28 0 -28 22q0 4 1 7
l14 56h-177q-28 0 -28 20q0 6 5 24z" />
    <glyph glyph-name="five.denominator" horiz-adv-x="508" 
d="M389 354h-170l-22 -81h42q73 0 113 -29t40 -83q0 -72 -58 -116.5t-159 -44.5h-113q-12 0 -19.5 6.5t-7.5 15.5q0 5 5 24q6 26 37 26h109q48 0 77.5 23.5t29.5 60.5q0 43 -78 43h-95q-28 0 -28 23q0 5 1 7l44 171q7 26 36 26h230q28 0 28 -23q0 -4 -5 -25q-4 -24 -37 -24z
" />
    <glyph glyph-name="six.denominator" horiz-adv-x="508" 
d="M380 354h-63q-48 0 -83 -24t-47 -67q39 14 82 14q62 0 95 -30t33 -80q0 -74 -54.5 -122.5t-149.5 -48.5q-67 0 -103.5 26.5t-36.5 77.5q0 15 6 43l28 116q19 77 82 122t163 45h62q28 0 28 -22q0 -5 -5 -26q-5 -24 -37 -24zM247 205q-34 0 -78 -16l-14 -51q-4 -13 -4 -29
q0 -42 54 -42q43 0 69 25.5t26 72.5q0 40 -53 40z" />
    <glyph glyph-name="seven.denominator" horiz-adv-x="508" 
d="M317 353h-202q-27 0 -27 21q0 5 6 25q7 27 36 27h290q26 0 26 -21q0 -5 -5 -25q-3 -11 -11 -18q-179 -150 -224 -319l-5 -18q-7 -25 -37 -25h-36q-27 0 -27 20q0 3 2 9l4 14q68 190 210 310z" />
    <glyph glyph-name="eight.denominator" horiz-adv-x="508" 
d="M175 -4q-63 0 -101 25t-38 74q0 37 24.5 68.5t64.5 52.5l16 8q-45 28 -45 79q0 61 54.5 94.5t128.5 33.5h18q56 0 94 -25.5t38 -69.5q0 -57 -78 -109l-12 -8q50 -35 50 -85q0 -63 -57 -100.5t-139 -37.5h-18zM247 177l-39 17l-21 -14q-50 -37 -50 -75q0 -36 56 -36h12
q36 0 61 17.5t25 47.5q0 23 -44 43zM192 305q0 -23 37 -37l40 -18l15 11q46 31 46 67q0 31 -51 31h-18q-30 0 -49.5 -14.5t-19.5 -39.5z" />
    <glyph glyph-name="nine.denominator" horiz-adv-x="508" 
d="M143 0h-67q-28 0 -28 22q0 4 5 24q6 26 36 26h66q49 0 84 24t46 68q-34 -15 -83 -15q-62 0 -95.5 30t-33.5 80q0 75 52.5 123.5t147.5 48.5q68 0 106 -29.5t38 -81.5q0 -29 -5 -46l-27 -107q-43 -167 -242 -167zM226 221q33 0 79 16l11 44q4 16 4 31q0 46 -56 46
q-43 0 -67 -25t-24 -72q0 -40 53 -40z" />
    <glyph glyph-name="Gcedilla" horiz-adv-x="703" 
d="M426 281q-30 0 -30 27q0 5 8 42q8 36 45 36h181q29 0 29 -26q0 -2 -3 -17l-65 -308q-39 -16 -104 -29.5t-116 -13.5h-57q-127 0 -197.5 60.5t-70.5 181.5q0 45 11 94l19 96q34 169 143 251.5t280 82.5q95 0 179 -29q29 -10 29 -34q0 -6 -9 -47q-6 -29 -30 -29q-8 0 -15 3
q-78 31 -172 31q-225 0 -274 -231l-19 -88q-9 -49 -9 -82q0 -80 41.5 -117.5t127.5 -37.5h41q48 0 99 17l35 167h-97zM228 -155l35 70q13 26 29 36t42 10h16q23 0 23 -25q0 -26 -15 -43l-43 -49q-2 -2 -7.5 -8.5t-7.5 -8.5l-7 -7t-7.5 -6.5t-7 -4t-8.5 -3.5t-8 -1h-20
q-22 0 -22 14q0 10 8 26z" />
    <glyph glyph-name="gcedilla" horiz-adv-x="611" 
d="M575 507l-92 -433q-29 -137 -113 -199.5t-233 -62.5h-90q-30 0 -30 27q0 7 2 15l5 26q8 36 45 36h67q103 0 154.5 36t68.5 116l6 32q-116 -69 -198 -69q-139 0 -139 137q0 35 8 65l14 60q58 254 311 254h186q30 0 30 -26q0 -6 -2 -14zM214 138q61 0 172 60l52 245h-94
q-76 0 -117 -39t-57 -119l-10 -47q-7 -26 -7 -41q0 -33 14 -46t47 -13zM464 710l-35 -70q-12 -26 -28.5 -36t-42.5 -10h-16q-23 0 -23 25q0 23 16 43l43 49q2 2 7.5 8t7.5 8.5t6.5 7t7.5 6.5t7 4.5t8 3.5t8 1h21q21 0 21 -15q0 -9 -8 -25z" />
    <glyph glyph-name="Kcedilla" horiz-adv-x="681" 
d="M28 41l144 673q8 36 44 36h55q31 0 31 -26q0 -7 -2 -15l-57 -266h44l283 271q39 36 63 36h83q19 0 19 -14q0 -8 -14 -22l-342 -318l215 -360q6 -11 6 -18q0 -18 -26 -18h-73q-30 0 -53 36l-179 302h-49l-64 -302q-8 -36 -44 -36h-55q-31 0 -31 26q0 7 2 15zM178 -155
l35 70q13 26 29 36t42 10h16q23 0 23 -25q0 -26 -15 -43l-43 -49q-2 -2 -7.5 -8.5t-7.5 -8.5l-7 -7t-7.5 -6.5t-7 -4t-8.5 -3.5t-8 -1h-20q-22 0 -22 14q0 10 8 26z" />
    <glyph glyph-name="kcedilla" horiz-adv-x="571" 
d="M296 710l-78 -364h48l173 165q39 36 63 36h71q24 0 24 -14q0 -9 -14 -22l-226 -210l133 -265q4 -7 4 -15q0 -21 -29 -21h-70q-29 0 -47 36l-104 206h-48l-44 -206q-8 -36 -44 -36h-50q-31 0 -31 26q0 9 2 15l144 673q8 36 44 36h51q30 0 30 -26q0 -6 -2 -14zM135 -155
l35 70q13 26 29 36t42 10h16q23 0 23 -25q0 -26 -15 -43l-43 -49q-2 -2 -7.5 -8.5t-7.5 -8.5l-7 -7t-7.5 -6.5t-7 -4t-8.5 -3.5t-8 -1h-20q-22 0 -22 14q0 10 8 26z" />
    <glyph glyph-name="Lcedilla" horiz-adv-x="551" 
d="M423 0h-202q-76 0 -120.5 34t-44.5 103q0 34 8 66l109 511q8 36 44 36h56q30 0 30 -26q0 -7 -2 -15l-107 -493q-7 -49 -7 -54q0 -33 17.5 -45.5t57.5 -12.5h184q30 0 30 -26q0 -6 -8 -42t-45 -36zM144 -155l35 70q13 26 29 36t42 10h16q23 0 23 -25q0 -26 -15 -43
l-43 -49q-2 -2 -7.5 -8.5t-7.5 -8.5l-7 -7t-7.5 -6.5t-7 -4t-8.5 -3.5t-8 -1h-20q-22 0 -22 14q0 10 8 26z" />
    <glyph glyph-name="lcedilla" horiz-adv-x="295" 
d="M302 710l-144 -674q-8 -36 -44 -36h-51q-30 0 -30 26q0 9 2 15l129 605h-50q-30 0 -30 27q0 8 2 14l6 27q8 36 45 36h136q31 0 31 -26q0 -6 -2 -14zM-31 -155l35 70q13 26 29 36t42 10h16q23 0 23 -25q0 -26 -15 -43l-43 -49q-2 -2 -7.5 -8.5t-7.5 -8.5l-7 -7t-7.5 -6.5
t-7 -4t-8.5 -3.5t-8 -1h-20q-22 0 -22 14q0 10 8 26z" />
    <glyph glyph-name="Ncedilla" horiz-adv-x="756" 
d="M756 709l-145 -673q-8 -36 -44 -36h-42q-28 0 -37 20l-230 498l-102 -482q-8 -36 -44 -36h-55q-31 0 -31 26q0 7 2 15l145 673q8 36 43 36h44q27 0 36 -20l229 -498l103 482q8 36 44 36h56q30 0 30 -26q0 -7 -2 -15zM207 -155l35 70q13 26 29 36t42 10h16q23 0 23 -25
q0 -26 -15 -43l-43 -49q-2 -2 -7.5 -8.5t-7.5 -8.5l-7 -7t-7.5 -6.5t-7 -4t-8.5 -3.5t-8 -1h-20q-22 0 -22 14q0 10 8 26z" />
    <glyph glyph-name="ncedilla" horiz-adv-x="645" 
d="M380 41l64 305q8 34 8 53q0 27 -11.5 38t-37.5 11q-43 0 -144 -75l-42 -31l-65 -306q-8 -36 -44 -36h-50q-31 0 -31 26q0 9 2 15l101 470q8 36 44 36h51q30 0 30 -26q0 -6 -2 -14l-12 -56l39 30q97 74 176 74q58 0 91.5 -29.5t33.5 -85.5q0 -33 -8 -71l-70 -333
q-8 -36 -44 -36h-51q-30 0 -30 26q0 9 2 15zM147 -155l35 70q13 26 29 36t42 10h16q23 0 23 -25q0 -26 -15 -43l-43 -49q-2 -2 -7.5 -8.5t-7.5 -8.5l-7 -7t-7.5 -6.5t-7 -4t-8.5 -3.5t-8 -1h-20q-22 0 -22 14q0 10 8 26z" />
    <glyph glyph-name="Rcedilla" horiz-adv-x="667" 
d="M28 41l144 673q8 36 44 36h210q100 0 159 -48t59 -137q0 -95 -47.5 -163.5t-134.5 -105.5q31 -37 59 -102t41 -130q6 -33 6 -36q0 -28 -31 -28h-59q-38 0 -43 36q-13 67 -39 130t-57 94h-135l-48 -224q-8 -36 -44 -36h-55q-31 0 -31 26q0 7 2 15zM393 646h-107l-59 -281
h98q83 0 133.5 49.5t50.5 135.5q0 96 -116 96zM179 -155l35 70q13 26 29 36t42 10h16q23 0 23 -25q0 -26 -15 -43l-43 -49q-2 -2 -7.5 -8.5t-7.5 -8.5l-7 -7t-7.5 -6.5t-7 -4t-8.5 -3.5t-8 -1h-20q-22 0 -22 14q0 10 8 26z" />
    <glyph glyph-name="rcedilla" horiz-adv-x="420" 
d="M418 550h4q29 0 29 -27q0 -6 -1 -9l-9 -44q-6 -36 -45 -36h-9q-35 0 -68.5 -14.5t-50 -27t-48.5 -40.5l-64 -299q-6 -27 -16 -40t-31 -13h-51q-31 0 -31 25q0 3 5 28l95 440q6 27 16 40.5t32 13.5h51q29 0 29 -26q0 -9 -14 -73q37 44 85 73t92 29zM-41 -155l35 70
q13 26 29 36t42 10h16q23 0 23 -25q0 -26 -15 -43l-43 -49q-2 -2 -7.5 -8.5t-7.5 -8.5l-7 -7t-7.5 -6.5t-7 -4t-8.5 -3.5t-8 -1h-20q-22 0 -22 14q0 10 8 26z" />
    <glyph glyph-name="caronquoteleft" horiz-adv-x="175" 
d="M230 710l-35 -70q-12 -26 -28.5 -36t-42.5 -10h-16q-23 0 -23 25q0 23 16 43l43 49q2 2 7.5 8t7.5 8.5t6.5 7t7.5 6.5t7 4.5t8 3.5t8 1h21q21 0 21 -15q0 -9 -8 -25z" />
    <glyph glyph-name="caronquoteright" horiz-adv-x="174" 
d="M85 634l35 70q13 26 29 36t42 10h16q23 0 23 -25q0 -26 -15 -43l-43 -49q-2 -2 -7.5 -8.5t-7.5 -8.5l-7 -7t-7.5 -6.5t-7 -4t-8.5 -3.5t-8 -1h-20q-22 0 -22 14q0 10 8 26z" />
    </font>
</defs>
</svg>
